<?xml version="1.0" encoding="utf-8"?>
<svg version="1.1" id="Layer_1" x="0px" y="0px" viewBox="0 0 12.976 7.2512" style="enable-background:new 0 0 15.32082 6.2512;" xmlns="http://www.w3.org/2000/svg">
  <style>
    path, circle {
      fill: #000000;
    }
    @media (prefers-color-scheme: dark) {
      path, circle {
        fill: #ffffff;
      }
    }
  </style>
  <path id="XMLID_71_" d="M 9.932 1.703 C 9.661 0.864 8.822 0.346 7.932 0.487 C 7.238 0.596 6.674 1.113 6.489 1.78 C 6.305 1.113 5.741 0.596 5.047 0.487 C 4.606 0.417 4.182 0.514 3.831 0.728 C 3.776 0.76 3.723 0.796 3.673 0.834 C 3.66 0.843 3.647 0.852 3.635 0.861 C 3.368 1.073 3.16 1.359 3.049 1.703 C 2.977 1.703 2.334 1.732 2.334 1.732 L 2.334 1.983 C 2.334 2.023 2.335 2.061 2.337 2.098 C 2.34 2.147 2.347 2.194 2.354 2.241 L 2.354 2.241 C 2.354 2.244 2.355 2.247 2.356 2.249 C 2.362 2.285 2.371 2.319 2.38 2.354 C 2.385 2.372 2.389 2.391 2.394 2.408 C 2.404 2.438 2.416 2.467 2.428 2.495 C 2.436 2.516 2.444 2.536 2.454 2.556 C 2.465 2.579 2.478 2.6 2.491 2.622 C 2.505 2.645 2.518 2.668 2.533 2.69 C 2.545 2.706 2.558 2.721 2.57 2.736 C 2.59 2.762 2.61 2.787 2.633 2.81 C 2.643 2.82 2.655 2.83 2.665 2.84 C 2.693 2.865 2.721 2.891 2.752 2.914 C 2.76 2.92 2.77 2.926 2.778 2.932 C 2.813 2.957 2.849 2.98 2.888 3.001 C 2.896 3.005 2.904 3.008 2.911 3.012 C 2.952 3.034 2.995 3.053 3.041 3.071 C 3.043 3.072 3.045 3.073 3.047 3.074 L 3.048 3.073 C 3.086 3.088 3.125 3.102 3.166 3.114 C 3.176 3.117 3.293 3.023 3.418 2.95 C 3.547 2.874 3.683 2.818 3.683 2.818 C 3.591 2.72 3.486 2.685 3.362 2.655 C 3.357 2.653 3.352 2.651 3.347 2.65 C 3.058 2.581 2.897 2.433 2.847 2.185 C 2.901 2.191 2.954 2.194 3.004 2.196 C 3.154 2.2 3.283 2.184 3.376 2.146 L 3.462 2.111 L 3.478 2.022 C 3.485 1.983 3.496 1.947 3.507 1.91 C 3.514 1.885 3.52 1.86 3.528 1.836 C 3.543 1.793 3.56 1.751 3.579 1.71 C 3.587 1.693 3.596 1.678 3.604 1.662 C 3.648 1.577 3.7 1.498 3.761 1.426 C 3.763 1.424 3.764 1.422 3.766 1.419 C 3.908 1.254 4.09 1.127 4.294 1.049 C 4.294 1.049 4.293 1.049 4.293 1.049 C 4.502 0.969 4.732 0.937 4.97 0.975 C 5.527 1.063 5.969 1.514 6.047 2.074 C 6.083 2.527 5.784 2.936 5.563 3.165 C 4.638 3.142 4.244 3.915 4.244 3.915 L 4.304 3.997 C 4.384 4.081 4.476 4.145 4.59 4.177 C 4.72 3.906 4.969 3.716 5.33 3.612 C 5.486 3.567 5.638 3.556 5.784 3.565 C 5.786 3.565 5.794 3.557 5.799 3.554 C 5.799 3.554 5.799 3.555 5.799 3.555 C 5.8 3.554 5.801 3.553 5.802 3.552 C 5.825 3.532 5.872 3.486 5.93 3.421 C 6 3.353 6.092 3.251 6.223 3.037 C 6.46 2.651 6.489 2.249 6.489 2.249 C 6.489 2.249 6.496 2.458 6.566 2.697 C 6.636 2.936 6.781 3.049 6.781 3.049 C 6.902 3.005 7 2.984 7.114 2.979 C 7.114 2.979 7.047 2.832 7.029 2.794 C 6.931 2.574 6.897 2.329 6.928 2.084 C 7.004 1.519 7.447 1.063 8.009 0.975 C 8.717 0.864 9.374 1.323 9.505 2.022 L 9.521 2.111 L 9.607 2.146 C 9.73 2.196 9.917 2.208 10.136 2.185 C 10.086 2.433 9.925 2.581 9.636 2.65 C 9.18 2.757 8.817 3.199 8.81 3.507 L 8.807 3.631 L 8.926 3.67 C 9.465 3.846 9.827 4.344 9.827 4.912 C 9.827 5.518 9.396 6.044 8.778 6.191 C 8.674 6.216 8.276 6.216 8.014 6.216 L 4.885 6.217 C 4.783 6.223 3.993 6.256 3.534 5.808 C 3.505 5.78 3.481 5.751 3.456 5.722 C 3.409 5.665 3.365 5.603 3.329 5.532 C 2.946 4.764 3.318 4.11 3.567 3.795 C 3.681 4.084 3.903 4.501 4.274 4.618 C 4.712 4.757 5.227 4.613 5.846 4.181 L 5.915 4.131 C 6.297 3.861 6.937 3.407 7.648 3.612 C 8.017 3.718 8.269 3.913 8.396 4.191 C 8.529 4.48 8.499 4.802 8.412 4.994 C 8.262 5.322 7.908 5.754 6.59 5.749 C 5.86 5.744 5.249 5.456 4.877 5.226 C 5.176 5.188 5.559 5.082 5.909 4.816 L 6.072 4.693 C 6.591 4.295 6.849 4.093 7.197 4.107 C 7.44 4.109 7.679 4.192 7.857 4.407 C 8.034 4.621 8.144 4.829 8.144 4.829 C 8.144 4.829 8.199 4.684 8.181 4.521 C 8.164 4.359 8.094 4.259 8.081 4.242 C 7.882 3.951 7.552 3.775 7.197 3.772 C 6.744 3.76 6.433 3.995 5.869 4.427 L 5.707 4.55 C 5.125 4.992 4.403 4.905 4.396 4.904 L 3.865 4.832 L 4.261 5.193 C 4.301 5.229 5.244 6.074 6.588 6.083 C 7.725 6.091 8.42 5.78 8.716 5.132 C 8.827 4.891 8.89 4.462 8.7 4.051 C 8.583 3.797 8.321 3.457 7.741 3.291 C 7.584 3.246 7.43 3.227 7.281 3.227 C 6.613 3.228 6.053 3.625 5.722 3.859 L 5.654 3.907 C 5.126 4.276 4.707 4.404 4.374 4.299 C 4.057 4.198 3.851 3.638 3.798 3.43 C 3.788 3.394 3.783 3.356 3.777 3.319 C 3.773 3.288 3.769 3.257 3.766 3.23 C 3.763 3.196 3.76 3.162 3.76 3.127 L 3.759 3.128 C 3.756 3.065 3.757 3.026 3.757 3.026 C 3.623 3.06 3.517 3.128 3.412 3.233 C 3.331 3.31 2.215 4.408 2.888 5.753 C 3.321 6.621 4.336 6.715 4.753 6.715 C 4.822 6.715 4.877 6.713 4.901 6.711 L 8.014 6.711 C 8.433 6.711 8.742 6.708 8.892 6.672 C 9.733 6.471 10.321 5.747 10.321 4.912 C 10.321 4.259 9.969 3.664 9.411 3.347 C 9.491 3.256 9.608 3.164 9.749 3.13 C 10.294 3.001 10.612 2.634 10.644 2.098 C 10.646 2.061 10.647 2.023 10.647 1.983 L 10.647 1.732 C 10.647 1.732 10.004 1.703 9.932 1.703 Z"/>
  <circle id="XMLID_70_" cx="8.686" cy="1.908" r="0.236"/>
  <circle id="XMLID_69_" cx="4.228" cy="1.908" r="0.236"/>
  <path id="XMLID_67_" d="M 1.102 4.629 L 0.5 3.865 L 1.09 3.095 L 1.745 3.098 L 1.114 3.868 L 1.704 4.629 L 1.102 4.629 Z"/>
  <path id="XMLID_63_" d="M 11.862 3.868 L 11.231 3.098 L 11.885 3.095 L 12.476 3.865 L 11.874 4.629 L 11.272 4.629 L 11.862 3.868 Z"/>
</svg>