<?xml version="1.0" encoding="UTF-8"?>
<svg enable-background="new 0 0 377.25 372.9" version="1.1" viewBox="0 0 377.25 372.9" xml:space="preserve" xmlns="http://www.w3.org/2000/svg">
<style type="text/css">
	.st0{fill:#000;}
</style>

	<path class="st0" d="m166.98 18.26c0.05-1.27-0.08-2.59 0.21-3.81 0.23-0.97 0.97-1.82 1.48-2.72 0.2 0.11 0.4 0.22 0.61 0.33-0.23 0.53-0.45 1.07-0.72 1.69 0.28 0.03 0.54 0.15 0.67 0.06 1.21-0.8 2.57-1.48 3.53-2.51 1.1-1.18 1.83-0.68 2.89-0.07 3.19 1.84 5.52 4.39 7.53 7.49 1.4 2.17 3.7 3.75 5.57 5.62 0.26 0.26 0.34 0.68 0.54 1 0.32 0.51 0.57 1.27 1.03 1.42 0.52 0.17 1.42 0 1.8-0.37 0.98-0.96 1.76-2.12 2.34-3.67-1.06 0.48-2.12 0.95-3.39 1.53-0.32-0.59-0.96-1.39-1.17-2.28-0.13-0.56 0.18-1.6 0.63-1.85 1.99-1.12 4.1-2.02 6.14-3.04 0.46-0.23 0.98-0.54 1.22-0.95 0.93-1.62 2.62-2.3 3.85-3.39 1.52-1.34 3.21-1.59 4.85-2.66-2.44-0.65-4.88-1.29-7.32-1.94 0.04-0.28 0.09-0.57 0.13-0.85 0.53 0.02 1.09-0.05 1.58 0.09 3.08 0.85 6.1 1.93 9.22 2.58 2.1 0.44 4.23 0.46 6.1 1.78 1.23 0.87 2.15 1.6 2.03 3.37-0.07 1.05 0.77 2.13 1 3.25 0.19 0.95 0.03 1.97 0.15 2.94 0.08 0.69 0.37 1.35 0.72 2.54 0.84-1.91 1.33-3.01 1.78-4.04 2.73-0.36 3.87 1.07 3.78 4.05 0.35-0.26 0.69-0.51 1.04-0.77-0.36-3.52-0.72-7.03-1.08-10.55 0.11-0.13 0.21-0.26 0.32-0.38 1.66 1.81 3.82 3.38 4.9 5.49 3.35 6.52 6.62 13.18 7.55 20.56 1.08 8.53 0.28 16.91-3.52 24.76-1.52 3.14-3.13 6.28-5.13 9.11-3.21 4.55-7.74 7.78-12.61 10.24-10.26 5.17-21.36 6.93-32.72 6.32-3.59-0.19-7.18-1.79-10.62-3.14-4.01-1.57-8.2-3.08-11.67-5.52-3.73-2.63-7.03-6.07-9.95-9.62-3.5-4.26-6.43-8.93-8.05-14.38-1.67-5.58-1.97-11.11-1.26-16.85 0.7-5.63 3-10.5 5.65-15.45 2.48-4.63 5.92-8.3 9.58-11.73 2.78-2.6 6.23-4.81 9.77-6.22 5.56-2.21 11.36-4.07 17.23-5.17 4.25-0.8 8.86-0.65 13.15 0.02 5.5 0.86 10.87 2.64 16.28 4.09 3.92 1.05 7.09 3.27 9.79 6.51-2.67-0.17-4.02-3.34-6.45-2.77-1-0.87-1.77-1.94-2.81-2.36-2.91-1.18-5.88-2.23-8.9-3.07-11.16-3.09-22.21-2.68-32.93 1.77-4.4 1.83-8.86 3.87-12.68 6.66-3.9 2.85-7.49 6.35-9.57 11-0.5 1.12-1.39 2.09-2.19 3.06-1.22 1.49-2.25 3-1.79 5.31 1.62-5.31 5.96-4.85 9.97-5.13-6.64 1.38-10.55 5.36-11.67 12.05-0.99 5.9-1.74 11.74 4 15.91-1.75 1.92-1.06 4.07 2.04 6.57 2.3-1.61 0.52-4.18 1.66-6.17 0.1 0.43 0.15 0.87 0.31 1.27 0.39 0.97 0.57 2.25 1.3 2.82 1.29 1.01 1.22 1.85 0.47 3.03-0.25 0.39-0.57 0.96-0.46 1.34 0.42 1.51 0.99 2.97 1.5 4.44 0.27-2.72 0.55-5.51 0.83-8.29 0.37 0.02 0.75 0.04 1.12 0.06-0.05 0.87-0.15 1.74-0.14 2.61 0 0.65 0.14 1.29 0.51 1.88 1.19-3.81 2.02-5.95-1.45-7.13 0.73-1.13 1.4-2.17 2.07-3.2-0.06-0.01-0.11-0.02-0.17-0.04 0.46-0.93 1.07-1.83 1.32-2.81 0.14-0.56-0.22-1.32-0.5-1.91-0.38-0.8-0.9-1.52-1.56-2.61-4.11-1.23-4.62-2.8-1.73-6.84 1.91-2.67 3.88-5.31 5.81-7.96 0.22-0.3 0.44-0.63 0.54-0.98 0.84-2.98 1.59-6 2.53-8.95 0.29-0.91 1.1-1.66 1.68-2.49-0.18 0.69-0.3 1.41-0.55 2.08-0.74 2.01-1.59 3.98-2.26 6.01-0.5 1.5-0.08 2.43 1.78 2.42 5-0.04 8.45 3.4 12.4 5.71 0.36 0.21 0.36 1.03 0.52 1.56-0.59 0.16-1.17 0.37-1.76 0.48-0.83 0.15-1.82-0.01-2.49 0.4-3.02 1.84-5.09 1.63-6.58-0.3-1.9 1.09-3.88 2.23-5.86 3.36 0.27 0.31 0.54 0.62 0.8 0.94-0.71-0.14-1.43-0.27-2.21-0.42 0.07-3.58 4.66-5.74 3.02-10.34-1.35 1.68-2.35 2.86-3.27 4.1-1.6 2.16-3.2 4.33-4.7 6.57-0.69 1.03-0.89 2.39 0.76 2.58 2.16 0.25 4.39 0.23 6.56 0.01 0.75-0.07 1.42-1.07 2.08-1.69 0.37-0.35 0.66-0.79 0.98-1.18 0.35 0.43 0.82 0.8 1.01 1.29 0.24 0.61 0.24 1.32 0.37 1.98 0.37 1.86-0.17 2.8-2.24 2.31-1.87-0.45-3.07 0.58-4.32 1.94 1.49 1.91 3.43 1.75 5.63 1.82-0.78-0.88-1.33-1.5-1.88-2.12 0.21-0.17 0.42-0.35 0.63-0.52 1.36 1.78 2.73 3.55 4.51 5.87v-5.49c0.16-0.05 0.31-0.09 0.47-0.14 0.89 1.81 1.78 3.61 2.73 5.55 0.42-0.35 1.06-0.89 1.7-1.41-2-2.9-1.93-3.52 0.68-5.65 2.08-1.7 4.24-3.3 6.29-5.03 0.85-0.71 2.13-1.64 2.13-2.48 0.02-2.62 1.36-3.6 3.41-3.61 0.4-1.54 0.71-2.74 1.03-3.99-0.63-0.57-1.19-1.37-1.95-1.69-0.75-0.32-1.82-0.41-2.52-0.1-0.41 0.18-0.53 1.36-0.5 2.08 0.03 0.78 0.37 1.56 0.57 2.34-0.18 0.05-0.36 0.09-0.54 0.14-0.31-0.81-0.93-1.64-0.88-2.43 0.16-2.32-1.34-2.86-3.01-3.74-2.39-1.26-5.01-2.62-4.84-6.07 0.02-0.32-0.19-0.89-0.41-0.96-2.43-0.79-4.91-1.47-7.38-2.16zm27.24 26.55c-2.56 1.44-2.69 2.13-1.23 8.85 0.65-1.14 1.15-2.06 1.69-2.97 0.27-0.45 0.61-0.85 0.91-1.27 0.55 0.45 1.25 0.82 1.6 1.39 0.19 0.32-0.08 1.12-0.4 1.48-0.72 0.82-1.62 1.47-2.42 2.23-1.78 1.67-1.66 3.53 0.88 3.7 1.03-0.6 2.09-1.15 3.21-1.36 3.47-0.65 6.95-3.88 7.48-7.11-0.29 0.29-0.59 0.58-0.88 0.86-0.66-0.9-1.33-1.81-1.88-2.55-0.02 0.04-0.28 0.61-0.84 1.82-0.61-1.18-1.45-2.16-1.24-2.53 0.55-0.96 0.44-2.43 2.24-2.67 2.46-0.33 4.41-2.63 4.19-4.69-0.24-2.3-2.3-2.68-4.06-3.29-0.28-0.1-0.59-0.12-0.87-0.23-1.44-0.6-1.96-1.61-0.68-2.71 1.45-1.25 3.03-2.45 4.75-3.26 2.41-1.14 5.08-1.73 7.48-2.88 1.1-0.53 2.39-1.72 2.6-2.8 0.26-1.34-0.38-2.93-0.9-4.31-0.23-0.62-1.04-1.32-1.66-1.4-0.51-0.07-1.14 0.73-1.71 1.13-0.42 0.3-0.84 0.59-1.26 0.88-0.49 0.35-0.98 0.69-1.88 1.34 1.41 0.57 2.53 1.44 3.04 1.17 2.36-1.25 2.51 0.68 3.63 1.99-1.85 0.66-3.15 0.84-4.49-0.35-0.5-0.44-1.38-0.55-2.1-0.62-0.46-0.04-0.99 0.21-1.44 0.44-0.97 0.51-2.05 0.93-2.82 1.67-0.78 0.75-1.17 1.89-1.86 2.75-1.31 1.64-2.92 3.07-4 4.84-0.85 1.39-1 3.05 0.5 4.5 1.14 1.11 1.83 2.48-0.72 2.87 0.22 0.95 0.55 1.75 0.54 2.54-0.01 0.44-0.5 1.01-0.93 1.25-0.2 0.12-0.9-0.3-1.13-0.64-0.72-1.06-1.32-2.2-1.99-3.35 0.07-0.54 0.38-1.78 0.23-1.84-0.94-0.37-1.99-0.47-3.01-0.66-0.16 0.2-0.33 0.41-0.49 0.61 0.6 1.66 1.22 3.32 1.92 5.18zm4.82 30.25c-0.05-0.59 0.09-1.59-0.17-1.7-2.49-1.09-0.67-2.1-0.2-2.74-0.55-2.06-1.01-3.78-1.46-5.5-0.77 0.18-1.42 0.32-1.72 0.39 0-1.56 0.08-2.86-0.02-4.15-0.13-1.58-1.25-2.17-2.66-1.42-0.72 0.38-1.46 0.85-1.99 1.45-3.19 3.67-7.08 5.83-11.99 6.39-1.25 0.14-2.81 1.37-3.4 2.53-0.81 1.6-0.78 3.61-1.22 5.42-0.35 1.47 0.13 2.01 1.63 2.15 3.18 0.29 5.98-0.77 8.8-1.99 0.68-0.3 1.49-0.36 2.25-0.38 1.18-0.04 2.52-0.28 3.51 0.18 0.84 0.39 1.51-0.15 2.28-0.01 1.5 0.26 3.73 2.25 5.01-0.6 0.07-0.15 0.72-0.02 1.35-0.02zm-15.41-13.56c-0.82-1.7-1.44-2.97-2.1-4.34-1.33 0.6-2.96 2.04-4.08 1.71-2.37-0.68-2.59 1.34-3.79 2.37 0.22-2.88 0.22-2.88 2.7-3.23 1.57-0.22 3.73-3.46 3.12-4.74-0.5-1.05-1.1-2.05-1.72-3.18-2.46 1.52-4.05 3.3-2.59 6.58-0.21-0.03-0.42-0.06-0.63-0.09-0.46-0.74-0.93-1.48-1.52-2.43-0.37 0.65-0.61 1.06-0.85 1.47-1.44-2.33-7.23-4.23-9.58-3.07-0.37 0.18-0.86 0.97-0.75 1.14 0.31 0.5 0.88 1.13 1.37 1.16 0.92 0.05 1.86-0.3 2.89-0.5 0.27 0.75 0.52 1.43 0.81 2.26-0.65 0.19-1.48 0.66-1.7 0.46-1.49-1.34-1.94-0.32-2.48 0.88-0.27 0.61-0.66 1.19-1.11 1.68-1.24 1.35-0.29 2.42 0.5 3.36 0.87 1.04 1.67 0.87 1.97-0.58 0.01-0.03 0.51-0.03 0.75 0.06 1.07 0.42 2.13 0.88 3.19 1.33 0.95 0.15 2.09 0.03 3.22-0.2 1.8-0.36 4.11 0.61 4.76-1.52 1.32 0.56 2.48 1.43 3.63 1.42 0.72-0.01 1.41-1.36 2.42-2.43 0 0 0.6 0.17 1.57 0.43zm29.89-18.05c1.2-0.37 2.37-0.85 3.58-1.09 1.34-0.26 2.72-0.33 4.09-0.41 0.59-0.03 1.18 0.12 1.77 0.18 0.05-0.63 0.37-1.41 0.11-1.87-1.46-2.66-3.05-5.25-4.59-7.86-0.68-1.16-1.52-1.68-2.71-0.69-1.04 0.87-1.82 1.74-0.68 3.19 0.75 0.95 1.23 2.12 1.89 3.32-0.9 0.24-1.69 0.44-2.98 0.78 0.88 0.46 1.3 0.67 1.71 0.89-2.6 0.59-2.88 1-2.19 3.56zm-30.44 1.16c-0.51 0.59-1.24 1.18-1.63 1.94-0.62 1.2-1.57 2.62-1.36 3.75 0.19 1.01 1.77 1.76 2.73 2.62 0.74-1.11 1.48-2.22 2.2-3.34 0.46-0.72 0.74-1.69 1.38-2.13 2.24-1.55 3.24-3.8 3.25-6.3 0-2.12-1.28-3.77-3.63-4.59 0.31 1.82 0.59 3.45 0.89 5.17h-3.17c0.8 1.79 1.45 3.22 2.39 5.33-1.26-1.02-2.05-1.65-3.05-2.45zm-6.31-30.16c0.12-0.16 0.24-0.32 0.36-0.48-2.1-1.35-4.26-1.84-6.47-0.29-0.95 0.67-1.38 1.39-0.5 2.6 2.21 3.03 4.44 3.27 7.67 0.67-0.35-0.85-0.71-1.67-1.06-2.5zm26.48-0.65c-1.86 0.67-3.02 1.25-2.41 2.56 1.95 0.56 3.45 1.24 5 1.35 1.03 0.07 2.2-0.51 3.15-1.07 0.78-0.47 1.33-1.34 2.08-2.15-0.2-0.55-0.55-1.48-0.94-2.52-1.71-0.18-5.89 1.25-5.9 2.36-0.01 1.95-1.03 1.05-2.16 1.47 0.53-0.9 0.75-1.27 1.18-2zm-24.19 6.1c-3.04-0.03-3.44 0.45-2.67 3.14 0.45 1.57 5.25 3.16 6.54 2.12 0.29-0.23 0.45-0.75 0.51-1.15 0.36-2.36-1.49-4.07-4.38-4.11zm17.44 2.76c2.91 0.34 5.84 1.33 7.7-1.88 0.32-0.55 0.54-1.15 0.81-1.72-0.58-0.24-1.15-0.64-1.75-0.69-0.88-0.07-1.79 0.16-2.69 0.16-2.98-0.02-3.94 0.9-4.07 4.13zm30.66 11.54c-2.35 0.76-2.27 3.91 0.25 6.56 0.47-0.75 0.93-1.49 1.62-2.61 0.09 1.21 0.13 1.83 0.17 2.38 0.93-0.05 1.68-0.1 2.88-0.17-1.45-2.08-3.85-4.14-0.13-6.33-1.37-0.12-2.33-0.2-3.29-0.28 0.16 0.13 0.33 0.27 0.49 0.4-0.58 1.01-1.17 2.02-1.75 3.03-0.16-0.06-0.31-0.11-0.47-0.17 0.08-0.85 0.15-1.71 0.23-2.81zm-27.92 26.9c-0.08-0.07 0.14 0.27 0.35 0.27 0.86-0.01 2.15 0.2 2.48-0.26 0.56-0.78 0.64-1.99 0.64-3.02 0-0.2-1.35-0.52-2.08-0.54-2.45-0.06-2.83 2.57-4.47 3.58 0.35 0.5 0.7 1.01 1.05 1.51 0.61-0.48 1.23-0.94 2.03-1.54zm-12.6-7.97c-3.91 1.45-4.74 2.53-3.71 4.94 0.86 2.02 1.98 2.33 4.04 1.43-0.12-2.27-0.23-4.33-0.33-6.37zm26.4-8.49-0.6 0.81c0.79 0.88 1.5 2.41 2.39 2.52 3.17 0.4 5.06-0.82 5.66-3.33h-7.45zm-0.67 5.06c0.81 3.37 2.88 4.67 5.53 3.59 0.83-0.34 1.92-0.98 0.8-1.89-1.78-1.47-3.9-2.24-6.33-1.7zm-19.1-19.28c1.76-1.98 3.53-3.99 5.27-5.95-1.63-0.91-3.61-0.48-5 1.25-1.35 1.67-1.38 3.48-0.27 4.7zm28.59-2.97c-0.29 0.17-0.57 0.34-0.86 0.51 0.29 1.92 0.48 3.86 0.93 5.73 0.13 0.53 0.99 0.88 1.51 1.31 0.2-0.7 0.59-1.41 0.57-2.1-0.05-1.21-0.2-2.47-0.6-3.6-0.25-0.71-1.02-1.24-1.55-1.85zm10.58-1.36c-0.74 0.55-1.34 0.99-2.09 1.55-0.5-1.57 0-3.44-2.63-3.7 0.67 1.14 1.11 1.9 1.64 2.79-0.62-0.03-1.02-0.05-1.36-0.07 0.43 1.22 0.86 2.42 1.23 3.46 1.95-0.67 5.15-0.31 3.21-4.03zm-24.33 24.01c-0.73 2.63-3.45 4.2-1.61 7.75 0.99-1.15 1.85-2 2.5-2.98 0.19-0.28-0.22-0.96-0.44-1.72 0.22-0.27 0.67-0.85 1.23-1.55-0.47-0.42-0.89-0.8-1.68-1.5zm14.86-23.17c0.98 1.07 1.83 2.11 2.81 3 0.26 0.24 1.03 0.25 1.35 0.04 0.35-0.23 0.45-0.84 0.66-1.29-0.44-0.14-0.9-0.42-1.32-0.38-1.55 0.14-1.37-0.57-1.02-1.64 0.22-0.69 0.12-1.49 0.16-2.24-0.54 0.44-1.1 0.85-1.6 1.31-0.37 0.35-0.66 0.76-1.04 1.2zm7.9 19.59c0.61 1.08 1.06 1.89 1.71 3.05 0.54-3.21-1.99-4.37-3.14-6.4-2.31 2.23 1.54 3.68 0 5.66 0.24 0 0.48 0.01 0.72 0.01 0.2-0.67 0.41-1.34 0.71-2.32zm-69.14 23c-1.18-0.8-2.07-1.75-2.45-1.58-0.67 0.3-1.28 1.25-1.42 2.01-0.07 0.4 1.02 1.48 1.39 1.39 0.74-0.16 1.34-0.92 2.48-1.82zm10.88-35.61c-0.01-0.25-0.02-0.49-0.02-0.74-0.81-0.36-1.61-0.91-2.45-1-0.37-0.04-1.28 1.05-1.17 1.28 0.27 0.6 0.95 1.39 1.49 1.41 0.69 0.03 1.43-0.6 2.15-0.95zm28.72 34.84v4.74c2.53-2.83 2.53-2.83 0-4.74zm8.5-33.3c0.57-0.71 1.34-1.27 1.26-1.64-0.12-0.53-1.06-1.4-1.3-1.3-0.71 0.31-1.24 1.01-1.84 1.56 0.52 0.38 1.04 0.77 1.88 1.38zm0.56 22.71c0.27 1.69 0.43 2.63 0.58 3.57 0.23 0.04 0.45 0.08 0.68 0.11 0.32-0.82 0.79-1.62 0.87-2.47 0.02-0.24-1.03-0.6-2.13-1.21zm-4.6 10.86c-0.22-0.01-0.43-0.03-0.65-0.04v4c0.22 0 0.43 0.01 0.65 0.01v-3.97zm29.4-22.79c0.71-3.85 0.52-4.57-1.05-4.68 0.32 1.44 0.65 2.9 1.05 4.68z"/>
	<path class="st0" d="m188.68 336.96c-8.82 7.74-12.46 17.15-13.28 27.84-0.08 1.1 0.54 2.33 0.24 3.32-0.46 1.54-1.1 3.32-2.26 4.27-1.33 1.09-5.87 0.22-6.55-0.89-0.43-0.71-0.54-1.68-0.61-2.54-1.02-11.39 3.25-21.15 9.46-30.27 2.1-3.09 4.33-6.08 6.74-9.45-2.27-1.76-4.53-3.71-7-5.34-2.18-1.44-4.54-2.65-6.93-3.74-1.47-0.67-3.11-1.09-4.72-1.36-2.06-0.35-4.22-0.79-6.25-0.52-2.06 0.27-4.12 1.13-5.98 2.12-6.35 3.38-12.45 7.44-19.85 8.04-3.63 0.29-7.33-0.04-10.98-0.27-2.98-0.19-5.98-0.44-8.9-1.04-2.8-0.58-3.48-2.65-1.7-4.85 6.06-7.49 13.55-13.24 23.04-15.16 6.98-1.41 14.12-1.54 21.35 0.45 4.92 1.36 9.89 2.52 14.46 4.73 6.33 3.06 12.47 6.51 18.62 9.93 1.52 0.84 2.61 1.27 4.25 0.15 4.4-3 8.98-5.74 13.41-8.69 3.31-2.21 6.91-3.5 10.8-4.23 4.71-0.88 9.35-2.07 14.07-2.88 9.18-1.59 17.53 0.77 25.25 5.72 3.78 2.42 7.47 4.97 11.25 7.4 1.56 1 2.22 2.49 1.6 4.02-0.38 0.94-1.69 1.8-2.75 2.11-1.77 0.52-3.68 0.8-5.52 0.76-6.74-0.15-13.57 0.13-20.18-0.93-4.98-0.79-10.08-2.74-14.38-5.38-3.14-1.93-5.83-2.11-8.94-1.43-7.87 1.7-14.5 5.91-21.16 10.67 1.26 1.85 2.53 3.58 3.64 5.4 2.38 3.89 4.77 7.79 7 11.77 3.48 6.21 5.03 12.91 4.92 20.05-0.06 3.77-2.07 5.8-5.79 5.07-0.91-0.18-1.97-1.08-2.39-1.93-0.69-1.38-1.03-2.97-1.33-4.51-1.15-5.89-2.13-11.86-5.15-17.13-2.23-3.87-4.93-7.44-7.5-11.28z"/>
	<path class="st0" d="m135.25 193.65c2.24 0.46 3.85 0.71 5.41 1.12 5.77 1.53 10.19 4.64 11.23 10.91 1.07 6.43-1.76 11.49-7.06 14.71-10.33 6.27-21.2 7.09-32.14 1.48-3.36-1.72-5.6-4.54-5.54-8.63 0.06-4.08 2.97-6.58 7.32-6.38 4.16 0.19 6.79 3.02 6.34 7.05-0.2 1.77-0.71 3.53-1.23 5.24-0.44 1.44-0.02 2.01 1.43 2.33 8.46 1.85 14.92-2.74 15.64-11.33 0.17-2.07 0.05-4.22-0.33-6.26-0.85-4.56-3.78-6.96-8.45-7.21-1.42-0.07-2.86-0.11-4.28-0.01-1.73 0.12-2.02-0.82-1.91-2.23 0.1-1.22-0.35-2.67 1.79-2.54 7.62 0.48 11.35-2.75 11.3-11.99-0.01-1.41-0.1-2.87-0.45-4.23-1.25-4.88-7.5-7.63-11.97-5.26-0.41 0.22-0.65 1.21-0.57 1.78 0.25 1.78 0.86 3.51 1.04 5.29 0.34 3.49-0.87 5.57-3.65 6.74-2.81 1.18-6.08 0.64-7.96-1.31-1.95-2.03-2.41-5.53-1.03-8.19 1.49-2.87 3.91-4.74 6.82-5.94 8.29-3.42 16.65-3.65 24.94-0.08 4.53 1.95 7.47 5.34 7.59 10.5 0.12 5.15-2.39 8.91-6.84 11.3-2.15 1.15-4.5 1.91-7.44 3.14z"/>
	<path class="st0" d="m167.82 191.49c1.35-0.59 2.43-1.06 3.51-1.53 6.23-2.73 12.64-2.66 18.91-0.55 6.62 2.23 10.93 6.81 11.67 14.03 0.7 6.87-1.72 12.54-7.21 16.77-8.18 6.31-21.87 7.04-30.66 1.65-2.63-1.61-4.7-3.76-5.26-6.97-0.48-2.75 0.32-5.08 2.54-6.79 2.08-1.6 5.95-1.61 8.33-0.05 2.34 1.53 3.06 3.8 2.62 6.46-0.25 1.48-0.49 2.98-1.01 4.37-0.73 1.94-0.01 2.49 1.84 2.7 6.03 0.68 10.33-1.83 12.59-7.49 1.6-4.01 1.98-8.18 1.14-12.38-1.81-9.12-11.84-12.2-19.09-5.95-0.57 0.49-1.02 1.31-1.65 1.48-0.84 0.23-1.86 0.14-2.69-0.15-0.4-0.14-0.79-1.09-0.73-1.61 1.09-8.55 2.3-17.09 3.37-25.65 0.23-1.79 0.98-2.38 2.75-2.37 9.68 0.06 19.36 0.07 29.04-0.01 1.9-0.01 2.52 0.68 2.43 2.49-0.11 2.1-0.14 4.21 0.01 6.3 0.14 1.89-0.71 2.27-2.38 2.26-8.63-0.05-17.26 0.05-25.89-0.08-2.19-0.03-3.08 0.58-3.21 2.8-0.16 2.76-0.65 5.51-0.97 8.27-0.05 0.56 0 1.12 0 2z"/>
	<path class="st0" d="m234.08 206.49c-2.22 1.4-4.07 2.81-6.13 3.81-3.78 1.83-7.81 2.16-11.84 0.91-3.95-1.23-6.69-3.78-7.18-8.07-0.49-4.34 0.73-8.25 4.7-10.42 3.19-1.75 6.74-2.86 10.18-4.11 2.68-0.97 5.42-1.76 8.16-2.54 1.49-0.42 2.07-1.3 1.93-2.8-0.19-2.01-0.08-4.08-0.53-6.02-0.95-4.15-5.91-5.84-9.31-3.26-0.38 0.29-0.53 0.96-0.63 1.48-0.06 0.33 0.13 0.73 0.25 1.08 0.94 2.72 1.25 5.32-1.44 7.3-2.06 1.52-7 1.46-9.24-0.05-2.8-1.88-3.16-6.27-0.39-8.59 1.85-1.56 4.07-2.86 6.34-3.7 6.37-2.39 12.96-2.39 19.48-0.68 5.08 1.33 8.22 4.77 8.43 10.12 0.22 5.46-0.01 10.94-0.06 16.41-0.01 1.57-0.1 3.15-0.06 4.72 0.09 3.32 1.35 4.54 4.61 4.9 0.8 0.09 1.98 0.55 2.22 1.15 0.54 1.34-0.52 2.02-1.74 2.3-2.11 0.48-4.22 1.2-6.36 1.33-4.63 0.28-9.07-0.27-11.39-5.27zm-0.44-17.49c-3.28 1.28-6.5 2.13-8.83 4.65-2.41 2.62-2.81 5.75-1.74 9.03 0.73 2.25 2.59 2.95 4.82 2.89 2.45-0.08 5.59-1.65 5.67-3.32 0.22-4.31 0.08-8.63 0.08-13.25z"/>
	<path class="st0" d="m276.13 176.4c2.38-1.79 4.07-3.5 6.11-4.47 2.1-1 4.52-1.64 6.84-1.78 3.18-0.19 5.64 1.47 6.94 4.44 1.38 3.15 1.02 6.19-1.13 8.89-1.88 2.36-5.17 2.97-8.22 1.69-2.7-1.14-3.72-3.02-3.48-6.36 0.05-0.65 0.07-1.31 0.1-1.95-3.37-0.44-7.16 2.7-7.17 5.83-0.02 6.45-0.01 12.91-0.01 19.36 0 3.64 0.79 4.51 4.37 5.38 1.19 0.29 3.37-0.39 3.12 1.9-0.25 2.27-2.28 1.18-3.46 1.2-6.98 0.12-13.96 0.09-20.94 0-0.73-0.01-1.91-0.62-2.1-1.2-0.49-1.49 0.86-1.56 1.89-1.77 3.2-0.64 3.94-1.46 3.95-4.69 0.03-7.43 0.02-14.86-0.02-22.29-0.02-3.27-1.39-5.06-4.49-5.87-1.15-0.3-2.48-0.52-1.96-2.01 0.22-0.64 1.5-1.2 2.34-1.27 4.78-0.38 9.58-0.64 14.37-0.86 2.8-0.13 2.9 0.02 2.94 2.84 0.02 0.86 0.01 1.72 0.01 2.99z"/>
	<path class="st0" d="m75.73 226.76c1.53 0.82 2.51 1.29 3.45 1.86 13.03 7.79 20.94 19.15 23.82 34.05 0.9 4.64-0.71 8.58-3.3 12.22-0.31 0.44-1.68 0.62-2.24 0.31-9.06-4.96-16.21-11.57-19.73-21.71-1.86-5.37-3.77-10.61-3.26-16.38 0.3-3.26 0.79-6.51 1.26-10.35z"/>
	<path class="st0" d="m98.42 312.33c-6.5-1.38-13.76-2.24-20.17-6.03-2.19-1.3-2.44-3.38-0.49-5.1 6.1-5.39 13.27-8.34 21.38-8.93 3.27-0.24 6.56-0.17 9.83-0.42 5.37-0.4 10.18 1.68 14.98 3.49 2.11 0.79 3.85 2.66 5.6 4.21 0.32 0.28 0.1 1.43-0.16 2.06-0.2 0.5-0.8 0.92-1.31 1.18-6.38 3.25-12.51 7.12-19.71 8.38-3.09 0.53-6.22 0.73-9.95 1.16z"/>
	<path class="st0" d="m31.61 236.64c8.74-0.75 17.1 0.84 24.78 4.95 7.03 3.76 12.56 9.42 17.37 15.72 2.09 2.73 1.36 4.24-2.07 4.51-11.07 0.86-21.79-0.54-31.35-6.5-3.88-2.42-7.12-5.91-10.56-9.01-1.27-1.14-2.55-2.43-3.35-3.9-0.69-1.26-1.1-2.96-0.87-4.33 0.11-0.64 2-1.11 3.14-1.39 0.92-0.22 1.94-0.05 2.91-0.05z"/>
	<path class="st0" d="m92.48 284.75c-0.99 0.62-1.62 1.15-2.34 1.44-4.32 1.68-8.54 3.85-13.02 4.81-6.61 1.41-13.38 1.55-19.94-0.91-3.72-1.39-7.54-2.52-11.24-3.97-2.43-0.95-4.84-2.07-7.04-3.45-1.94-1.21-1.75-2.36 0.3-3.45 8.1-4.31 16.6-7.69 25.89-7.26 7.04 0.32 13.94 2.01 19.74 6.55 1.59 1.25 3.28 2.38 4.87 3.63 0.9 0.74 1.7 1.6 2.78 2.61z"/>
	<path class="st0" d="m304.53 234.29c0 10.37-3.07 19.07-8.5 26.99-3.31 4.83-6.89 9.46-11.76 12.85-2.09 1.45-4.94 0.89-5.54-1.25-0.61-2.17-1.04-4.66-0.58-6.8 1.09-5.03 2.54-10.01 4.26-14.86 2.89-8.18 7.82-15.12 13.96-21.18 1.36-1.34 3.13-2.33 4.85-3.21 1.53-0.78 2.7 0.1 2.93 1.65 0.3 2.13 0.3 4.32 0.38 5.81z"/>
	<path class="st0" d="m314.95 272.3c7.05 0.34 13.14 1.56 18.84 4.5 1.18 0.61 2.6 0.71 3.83 1.24 1.79 0.77 2.12 2.12 0.57 3.23-7.15 5.11-14.57 10.59-23.67 10.08-7.74-0.43-15.41-2.77-23-4.71-3.39-0.87-3.59-3.67-0.83-5.96 5.31-4.41 11.19-7.41 18.27-7.64 2.23-0.09 4.44-0.55 5.99-0.74z"/>
	<path class="st0" d="m38.02 201.36c0.02 2.36-1.99 3.44-4.18 2.12-2.82-1.7-5.5-3.63-8.22-5.49-5.66-3.87-10.54-8.61-13.44-14.81-3.06-6.55-5.73-13.37-5.85-20.82-0.03-1.72 1.86-2.74 3.7-2.19 6.03 1.79 10.35 5.9 14.33 10.46 7.51 8.62 11.47 18.85 13.5 29.95 0.04 0.3 0.12 0.59 0.16 0.78z"/>
	<path class="st0" d="m343.43 238.15c1.5 0 3.06-0.25 4.49 0.07 1.44 0.33 3.49 0.93 3.89 1.96 0.41 1.04-0.52 3.08-1.48 4.1-2.77 2.92-5.77 5.63-8.82 8.27-7.17 6.2-15.61 9.49-25.02 9.93-2.7 0.13-5.62 0.53-8.26-1.05-1.05-0.63-1.75-1.18-1.41-2.38 0.42-1.48 0.69-3.14 1.56-4.34 4.22-5.79 10.24-9.29 16.42-12.58 5.86-3.1 12.14-3.99 18.63-3.98z"/>
	<path class="st0" d="m274.73 292.88c6.21-0.75 12.68 1.21 18.73 4.91 2.23 1.36 4.57 2.56 6.79 3.93 0.61 0.38 1.4 1.12 1.39 1.69-0.01 0.6-0.76 1.37-1.38 1.74-3.97 2.36-8.28 3.6-12.87 4.34-6.86 1.11-13.67 1.83-20.53 0.39-4.94-1.04-9.61-2.82-13.69-5.92-2.58-1.96-2.37-4.47 0.57-5.89 5.65-2.75 12.72-5.42 20.99-5.19z"/>
	<path class="st0" d="m66.42 208.18c-1.16 4.63-2.14 9.32-3.54 13.88-1 3.28-2.45 6.43-3.9 9.55-1.03 2.22-2.25 2.21-3.43 0.04-4.18-7.7-7.38-15.6-6.96-24.69 0.32-6.97 0.33-13.91 3.2-20.45 0.09-0.21 0.1-0.47 0.25-0.62 1.18-1.28 2.16-3.13 3.62-3.67 1.97-0.72 2.84 1.47 3.74 2.88 3.27 5.11 5.44 10.6 5.84 16.73 0.14 2.08 0.53 4.15 0.8 6.23 0.14 0.03 0.26 0.07 0.38 0.12z"/>
	<path class="st0" d="m341.47 199.43c-0.6-5.42 1.9-10.37 4.75-15.16 2.23-3.76 4.32-7.72 7.17-10.98 3-3.44 6.82-6.17 10.33-9.16 0.67-0.57 1.51-0.98 2.33-1.34 1.06-0.46 1.79-1.93 3.36-0.87 1.59 1.07 2.49 2.44 2.3 4.31-0.19 1.78-0.52 3.57-1.02 5.28-2.65 9.1-6.52 17.62-13.54 24.16-3.58 3.33-7.83 5.97-11.95 8.65-2.74 1.79-3.68 1.1-3.72-2.2-0.02-0.75-0.01-1.5-0.01-2.69z"/>
	<path class="st0" d="m274.29 263.56c-0.73 2.13-1.14 4.08-2.02 5.79-6.79 13.34-17.3 21.56-32.48 23.12-2.12 0.22-4.3 0.07-6.42-0.14-1.69-0.17-2.11-1.2-1.14-2.68 3.17-4.81 6.25-9.69 10.6-13.58 1.61-1.44 3.14-2.99 4.73-4.45 6.57-6.04 14.65-7.72 23.2-8.05 0.9-0.04 1.79-0.01 3.53-0.01z"/>
	<path class="st0" d="m143.44 292.44c-7.31-0.88-15.46-2.73-21.93-7.86-6.09-4.82-11.73-10.48-14.84-17.99-0.99-2.4-0.37-3.64 2.24-3.25 4.72 0.7 9.4 1.72 14.02 2.91 7.28 1.87 12.68 6.61 18 11.69 3.05 2.91 5.11 6.18 6.73 9.87 1.43 3.27 0.32 4.73-4.22 4.63z"/>
	<path class="st0" d="m0 200.37c1.42-0.11 2.15-0.21 2.87-0.22 6.14-0.09 12.27 0.6 17.82 3.13 4.31 1.97 8.43 4.71 11.99 7.83 4.41 3.87 8.16 8.48 12.18 12.79 1.15 1.23 0.95 2.64 0.2 3.96-0.78 1.38-2.04 1.19-3.37 0.94-1.84-0.34-3.71-0.48-5.57-0.73-6.26-0.87-11.5-3.94-16.67-7.35-6.3-4.16-12.34-8.55-16.89-14.64-1.14-1.52-1.61-3.53-2.56-5.71z"/>
	<path class="st0" d="m38.73 118.93c-0.35 6.8-0.44 12.81-2.79 18.48-0.59 1.42-1.19 2.66-3.08 2.82-1.99 0.16-2.9-0.86-3.93-2.33-2.54-3.63-2.44-7.96-3.4-11.99-0.88-3.7-1.26-7.53-1.77-11.31-1.04-7.62 0.08-14.95 3.37-21.88 0.64-1.34 1.95-2.35 2.95-3.51 0.92 1.03 2.08 1.94 2.71 3.12 3.14 5.98 4.83 12.39 5.31 19.12 0.19 2.76 0.46 5.52 0.63 7.48z"/>
	<path class="st0" d="m321.31 181.6c3.09 1.2 4.6 3.58 5.85 5.98 2.73 5.23 3.33 10.99 3.51 16.79 0.19 5.99-0.56 11.87-3.1 17.32-1.31 2.81-3.24 5.35-4.97 7.95-0.97 1.46-1.9 1.27-2.94-0.15-3.54-4.82-4.54-10.39-4.72-16.13-0.21-6.91 0.35-13.79 2.36-20.44 1.14-3.77 2.62-7.43 4.01-11.32z"/>
	<path class="st0" d="m371.09 202.58c3.09-0.01 3.85 1.18 2.36 3.86-4.64 8.31-11.27 14.48-20.06 18.18-4.55 1.91-9.16 3.68-13.83 5.25-1.46 0.49-3.23 0.21-4.84 0.06-1.76-0.17-2.45-1.35-1.51-2.85 2.08-3.34 3.99-6.88 6.6-9.78 6.94-7.69 15.62-12.42 25.96-13.93 1.48-0.22 2.94-0.53 4.42-0.78 0.29-0.05 0.6-0.01 0.9-0.01z"/>
	<path class="st0" d="m33.4 162.82c0.1 2.2-1.77 3.49-4.2 2.59-1.51-0.56-2.87-1.59-4.18-2.56-8.72-6.49-14.88-15.12-19.97-24.54-1.98-3.66-3.23-7.71-2.93-12.06 0.12-1.79 0.79-2.21 2.43-1.68 4.22 1.35 7.39 4.32 10.42 7.25 3.81 3.68 7.24 7.77 10.7 11.8 1.1 1.28 1.97 2.85 2.62 4.42 1.98 4.82 3.8 9.7 5.68 14.56-0.19 0.07-0.38 0.15-0.57 0.22z"/>
	<path class="st0" d="m36.4 175.94c0.04-5.99 2-11.41 4.37-16.82 3.02-6.89 7.56-12.54 13.04-17.54 1.32-1.21 2.78-2.33 4.33-3.2 0.8-0.45 2.13-0.65 2.89-0.28 0.55 0.27 0.87 1.68 0.78 2.53-1.22 11.04-5.03 21.16-11.73 30.01-2.69 3.55-6.13 6.55-9.4 9.62-1.65 1.55-3.52 0.8-4.05-1.42-0.21-0.93-0.16-1.93-0.23-2.9z"/>
	<path class="st0" d="m340.75 174.86c-0.2 1.16-0.45 2.63-0.71 4.1-0.28 1.56-1.02 1.85-2.34 0.92-4.35-3.07-7.85-6.95-10.49-11.53-2.38-4.14-4.84-8.3-6.66-12.7-1.68-4.05-2.71-8.4-3.71-12.69-0.4-1.72-0.57-3.83 1.54-4.99 2.05-1.13 3.43 0.36 4.85 1.33 4.7 3.23 7.64 7.97 10.47 12.74 3.84 6.45 6.48 13.32 6.92 20.92 0.04 0.52 0.08 1.04 0.13 1.9z"/>
	<path class="st0" d="m339.91 116.54c0.74-6.27 2-13.24 4.35-19.99 0.39-1.13 0.64-2.32 1.12-3.4 0.82-1.84 1.95-2.03 3.24-0.62 5.07 5.53 6.98 12.07 5.96 19.45-0.75 5.47-1.4 10.98-2.56 16.37-0.65 3.02-2.07 5.91-3.46 8.71-1.04 2.09-2.26 2-3.32-0.13-3.04-6.16-5.15-12.59-5.33-20.39z"/>
	<path class="st0" d="m336.48 96.73c-0.35 2.49-0.63 5.48-1.2 8.41-0.69 3.53-3.28 4.48-5.51 1.73-2.32-2.86-4.08-6.26-5.61-9.64-4.4-9.67-3.88-19.84-2.42-30.01 0.21-1.47 1.13-3.6 2.24-4 1.86-0.68 3 1.35 3.71 2.89 3.99 8.7 8.71 17.18 8.44 27.21-0.03 0.97 0.19 1.94 0.35 3.41z"/>
	<path class="st0" d="m42.79 97.9c0.52-4.46 0.79-9.33 1.72-14.07 1.43-7.26 4.15-14.07 8.68-20.04 0.44-0.58 1-1.17 1.63-1.49 1-0.5 1.85-0.47 2 1.06 0.36 3.79 1.45 7.63 1.11 11.34-0.79 8.5-0.38 17.29-4.65 25.19-1.7 3.15-3.19 6.43-4.94 9.55-0.45 0.81-1.56 1.25-2.36 1.86-0.52-0.85-1.33-1.64-1.5-2.55-0.66-3.45-1.1-6.93-1.69-10.85z"/>
	<path class="st0" d="m377.25 124.51c-1.02 3.8-1.46 7.3-2.88 10.35-3.78 8.1-8.01 15.96-15.25 21.69-2.69 2.13-5.12 4.59-7.83 6.68-0.85 0.66-2.36 0.99-3.36 0.72-0.55-0.15-1.03-1.88-0.96-2.85 0.3-3.98 1.28-7.76 3.32-11.3 3.24-5.6 6.74-10.97 11.34-15.56 4.01-4 8.43-7.4 13.86-9.29 0.35-0.11 0.71-0.17 1.76-0.44z"/>
	<path class="st0" d="m93.86 52.46c-1.19 3.6-2.14 7.3-3.64 10.77-3.1 7.18-6.91 14.01-12.2 19.84-1.89 2.08-4.26 3.75-6.5 5.49-0.67 0.52-1.64 0.79-2.51 0.91-2.45 0.36-3.88-1.28-3.06-3.58 2.95-8.21 6.39-16.25 11.45-23.36 2.91-4.1 6.86-7.47 10.47-11.05 0.73-0.73 1.97-1.06 3.04-1.33 2.01-0.49 2.6 0.08 2.95 2.31z"/>
	<path class="st0" d="m310.98 85.94c-0.39 0.88-0.55 2-1.07 2.2-0.68 0.26-1.78 0.02-2.45-0.4-5.63-3.45-9.38-8.74-13.21-13.89-2.45-3.3-4.81-6.73-6.68-10.37-1.7-3.3-2.78-6.93-3.92-10.48-0.26-0.81 0.07-2.45 0.64-2.75 0.77-0.4 2.32-0.25 3.02 0.31 2.79 2.24 5.44 4.68 8.04 7.15 5.55 5.28 9.96 11.38 12.72 18.55 1.2 3.13 1.95 6.43 2.91 9.68z"/>
	<path class="st0" d="m73.19 102.2c-0.6 1.42-1.17 3.58-2.33 5.38-3.27 5.08-6.38 10.36-10.31 14.91-4.24 4.9-9.32 9.08-14.06 13.54-0.53 0.5-1.23 1-1.92 1.11-0.82 0.13-1.88 0.08-2.5-0.36-0.37-0.27-0.4-1.59-0.08-2.16 2.19-3.92 4.23-7.97 6.86-11.59 3.34-4.59 6.98-9.01 10.88-13.13 3.31-3.51 7.04-6.64 10.82-9.65 1.59-1.28 2.7-0.51 2.64 1.95z"/>
	<path class="st0" d="m307.46 100.64c2.41 1.21 5 2.17 7.21 3.69 8.05 5.53 14.26 12.75 18.76 21.42 1 1.92 1.84 3.93 2.6 5.96 0.24 0.65 0.21 2.01-0.05 2.12-0.73 0.29-1.84 0.38-2.48 0-2.18-1.3-4.47-2.57-6.25-4.32-6.6-6.52-13.29-13.01-17.88-21.22-1.18-2.11-1.86-4.49-2.77-6.74 0.28-0.31 0.57-0.61 0.86-0.91z"/>
	<path class="st0" d="m190.11 119.41c2.49-0.12 4.98-0.34 7.46-0.27 0.38 0.01 1.02 1.33 1.03 2.06 0.09 5.25 0.04 10.51 0.06 15.76 0.01 2.31-0.73 4.97 2.73 6.01-2.96 0.25-5.69 1.69-8.76-0.21 0.27-0.02 0.1-0.06-0.02 0.01-3.84 2.05-6.56 1.88-9.04-0.59-2.56-2.55-3.19-7.17-1.45-10.47 1.66-3.13 5.12-4.91 8.76-4 2.34 0.58 2.61-0.16 2.66-2.2 0.06-2.67-0.3-4.83-3.8-5.19 0.12-0.32 0.25-0.61 0.37-0.91zm3.39 16.36h-0.09c0-1.35 0.27-2.77-0.09-4.01-0.29-1-1.19-2.21-2.11-2.54-0.77-0.28-2.23 0.29-2.89 0.97-1.92 1.96-2.08 7.97-0.48 10.23 0.92 1.29 2.17 1.82 3.72 1.38 1.55-0.45 2.04-1.59 1.95-3.11-0.05-0.98-0.01-1.95-0.01-2.92z"/>
	<path class="st0" d="m223.12 119.46c2.21-0.17 4.43-0.43 6.64-0.42 0.35 0 0.98 1.16 1 1.8 0.11 4.12 0.08 8.25 0.1 12.37 0 0.57 0.06 1.15 0.12 2.47 2.01-1.91 3.69-3.33 5.09-4.98 0.27-0.32-0.55-1.55-0.94-2.56h7.18c0.05 0.14 0.11 0.28 0.16 0.42-1.55 0.89-3.09 1.82-4.67 2.67-1.92 1.04-2.13 2.22-0.66 3.88 0.94 1.06 1.55 2.4 2.44 3.5 1.31 1.62 2.74 3.15 4.09 4.69-2.63 1.46-6.88 0.53-8.55-2.06-0.89-1.38-1.83-2.74-2.77-4.1-0.11-0.16-0.37-0.22-0.55-0.32-1.75 1.9-1.32 4.17 1.45 6.69h-9.75c2.81-1.24 2.09-3.64 2.11-5.72 0.03-3.97 0.03-7.95 0-11.93-0.02-2.31 0.74-4.99-3.01-5.74 0.17-0.21 0.34-0.44 0.52-0.66z"/>
	<path class="st0" d="m229.29 166.88c-5.97-0.39-9.64-2.69-10.81-7.06-1.04-3.86 0.41-7.66 3.86-9.71 4.67-2.78 9.4-2.75 14.07 0.03 3.01 1.8 4.21 4.58 3.97 8.01-0.24 3.39-2.05 5.83-5.06 7.15-1.88 0.84-4.01 1.08-6.03 1.58zm-5.79-9.92c0.15 0.09 0.29 0.18 0.44 0.26 0.08 0.74 0.11 1.49 0.26 2.22 0.56 2.79 2.47 4.46 5.08 4.49 2.55 0.03 4.6-1.43 5-4.21 0.27-1.91 0.13-4.06-0.49-5.87-1.05-3.05-5.34-4.09-7.62-1.82-1.28 1.27-1.81 3.27-2.67 4.93z"/>
	<path class="st0" d="m165.94 129.25c2.2-0.61 4.2-1.56 6.24-1.64 2.91-0.11 4.5 1.71 4.67 4.64 0.11 1.87 0.04 3.75 0.06 5.62 0.02 2.05-0.52 4.33 2.59 5.15-0.15 0.16-0.3 0.31-0.45 0.47h-9.15c3.21-3.65 1.6-7.79 1.45-11.7-0.02-0.62-1.6-1.67-2.43-1.65-1.49 0.04-3.04 0.83-3.13 2.64-0.14 2.61-0.17 5.26 0.08 7.86 0.09 0.92 1.12 1.76 1.89 2.87h-9.32c3.62-1.8 2.06-4.98 2.11-7.49 0.05-2.58 1.35-5.76-2.68-7.19 0.13-0.22 0.27-0.44 0.4-0.66 2.24-0.14 4.48-0.35 6.72-0.33 0.37 0.01 0.73 1.08 0.95 1.41z"/>
	<path class="st0" d="m221.13 126.22c0.27 0.58 0.34 0.69 0.32 0.7-2.46 2.12-1.15 4.25-0.42 6.73 1.96 6.64-4.48 12.36-11.53 10.17-2.47-0.77-4.22-0.91-5.81 1.24-0.09 0.12-0.41 0.05-0.8 0.09 0.03-0.4-0.07-0.9 0.1-1.03 2-1.5 1.8-2.98 0.7-5.12-1.5-2.94-1.02-6.08 1.2-8.62 2.59-2.95 6.04-3.35 9.71-2.74 0.51 0.09 1.06 0.22 1.49 0.49 1.4 0.88 2.5 0.62 3.5-0.67 0.36-0.46 0.94-0.76 1.54-1.24zm-12.31 11.39c2.09-1.93 4.12-3.74 6.05-5.65 0.27-0.27 0.24-1.33-0.05-1.6-0.77-0.71-1.75-1.62-2.65-1.62s-2.18 0.8-2.62 1.62c-1.25 2.26-1.14 4.78-0.73 7.25zm7.25-3.5c-0.28-0.08-0.55-0.16-0.83-0.24-1.91 1.86-3.86 3.68-5.7 5.6-0.3 0.31-0.36 1.32-0.1 1.61 0.71 0.77 1.66 1.85 2.5 1.84 0.97-0.01 2.52-0.87 2.78-1.69 0.74-2.28 0.94-4.73 1.35-7.12z"/>
	<path class="st0" d="m156.33 143.49h-12.55c0.06-0.35 0.06-0.48 0.08-0.49 3.78-0.57 3.36-3.38 3.31-6.07-0.07-3.52-0.08-7.05 0-10.58 0.05-2.09-0.28-3.75-2.76-4.08-0.23-0.03-0.42-0.33-1.15-0.95h12.56c0.17 0.19 0.35 0.38 0.52 0.57-4.64 0.47-3.53 3.66-3.56 6.26-0.04 3.45 0.04 6.9-0.03 10.35-0.05 2.05 0.13 3.8 2.7 4.06 0.22 0.04 0.39 0.4 0.88 0.93z"/>
	<path class="st0" d="m169.68 267.3c-1.02-1.62-2.27-3.27-0.03-4.83 1.73-1.2 4.62-1.02 5.82 0.35 1.35 1.55 0.15 2.56-0.71 3.47 0.61 1.25 1.34 2.34 1.64 3.55 0.12 0.49-0.58 1.34-1.1 1.81-1.64 1.45-5.25 1.34-6.64-0.16-1.64-1.78-0.14-2.94 1.02-4.19zm0.07 2.55c0.96 0.89 1.6 1.88 2.44 2.1 0.46 0.12 1.26-1.04 1.91-1.63-0.89-0.79-1.75-1.6-2.7-2.29-0.06-0.03-0.83 0.9-1.65 1.82zm3.13-3.9c0.3-0.11 0.6-0.22 0.91-0.32-0.35-1.05-0.7-2.1-1.05-3.16-0.6 0.28-1.59 0.43-1.73 0.87-0.55 1.63 0.63 2.2 1.87 2.61z"/>
	<path class="st0" d="m160.14 274.77c1.01-1.07 2-2.13 3-3.2-0.14-0.2-0.27-0.39-0.41-0.59-0.55 0.03-1.16 0.23-1.65 0.07-1-0.33-2.34-0.61-2.79-1.36-0.52-0.87-0.61-2.38-0.21-3.33 0.75-1.77 2.52-2.23 4.35-2.03 1.73 0.19 2.85 1.2 3.28 2.91 0.99 3.9-1.41 7.07-5.57 7.53zm3.85-6.61c-0.89-1.24-1.56-2.17-2.22-3.1-0.49 0.88-1.39 1.78-1.36 2.64 0.04 0.82 1.05 1.59 1.64 2.39 0.55-0.55 1.09-1.09 1.94-1.93z"/>
	<path class="st0" d="m227.48 272.65c-2.71 0.04-4.51-1.6-4.56-4.14-0.04-2.41 1.73-4.16 4.26-4.22 2.72-0.07 4.61 1.56 4.66 4.04 0.06 2.57-1.66 4.28-4.36 4.32zm2.51-4.15c-1.05-1.38-1.86-3.32-2.65-3.31-1.96 0.02-1.72 2.05-1.73 3.47 0 1.37 0 3.29 1.83 3.17 0.81-0.05 1.51-1.91 2.55-3.33z"/>
	<path class="st0" d="m207.12 264.28c2.54 0 4.55 1.91 4.5 4.29-0.04 2.33-1.93 4.03-4.46 4.05-2.79 0.01-4.48-1.53-4.53-4.14-0.05-2.5 1.77-4.2 4.49-4.2zm-2.56 3.96c0.98 1.53 1.69 3.61 2.44 3.62 1.96 0.03 1.83-2 1.82-3.43-0.01-1.35 0.18-3.3-1.7-3.32-0.76 0-1.54 1.81-2.56 3.13z"/>
	<path class="st0" d="m178.41 269.8c0.24-1.57 0.4-3.02 0.71-4.44 0.07-0.32 0.6-0.74 0.95-0.76 1.41-0.1 2.84-0.13 4.25-0.02 0.34 0.02 0.64 0.64 0.96 0.99-0.35 0.3-0.67 0.81-1.05 0.86-1.03 0.13-2.13-0.09-3.13 0.13-0.69 0.15-1.26 0.82-1.88 1.25 0.13 0.24 0.26 0.49 0.39 0.73 0.78-0.06 1.56-0.17 2.34-0.17 2.07-0.01 3.48 1.16 3.61 2.92 0.13 1.8-1.01 3.4-2.94 3.63-1.21 0.14-2.53-0.06-3.71-0.43-0.46-0.14-0.72-1.12-0.91-1.77-0.04-0.15 0.83-0.76 0.9-0.71 0.46 0.38 0.85 0.86 1.18 1.36 0.18 0.28 0.2 0.68 0.29 1.01 2.05-0.35 2.92-1.58 2.52-3.4-0.39-1.74-1.42-2.05-4.48-1.18z"/>
	<path class="st0" d="m196.15 270.54c1.18 0 2.36-0.09 3.53 0.05 0.43 0.05 0.8 0.62 1.2 0.95-0.37 0.29-0.74 0.8-1.12 0.82-2.13 0.08-4.26 0.04-6.39 0.04-0.13-0.26-0.26-0.53-0.39-0.79 0.92-0.8 1.88-1.56 2.76-2.4 0.72-0.7 1.56-1.4 1.93-2.27 0.16-0.39-0.7-1.21-1.1-1.84-0.37 0.42-0.74 0.83-1.1 1.25-0.36 0.41-0.65 0.91-1.09 1.17-0.16 0.09-0.94-0.4-0.96-0.65-0.03-0.53 0.12-1.21 0.46-1.59 1.2-1.35 4.79-1.3 6.02-0.01 1.06 1.11 0.73 2.73-0.81 3.49-0.97 0.47-2.03 0.75-3.05 1.11 0.04 0.22 0.07 0.45 0.11 0.67z"/>
	<path class="st0" d="m216.11 265.02c-0.13 0.42-0.16 0.73-0.31 0.97-0.33 0.52-0.71 0.99-1.07 1.48-0.38-0.29-1.11-0.65-1.07-0.85 0.13-0.59 0.51-1.54 0.88-1.59 1.71-0.21 3.54-0.5 5.16-0.09 1.5 0.38 1.42 2.74-0.05 3.6-0.94 0.55-2.03 0.84-3.06 1.72 0.95 0.08 1.93 0.05 2.86 0.27 0.61 0.14 1.14 0.62 1.7 0.95-0.58 0.31-1.15 0.83-1.76 0.88-1.49 0.13-3 0.08-4.49 0-0.45-0.02-0.87-0.4-1.31-0.62 0.22-0.45 0.33-1.03 0.69-1.31 0.93-0.75 2.04-1.28 2.94-2.05 1.46-1.24 1.03-2.71-1.11-3.36z"/>
	<path class="st0" d="m154.44 264.29c0.25 2.99 0.46 5.47 0.68 8.07h-3.58c0.21-1.07 0.62-2.2 0.62-3.34 0.01-1.11-0.39-2.23-0.64-3.56 0.63-0.25 1.74-0.69 2.92-1.17z"/>
	<path class="st0" d="m187.86 7.19c3.61-0.58 6.86-1.26 10.07 0.68-3.24-0.22-6.48-0.44-10.07-0.68z"/>
	<path class="st0" d="m185.8 7.8c-3.14 0.53-6.28 1.06-9.41 1.59-0.04-0.17-0.08-0.35-0.12-0.52 3.13-0.6 6.26-1.21 9.38-1.81 0.05 0.24 0.1 0.49 0.15 0.74z"/>
	<path class="st0" d="m191.35 268.82h-3.94v-0.77h3.91c0.01 0.25 0.02 0.51 0.03 0.77z"/>
	<path class="st0" d="m170.54 61.33c-2.91-2.37-3.27-3.85-1.33-6.66-0.98 2.91-0.44 4.93 1.33 6.66z"/>

</svg>
