<?xml version="1.0" encoding="UTF-8"?>
<svg enable-background="new 0 0 210.82 322.91" version="1.1" viewBox="0 0 210.82 322.91" xml:space="preserve" xmlns="http://www.w3.org/2000/svg">
<style type="text/css">
	.st0{fill:#EEC643;}
</style>

	<path class="st0" d="m11.92 284.92c0.75-1.22 1.57-2.41 2.41-3.61 0.16-0.13 0.32-0.27 0.47-0.43 1.76-1.82 3.31-3.57 5.25-5.24 1.64-1.41 2.93-3 4.71-4.23 5.65-3.14 11.3-6.29 17.12-9.1 4.57-2.21 9.54-3.37 14.46-4.73 7.23-2 14.37-1.87 21.35-0.45 9.49 1.92 16.98 7.66 23.04 15.16 1.78 2.2 1.1 4.27-1.7 4.85-2.92 0.6-5.92 0.86-8.9 1.04-3.66 0.23-7.35 0.57-10.98 0.27-7.4-0.6-13.51-4.66-19.85-8.04-1.86-0.99-3.92-1.85-5.98-2.12-2.03-0.27-4.18 0.18-6.25 0.52-1.61 0.27-3.25 0.68-4.72 1.36-2.38 1.09-4.75 2.29-6.93 3.74-2.1 1.39-4.04 3-5.98 4.54-0.78 0.48-1.45 1.09-2.05 1.86-0.45 0.57-0.88 1.15-1.28 1.76-0.06 0.09-0.1 0.16-0.13 0.22-0.06 0.05-0.14 0.12-0.26 0.23-1.41 1.34-2.57 2.85-3.5 4.52-0.03-0.02-0.05-0.05-0.07-0.07-2.57 3.84-5.27 7.41-7.47 11.27-3.02 5.27-4 11.25-5.15 17.13-0.3 1.54-0.64 3.13-1.33 4.51-0.43 0.85-1.48 1.75-2.39 1.93-3.72 0.73-5.73-1.3-5.79-5.07-0.12-7.14 1.44-13.84 4.92-20.05 2.21-3.98 4.6-7.88 6.98-11.77z"/>
	<path class="st0" d="m135.09 176.77c-1.53 0.82-2.51 1.29-3.45 1.86-13.03 7.79-20.94 19.15-23.82 34.05-0.9 4.64 0.71 8.58 3.3 12.22 0.31 0.44 1.68 0.62 2.24 0.31 9.06-4.96 16.21-11.57 19.73-21.71 1.86-5.37 3.77-10.61 3.26-16.38-0.3-3.26-0.79-6.51-1.26-10.35z"/>
	<path class="st0" d="m112.41 262.34c6.5-1.38 13.76-2.24 20.17-6.03 2.19-1.3 2.44-3.38 0.49-5.1-6.1-5.39-13.27-8.34-21.38-8.93-3.27-0.24-6.56-0.17-9.83-0.42-5.37-0.4-10.18 1.68-14.98 3.49-2.11 0.79-3.85 2.66-5.6 4.21-0.32 0.28-0.1 1.43 0.16 2.06 0.2 0.5 0.8 0.92 1.31 1.18 6.38 3.25 12.51 7.12 19.71 8.38 3.08 0.54 6.22 0.73 9.95 1.16z"/>
	<path class="st0" d="m179.21 186.66c-8.74-0.75-17.1 0.84-24.78 4.95-7.03 3.76-12.56 9.42-17.37 15.72-2.09 2.73-1.36 4.24 2.07 4.51 11.07 0.86 21.79-0.54 31.35-6.5 3.88-2.42 7.12-5.91 10.56-9.01 1.27-1.14 2.55-2.43 3.35-3.9 0.69-1.26 1.1-2.96 0.87-4.33-0.11-0.64-2-1.11-3.14-1.39-0.92-0.23-1.94-0.05-2.91-0.05z"/>
	<path class="st0" d="m118.34 234.76c0.99 0.62 1.62 1.15 2.34 1.44 4.32 1.68 8.54 3.85 13.02 4.81 6.61 1.41 13.38 1.55 19.94-0.91 3.72-1.39 7.54-2.52 11.24-3.97 2.43-0.95 4.84-2.07 7.04-3.45 1.94-1.21 1.75-2.36-0.3-3.45-8.1-4.31-16.6-7.69-25.89-7.26-7.04 0.32-13.94 2.01-19.74 6.55-1.59 1.25-3.28 2.38-4.87 3.63-0.89 0.74-1.7 1.6-2.78 2.61z"/>
	<path class="st0" d="m172.81 151.37c-0.02 2.36 1.99 3.44 4.18 2.12 2.82-1.7 5.5-3.63 8.22-5.49 5.66-3.87 10.54-8.61 13.44-14.81 3.06-6.55 5.73-13.37 5.85-20.82 0.03-1.72-1.86-2.74-3.7-2.19-6.03 1.79-10.35 5.9-14.33 10.46-7.51 8.62-11.47 18.85-13.5 29.95-0.05 0.3-0.12 0.59-0.16 0.78z"/>
	<path class="st0" d="m144.4 158.19c1.16 4.63 2.14 9.32 3.54 13.88 1 3.28 2.45 6.43 3.9 9.55 1.03 2.22 2.25 2.21 3.43 0.04 4.18-7.7 7.38-15.6 6.96-24.69-0.32-6.97-0.33-13.91-3.2-20.45-0.09-0.21-0.1-0.47-0.25-0.62-1.18-1.28-2.16-3.13-3.62-3.67-1.97-0.72-2.84 1.47-3.74 2.88-3.27 5.11-5.44 10.6-5.84 16.73-0.14 2.08-0.53 4.15-0.8 6.23-0.13 0.03-0.26 0.08-0.38 0.12z"/>
	<path class="st0" d="m67.38 242.45c7.31-0.88 15.46-2.73 21.93-7.86 6.09-4.82 11.73-10.48 14.84-17.99 0.99-2.4 0.37-3.64-2.24-3.25-4.72 0.7-9.4 1.72-14.02 2.91-7.28 1.87-12.68 6.61-18 11.69-3.05 2.91-5.11 6.18-6.73 9.87-1.43 3.27-0.32 4.73 4.22 4.63z"/>
	<path class="st0" d="m210.82 150.38c-1.42-0.11-2.15-0.21-2.87-0.22-6.14-0.09-12.27 0.6-17.82 3.13-4.31 1.97-8.43 4.71-11.99 7.83-4.41 3.87-8.16 8.48-12.18 12.79-1.15 1.23-0.95 2.64-0.2 3.96 0.78 1.38 2.04 1.19 3.37 0.94 1.84-0.34 3.71-0.48 5.57-0.73 6.26-0.87 11.5-3.94 16.67-7.35 6.3-4.16 12.34-8.55 16.89-14.64 1.14-1.51 1.61-3.52 2.56-5.71z"/>
	<path class="st0" d="m172.09 68.94c0.35 6.8 0.44 12.81 2.79 18.48 0.59 1.42 1.19 2.66 3.08 2.82 1.99 0.16 2.9-0.86 3.93-2.33 2.54-3.63 2.44-7.96 3.4-11.99 0.88-3.7 1.26-7.53 1.77-11.31 1.04-7.62-0.08-14.95-3.37-21.88-0.64-1.34-1.95-2.35-2.95-3.51-0.92 1.03-2.08 1.94-2.71 3.12-3.14 5.98-4.83 12.39-5.31 19.12-0.19 2.76-0.46 5.52-0.63 7.48z"/>
	<path class="st0" d="m177.42 112.83c-0.1 2.2 1.77 3.49 4.2 2.59 1.51-0.56 2.87-1.59 4.18-2.56 8.72-6.49 14.88-15.12 19.97-24.54 1.98-3.66 3.23-7.71 2.93-12.06-0.12-1.79-0.79-2.21-2.43-1.68-4.22 1.35-7.39 4.32-10.42 7.25-3.81 3.68-7.24 7.77-10.7 11.8-1.1 1.28-1.97 2.85-2.62 4.42-1.98 4.82-3.8 9.7-5.68 14.56 0.2 0.08 0.39 0.15 0.57 0.22z"/>
	<path class="st0" d="m174.42 125.95c-0.04-5.99-2-11.41-4.37-16.82-3.02-6.89-7.56-12.54-13.04-17.54-1.32-1.21-2.78-2.33-4.33-3.2-0.8-0.45-2.13-0.65-2.89-0.28-0.55 0.27-0.87 1.68-0.78 2.53 1.22 11.04 5.03 21.16 11.73 30.01 2.69 3.55 6.13 6.55 9.4 9.62 1.65 1.55 3.52 0.8 4.05-1.42 0.22-0.93 0.16-1.93 0.23-2.9z"/>
	<path class="st0" d="m168.04 47.91c-0.52-4.46-0.79-9.33-1.72-14.07-1.43-7.26-4.15-14.07-8.68-20.04-0.44-0.58-1-1.17-1.63-1.49-1-0.5-1.85-0.47-2 1.06-0.36 3.79-1.45 7.63-1.11 11.34 0.79 8.5 0.38 17.29 4.65 25.19 1.7 3.15 3.19 6.43 4.94 9.55 0.45 0.81 1.56 1.25 2.36 1.86 0.52-0.85 1.33-1.64 1.5-2.55 0.65-3.44 1.1-6.93 1.69-10.85z"/>
	<path class="st0" d="m116.97 2.47c1.19 3.6 2.14 7.3 3.64 10.77 3.1 7.18 6.91 14.01 12.2 19.84 1.89 2.08 4.26 3.75 6.5 5.49 0.67 0.52 1.64 0.79 2.51 0.91 2.45 0.36 3.88-1.28 3.06-3.58-2.95-8.21-6.39-16.25-11.45-23.36-2.91-4.1-6.86-7.47-10.47-11.05-0.73-0.73-1.97-1.06-3.04-1.33-2.02-0.49-2.61 0.08-2.95 2.31z"/>
	<path class="st0" d="m137.63 52.21c0.6 1.42 1.17 3.58 2.33 5.38 3.27 5.08 6.38 10.36 10.31 14.91 4.24 4.9 9.32 9.08 14.06 13.54 0.53 0.5 1.23 1 1.92 1.11 0.82 0.13 1.88 0.08 2.5-0.36 0.37-0.27 0.4-1.59 0.08-2.16-2.19-3.92-4.23-7.97-6.86-11.59-3.34-4.59-6.98-9.01-10.88-13.13-3.31-3.51-7.04-6.64-10.82-9.65-1.59-1.27-2.69-0.51-2.64 1.95z"/>

</svg>
