<?xml version="1.0" encoding="utf-8"?>
<!-- Generator: Adobe Illustrator 26.3.1, SVG Export Plug-In . SVG Version: 6.00 Build 0)  -->
<svg version="1.1" id="Layer_1" xmlns="http://www.w3.org/2000/svg" xmlns:xlink="http://www.w3.org/1999/xlink" x="0px" y="0px"
	 viewBox="0 0 592.28 380.89" style="enable-background:new 0 0 592.28 380.89;" xml:space="preserve">
<style type="text/css">
	.st0{fill:#12A3D9;}
	.st1{fill:#11B2E4;}
	.st2{fill:#53C6EB;}
	.st3{fill:#50C6DC;}
	.st4{fill:#21BEEA;}
	.st5{fill:#189ED6;}
	.st6{fill:#1BBBE7;}
	.st7{fill:#44C4EB;}
	.st8{fill:#189BD3;}
	.st9{fill:#4CC5EA;}
	.st10{fill:#12A9DF;}
	.st11{fill:#37C0E9;}
	.st12{fill:#EC1F82;}
	.st13{fill:#EC2183;}
	.st14{fill:#EC2383;}
	.st15{fill:#80D2F0;}
	.st16{fill:#EC1A82;}
	.st17{fill:#16A9DF;}
	.st18{fill:#92D5EF;}
	.st19{fill:#1DB6E6;}
	.st20{fill:#7F9AB0;}
	.st21{fill:#7D9AAF;}
	.st22{fill:#25BAE8;}
	.st23{fill:#18ACE1;}
	.st24{fill:#5BCAED;}
</style>
<g>
	<path class="st0" d="M393.33,150.95c-2.08,5.47-4.19,10.92-6.22,16.4c-10.58,28.45-21.15,56.9-31.73,85.35
		c-0.14,0.37-0.32,0.72-0.49,1.08c-0.01,0.02-0.13,0.03-0.15,0.01c-0.06-0.09-0.11-0.2-0.16-0.3c-0.14-1.02-0.23-2.04-0.42-3.05
		c-1.34-7.01-2.69-14.02-4.05-21.03c-2.68-13.85-5.37-27.7-8.07-41.55c-1.67-8.58-3.35-17.15-5.02-25.73
		c-1.93-9.92-3.86-19.85-5.77-29.77c-0.98-5.1-1.91-10.22-2.87-15.32c0.02-0.11,0.03-0.22,0.04-0.33c0.59-0.33,1.23-0.61,1.77-1.01
		c3.79-2.77,7.55-5.57,11.33-8.34c11.31-8.27,22.63-16.53,33.93-24.81c11.03-8.07,22.05-16.16,33.07-24.24
		c0.12,0.23,0.23,0.46,0.35,0.68c-0.07,0.74-0.11,1.48-0.23,2.21c-0.49,2.93-1.01,5.85-1.5,8.77c-1.21,7.14-2.39,14.29-3.61,21.43
		c-1.08,6.3-2.21,12.59-3.29,18.88c-1.11,6.47-2.16,12.94-3.26,19.41C395.78,136.78,394.55,143.86,393.33,150.95z"/>
	<path class="st1" d="M187.81,227.09c-0.24-0.08-0.47-0.17-0.71-0.25c-0.05-0.45-0.06-0.92-0.17-1.36
		c-1.27-5.22-2.56-10.44-3.84-15.65c-2.71-10.99-5.41-21.98-8.12-32.97c-1.71-6.93-3.43-13.86-5.14-20.8
		c-0.04-0.33,0.05-0.77-0.13-0.97c-1.4-1.58-2.87-3.1-4.28-4.67c-2.78-3.09-5.52-6.23-8.33-9.31c-1.81-1.98-3.71-3.86-5.57-5.79
		c0.11-0.23,0.23-0.46,0.34-0.69c2.15-0.79,4.32-1.53,6.44-2.38c14.54-5.77,29.07-11.56,43.61-17.34c2.85-1.13,5.69-2.29,8.67-3.49
		c-0.4-0.44-0.63-0.78-0.93-1.02c-3.44-2.84-6.88-5.68-10.34-8.5c-4.78-3.91-9.57-7.8-14.36-11.71c-5.4-4.41-10.81-8.82-16.21-13.23
		c0.55-0.38,1.07-0.83,1.67-1.13c6.2-3.12,12.41-6.21,18.62-9.32c0.54-0.27,1.02-0.68,1.53-1.03c0.21,0.01,0.41,0.01,0.62,0.02
		c0.13,0.13,0.27,0.27,0.4,0.4c4.81,5.22,9.6,10.46,14.45,15.65c4.38,4.69,8.86,9.3,13.25,13.98c2.04,2.17,3.95,4.45,5.99,6.62
		c2.31,2.46,4.7,4.84,7.06,7.26c0.1,0.82,0.21,1.65,0.31,2.47c-0.09,0.14-0.24,0.27-0.27,0.42c-0.84,5.23-1.62,10.48-2.51,15.7
		c-1.44,8.43-2.96,16.84-4.41,25.26c-1.38,8.03-2.78,16.06-4.05,24.11c-0.29,1.83-1.17,3.73,0.36,5.58
		c5.4,6.51,10.71,13.09,16.06,19.64c0.01,0.1,0.02,0.2,0.03,0.3c-7.03,0.02-14.06,0.04-21.09,0.08c-0.65,0-1.3,0.23-1.95,0.36
		c-4.1,3.55-8.2,7.09-12.29,10.64c-2.46,2.13-4.94,4.25-7.37,6.41C192.69,222.6,190.26,224.86,187.81,227.09z"/>
	<path class="st2" d="M408.88,58.99c-0.12-0.23-0.23-0.46-0.35-0.68c-0.01-0.17-0.02-0.34-0.04-0.52c0.97-0.86,2.03-1.64,2.89-2.6
		c5.25-5.83,10.44-11.71,15.66-17.56c0.61-0.68,1.18-1.51,2.28-0.76c-1.19,0.3-0.24,0.71-0.01,0.97
		c6.18,7.12,12.39,14.22,18.57,21.35c1.57,1.81,3.03,3.7,4.54,5.55c0,0,0.04,0.03,0.04,0.03c-14.19-2.25-28.39-4.51-43.02-6.83
		c12.65,11.39,24.93,22.45,37.48,33.76c0.55-2.63,1.02-4.85,1.48-7.07c1.37-6.6,2.74-13.2,4.11-19.8c2.42,3.55,4.88,7.08,7.26,10.65
		c6.25,9.36,12.47,18.75,18.7,28.12c0.28,0.42,0.53,0.86,0.89,1.44c-0.47,0.08-0.77,0.13-1.08,0.18c-0.36-0.31-0.67-0.75-1.09-0.93
		c-6.82-2.82-13.63-5.63-20.48-8.39c-2.69-1.08-5.44-2.02-8.17-3.02c0,0,0.03,0.01,0.03,0.01c-0.21-0.13-0.42-0.26-0.63-0.39
		c-0.24,0.13-0.7,0.32-0.68,0.4c1.31,5.89,2.65,11.78,3.99,17.67c0.01,0.05,0.08,0.08,0.12,0.12c0.1,0.2,0.17,0.42,0.3,0.61
		c6.41,9.08,12.83,18.15,19.22,27.24c10.08,14.34,20.13,28.71,30.21,43.04c0.47,0.67,1.17,1.17,1.76,1.75
		c0.37,0.75,0.81,1.48,1.06,2.26c0.09,0.3-0.28,0.74-0.44,1.11c-2.21-0.21-4.41-0.54-6.62-0.6c-7.47-0.18-14.94-0.26-22.41-0.38
		c-0.45-0.01-0.91-0.15-1.36-0.16c-3.14-0.01-6.28-0.01-9.68-0.01c0.15,2.03,0.25,4,0.44,5.97c0.43,4.61,0.89,9.21,1.34,13.81
		c-5.2-1.58-10.39-3.16-15.59-4.74c0.31-0.48,0.56-1.01,0.93-1.42c3.39-3.77,6.82-7.5,10.19-11.29c0.67-0.75,1.14-1.67,1.7-2.52
		c0.18-0.43,0.54-0.88,0.5-1.29c-0.13-1.36-0.41-2.7-0.63-4.05c-1.23-7.43-2.47-14.85-3.68-22.28c-1.09-6.7-2.12-13.41-3.2-20.11
		c-0.99-6.14-2.01-12.27-3.03-18.4c-0.38-2.3-0.81-4.59-1.21-6.88c-1.31,5.4-2.31,10.76-3.26,16.12
		c-1.53,8.59-3.02,17.18-4.55,25.77c-1.6,8.98-3.21,17.96-4.86,26.93c-0.14,0.75-0.64,1.43-0.97,2.14
		c-0.09-0.33-0.19-0.66-0.26-0.99c-3.26-14.49-6.52-28.98-9.79-43.47c-3.45-15.32-6.91-30.65-10.38-45.97
		c-2.32-10.25-4.66-20.5-7.04-30.74C409.82,61.07,409.28,60.04,408.88,58.99z"/>
	<path class="st3" d="M328.39,117.03c0.95,5.11,1.89,10.22,2.87,15.32c1.91,9.93,3.84,19.85,5.77,29.77
		c1.67,8.58,3.35,17.15,5.02,25.73c2.69,13.85,5.38,27.7,8.07,41.55c1.36,7.01,2.71,14.02,4.05,21.03c0.19,1.01,0.28,2.03,0.42,3.05
		c-1.38-2.51-2.8-5-4.14-7.54c-8.68-16.47-17.34-32.95-26.01-49.43c-13.87-26.34-27.74-52.67-41.62-79.01
		c-6-11.39-12.02-22.76-18.02-34.15c-0.27-0.5-0.45-1.05-0.68-1.57c1.14,0.49,2.32,0.9,3.4,1.49c5.96,3.3,11.87,6.66,17.83,9.96
		c7.99,4.42,16.02,8.78,24.01,13.19C315.71,109.95,322.05,113.5,328.39,117.03z"/>
	<path class="st3" d="M232.66,111.89c-0.1-0.82-0.21-1.65-0.31-2.47c0-0.29,0.04-0.59-0.02-0.86c-1.91-8.4-3.84-16.79-5.73-25.19
		c-0.66-2.94-1.21-5.91-1.81-8.87c2.31,4.81,4.65,9.6,6.93,14.43c4.95,10.5,9.85,21.01,14.78,31.51
		c14.98,31.93,29.96,63.86,44.94,95.79c2.9,6.19,5.78,12.39,8.67,18.58c0.14,0.31,0.22,0.64,0.33,0.97l-0.06,0.06
		c-2.82-1.39-5.67-2.72-8.45-4.19c-12.19-6.45-24.36-12.94-36.54-19.42c-5.84-3.1-11.67-6.22-17.5-9.33c-0.01-0.1-0.02-0.2-0.03-0.3
		c-0.33-5.2-0.67-10.39-0.98-15.59c-0.36-6.06-0.7-12.12-1.04-18.18c-0.35-6.29-0.69-12.58-1.04-18.87c-0.34-6-0.69-12-1.02-18.01
		C233.38,125.27,233.02,118.58,232.66,111.89z"/>
	<path class="st4" d="M151.53,135.32c1.86,1.93,3.76,3.81,5.57,5.79c2.81,3.07,5.54,6.21,8.33,9.31c1.41,1.57,2.88,3.09,4.28,4.67
		c0.18,0.2,0.09,0.64,0.13,0.97c-0.21,0.18-0.47,0.33-0.62,0.56c-3.02,4.52-6.04,9.05-9.04,13.58
		c-7.62,11.5-15.22,23.01-22.83,34.52c-0.22-0.11-0.45-0.23-0.67-0.34c-9.11-12.3-18.22-24.59-27.45-37.04
		c-0.44,0.6-0.73,0.95-0.97,1.32c-6.42,9.84-12.84,19.69-19.26,29.54c-3.44,5.28-6.89,10.56-10.34,15.84
		c-4.72,0-9.45,0.01-14.17,0.01c-2.55-1.85-5.09-3.7-7.64-5.55c4-5.77,7.99-11.54,12.01-17.29c4.65-6.65,9.33-13.28,13.98-19.93
		c0.39-0.56,0.71-1.17,1.05-1.76c0.07,0,0.15,0,0.22-0.02c0.42,0.09,0.85,0.3,1.25,0.25c6.13-0.66,12.25-1.33,18.37-2.06
		c1.78-0.21,3.54-0.62,5.3-0.94c0.35-0.18,0.73-0.3,1.04-0.53c5.77-4.38,11.55-8.77,17.3-13.17c5.62-4.3,11.2-8.65,16.83-12.94
		c2.17-1.65,4.42-3.19,6.63-4.78C151.06,135.32,151.3,135.32,151.53,135.32z"/>
	<path class="st2" d="M328.39,117.03c-6.34-3.53-12.68-7.08-19.03-10.59c-8-4.41-16.02-8.77-24.01-13.19
		c-5.96-3.29-11.87-6.66-17.83-9.96c-1.08-0.6-2.27-1-3.4-1.49c0.09-0.35,0.18-0.7,0.28-1.05c1.64-0.22,3.28-0.41,4.91-0.66
		c8.4-1.28,16.8-2.55,25.2-3.87c7.04-1.1,14.07-2.29,21.11-3.39c1.43-0.22,1.93-0.82,1.62-2.31c-0.73-3.52-1.32-7.06-1.97-10.59
		c-1.03-5.61-2.07-11.21-3.11-16.82c2.47,0.28,4.94,0.48,7.39,0.85c8.73,1.31,17.44,2.67,26.17,4.02c9.4,1.45,18.8,2.93,28.2,4.37
		c9.35,1.43,18.7,2.82,28.04,4.27c1.89,0.29,3.75,0.76,5.62,1.15c-0.38,0.19-0.75,0.48-1.15,0.55c-2.48,0.42-4.96,0.78-7.44,1.18
		c-6.7,1.1-13.4,2.23-20.1,3.32c-6.03,0.97-12.07,1.87-18.1,2.85c-7.55,1.22-15.09,2.49-22.63,3.73c-6.64,1.09-13.28,2.17-20.1,3.29
		c0.07,0.58,0.09,1.13,0.22,1.66c0.72,3.06,1.45,6.12,2.19,9.18c2.66,11.06,5.32,22.13,7.98,33.19
		C328.42,116.81,328.41,116.92,328.39,117.03z"/>
	<path class="st5" d="M408.88,58.99c0.4,1.06,0.94,2.09,1.19,3.18c2.37,10.24,4.71,20.49,7.04,30.74
		c3.47,15.32,6.93,30.64,10.38,45.97c3.27,14.49,6.52,28.98,9.79,43.47c0.08,0.33,0.18,0.66,0.26,0.99c0,0.17,0,0.34,0,0.51
		c-5.76-4.26-11.54-8.51-17.29-12.8c-8.98-6.69-17.95-13.39-26.92-20.09c1.22-7.08,2.46-14.16,3.66-21.25
		c1.1-6.47,2.15-12.94,3.26-19.41c1.08-6.3,2.21-12.59,3.29-18.88c1.22-7.14,2.41-14.29,3.61-21.43c0.49-2.93,1.02-5.85,1.5-8.77
		C408.77,60.47,408.81,59.72,408.88,58.99z"/>
	<path class="st6" d="M328.43,116.7c-2.66-11.06-5.32-22.13-7.98-33.19c-0.74-3.06-1.47-6.12-2.19-9.18
		c-0.12-0.53-0.14-1.08-0.22-1.66c6.83-1.12,13.47-2.2,20.1-3.29c7.55-1.24,15.09-2.51,22.63-3.73c6.03-0.97,12.07-1.87,18.1-2.85
		c6.7-1.08,13.4-2.22,20.1-3.32c2.48-0.41,4.96-0.76,7.44-1.18c0.4-0.07,0.77-0.36,1.15-0.55c0.31,0.01,0.62,0.02,0.93,0.03
		c0.01,0.17,0.02,0.34,0.04,0.51c-11.02,8.08-22.04,16.17-33.07,24.24c-11.31,8.28-22.63,16.53-33.93,24.81
		c-3.78,2.77-7.54,5.57-11.33,8.34C329.65,116.09,329.02,116.37,328.43,116.7z"/>
	<path class="st7" d="M168.76,76.96c5.4,4.41,10.8,8.83,16.21,13.23c4.78,3.9,9.58,7.8,14.36,11.71c3.45,2.82,6.9,5.66,10.34,8.5
		c0.3,0.25,0.53,0.58,0.93,1.02c-2.98,1.2-5.82,2.35-8.67,3.49c-14.53,5.79-29.07,11.57-43.61,17.34c-2.13,0.84-4.29,1.59-6.44,2.38
		c-0.23,0-0.47-0.01-0.7-0.01c0-0.23,0-0.45,0-0.68c0.12-0.59,0.33-1.19,0.33-1.78c0.02-14.81,0.02-29.62,0-44.43
		c0-0.6-0.22-1.19-0.33-1.78c0-0.2,0-0.39-0.01-0.59c0.35-0.26,0.69-0.53,1.04-0.79c0.64-0.21,1.32-0.33,1.91-0.63
		c4.25-2.09,8.48-4.22,12.72-6.31C167.45,77.33,168.13,77.18,168.76,76.96z"/>
	<path class="st8" d="M137.34,204.72c7.61-11.51,15.22-23.02,22.83-34.52c3-4.53,6.02-9.06,9.04-13.58
		c0.15-0.22,0.41-0.37,0.62-0.56c1.71,6.93,3.43,13.86,5.14,20.8c2.71,10.99,5.41,21.98,8.12,32.97c1.28,5.22,2.57,10.43,3.84,15.65
		c0.11,0.44,0.11,0.9,0.17,1.36c-4.99-2.16-9.97-4.32-14.96-6.47c-3.41-1.47-6.84-2.92-10.26-4.37c-0.47-0.31-0.91-0.69-1.42-0.92
		c-4.22-1.9-8.44-3.8-12.69-5.64c-3.45-1.5-6.94-2.92-10.42-4.37C137.36,204.95,137.35,204.83,137.34,204.72z"/>
	<path class="st7" d="M137.34,204.72c0.01,0.12,0.02,0.23,0.03,0.35c-1.86,1.92-3.73,3.83-5.59,5.76c-2.89,3-5.8,5.99-8.65,9.02
		c-0.53,0.56-0.86,1.32-1.29,1.98c-1.69-0.22-3.4-0.33-5.05-0.71c-1.2-0.28-1.85,0-2.61,0.95c-4.1,5.1-8.27,10.15-12.49,15.16
		c-0.41,0.48-1.41,0.93-1.94,0.77c-13.08-4.13-26.14-8.34-39.19-12.55c-0.2-0.07-0.38-0.23-0.57-0.35
		c3.63-2.16,7.26-4.31,10.87-6.48c2.17-1.3,4.33-2.64,6.49-3.96c-3.78-0.28-7.44-0.26-11.09-0.29c-0.6,0-1.19-0.21-1.78-0.33
		c4.72,0,9.45-0.01,14.17-0.01c8.23-1.27,16.45-2.53,24.67-3.82c10.14-1.59,20.27-3.2,30.4-4.85c1.01-0.16,1.97-0.65,2.95-0.99
		C136.9,204.49,137.12,204.6,137.34,204.72z"/>
	<path class="st4" d="M151.18,133.94c0,0.23,0,0.45,0,0.68l-0.03,0.01c-0.47-0.42-0.98-0.8-1.4-1.27c-2.75-3.07-5.47-6.16-8.22-9.23
		c-3.13-3.5-6.29-6.97-9.41-10.48c-4.49-5.04-8.98-10.09-13.45-15.15c-2.27-2.57-4.47-5.21-6.78-7.74
		c-1.33-1.45-2.82-2.75-4.24-4.12l0,0c0-0.23,0-0.46,0-0.69c0-0.12,0-0.24,0-0.36c10.62,0,21.24,0.01,31.86-0.02
		c0.68,0,1.36-0.31,2.05-0.47c3.2,0.09,6.41,0.17,9.61,0.26c0,0.2,0,0.39,0.01,0.59C151.18,101.94,151.18,117.94,151.18,133.94z"/>
	<path class="st9" d="M107.65,85.59c0,0.12,0,0.24,0,0.36c0,0.23,0,0.46,0,0.69c0,0,0,0,0,0c0.4,2.07,0.75,4.15,1.22,6.2
		c1.97,8.62,4,17.24,5.94,25.87c0.23,1.01,0.43,2.26,0.03,3.13c-3.36,7.41-6.87,14.76-10.31,22.14c-1.79,3.84-3.55,7.71-5.32,11.56
		c-0.21,0-0.42,0-0.62,0c-0.9,0.05-1.8,0.11-2.69,0.16c-0.57,0-1.15,0-1.72,0c-0.69,0.11-1.39,0.23-2.08,0.34
		c-0.58,0.11-1.15,0.23-1.73,0.34c-1.96,0.12-3.92,0.23-5.87,0.35c-0.57,0-1.15,0-1.72,0c-0.6,0.13-1.21,0.25-1.81,0.38
		c1.16-1.98,2.26-4,3.5-5.93c6.97-10.75,13.96-21.49,21.01-32.19c0.87-1.32,0.92-2.38,0.28-3.8c-3.8-8.49-7.5-17.02-11.21-25.56
		c-0.21-0.48-0.32-1.15-0.15-1.62c2.57-7.19,5.19-14.36,7.81-21.53c0.04-0.1,0.14-0.18,0.22-0.26c1.28,5.39,2.52,10.79,3.86,16.17
		C106.58,83.51,107.19,84.53,107.65,85.59z"/>
	<path class="st10" d="M437.54,183.84c0-0.17,0-0.34,0-0.51c0.33-0.71,0.83-1.39,0.97-2.14c1.65-8.97,3.26-17.95,4.86-26.93
		c1.53-8.59,3.02-17.18,4.55-25.77c0.96-5.37,1.95-10.73,3.26-16.12c0.4,2.29,0.83,4.59,1.21,6.88c1.02,6.13,2.04,12.26,3.03,18.4
		c1.08,6.7,2.11,13.41,3.2,20.11c1.21,7.43,2.45,14.85,3.68,22.28c0.22,1.35,0.5,2.69,0.63,4.05c0.04,0.41-0.32,0.86-0.5,1.29
		c-1.02-0.11-2.04-0.28-3.06-0.32c-7.1-0.25-14.21-0.47-21.32-0.7C437.88,184.18,437.71,184.01,437.54,183.84z"/>
	<path class="st5" d="M452.43,64.74c-1.51-1.85-2.98-3.75-4.54-5.55c-6.18-7.13-12.39-14.23-18.57-21.35
		c-0.22-0.26-1.17-0.67,0.01-0.97c0.09,0,0.18,0.02,0.26,0.06c1.78,0.58,3.55,1.21,5.34,1.73c11.25,3.3,22.51,6.58,33.76,9.86
		c9.66,2.82,19.34,5.61,28.99,8.45c4.49,1.32,8.95,2.72,13.43,4.09C491.55,62.28,471.99,63.51,452.43,64.74z"/>
	<path class="st6" d="M312.14,43.11c1.04,5.61,2.08,11.21,3.11,16.82c0.65,3.53,1.24,7.08,1.97,10.59c0.31,1.49-0.19,2.08-1.62,2.31
		c-7.04,1.11-14.07,2.29-21.11,3.39c-8.39,1.32-16.8,2.59-25.2,3.87c-1.63,0.25-3.27,0.44-4.91,0.66
		c4.62-3.69,9.22-7.41,13.86-11.07c10.81-8.55,21.64-17.08,32.47-25.62C311.17,43.7,311.67,43.42,312.14,43.11z"/>
	<path class="st11" d="M502.88,183.32c-0.59-0.58-1.29-1.09-1.76-1.75c-10.09-14.34-20.13-28.7-30.21-43.04
		c-6.39-9.09-12.82-18.16-19.22-27.24c-0.13-0.18-0.2-0.4-0.3-0.61c5.34-0.03,10.7,0.14,16.02-0.16c3.3-0.19,4.37,1.48,5.51,4.14
		c7.09,16.45,14.37,32.82,21.57,49.22C497.32,170.35,500.08,176.84,502.88,183.32z"/>
	<path class="st2" d="M511.11,61.04c-4.47-1.37-8.94-2.77-13.43-4.09c-9.66-2.84-19.33-5.63-28.99-8.45
		c-11.26-3.28-22.51-6.56-33.76-9.86c-1.8-0.53-3.56-1.15-5.34-1.73c4.09,0.51,8.19,0.97,12.28,1.53
		c7.78,1.07,15.55,2.19,23.33,3.29c7.09,1,14.19,2.01,21.28,3c6.98,0.97,13.97,1.93,20.96,2.88c1.87,0.26,3.78,0.37,5.62,0.8
		c1.33,0.31,2.29-0.01,3.35-0.72c7.34-4.94,14.71-9.84,22.08-14.74c0.52-0.35,1.09-0.62,1.63-0.92c0,0,0.1,0.1,0.1,0.1
		c-0.3,0.41-0.54,0.86-0.89,1.22c-8.77,8.91-17.54,17.82-26.35,26.69C512.49,60.53,511.74,60.72,511.11,61.04z"/>
	<path class="st12" d="M557.11,298.23c0-8.33,0-16.65,0-25.06c1.98,0,3.86,0,5.89,0c0,11.87,0,23.73,0,35.83
		c-1.63,0-3.28,0.09-4.92-0.06c-0.47-0.04-0.98-0.69-1.32-1.17c-5.58-8.03-11.13-16.07-16.99-24.55c0,8.82,0,17.19,0,25.67
		c-2.17,0-4.09,0-6.11,0c0-11.9,0-23.78,0-35.81c1.78,0,3.5-0.1,5.2,0.06c0.53,0.05,1.13,0.68,1.48,1.19
		c5.14,7.49,10.25,15.01,15.36,22.52c0.35,0.51,0.72,1,1.07,1.49C556.9,298.31,557.01,298.27,557.11,298.23z"/>
	<path class="st12" d="M422.93,283.71c0,8.36,0,16.73,0,25.19c-2.09,0-4.01,0-6.02,0c0-11.87,0-23.71,0-35.81
		c1.76,0,3.58-0.08,5.39,0.06c0.47,0.04,0.97,0.71,1.31,1.19c5.13,7.5,10.24,15.01,15.36,22.52c0.34,0.51,0.72,0.99,1.33,1.84
		c0-8.76,0-17.11,0-25.54c2.05,0,3.93,0,5.96,0c0,11.87,0,23.74,0,35.83c-1.64,0-3.3,0.09-4.93-0.06c-0.47-0.04-0.98-0.69-1.31-1.18
		c-5.25-7.56-10.48-15.13-15.71-22.7c-0.33-0.47-0.66-0.94-0.99-1.41C423.18,283.68,423.06,283.69,422.93,283.71z"/>
	<path class="st12" d="M385.46,309.01c-1.62,0-3.13,0.12-4.6-0.06c-0.59-0.07-1.27-0.66-1.64-1.2
		c-5.27-7.55-10.49-15.12-15.72-22.69c-0.32-0.47-0.66-0.93-1.28-1.8c0,8.8,0,17.18,0,25.65c-2.17,0-4.09,0-6.1,0
		c0-11.89,0-23.72,0-35.81c1.78,0,3.6-0.08,5.4,0.06c0.47,0.04,0.97,0.71,1.3,1.2c5.13,7.5,10.24,15.01,15.36,22.52
		c0.34,0.5,0.71,0.99,1.27,1.75c0-8.65,0-16.96,0-25.41c2.03,0,3.95,0,6.01,0C385.46,285.05,385.46,296.92,385.46,309.01z"/>
	<path class="st12" d="M487.01,283.68c-2.43,0.34-4.46,0.63-6.5,0.92c-0.2-0.46-0.35-0.77-0.46-1.09c-1.17-3.28-3.37-5.35-6.94-5.55
		c-3.68-0.21-6.65,1.31-8.16,4.66c-2.46,5.44-2.44,11.09-0.02,16.54c1.57,3.53,5.67,5.25,9.59,4.47c3.7-0.73,5.87-3.28,6.29-7.38
		c0.05-0.51,0.11-1.02,0.18-1.69c-2.63,0-5.19,0-7.89,0c0-1.44,0-2.72,0-4.11c4.69,0,9.36,0,14.11,0c0.04,0.27,0.09,0.49,0.09,0.71
		c0,5.86,0,11.72,0,17.72c-1.36,0-2.65,0-4.13,0c0-1.45,0-2.96,0-4.84c-0.52,0.44-0.8,0.6-0.97,0.83
		c-5.29,6.98-17.36,5.36-21.96-1.27c-3-4.33-3.82-9.16-3.49-14.27c0.31-4.85,1.76-9.25,5.39-12.69c6.84-6.49,19.01-4.76,23.42,3.35
		C486.16,281.06,486.48,282.29,487.01,283.68z"/>
	<path class="st8" d="M224.79,74.49c0.6,2.96,1.15,5.93,1.81,8.87c1.89,8.4,3.82,16.79,5.73,25.19c0.06,0.27,0.02,0.57,0.02,0.86
		c-2.36-2.42-4.75-4.8-7.06-7.26c-2.04-2.17-3.95-4.45-5.99-6.62c-4.4-4.68-8.87-9.29-13.25-13.98
		c-4.85-5.19-9.63-10.43-14.45-15.65c0.34,0.02,0.7,0,1.03,0.08c9.57,2.33,19.14,4.68,28.71,7.01c0.81,0.2,1.66,0.27,2.49,0.4
		C224.14,73.76,224.46,74.13,224.79,74.49z"/>
	<path class="st13" d="M303.57,293.53c2.19,5.11,4.34,10.11,6.49,15.12c0.02,0.04-0.03,0.11-0.1,0.36c-1.7,0-3.46,0.07-5.21-0.05
		c-0.44-0.03-1.01-0.63-1.22-1.1c-1.76-3.99-3.48-8-5.12-12.05c-0.42-1.03-0.94-1.37-2.02-1.33c-2.18,0.09-4.36,0.03-6.75,0.03
		c0,4.84,0,9.57,0,14.4c-2.14,0-4.06,0-6.07,0c0-11.92,0-23.79,0-35.61c5.92,0,11.8-0.35,17.61,0.11c5.15,0.4,7.95,3.37,8.77,7.85
		c0.92,4.97-1.02,9.19-5.36,11.68C304.3,293.11,304,293.28,303.57,293.53z M289.67,289.64c2.7,0,5.23,0.02,7.75-0.01
		c0.57-0.01,1.14-0.14,1.7-0.26c3.14-0.67,4.81-2.7,4.78-5.8c-0.03-3-1.68-5.11-4.89-5.44c-3.06-0.31-6.17-0.07-9.33-0.07
		C289.67,281.9,289.67,285.67,289.67,289.64z"/>
	<path class="st13" d="M273.01,291.54c-0.26,1.8-0.4,3.88-0.89,5.87c-2.08,8.55-9.22,13.19-17.94,11.78
		c-7.54-1.22-12.52-6.41-13.1-14.27c-0.26-3.45-0.17-7.07,0.61-10.41c1.88-8.07,7.91-12.15,16.5-11.77
		c7.2,0.32,12.81,5.44,14.18,13.03C272.71,287.59,272.79,289.44,273.01,291.54z M266.62,291.1c-0.56-2.6-0.88-5.42-1.81-8.02
		c-1.22-3.42-4.02-5.05-7.64-5.13c-3.73-0.09-6.74,1.38-8.19,4.87c-2.23,5.35-2.25,10.89-0.16,16.28c1.37,3.54,4.49,5.18,8.6,5.04
		c3.75-0.13,6.53-1.98,7.68-5.57C265.84,296.26,266.09,293.78,266.62,291.1z"/>
	<path class="st14" d="M55.97,308.94c-2.01,0-3.9,0-5.98,0c0-5.26,0-10.46,0-15.73c-5.06,0-9.92,0-14.94,0c0,5.23,0,10.38,0,15.67
		c-2.08,0-4,0-6.04,0c0-11.84,0-23.71,0-35.69c1.93,0,3.86,0,5.93,0c0,4.84,0,9.66,0,14.61c5.05,0,9.95,0,14.99,0
		c0-4.83,0-9.64,0-14.58c2.05,0,3.97,0,6.04,0C55.97,285.04,55.97,296.91,55.97,308.94z"/>
	<path class="st15" d="M107.65,85.59c-0.46-1.06-1.08-2.08-1.35-3.19c-1.34-5.38-2.58-10.78-3.86-16.17
		c0.4-0.21,0.82-0.63,1.18-0.58c6.41,0.85,12.82,1.76,19.22,2.68c0.48,0.07,1.02,0.26,1.37,0.57c5.53,5.02,11.03,10.07,16.53,15.12
		c0.33,0.3,0.54,0.72,0.81,1.08c-0.68,0.16-1.36,0.47-2.05,0.47C128.89,85.6,118.27,85.59,107.65,85.59z"/>
	<path class="st12" d="M498.48,273.15c7.9,0,15.65,0,23.5,0c0,1.7,0,3.33,0,5.11c-5.84,0-11.57,0-17.41,0c0,3.34,0,6.53,0,9.92
		c5.04,0,10.13,0,15.34,0c0,1.81,0,3.44,0,5.27c-5.11,0-10.2,0-15.37,0c0,3.51,0,6.82,0,10.32c5.91,0,11.81,0,17.81,0
		c0,1.77,0,3.35,0,5.09c-7.93,0-15.88,0-23.87,0C498.48,296.95,498.48,285.04,498.48,273.15z"/>
	<path class="st12" d="M174.46,273.17c7.85,0,15.64,0,23.52,0c0,1.67,0,3.25,0,5.06c-5.82,0-11.59,0-17.45,0c0,3.41,0,6.61,0,9.99
		c5.08,0,10.17,0,15.37,0c0,1.81,0,3.44,0,5.21c-5.11,0-10.15,0-15.33,0c0,3.49,0,6.83,0,10.37c5.89,0,11.78,0,17.77,0
		c0,1.77,0,3.36,0,5.08c-7.93,0-15.84,0-23.88,0C174.46,297.09,174.46,285.22,174.46,273.17z"/>
	<path class="st12" d="M344.45,273.2c0,1.66,0,3.25,0,5.05c-5.85,0-11.62,0-17.47,0c0,3.41,0,6.61,0,9.99c5.12,0,10.21,0,15.4,0
		c0,1.77,0,3.35,0,5.15c-5.06,0-10.14,0-15.35,0c0,3.55,0,6.9,0,10.38c5.89,0,11.74,0,17.73,0c0,1.75,0,3.38,0,5.12
		c-7.9,0-15.81,0-23.85,0c0-11.83,0-23.7,0-35.68C328.71,273.2,336.55,273.2,344.45,273.2z"/>
	<path class="st10" d="M465.2,205.34c-0.45-4.6-0.91-9.21-1.34-13.81c-0.18-1.97-0.29-3.95-0.44-5.97c3.4,0,6.54-0.01,9.68,0.01
		c0.45,0,0.91,0.15,1.36,0.16c7.47,0.13,14.94,0.2,22.41,0.38c2.21,0.05,4.41,0.39,6.62,0.6c-12.49,6.15-24.99,12.3-37.48,18.44
		C465.77,205.26,465.47,205.28,465.2,205.34z"/>
	<path class="st16" d="M209.67,273.16c7.81,0,15.49,0,23.27,0c0,1.66,0,3.24,0,5.03c-5.65,0-11.31,0-17.08,0c0,3.44,0,6.67,0,10.03
		c4.97,0,9.9,0,14.96,0c0,1.74,0,3.37,0,5.19c-4.93,0-9.9,0-15.06,0c0,5.26,0,10.34,0,15.5c-2.12,0-4.05,0-6.1,0
		C209.67,297.04,209.67,285.17,209.67,273.16z"/>
	<path class="st17" d="M187.81,227.09c2.45-2.23,4.88-4.48,7.35-6.69c2.43-2.16,4.91-4.28,7.37-6.41c4.1-3.55,8.2-7.1,12.29-10.64
		c-0.39,8.82-0.78,17.65-1.19,26.81C204.88,229.12,196.35,228.1,187.81,227.09z"/>
	<path class="st12" d="M95.65,273.08c-3.9,6.61-7.67,12.91-11.33,19.28c-0.57,0.98-0.91,2.23-0.94,3.37
		c-0.11,4.36-0.04,8.72-0.04,13.17c-2.08,0-4,0-6.1,0c0-4.35,0.07-8.65-0.04-12.94c-0.03-1.19-0.36-2.5-0.94-3.53
		c-3.33-5.83-6.79-11.6-10.2-17.39c-0.32-0.54-0.61-1.09-1.1-1.95c2.15,0,4.07-0.07,5.97,0.05c0.4,0.03,0.85,0.68,1.12,1.13
		c2.71,4.74,5.38,9.49,8.21,14.49c0.41-0.65,0.74-1.14,1.02-1.64c2.38-4.26,4.79-8.51,7.12-12.8c0.5-0.92,1.04-1.34,2.13-1.27
		C92.12,273.16,93.74,273.08,95.65,273.08z"/>
	<path class="st16" d="M113.18,278.58c-3.92,0-7.52,0-11.21,0c0-1.84,0-3.54,0-5.37c9.27,0,18.5,0,27.87,0c0,1.7,0,3.44,0,5.34
		c-3.49,0-6.97,0-10.65,0c0,10.18,0,20.21,0,30.34c-2.06,0-3.93,0-6.01,0C113.18,298.89,113.18,288.87,113.18,278.58z"/>
	<path class="st16" d="M148.73,278.62c-3.88,0-7.44,0-11.14,0c0-1.82,0-3.56,0-5.42c9.24,0,18.47,0,27.83,0c0,1.73,0,3.47,0,5.38
		c-3.52,0-7,0-10.68,0c0,10.18,0,20.2,0,30.33c-2.06,0-3.93,0-6.01,0C148.73,298.87,148.73,288.85,148.73,278.62z"/>
	<path class="st18" d="M168.76,76.96c-0.64,0.22-1.31,0.37-1.91,0.66c-4.25,2.09-8.48,4.22-12.72,6.31
		c-0.6,0.29-1.27,0.42-1.91,0.63c1.18-1.45,2.31-2.96,3.56-4.35c4.72-5.25,9.49-10.45,14.22-15.69c2.5-2.77,4.95-5.58,7.43-8.36
		c0.18-0.21,0.42-0.37,0.76-0.67c3.23,2.51,6.44,4.99,9.62,7.5c0.97,0.77,1.86,1.65,2.78,2.48c-0.51,0.34-0.99,0.75-1.53,1.03
		c-6.2,3.12-12.42,6.2-18.62,9.32C169.84,76.13,169.32,76.58,168.76,76.96z"/>
	<path class="st19" d="M121.84,221.83c0.42-0.67,0.76-1.42,1.29-1.98c2.86-3.03,5.76-6.02,8.65-9.02c1.86-1.92,3.72-3.84,5.59-5.76
		c3.47,1.45,6.96,2.87,10.42,4.37c4.25,1.84,8.47,3.74,12.69,5.64c0.51,0.23,0.95,0.61,1.42,0.92c-8.74,1.3-17.49,2.62-26.23,3.9
		C131.06,220.57,126.45,221.19,121.84,221.83z"/>
	<path class="st20" d="M311.79,331.66c0.66-0.85,1.25-1.61,1.82-2.35c2.41,1.65,2.43,1.69,0.67,3.64c-0.66,0.73-0.73,1.33-0.36,2.29
		c1.44,3.65,1.37,7.32-0.53,10.8c-2.27,4.16-8.24,5.8-12.68,3.38c-1.52-0.83-2.45-0.89-3.35,0.61c-0.11,0.18-0.36,0.27-0.53,0.38
		c-2.25-1.35-2.34-1.68-0.68-3.37c0.68-0.69,0.73-1.23,0.35-2.09c-1.23-2.84-1.29-5.81-0.48-8.76c1.66-6,8.45-8.71,13.97-5.62
		C310.51,330.84,310.98,331.16,311.79,331.66z M301.29,341.9c2.04-1.98,3.91-3.73,5.69-5.57c0.46-0.48,1.08-1.51,0.9-1.76
		c-0.45-0.63-1.27-1.18-2.04-1.35c-1.53-0.34-2.9,0.18-3.66,1.63C301.06,337.01,301,339.32,301.29,341.9z M302.22,344.89
		c1.49,2.07,4.15,2.3,5.64,0.72c1.37-1.45,1.83-5.34,1.14-6.64C306.81,340.88,304.49,342.91,302.22,344.89z"/>
	<path class="st18" d="M223.82,73.39c-0.83-0.13-1.68-0.2-2.49-0.4c-9.57-2.33-19.14-4.68-28.71-7.01
		c-0.33-0.08-0.68-0.05-1.03-0.08c-0.13-0.13-0.27-0.27-0.4-0.4c3.16-4.21,6.33-8.43,9.5-12.64c0.13-0.17,0.35-0.26,0.66-0.49
		c2.06,1.85,4.13,3.66,6.14,5.52c5.23,4.83,10.44,9.68,15.65,14.53C223.42,72.68,223.6,73.06,223.82,73.39z"/>
	<path class="st21" d="M254.09,341.79c0-3.95,0-7.89,0-11.96c1.51,0,2.91,0,4.44,0c0,6.67,0,13.31,0,19.96
		c-2.81,0.87-3.94,0.49-5.58-1.84c-2.47-3.49-4.95-6.98-7.77-10.35c0,4.09,0,8.18,0,12.38c-1.58,0-2.98,0-4.49,0
		c0-6.71,0-13.35,0-20.26c1.35,0,2.72-0.09,4.06,0.05c0.44,0.05,0.91,0.62,1.22,1.05c2.21,3.15,4.38,6.33,6.57,9.49
		c0.38,0.55,0.77,1.1,1.16,1.64C253.82,341.9,253.96,341.85,254.09,341.79z"/>
	<path class="st21" d="M269.71,329.9c3.16,0,6.22-0.3,9.21,0.06c6.12,0.73,8.29,5.52,7.81,10.65c-0.61,6.57-4.08,9.47-10.74,9.48
		c-2.06,0-4.11,0-6.28,0C269.71,343.27,269.71,336.63,269.71,329.9z M274.34,333.59c0,4.3,0,8.45,0,12.58
		c3.41,0.31,5.51-0.37,6.53-2.29c1.42-2.66,1.5-5.49,0.03-8.08C279.5,333.34,276.96,333.35,274.34,333.59z"/>
	<path class="st20" d="M342.89,349.96c-3.48,0.7-5.85-0.02-7.06-3.49c-0.63-1.79-1.87-3.37-2.83-5.05
		c-3.56,1.98-2.91,5.32-2.91,8.53c-1.69,0-3.25,0-4.92,0c0-6.68,0-13.32,0-20.1c1.59,0,3.16,0,4.89,0c0,2.77,0,5.49,0,8.21
		c0.12,0.05,0.24,0.1,0.37,0.15c1.63-2.17,3.37-4.27,4.85-6.54c1.05-1.6,2.3-2.23,4.14-1.98c0.79,0.11,1.6,0.02,2.76,0.02
		c-1.79,2.43-3.37,4.7-5.09,6.86c-0.7,0.88-0.68,1.51-0.15,2.42c1.75,3.03,3.41,6.12,5.1,9.19
		C342.31,348.72,342.56,349.29,342.89,349.96z"/>
	<path class="st14" d="M404.18,308.92c-2,0-3.92,0-5.93,0c0-11.93,0-23.79,0-35.74c1.98,0,3.91,0,5.93,0
		C404.18,285.1,404.18,296.96,404.18,308.92z"/>
	<path class="st5" d="M438.05,184.35c7.11,0.23,14.21,0.45,21.32,0.7c1.02,0.04,2.04,0.21,3.06,0.32c-0.56,0.84-1.03,1.77-1.7,2.52
		c-3.37,3.79-6.8,7.52-10.19,11.29c-0.37,0.42-0.62,0.94-0.93,1.42c-1.01-1.3-2.08-2.57-3.03-3.92
		C443.71,192.59,440.89,188.46,438.05,184.35z"/>
	<path class="st17" d="M64.48,214.04c0.59,0.11,1.19,0.32,1.78,0.33c3.66,0.03,7.31,0.02,11.09,0.29c-2.16,1.32-4.32,2.65-6.49,3.96
		c-3.62,2.17-7.25,4.32-10.87,6.48c-3.25-3.29-6.5-6.58-9.65-9.76c2.25-2.37,4.38-4.61,6.5-6.84
		C59.39,210.34,61.93,212.19,64.48,214.04z"/>
	<path class="st22" d="M448.56,92.88c2.72,1,5.47,1.94,8.17,3.02c6.84,2.75,13.66,5.57,20.48,8.39c0.42,0.17,0.73,0.61,1.09,0.93
		c-3.62,0.63-7.23,1.28-10.86,1.88c-0.46,0.08-1.09,0.06-1.41-0.2c-5.79-4.55-11.54-9.14-17.29-13.72
		C448.65,93.1,448.62,92.98,448.56,92.88z"/>
	<path class="st2" d="M95.91,155.69c0.9-0.05,1.8-0.11,2.69-0.16c-0.25,0.38-0.43,0.83-0.75,1.13c-3.57,3.38-7.15,6.75-10.74,10.11
		c-0.99,0.92-2,1.82-3,2.73c-0.07,0.01-0.15,0.02-0.22,0.02c-0.97-4.14-1.94-8.27-2.91-12.41c0.6-0.13,1.21-0.25,1.81-0.38
		c0.57,0,1.15,0,1.72,0c1.96-0.12,3.92-0.23,5.87-0.35c0.58-0.11,1.15-0.23,1.73-0.34c0.69-0.11,1.39-0.23,2.08-0.34
		C94.76,155.69,95.33,155.69,95.91,155.69z"/>
	<path class="st21" d="M225.18,329.79c1.51,0,2.86,0,4.34,0c0,6.72,0,13.36,0,20.15c-1.38,0-2.78,0-4.34,0
		C225.18,343.3,225.18,336.62,225.18,329.79z"/>
	<path class="st22" d="M447.95,92.5c0.21,0.13,0.42,0.26,0.63,0.39C448.38,92.76,448.17,92.63,447.95,92.5z"/>
	<path class="st3" d="M300.43,235.78c0.04,0.07,0.09,0.14,0.13,0.21c-0.07-0.05-0.13-0.1-0.2-0.14
		C300.36,235.84,300.43,235.78,300.43,235.78z"/>
	<path class="st2" d="M540.11,32.05c0.1-0.03,0.21-0.06,0.31-0.09c-0.07,0.06-0.14,0.13-0.21,0.19
		C540.21,32.15,540.11,32.05,540.11,32.05z"/>
	<path class="st8" d="M232.66,111.89c0.36,6.69,0.72,13.38,1.09,20.08c0.33,6,0.69,12,1.02,18.01c0.35,6.29,0.69,12.58,1.04,18.87
		c0.34,6.06,0.67,12.12,1.04,18.18c0.31,5.2,0.66,10.39,0.98,15.59c-5.35-6.55-10.66-13.13-16.06-19.64
		c-1.54-1.85-0.65-3.76-0.36-5.58c1.27-8.05,2.66-16.08,4.05-24.11c1.45-8.42,2.98-16.84,4.41-25.26c0.89-5.22,1.67-10.47,2.51-15.7
		C232.42,112.16,232.57,112.03,232.66,111.89z"/>
	<path class="st9" d="M151.18,134.62c0.23,0,0.47,0.01,0.7,0.01c-0.11,0.23-0.23,0.46-0.34,0.69c-0.24,0-0.47,0-0.71,0
		c0.11-0.23,0.22-0.46,0.32-0.69C151.15,134.63,151.18,134.62,151.18,134.62z"/>
	<path class="st5" d="M452.52,64.82c-1.37,6.6-2.74,13.2-4.11,19.8c-0.46,2.22-0.93,4.43-1.48,7.07
		c-12.55-11.31-24.84-22.37-37.48-33.76c14.64,2.33,28.83,4.58,43.02,6.83C452.47,64.77,452.52,64.82,452.52,64.82z"/>
	<path class="st23" d="M151.15,134.63c-0.11,0.23-0.21,0.46-0.32,0.69c-2.21,1.59-4.46,3.13-6.63,4.78
		c-5.63,4.29-11.21,8.64-16.83,12.94c-5.75,4.41-11.53,8.79-17.3,13.17c-0.31,0.23-0.69,0.36-1.04,0.53
		c-3.27-3.74-6.53-7.48-9.8-11.22c1.77-3.85,3.52-7.72,5.32-11.56c3.44-7.38,6.95-14.72,10.31-22.14c0.39-0.87,0.19-2.12-0.03-3.13
		c-1.94-8.63-3.97-17.24-5.94-25.87c-0.47-2.05-0.82-4.14-1.22-6.2c1.42,1.37,2.91,2.67,4.24,4.12c2.31,2.53,4.51,5.17,6.78,7.74
		c4.47,5.06,8.96,10.11,13.45,15.15c3.12,3.5,6.28,6.98,9.41,10.48c2.75,3.07,5.47,6.17,8.22,9.23
		C150.17,133.83,150.68,134.21,151.15,134.63z"/>
	<path class="st23" d="M136.67,204.37c-0.98,0.34-1.94,0.82-2.95,0.99c-10.13,1.65-20.26,3.26-30.4,4.85
		c-8.22,1.29-16.45,2.55-24.67,3.82c3.45-5.28,6.89-10.56,10.34-15.84c6.42-9.85,12.84-19.69,19.26-29.54
		c0.24-0.37,0.53-0.72,0.97-1.32C118.45,179.78,127.56,192.08,136.67,204.37z"/>
	<path class="st9" d="M151.18,133.94c0-16,0-32,0-48c0.12,0.59,0.33,1.19,0.33,1.78c0.02,14.81,0.02,29.62,0,44.43
		C151.51,132.75,151.29,133.35,151.18,133.94z"/>
	<path class="st23" d="M107.65,86.64c0-0.23,0-0.46,0-0.69C107.66,86.18,107.65,86.41,107.65,86.64z"/>
	<path class="st24" d="M84.51,156.73c-0.57,0-1.15,0-1.72,0C83.36,156.73,83.93,156.73,84.51,156.73z"/>
	<path class="st24" d="M92.11,156.04c-0.58,0.11-1.15,0.23-1.73,0.34C90.96,156.27,91.53,156.15,92.11,156.04z"/>
	<path class="st24" d="M95.91,155.69c-0.57,0-1.15,0-1.72,0C94.76,155.69,95.33,155.69,95.91,155.69z"/>
</g>
</svg>
