<?xml version="1.0" encoding="utf-8"?>
<svg version="1.1" id="Layer_1" x="0px" y="0px" viewBox="0 0 11.976 6.2512" style="enable-background:new 0 0 15.32082 6.2512; fill: #ffffff;" xmlns="http://www.w3.org/2000/svg">
  <path id="XMLID_71_" d="M 9.432 1.239058 C 9.161 0.400058 8.322 -0.117942 7.432 0.023058 C 6.738 0.132058 6.174 0.649058 5.989 1.316058 C 5.805 0.649058 5.241 0.132058 4.547 0.023058 C 4.106 -0.046942 3.682 0.050058 3.331 0.264058 C 3.276 0.296058 3.223 0.332058 3.173 0.370058 C 3.16 0.379058 3.147 0.388058 3.135 0.397058 C 2.868 0.609058 2.66 0.895058 2.549 1.239058 C 2.477 1.239058 1.834 1.268058 1.834 1.268058 L 1.834 1.519058 C 1.834 1.559058 1.835 1.597058 1.837 1.634058 C 1.84 1.683058 1.847 1.730058 1.854 1.777058 L 1.854 1.777058 C 1.854 1.780058 1.855 1.783058 1.856 1.785058 C 1.862 1.821058 1.871 1.855058 1.88 1.890058 C 1.885 1.908058 1.889 1.927058 1.894 1.944058 C 1.904 1.974058 1.916 2.003058 1.928 2.031058 C 1.936 2.052058 1.944 2.072058 1.954 2.092058 C 1.965 2.115058 1.978 2.136058 1.991 2.158058 C 2.005 2.181058 2.018 2.204058 2.033 2.226058 C 2.045 2.242058 2.058 2.257058 2.07 2.272058 C 2.09 2.298058 2.11 2.323058 2.133 2.346058 C 2.143 2.356058 2.155 2.366058 2.165 2.376058 C 2.193 2.401058 2.221 2.427058 2.252 2.450058 C 2.26 2.456058 2.27 2.462058 2.278 2.468058 C 2.313 2.493058 2.349 2.516058 2.388 2.537058 C 2.396 2.541058 2.404 2.544058 2.411 2.548058 C 2.452 2.570058 2.495 2.589058 2.541 2.607058 C 2.543 2.608058 2.545 2.609058 2.547 2.610058 L 2.548 2.609058 C 2.586 2.624058 2.625 2.638058 2.666 2.650058 C 2.676 2.653058 2.793 2.559058 2.918 2.486058 C 3.047 2.410058 3.183 2.354058 3.183 2.354058 C 3.091 2.256058 2.986 2.221058 2.862 2.191058 C 2.857 2.189058 2.852 2.187058 2.847 2.186058 C 2.558 2.117058 2.397 1.969058 2.347 1.721058 C 2.401 1.727058 2.454 1.730058 2.504 1.732058 C 2.654 1.736058 2.783 1.720058 2.876 1.682058 L 2.962 1.647058 L 2.978 1.558058 C 2.985 1.519058 2.996 1.483058 3.007 1.446058 C 3.014 1.421058 3.02 1.396058 3.028 1.372058 C 3.043 1.329058 3.06 1.287058 3.079 1.246058 C 3.087 1.229058 3.096 1.214058 3.104 1.198058 C 3.148 1.113058 3.2 1.034058 3.261 0.962058 C 3.263 0.960058 3.264 0.958058 3.266 0.955058 C 3.408 0.790058 3.59 0.663058 3.794 0.585058 C 3.794 0.585058 3.793 0.585058 3.793 0.585058 C 4.002 0.505058 4.232 0.473058 4.47 0.511058 C 5.027 0.599058 5.469 1.050058 5.547 1.610058 C 5.583 2.063058 5.284 2.472058 5.063 2.701058 C 4.138 2.678058 3.744 3.451058 3.744 3.451058 L 3.804 3.533058 C 3.884 3.617058 3.976 3.681058 4.09 3.713058 C 4.22 3.442058 4.469 3.252058 4.83 3.148058 C 4.986 3.103058 5.138 3.092058 5.284 3.101058 C 5.286 3.101058 5.294 3.093058 5.299 3.090058 C 5.299 3.090058 5.299 3.091058 5.299 3.091058 C 5.3 3.090058 5.301 3.089058 5.302 3.088058 C 5.325 3.068058 5.372 3.022058 5.43 2.957058 C 5.5 2.889058 5.592 2.787058 5.723 2.573058 C 5.96 2.187058 5.989 1.785058 5.989 1.785058 C 5.989 1.785058 5.996 1.994058 6.066 2.233058 C 6.136 2.472058 6.281 2.585058 6.281 2.585058 C 6.402 2.541058 6.5 2.520058 6.614 2.515058 C 6.614 2.515058 6.547 2.368058 6.529 2.330058 C 6.431 2.110058 6.397 1.865058 6.428 1.620058 C 6.504 1.055058 6.947 0.599058 7.509 0.511058 C 8.217 0.400058 8.874 0.859058 9.005 1.558058 L 9.021 1.647058 L 9.107 1.682058 C 9.23 1.732058 9.417 1.744058 9.636 1.721058 C 9.586 1.969058 9.425 2.117058 9.136 2.186058 C 8.68 2.293058 8.317 2.735058 8.31 3.043058 L 8.307 3.167058 L 8.426 3.206058 C 8.965 3.382058 9.327 3.880058 9.327 4.448058 C 9.327 5.054058 8.896 5.580058 8.278 5.727058 C 8.174 5.752058 7.776 5.752058 7.514 5.752058 L 4.385 5.753058 C 4.283 5.759058 3.493 5.792058 3.034 5.344058 C 3.005 5.316058 2.981 5.287058 2.956 5.258058 C 2.909 5.201058 2.865 5.139058 2.829 5.068058 C 2.446 4.300058 2.818 3.646058 3.067 3.331058 C 3.181 3.620058 3.403 4.037058 3.774 4.154058 C 4.212 4.293058 4.727 4.149058 5.346 3.717058 L 5.415 3.667058 C 5.797 3.397058 6.437 2.943058 7.148 3.148058 C 7.517 3.254058 7.769 3.449058 7.896 3.727058 C 8.029 4.016058 7.999 4.338058 7.912 4.530058 C 7.762 4.858058 7.408 5.290058 6.09 5.285058 C 5.36 5.280058 4.749 4.992058 4.377 4.762058 C 4.676 4.724058 5.059 4.618058 5.409 4.352058 L 5.572 4.229058 C 6.091 3.831058 6.349 3.629058 6.697 3.643058 C 6.94 3.645058 7.179 3.728058 7.357 3.943058 C 7.534 4.157058 7.644 4.365058 7.644 4.365058 C 7.644 4.365058 7.699 4.220058 7.681 4.057058 C 7.664 3.895058 7.594 3.795058 7.581 3.778058 C 7.382 3.487058 7.052 3.311058 6.697 3.308058 C 6.244 3.296058 5.933 3.531058 5.369 3.963058 L 5.207 4.086058 C 4.625 4.528058 3.903 4.441058 3.896 4.440058 L 3.365 4.368058 L 3.761 4.729058 C 3.801 4.765058 4.744 5.610058 6.088 5.619058 C 7.225 5.627058 7.92 5.316058 8.216 4.668058 C 8.327 4.427058 8.39 3.998058 8.2 3.587058 C 8.083 3.333058 7.821 2.993058 7.241 2.827058 C 7.084 2.782058 6.93 2.763058 6.781 2.763058 C 6.113 2.764058 5.553 3.161058 5.222 3.395058 L 5.154 3.443058 C 4.626 3.812058 4.207 3.940058 3.874 3.835058 C 3.557 3.734058 3.351 3.174058 3.298 2.966058 C 3.288 2.930058 3.283 2.892058 3.277 2.855058 C 3.273 2.824058 3.269 2.793058 3.266 2.766058 C 3.263 2.732058 3.26 2.698058 3.26 2.663058 L 3.259 2.664058 C 3.256 2.601058 3.257 2.562058 3.257 2.562058 C 3.123 2.596058 3.017 2.664058 2.912 2.769058 C 2.831 2.846058 1.715 3.944058 2.388 5.289058 C 2.821 6.157058 3.836 6.251058 4.253 6.251058 C 4.322 6.251058 4.377 6.249058 4.401 6.247058 L 7.514 6.247058 C 7.933 6.247058 8.242 6.244058 8.392 6.208058 C 9.233 6.007058 9.821 5.283058 9.821 4.448058 C 9.821 3.795058 9.469 3.200058 8.911 2.883058 C 8.991 2.792058 9.108 2.700058 9.249 2.666058 C 9.794 2.537058 10.112 2.170058 10.144 1.634058 C 10.146 1.597058 10.147 1.559058 10.147 1.519058 L 10.147 1.268058 C 10.147 1.268058 9.504 1.239058 9.432 1.239058 Z"/>
  <circle id="XMLID_70_" cx="8.186" cy="1.444058" r="0.236"/>
  <circle id="XMLID_69_" cx="3.728" cy="1.444058" r="0.236"/>
  <path id="XMLID_67_" d="M 0.602 4.165058 L 0 3.401058 L 0.59 2.631058 L 1.245 2.634058 L 0.614 3.404058 L 1.204 4.165058 L 0.602 4.165058 Z"/>
  <path id="XMLID_63_" d="M 11.362 3.404058 L 10.731 2.634058 L 11.385 2.631058 L 11.976 3.401058 L 11.374 4.165058 L 10.772 4.165058 L 11.362 3.404058 Z"/>
</svg>
