<?xml version="1.0" encoding="utf-8"?>
<svg width="598" height="598" viewBox="0 0 598 598" fill="none" xmlns="http://www.w3.org/2000/svg">
<path d="M495 299H455.5M104 299H143" stroke="black" stroke-width="6"/>
<path d="M299 102.5V144.5" stroke="black" stroke-width="6"/>
<path d="M433.5 162.5L405 191M157 439L177.5 418.5" stroke="black" stroke-width="6"/>
<path d="M433.5 439L407.5 413M157 162.5L192 197.5" stroke="black" stroke-width="6"/>
<mask id="path-5-outside-1_13_9581" maskUnits="userSpaceOnUse" x="132.338" y="137.039" width="333" height="350" fill="black">
<rect fill="white" x="132.338" y="137.039" width="333" height="350"/>
<path d="M288.408 482.14C264.356 482.395 240.322 480.748 216.529 477.215L212.736 476.607V472.761C212.614 461.618 212.827 453.106 213.009 446.25C213.251 437.038 213.434 429.772 212.129 428.404C211.173 427.415 206.059 427.324 200.703 427.233C190.148 427.151 179.607 426.425 169.141 425.059L168.458 424.968L167.836 424.679C157.199 419.8 151.008 405.632 151.296 397.955C151.508 393.273 154.331 391.875 155.469 391.388C156.051 391.17 156.668 391.057 157.29 391.054C158.048 385.445 159.156 380.291 160.218 375.275C161.994 366.975 163.678 359.116 163.648 350.086C163.61 348.203 163.935 346.329 164.604 344.568C165.696 341.072 165.423 340.874 164.922 340.54L163.283 339.415L162.995 337.439C160.825 322.466 159.748 322.086 149.49 318.437C147.29 317.662 144.817 316.78 141.903 315.64L140.098 314.911L139.369 313.117C132.495 296.228 144.346 281.848 155.803 267.954C165.302 256.431 174.285 245.547 172.707 234.1L172.479 232.261L173.587 230.741C179.216 223.14 181.826 212.302 184.345 201.858C188.7 183.784 193.631 163.293 215.998 160.374L221.734 159.629C223.63 158.869 225.755 157.957 227.576 157.167C229.397 156.376 231.111 155.647 232.887 154.917C280.7 130.412 341.107 143.683 389.649 154.339L399.254 156.437L401.788 156.984L402.608 159.447C403.867 163.232 405.051 167.047 406.204 170.787C410.24 183.906 414.049 196.295 420.968 205.856L421.226 206.267C425.778 214.324 426.522 223.855 427.068 231.501C427.326 235.317 427.781 241.701 428.98 242.568C429.111 242.587 429.244 242.587 429.374 242.568H432.682L433.654 245.745C436.43 254.668 441.681 262.04 447.31 269.839C452.196 276.679 457.264 283.778 460.36 291.926L460.754 292.93L460.648 294.009C458.933 311.201 450.36 315.686 444.108 318.969C438.752 321.766 435.429 323.53 435.429 332.803C439.177 338.67 439.086 348.004 438.995 357.809C438.919 367.325 438.813 379.182 443.41 381.006L445.064 381.675L445.838 383.271C450.831 393.76 448.448 400.889 445.565 405.039C441.134 411.408 432.303 415.68 419.344 417.763C410.115 419.154 400.754 419.455 391.455 418.659L390.377 418.568L389.467 417.991C388.814 417.58 387.236 416.698 386.432 417.17C385.066 418.021 383.777 421.867 384.171 425.53V426.002V426.458C383.837 431.637 383.872 436.834 384.277 442.009C384.96 454.732 385.658 467.851 377.343 478.036L376.023 479.647H373.944C363.914 479.906 353.656 480.286 343.748 480.65C325.509 481.456 306.966 482.14 288.408 482.14ZM221.779 468.793C261.763 474.676 303.248 473.156 343.383 471.666C352.609 471.332 362.108 470.982 371.471 470.724C376.281 463.397 375.75 453.273 375.173 442.602C374.751 437.113 374.716 431.602 375.067 426.108C374.581 420.301 376.387 412.792 381.592 409.539C383.579 408.277 387.661 406.726 393.23 409.767C408.404 411.013 431.818 408.824 438.039 399.916C438.798 398.822 441.074 395.614 438.175 388.698C429.602 383.696 429.723 370.563 429.83 357.824C429.906 349.691 429.997 340.464 427.356 337.348L426.34 336.132V334.611C425.839 318.392 433.638 314.318 439.89 311.034C445.338 308.176 450.072 305.714 451.468 294.313C448.736 287.655 444.442 281.635 439.905 275.281C434.67 267.939 429.283 260.384 425.93 251.263C419.223 249.028 418.601 240.135 418.04 232.185C417.554 225.192 416.992 217.273 413.487 211.055C405.779 200.308 401.591 186.733 397.539 173.523C396.659 170.665 395.764 167.732 394.823 164.843L387.737 163.323C338.073 152.363 281.807 140.02 236.877 163.141L236.543 163.293C234.753 164.038 232.917 164.813 231.157 165.588C221.567 169.708 217.409 171.456 214.556 169.936C201.598 172.976 197.759 185.137 193.191 204.047C190.597 214.81 187.926 225.937 181.947 234.785C182.994 249.393 172.752 261.812 162.843 273.837C153.147 285.587 143.952 296.73 147.199 307.964C149.157 308.708 150.917 309.332 152.525 309.909C164.664 314.227 168.913 316.552 171.735 334.459C175.984 338.731 174.194 344.447 173.253 347.35C173.017 348.042 172.825 348.748 172.676 349.463V349.889C172.676 359.998 170.855 368.769 169.05 377.251C167.389 384.295 166.228 391.447 165.575 398.655L164.771 409.493L163.253 407.745C164.958 411.231 167.642 414.143 170.977 416.121C180.862 417.385 190.813 418.055 200.778 418.127C209.67 418.279 215.042 418.371 218.608 422.11C222.538 426.23 222.371 432.584 222.022 446.508C221.931 452.437 221.734 459.673 221.779 468.793Z"/>
</mask>
<path d="M288.408 482.14C264.356 482.395 240.322 480.748 216.529 477.215L212.736 476.607V472.761C212.614 461.618 212.827 453.106 213.009 446.25C213.251 437.038 213.434 429.772 212.129 428.404C211.173 427.415 206.059 427.324 200.703 427.233C190.148 427.151 179.607 426.425 169.141 425.059L168.458 424.968L167.836 424.679C157.199 419.8 151.008 405.632 151.296 397.955C151.508 393.273 154.331 391.875 155.469 391.388C156.051 391.17 156.668 391.057 157.29 391.054C158.048 385.445 159.156 380.291 160.218 375.275C161.994 366.975 163.678 359.116 163.648 350.086C163.61 348.203 163.935 346.329 164.604 344.568C165.696 341.072 165.423 340.874 164.922 340.54L163.283 339.415L162.995 337.439C160.825 322.466 159.748 322.086 149.49 318.437C147.29 317.662 144.817 316.78 141.903 315.64L140.098 314.911L139.369 313.117C132.495 296.228 144.346 281.848 155.803 267.954C165.302 256.431 174.285 245.547 172.707 234.1L172.479 232.261L173.587 230.741C179.216 223.14 181.826 212.302 184.345 201.858C188.7 183.784 193.631 163.293 215.998 160.374L221.734 159.629C223.63 158.869 225.755 157.957 227.576 157.167C229.397 156.376 231.111 155.647 232.887 154.917C280.7 130.412 341.107 143.683 389.649 154.339L399.254 156.437L401.788 156.984L402.608 159.447C403.867 163.232 405.051 167.047 406.204 170.787C410.24 183.906 414.049 196.295 420.968 205.856L421.226 206.267C425.778 214.324 426.522 223.855 427.068 231.501C427.326 235.317 427.781 241.701 428.98 242.568C429.111 242.587 429.244 242.587 429.374 242.568H432.682L433.654 245.745C436.43 254.668 441.681 262.04 447.31 269.839C452.196 276.679 457.264 283.778 460.36 291.926L460.754 292.93L460.648 294.009C458.933 311.201 450.36 315.686 444.108 318.969C438.752 321.766 435.429 323.53 435.429 332.803C439.177 338.67 439.086 348.004 438.995 357.809C438.919 367.325 438.813 379.182 443.41 381.006L445.064 381.675L445.838 383.271C450.831 393.76 448.448 400.889 445.565 405.039C441.134 411.408 432.303 415.68 419.344 417.763C410.115 419.154 400.754 419.455 391.455 418.659L390.377 418.568L389.467 417.991C388.814 417.58 387.236 416.698 386.432 417.17C385.066 418.021 383.777 421.867 384.171 425.53V426.002V426.458C383.837 431.637 383.872 436.834 384.277 442.009C384.96 454.732 385.658 467.851 377.343 478.036L376.023 479.647H373.944C363.914 479.906 353.656 480.286 343.748 480.65C325.509 481.456 306.966 482.14 288.408 482.14ZM221.779 468.793C261.763 474.676 303.248 473.156 343.383 471.666C352.609 471.332 362.108 470.982 371.471 470.724C376.281 463.397 375.75 453.273 375.173 442.602C374.751 437.113 374.716 431.602 375.067 426.108C374.581 420.301 376.387 412.792 381.592 409.539C383.579 408.277 387.661 406.726 393.23 409.767C408.404 411.013 431.818 408.824 438.039 399.916C438.798 398.822 441.074 395.614 438.175 388.698C429.602 383.696 429.723 370.563 429.83 357.824C429.906 349.691 429.997 340.464 427.356 337.348L426.34 336.132V334.611C425.839 318.392 433.638 314.318 439.89 311.034C445.338 308.176 450.072 305.714 451.468 294.313C448.736 287.655 444.442 281.635 439.905 275.281C434.67 267.939 429.283 260.384 425.93 251.263C419.223 249.028 418.601 240.135 418.04 232.185C417.554 225.192 416.992 217.273 413.487 211.055C405.779 200.308 401.591 186.733 397.539 173.523C396.659 170.665 395.764 167.732 394.823 164.843L387.737 163.323C338.073 152.363 281.807 140.02 236.877 163.141L236.543 163.293C234.753 164.038 232.917 164.813 231.157 165.588C221.567 169.708 217.409 171.456 214.556 169.936C201.598 172.976 197.759 185.137 193.191 204.047C190.597 214.81 187.926 225.937 181.947 234.785C182.994 249.393 172.752 261.812 162.843 273.837C153.147 285.587 143.952 296.73 147.199 307.964C149.157 308.708 150.917 309.332 152.525 309.909C164.664 314.227 168.913 316.552 171.735 334.459C175.984 338.731 174.194 344.447 173.253 347.35C173.017 348.042 172.825 348.748 172.676 349.463V349.889C172.676 359.998 170.855 368.769 169.05 377.251C167.389 384.295 166.228 391.447 165.575 398.655L164.771 409.493L163.253 407.745C164.958 411.231 167.642 414.143 170.977 416.121C180.862 417.385 190.813 418.055 200.778 418.127C209.67 418.279 215.042 418.371 218.608 422.11C222.538 426.23 222.371 432.584 222.022 446.508C221.931 452.437 221.734 459.673 221.779 468.793Z" fill="black"/>
<path d="M288.408 482.14C264.356 482.395 240.322 480.748 216.529 477.215L212.736 476.607V472.761C212.614 461.618 212.827 453.106 213.009 446.25C213.251 437.038 213.434 429.772 212.129 428.404C211.173 427.415 206.059 427.324 200.703 427.233C190.148 427.151 179.607 426.425 169.141 425.059L168.458 424.968L167.836 424.679C157.199 419.8 151.008 405.632 151.296 397.955C151.508 393.273 154.331 391.875 155.469 391.388C156.051 391.17 156.668 391.057 157.29 391.054C158.048 385.445 159.156 380.291 160.218 375.275C161.994 366.975 163.678 359.116 163.648 350.086C163.61 348.203 163.935 346.329 164.604 344.568C165.696 341.072 165.423 340.874 164.922 340.54L163.283 339.415L162.995 337.439C160.825 322.466 159.748 322.086 149.49 318.437C147.29 317.662 144.817 316.78 141.903 315.64L140.098 314.911L139.369 313.117C132.495 296.228 144.346 281.848 155.803 267.954C165.302 256.431 174.285 245.547 172.707 234.1L172.479 232.261L173.587 230.741C179.216 223.14 181.826 212.302 184.345 201.858C188.7 183.784 193.631 163.293 215.998 160.374L221.734 159.629C223.63 158.869 225.755 157.957 227.576 157.167C229.397 156.376 231.111 155.647 232.887 154.917C280.7 130.412 341.107 143.683 389.649 154.339L399.254 156.437L401.788 156.984L402.608 159.447C403.867 163.232 405.051 167.047 406.204 170.787C410.24 183.906 414.049 196.295 420.968 205.856L421.226 206.267C425.778 214.324 426.522 223.855 427.068 231.501C427.326 235.317 427.781 241.701 428.98 242.568C429.111 242.587 429.244 242.587 429.374 242.568H432.682L433.654 245.745C436.43 254.668 441.681 262.04 447.31 269.839C452.196 276.679 457.264 283.778 460.36 291.926L460.754 292.93L460.648 294.009C458.933 311.201 450.36 315.686 444.108 318.969C438.752 321.766 435.429 323.53 435.429 332.803C439.177 338.67 439.086 348.004 438.995 357.809C438.919 367.325 438.813 379.182 443.41 381.006L445.064 381.675L445.838 383.271C450.831 393.76 448.448 400.889 445.565 405.039C441.134 411.408 432.303 415.68 419.344 417.763C410.115 419.154 400.754 419.455 391.455 418.659L390.377 418.568L389.467 417.991C388.814 417.58 387.236 416.698 386.432 417.17C385.066 418.021 383.777 421.867 384.171 425.53V426.002V426.458C383.837 431.637 383.872 436.834 384.277 442.009C384.96 454.732 385.658 467.851 377.343 478.036L376.023 479.647H373.944C363.914 479.906 353.656 480.286 343.748 480.65C325.509 481.456 306.966 482.14 288.408 482.14ZM221.779 468.793C261.763 474.676 303.248 473.156 343.383 471.666C352.609 471.332 362.108 470.982 371.471 470.724C376.281 463.397 375.75 453.273 375.173 442.602C374.751 437.113 374.716 431.602 375.067 426.108C374.581 420.301 376.387 412.792 381.592 409.539C383.579 408.277 387.661 406.726 393.23 409.767C408.404 411.013 431.818 408.824 438.039 399.916C438.798 398.822 441.074 395.614 438.175 388.698C429.602 383.696 429.723 370.563 429.83 357.824C429.906 349.691 429.997 340.464 427.356 337.348L426.34 336.132V334.611C425.839 318.392 433.638 314.318 439.89 311.034C445.338 308.176 450.072 305.714 451.468 294.313C448.736 287.655 444.442 281.635 439.905 275.281C434.67 267.939 429.283 260.384 425.93 251.263C419.223 249.028 418.601 240.135 418.04 232.185C417.554 225.192 416.992 217.273 413.487 211.055C405.779 200.308 401.591 186.733 397.539 173.523C396.659 170.665 395.764 167.732 394.823 164.843L387.737 163.323C338.073 152.363 281.807 140.02 236.877 163.141L236.543 163.293C234.753 164.038 232.917 164.813 231.157 165.588C221.567 169.708 217.409 171.456 214.556 169.936C201.598 172.976 197.759 185.137 193.191 204.047C190.597 214.81 187.926 225.937 181.947 234.785C182.994 249.393 172.752 261.812 162.843 273.837C153.147 285.587 143.952 296.73 147.199 307.964C149.157 308.708 150.917 309.332 152.525 309.909C164.664 314.227 168.913 316.552 171.735 334.459C175.984 338.731 174.194 344.447 173.253 347.35C173.017 348.042 172.825 348.748 172.676 349.463V349.889C172.676 359.998 170.855 368.769 169.05 377.251C167.389 384.295 166.228 391.447 165.575 398.655L164.771 409.493L163.253 407.745C164.958 411.231 167.642 414.143 170.977 416.121C180.862 417.385 190.813 418.055 200.778 418.127C209.67 418.279 215.042 418.371 218.608 422.11C222.538 426.23 222.371 432.584 222.022 446.508C221.931 452.437 221.734 459.673 221.779 468.793Z" stroke="white" stroke-width="8" mask="url(#path-5-outside-1_13_9581)"/>
<path d="M288.408 482.14C264.357 482.395 240.322 480.748 216.529 477.215L212.736 476.607V472.761C212.614 461.619 212.827 453.106 213.009 446.25C213.252 437.038 213.434 429.772 212.129 428.404C211.173 427.416 206.059 427.324 200.703 427.233C190.148 427.151 179.608 426.426 169.141 425.059L168.458 424.968L167.836 424.679C157.199 419.8 151.008 405.632 151.296 397.956C151.509 393.274 154.331 391.875 155.469 391.389C156.052 391.17 156.668 391.057 157.29 391.054C158.049 385.445 159.156 380.292 160.219 375.275C161.994 366.975 163.678 359.116 163.648 350.087C163.611 348.203 163.935 346.33 164.604 344.569C165.696 341.072 165.423 340.875 164.923 340.54L163.284 339.415L162.995 337.439C160.826 322.466 159.748 322.086 149.491 318.438C147.29 317.662 144.817 316.781 141.904 315.64L140.098 314.911L139.37 313.117C132.496 296.228 144.347 281.848 155.803 267.954C165.302 256.431 174.285 245.547 172.707 234.101L172.479 232.261L173.587 230.741C179.216 223.141 181.826 212.302 184.345 201.859C188.7 183.784 193.632 163.293 215.998 160.374L221.734 159.63C223.631 158.869 225.755 157.957 227.576 157.167C229.397 156.376 231.111 155.647 232.887 154.917C280.7 130.413 341.108 143.683 389.649 154.339L399.254 156.437L401.788 156.984L402.608 159.447C403.867 163.232 405.051 167.048 406.204 170.787C410.24 183.906 414.049 196.295 420.968 205.857L421.226 206.267C425.779 214.324 426.522 223.855 427.068 231.501C427.326 235.317 427.781 241.701 428.98 242.568C429.111 242.588 429.244 242.588 429.375 242.568H432.683L433.654 245.745C436.431 254.668 441.681 262.041 447.31 269.839C452.196 276.68 457.264 283.779 460.36 291.926L460.755 292.93L460.648 294.009C458.934 311.202 450.36 315.686 444.109 318.97C438.752 321.767 435.429 323.53 435.429 332.803C439.177 338.67 439.086 348.004 438.995 357.809C438.919 367.325 438.813 379.182 443.411 381.006L445.065 381.675L445.839 383.271C450.831 393.76 448.448 400.889 445.565 405.039C441.135 411.409 432.303 415.68 419.345 417.763C410.115 419.154 400.755 419.455 391.455 418.66L390.378 418.569L389.467 417.991C388.815 417.58 387.237 416.699 386.432 417.17C385.067 418.021 383.777 421.867 384.171 425.531V426.002V426.458C383.837 431.638 383.873 436.834 384.278 442.009C384.96 454.732 385.658 467.851 377.343 478.036L376.023 479.647H373.944C363.914 479.906 353.657 480.286 343.748 480.651C325.509 481.456 306.966 482.14 288.408 482.14ZM221.779 468.794C261.763 474.677 303.249 473.156 343.384 471.667C352.61 471.332 362.108 470.983 371.471 470.724C376.281 463.397 375.75 453.273 375.173 442.602C374.751 437.113 374.716 431.602 375.067 426.108C374.581 420.301 376.387 412.792 381.592 409.539C383.58 408.277 387.661 406.727 393.23 409.767C408.404 411.013 431.818 408.824 438.039 399.917C438.798 398.822 441.074 395.615 438.176 388.698C429.602 383.697 429.724 370.563 429.83 357.824C429.906 349.691 429.997 340.464 427.357 337.348L426.34 336.132V334.612C425.839 318.392 433.639 314.318 439.89 311.035C445.338 308.177 450.072 305.714 451.468 294.313C448.737 287.655 444.443 281.635 439.905 275.281C434.67 267.939 429.284 260.384 425.93 251.263C419.223 249.028 418.601 240.136 418.04 232.185C417.554 225.193 416.993 217.273 413.488 211.056C405.779 200.308 401.591 186.733 397.54 173.523C396.66 170.666 395.764 167.732 394.824 164.844L387.737 163.323C338.073 152.363 281.808 140.02 236.878 163.141L236.544 163.293C234.753 164.038 232.917 164.813 231.157 165.588C221.567 169.708 217.409 171.456 214.557 169.936C201.598 172.976 197.759 185.137 193.192 204.048C190.597 214.81 187.926 225.938 181.948 234.785C182.995 249.393 172.752 261.813 162.844 273.837C153.148 285.588 143.952 296.73 147.199 307.964C149.157 308.709 150.917 309.332 152.525 309.91C164.665 314.227 168.913 316.553 171.736 334.46C175.984 338.731 174.194 344.447 173.253 347.35C173.018 348.042 172.825 348.748 172.676 349.463V349.889C172.676 359.998 170.856 368.769 169.05 377.251C167.389 384.295 166.228 391.447 165.575 398.655L164.771 409.493L163.253 407.745C164.958 411.232 167.642 414.143 170.977 416.121C180.862 417.386 190.814 418.056 200.779 418.128C209.671 418.28 215.042 418.371 218.608 422.11C222.538 426.23 222.371 432.584 222.022 446.509C221.931 452.437 221.734 459.673 221.779 468.794Z" fill="black"/>
<path d="M456.004 295.498C449.813 279.111 434.882 267.026 429.313 248.982C418.691 248.846 426.187 225.816 417.28 210.341C407.842 197.298 403.942 179.695 398.343 162.745C346.296 151.496 282.034 134.973 232.203 162.335C251.686 154.202 317.177 144.549 330.697 157.562C328.831 142.649 347.555 160.815 354.338 162.578C353.124 153.457 367.342 160.663 372.183 163.612C366.781 164.585 352.639 172.885 354.581 163.399C350.029 167.032 349.407 170.057 353.929 174.04C331.441 174.283 339.013 188.907 321.638 194.774C303.779 205.902 284.538 205.081 302.428 228.932C305.827 222.684 307.648 208.805 308.756 224.371C326.266 208.608 309.029 230.65 303.93 238.615C274.417 230.604 305.175 227.229 290.486 225.664C265.495 212.499 251.99 159.112 217.97 166.348C234.464 171.942 217.59 168.415 211.232 174.39C207.439 176.244 204.541 182.629 199.973 179.467C201.991 171.258 213.63 172.505 216.589 166.789C185.619 170.817 193.6 213.335 177.243 235.392C181.127 263.743 132.479 286.013 143.602 313.314C160.855 320.185 164.436 317.555 167.501 338.7C172.736 342.288 167.789 348.444 168.199 351.774C168.305 369.209 162.418 382.176 161.098 400.174C151.432 389.154 155.514 415.862 169.701 422.399C227.833 429.999 216.543 409.022 217.256 474.57C268.848 482.794 321.805 478.416 373.806 477.093C384.428 464.202 378.055 444.121 379.633 427.962C378.875 420.848 382.668 410.314 391.772 416.075C409.48 417.747 455.169 415.558 441.619 387.193C428.175 381.826 439.206 346.24 430.785 336.268C429.996 309.423 453.121 324.867 456.004 295.498ZM419.586 254.789C422.697 269.246 458.933 300.028 433.683 306.717C434.381 292.169 406.567 310.517 396.583 309.392C395.748 295.711 403.381 293.34 415.231 294.191C411.65 292.276 404.928 293.112 399.86 292.093C403.79 285.602 415.368 291.911 416.081 284.614C402.409 275.053 399.041 255.321 419.586 254.789ZM341.698 186.763C346.251 183.723 362.745 167.807 359.33 180.242C384.459 164.448 382.228 166.424 391.454 186.323C374.762 181.033 385.612 190.062 377.251 194.242C362.547 199.107 357.525 187.903 339.953 194.683C343.716 192.433 343.716 190.199 341.698 186.763ZM381.651 219.492C376.75 222.015 369.77 229.661 365.097 225.147C370.286 221.894 374.762 218.032 381.651 219.492ZM316.191 204.29C320.091 200.521 324.582 198.301 329.483 195.793C321.699 208.076 326.448 208.896 333.899 197.982C342.669 203.53 353.231 195.307 361.075 200.49C366.887 203.272 359.27 215.539 354.642 210.386C353.443 228.628 335.796 215.767 324.021 219.796C325.72 211.344 325.69 206.586 316.176 204.29H316.191ZM308.209 238.341C311.244 222.851 330.849 221.62 342.685 225.572C331.183 228.613 320.015 230.832 336.994 234.085C313.824 231.896 318.679 243.206 339.028 239.694C339.21 254.728 319.302 236.654 311.715 246.869C327.283 250.594 300.061 261.447 308.209 238.341ZM305.478 327.938C307.102 310.958 313.748 321.569 319.878 312.645C307.921 315.686 321.396 301.716 307.102 311.87C309.848 304.269 308.756 298.022 307.011 290.467C315.523 291.5 321.578 285.405 325.371 299.116C307.967 297.991 326.236 301.716 331.608 320.93C351.592 317.89 321.335 292.291 342.927 301.655C345.082 283.884 330.636 292.367 334.84 274.049C336.251 266.753 341.471 261.569 346.22 257.039C348.648 252.023 352.502 239.162 352.29 251.764C362.654 241.488 367.358 217.014 382.031 233.173C374.353 211.557 400.922 244.893 411.999 229.631C392.85 208.684 402.136 226.819 390.179 222.866C388.237 219.021 387.736 215.828 383.002 218.717C383.609 213.259 386.735 206.221 392.228 212.758C395.763 197.313 412.318 196.659 410.436 215.22C410.558 221.544 419.389 231.622 411.043 234.86C398.631 245.623 375.036 248.131 366.538 253.862C360.089 255.291 356.812 261.66 350.59 263.53C326.828 291.668 388.024 265.476 369.133 309.788C359.164 307.629 359.816 320.428 345.644 313.983C353.807 321.584 336.964 326.448 349.483 337.788C354.748 334.414 353.413 327.634 355.552 322.587C358.587 331.039 359.027 338.792 369.876 333.046C358.632 374.621 325.614 357.824 322.2 376.582C296.161 372.386 322.761 356.547 306.844 355.3C309.105 345.86 302.944 337.15 305.478 327.938ZM376.947 297.216C384.959 291.136 381.409 310.365 372.274 311.566C374.429 306.945 376.902 302.521 376.947 297.216ZM290.35 293.37C304.325 291.075 288.271 330.857 272.96 329.853C277.937 340.783 269.03 342.303 269.774 350.299C255.328 359.177 242.263 318.908 256.481 338.67C252.324 322.344 263.264 322.633 266.208 308.039C267.998 316.659 270.669 322.602 279.864 324.761C280.729 318.361 273.476 317.738 271.913 312.904C268.878 306.398 270.168 296.471 278.848 302.369C290.577 307.37 275.312 282.03 278.954 276.162C282.778 282.76 288.498 284.675 295.645 286.636C290.608 292.838 284.917 281.695 290.35 293.37ZM252.779 206.312C256.527 208.516 262.733 208.653 265.13 212.21C263.886 216.634 273.506 220.829 266.982 220.389C270.199 231.03 264.144 227.533 257.968 233.492C260.123 226.18 251.99 225.39 248.12 230.741C237.165 227.001 228.591 209.9 245.268 224.113C247.362 215.129 239.972 217.637 233.538 216.771C232.946 204.154 242.901 205.157 252.779 206.312ZM205.739 395.766C208.774 416.911 204.692 387.588 198.957 403.762C191.931 379.744 190.611 407.197 180.004 384C187.971 406.711 171.719 402.044 168.427 384.745C169.944 376.901 196.696 353.339 182.827 371.961C207.697 362.627 190.96 366.838 207.697 390.978C215.618 390.172 212.977 380.002 204.768 382.435C193.327 365.5 219.593 340.297 216.134 370.35C225.39 346.544 219.366 356.44 230.443 370.35C231.141 364.056 226.315 357.231 229.138 351.53C240.958 339.004 235.632 338.533 224.965 349.311C214.343 360.59 219.442 349.585 221.308 340.905C199.382 319.532 209.958 318.954 210.307 350.618C199.124 351.789 199.366 328.865 184.359 323.91C184.89 330.902 190.748 333.471 195.664 337.226C185.33 338.153 175.528 337.378 167.577 329.96C175.391 318.908 187.94 321.964 198.335 321.128C199.184 305.273 198.926 291.713 178.912 295.285C179.443 299.496 184.754 296.623 188.016 297.125C191.218 314.287 164.314 308.389 155.089 308.176C124.058 310.107 174.815 262.785 181.81 249.864C194.951 268.106 148.321 298.66 178.001 297.87C177.03 289.357 185.816 289.144 190.581 284.994C195.497 281.954 193.873 272.97 200.08 274.992C196.028 292.245 229.138 286.818 232.097 274.855C239.486 278.518 244.843 283.033 250.442 274.49C230.776 257.936 207.651 242.902 181.355 243.966C186.757 214.247 193.494 187.265 225.982 207.072C227.059 200.399 220.2 199.365 215.648 196.872C174.42 167.99 266.724 173.569 232.84 185.593C239.016 185.137 241.535 189.15 244.782 193.908C207.454 201.615 239.016 240.576 263.294 244.224C263.082 254.014 263.795 264.959 273.324 270.568C260.851 242.583 266.329 240.363 290.441 250.229C289.5 258.286 283.021 263.636 287.724 271.784C279.743 270.553 264.174 276.147 272.55 285.025C266.875 289.935 260.411 305.121 252.703 299.359C256.39 307.371 241.762 317.373 233.826 316.811C233.508 322.541 231.748 323.134 226.467 322.572C218.88 353.37 229.062 336.01 245.647 338.062C241.626 346.058 250.047 351.545 252.915 358.492C245.177 362.81 237.984 371.778 239.471 381.462C245.966 381.142 307.147 321.569 287.406 344.264C294.067 351.393 292.292 351.439 283.354 350.345C284.69 366.716 278.453 352.686 279.94 372.417C291.67 371.581 274.007 378.117 292.322 377.418C274.478 388.272 259.546 379.318 266.284 363.266C254.827 370.532 263.81 382.055 270.305 389.199C259.061 386.615 253.31 381.933 259.577 396.891C254.569 392.179 255.025 399.612 249.425 395.553C254.19 404.036 241.778 400.57 248.12 394.915C234.282 393.471 233.644 405.556 239.562 386.341C232.673 389.898 231.793 401.831 223.114 397.955C218.85 393.045 213.493 403.017 205.739 395.766ZM190.459 357.079C180.369 360.119 169.489 363.995 172.25 349.128C179.746 345.769 194.86 353.461 196.241 343.838C214.252 358.432 196.62 371.885 190.459 357.079ZM201.946 261.523C209.533 255.945 215.739 262.131 222.385 266.084C213.008 273.7 202.356 277.363 202.007 261.523H201.946ZM333.095 382.07C340.378 398.426 326.297 390.248 319.848 395.447L325.113 399.034C308.907 403.595 320.773 414.236 327.89 401.497C331.577 415.437 331.608 440.291 334.84 411.393C342.639 430.714 324.43 428.023 331.805 444.486C333.322 422.186 340.242 446.523 333.322 455.218C332.639 433.465 332.381 458.259 319.21 455.036C318.148 441.887 318.027 445.839 315.569 455.507C311.79 446.386 311.502 446.143 310.061 456.617C305.584 453.577 309.469 445.672 304.947 445.277C304.689 457.438 300.82 457.833 300.182 445.49C297.603 448.743 297.512 452.741 296.571 456.845C290.167 442.343 282.778 464.613 283.218 447.511C277.528 450.84 264.797 452.832 259.273 460.22C255.707 460.128 251.261 456.906 248.348 459.672C216.255 472.107 228.394 442.51 231.763 426.123C261.322 404.142 274.978 420.286 307.466 382.039C311.684 377.053 322.898 381.522 320.47 388.12C332.381 382.465 333.277 367.613 348.572 370.927C365.218 377.084 340.029 404.036 333.095 382.07ZM367.297 423.311C364.93 428.555 367.297 434.788 366.917 440.838C359.164 438.877 352.517 440.534 354.551 430.455C341.107 452.589 348.678 435.153 344.43 421.441C351.03 414.327 349.938 421.441 349.407 427.628C364.915 416.273 350.818 433.04 361.394 438.786C363.154 431.596 357.328 418.355 368.845 421.061C368.222 421.943 367.798 422.672 367.266 423.311H367.297ZM379.436 389.868C378.465 380.489 364.156 393.486 369.967 399.095C363.534 400.615 358.784 403.215 353.777 397.408C366.948 396.754 383.305 362.384 379.466 389.944L379.436 389.868ZM366.66 372.386C356.038 339.187 366.508 360.681 376.659 337.849C387.114 345.131 379.542 347.639 376.401 355.832C390.194 346.97 376.113 372.462 366.69 372.462L366.66 372.386ZM372.153 270.659C377.16 258.818 390.725 254.956 390.559 271.541C384.431 272.303 378.22 272.031 372.183 270.735L372.153 270.659ZM388.252 393.425C387.114 386.813 386.082 380.717 385.217 374.119C400.619 375.518 397.463 384.897 388.282 393.501L388.252 393.425ZM419.389 369.559C413.623 369.225 408.631 367.628 406.142 362.065C412.743 361.274 421.589 360.423 419.419 369.635L419.389 369.559ZM418.069 354.084C404.883 357.489 392.926 348.824 394.489 335.113C405.49 335.539 438.569 343.352 418.069 354.084ZM430.785 318.285C425.064 332.848 393.745 335.478 396.249 314.561C404.898 318.346 432.606 306.626 430.754 318.285H430.785Z" fill="black"/>
<path d="M238.06 376.947C227.029 361.959 223.22 378.802 222.128 389.777C230.61 387.831 228.637 373.451 238.06 376.947Z" fill="black"/>
<path d="M258.651 265.78C253.325 231.79 236.679 245.41 258.758 267.3C258.753 266.791 258.718 266.284 258.651 265.78Z" fill="black"/>
<path d="M317.921 355.635C321.213 344.219 333.747 350.041 340.545 344.492C335.811 343.96 323.201 348.399 331.061 341.695C305.19 322.298 326.934 350.816 308.725 348.992C311.851 353.035 315.538 365.637 317.921 355.635Z" fill="black"/>
<path d="M362.336 184.118C356.433 185.35 358.77 180.987 358.815 176.655C345.917 185.258 356.858 190.913 362.336 184.118Z" fill="black"/>
<path d="M199.889 99.3974C201.248 98.1964 202.321 96.6912 203.109 94.8817C203.936 93.0539 204.246 91.095 204.04 89.005C203.905 87.5815 203.543 85.9797 202.953 84.1993C202.347 82.3829 201.325 79.9298 199.886 76.8399L188.368 52.1029L182.697 53.8253L181.141 50.4839L200.054 41.6771L201.61 45.0185L196.972 48.0309L206.834 69.211C208.624 73.0554 209.954 76.065 210.822 78.2398C211.714 80.3604 212.295 82.1228 212.565 83.5271C213.093 86.8226 212.519 90.0188 210.845 93.1157C209.187 96.2484 206.62 98.9737 203.145 101.292L199.889 99.3974Z" fill="black"/>
<path d="M232.9 30.4975L242.637 28.3291L266.932 68.1391L270.765 67.9535L271.615 71.7719L252.842 75.9527L251.991 72.1343L256.623 70.435L252.298 62.7146L235.816 66.3852L235.19 75.2747L240.473 74.6995L241.323 78.5178L225.095 82.1318L224.181 78.3276L227.858 76.8409L232.9 30.4975ZM239.686 40.2746L237.435 35.5659L237.346 40.8626L236.033 61.6612L250.033 58.5433L239.686 40.2746Z" fill="black"/>
<path d="M279.408 28.0515L274.255 27.2166L274.245 23.1743L289.045 23.1379L308.547 52.4293L312.216 59.8528L312.138 27.971L306.528 27.1372L306.518 23.095L322.688 23.0552L322.698 27.0975L317.679 27.9574L317.786 71.5097L309.898 71.5291L289.545 40.7403L284.96 32.1453L285.046 67.0263L291.632 67.6621L291.642 71.574L274.365 71.6164L274.355 67.7046L279.504 67.0399L279.408 28.0515Z" fill="black"/>
<path d="M346.924 77.646C340.468 76.2416 336.02 73.5836 333.579 69.6721C331.138 65.7605 330.671 60.3432 332.177 53.4202L337.18 30.4216L333.155 28.6787L334.015 24.7288L353.255 28.9142L352.395 32.8641L346.786 32.578L341.617 56.3412C339.418 66.4495 341.907 72.2844 349.085 73.8459C352.61 74.6127 355.504 73.8856 357.766 71.6643C360.038 69.4007 361.687 65.9116 362.712 61.1972L367.937 37.1792L362.652 35.0954L363.512 31.1455L379.439 34.6103L378.579 38.5602L374.067 38.446L368.939 62.018C367.498 68.6436 364.817 73.1981 360.896 75.6813C357.018 78.1738 352.36 78.8287 346.924 77.646Z" fill="black"/>
<path d="M389.692 93.1639C387.56 92.1837 385.726 91.1255 384.191 89.9894C382.656 88.8534 380.978 87.5081 379.158 85.9536C377.957 84.9233 377.129 84.2794 376.673 84.0221L382.244 73.3079L387.042 75.5135L384.833 83.7545C385.092 84.5434 385.773 85.4546 386.877 86.4881C388.02 87.5397 389.441 88.4559 391.139 89.2365C393.785 90.4528 396.023 90.7878 397.852 90.2416C399.74 89.674 401.165 88.3437 402.127 86.2505C402.762 84.8683 402.912 83.502 402.576 82.1516C402.258 80.7617 401.589 79.3541 400.57 77.9289C399.569 76.4641 398.109 74.6449 396.19 72.4713C393.602 69.4638 391.694 66.434 390.466 63.3819C389.295 60.3085 389.527 56.9946 391.161 53.4402C392.178 51.2286 393.667 49.4975 395.629 48.2467C397.61 46.9565 399.961 46.3154 402.684 46.3233C405.465 46.3099 408.494 47.0566 411.772 48.5633C413.707 49.4529 415.342 50.3717 416.676 51.3198C418.05 52.2861 419.497 53.4056 421.017 54.6783C421.916 55.4267 422.605 55.9584 423.082 56.2734L417.961 66.4769L413.222 64.2985L415.327 56.4402C415.135 55.9214 414.579 55.2589 413.658 54.4528C412.755 53.6073 411.651 52.8849 410.348 52.2859C407.979 51.1966 405.928 50.9235 404.195 51.4666C402.52 51.9883 401.265 53.1575 400.43 54.9742C399.758 56.4354 399.612 57.8989 399.99 59.3645C400.409 60.8484 401.077 62.256 401.996 63.5872C402.933 64.879 404.455 66.8226 406.563 69.418C408.285 71.5009 409.699 73.4188 410.807 75.1718C411.915 76.9247 412.66 78.8938 413.043 81.0789C413.444 83.2246 413.136 85.4032 412.119 87.6149C411.121 89.787 409.615 91.6062 407.602 93.0725C405.628 94.557 403.097 95.3791 400.01 95.5387C396.962 95.7164 393.523 94.9248 389.692 93.1639Z" fill="black"/>
<path d="M61.5479 316.607L61.7637 312.315L64.0533 312.136L65.1081 325.571L62.8185 325.75L61.9354 321.543L33.4539 323.763L33.2838 328.052L31.0859 328.224L30.0347 314.834L32.2784 314.659L33.0664 318.828L61.5479 316.607Z" fill="black"/>
<path d="M63.2038 335.16L63.0106 331.457L65.2609 331L66.9658 339.354L48.0546 358.77L43.7972 362.254L67.7408 357.393L67.4834 353.376L69.7338 352.919L71.8969 363.519L69.6466 363.976L68.3732 360.493L37.7236 366.715L36.9995 363.166L56.3416 343.336L61.5767 338.671L35.8328 343.897L36.2535 348.256L34.0482 348.703L31.8209 337.789L34.0262 337.341L35.2546 340.834L63.2038 335.16Z" fill="black"/>
<path d="M71.7221 371.876L70.9932 368.332L73.1465 367.536L75.2386 373.166C75.5687 374.055 76.0999 375.308 76.8322 376.928C77.5646 378.547 78.0852 379.773 78.3938 380.603C80.3741 385.933 80.494 390.386 78.7535 393.963C77.0524 397.558 73.7758 400.253 68.9238 402.047C65.5361 403.3 62.2714 403.742 59.1296 403.372C56.0274 403.02 53.2968 401.912 50.9383 400.046C48.5798 398.181 46.8203 395.687 45.6597 392.563C45.4042 391.876 45.0253 390.68 44.5225 388.975C43.9984 387.214 43.5768 385.903 43.2574 385.043L41.0695 379.155L43.1797 378.375L44.9358 381.783L71.7221 371.876ZM46.4995 386.386C46.6424 387.474 47.0067 388.806 47.5923 390.382L48.0714 391.671C48.8985 393.81 50.1469 395.499 51.8159 396.74C53.4956 398.009 55.5539 398.714 57.9903 398.856C60.4556 398.987 63.1954 398.495 66.21 397.38C70.7461 395.702 73.824 393.44 75.4436 390.592C77.0739 387.773 77.1543 384.386 75.685 380.432C75.3764 379.601 74.9516 378.634 74.4108 377.53C74.1438 377.075 73.941 376.661 73.8025 376.288L46.4995 386.386Z" fill="black"/>
<path d="M62.9903 430.502C60.8152 426.569 60.2553 423.09 61.3106 420.066C62.4074 417.054 65.1676 414.33 69.591 411.895L84.3489 403.769L83.2556 400.654L85.2662 399.547L91.1922 410.263L89.1816 411.37L86.7723 408.246L71.6123 416.593C67.9664 418.6 65.6943 420.689 64.796 422.859C63.9125 425.056 64.1441 427.372 65.4905 429.806C66.8369 432.241 68.7011 433.588 71.0826 433.848C73.4788 434.134 76.3124 433.377 79.583 431.576L94.9843 423.096L93.6427 419.437L95.6533 418.33L100.825 427.681L98.814 428.788L96.7113 426.124L81.4708 434.515C77.2888 436.818 73.6183 437.548 70.459 436.704C67.2997 435.861 64.8103 433.793 62.9903 430.502Z" fill="black"/>
<path d="M81.7971 460.004C80.8475 458.729 80.1089 457.506 79.5813 456.336C79.0536 455.166 78.5267 453.844 78.0006 452.369C77.7232 451.432 77.4598 450.771 77.2103 450.385L84.1024 445.733L85.8556 448.088L81.5286 452.266C81.446 452.975 81.5915 453.913 81.9661 455.082C82.3834 456.258 83.0122 457.41 83.8522 458.538C85.2401 460.402 86.7082 461.503 88.256 461.841C89.822 462.203 91.3426 461.837 92.8172 460.744C93.7758 460.033 94.3982 459.153 94.6847 458.103C94.9894 457.078 95.0587 455.941 94.8929 454.694C94.7452 453.471 94.4372 451.853 93.9684 449.84C93.5601 448.011 93.292 446.344 93.164 444.84C93.0543 443.36 93.2447 441.849 93.7355 440.305C94.2691 438.767 95.2855 437.443 96.7848 436.331C98.1366 435.329 99.6057 434.792 101.192 434.72C102.822 434.654 104.446 435.068 106.065 435.962C107.702 436.88 109.196 438.247 110.547 440.063C111.387 441.191 112.041 442.248 112.508 443.235C112.994 444.245 113.5 445.412 114.027 446.734C114.22 447.353 114.42 447.852 114.626 448.231L108.268 452.602L106.597 450.357L110.584 446.26C110.647 445.832 110.497 445.144 110.134 444.195C109.789 443.271 109.279 442.355 108.603 441.447C107.343 439.754 106.028 438.73 104.657 438.376C103.305 438.045 101.954 438.381 100.602 439.383C99.6186 440.112 98.987 440.98 98.7069 441.987C98.445 443.019 98.3728 444.1 98.4903 445.232C98.6078 446.363 98.9001 448.088 99.3674 450.406C99.7926 452.565 100.072 454.376 100.207 455.837C100.341 457.298 100.169 458.758 99.6909 460.217C99.2557 461.681 98.3499 462.924 96.9735 463.944C95.6708 464.91 94.1433 465.471 92.3912 465.628C90.6573 465.809 88.84 465.443 86.9395 464.53C85.0819 463.623 83.3677 462.114 81.7971 460.004Z" fill="black"/>
<path d="M125.637 462.418L119.97 456.916L111.929 462.387L109.831 460.203L119.256 452.265L139.061 472.881L130.558 481.778L128.555 479.693L134.434 471.973L129.134 466.058L108.215 486.071L112.398 491.087L110.773 492.641L98.6295 480.001L100.254 478.447L104.718 482.431L125.637 462.418Z" fill="black"/>
<path d="M122.716 500.961L126.006 502.938L143.559 480.448L141.1 477.781L142.482 476.009L147.23 479.7C147.906 480.226 148.862 480.891 150.097 481.696C151.38 482.539 152.36 483.223 153.036 483.749C156.587 486.51 158.661 489.051 159.255 491.372C159.893 493.688 159.252 496.076 157.333 498.534C155.997 500.246 154.291 501.437 152.215 502.108C150.163 502.798 148.106 502.748 146.044 501.958C146.497 502.969 146.654 504.234 146.516 505.753C146.422 507.268 146.161 509.292 145.735 511.827C145.431 513.759 145.227 515.189 145.124 516.116C145.046 517.062 145.16 517.712 145.465 518.066L146.597 519.526L145.214 521.298L140.213 517.41C139.826 517.11 139.711 516.362 139.868 515.167C140.043 513.948 140.409 512.16 140.967 509.805C141.583 507.225 141.998 505.126 142.212 503.511C142.468 501.889 142.404 500.678 142.02 499.876C139.436 497.867 137.911 496.662 137.446 496.262L129.883 505.952L133.189 509.103L131.806 510.875L121.333 502.733L122.716 500.961ZM143.254 497.698C144.801 498.9 146.416 499.343 148.1 499.025C149.784 498.708 151.407 497.548 152.968 495.548C154.342 493.788 154.927 492.093 154.724 490.464C154.564 488.829 153.372 487.147 151.15 485.42C150.377 484.819 149.566 484.266 148.718 483.761C148.197 483.434 147.864 483.214 147.719 483.101L138.97 494.31C139.314 494.616 140.054 495.21 141.189 496.093L143.254 497.698Z" fill="black"/>
<path d="M170.968 500.409L167.631 497.692L168.842 495.745L180.313 502.859L179.101 504.805L175.182 503.022L160.106 527.237L163.468 529.915L162.305 531.784L150.873 524.694L152.061 522.787L155.893 524.624L170.968 500.409Z" fill="black"/>
<path d="M186.855 509.855L183.699 507.731L184.694 505.665L205.766 515.776L203.262 522.457L200.902 521.324L201.631 516.741L191.484 511.568L185.873 523.217L192.847 526.41L195.077 523.259L197.354 524.352L192.779 533.853L190.502 532.76L191.633 528.93L184.779 525.489L178.851 537.799L190.724 542.987L195.425 538.835L197.509 540.75L192.847 547.362L169.871 536.338L170.846 534.314L174.481 535.549L186.855 509.855Z" fill="black"/>
<path d="M215.083 522.534L211.723 520.846L212.444 518.67L224.961 522.8L224.24 524.976L219.75 524.074L210.787 551.143L222.169 554.463L227.163 548.001L229.694 549.27L224.896 558.646L201.651 550.976L202.357 548.844L206.121 549.603L215.083 522.534Z" fill="black"/>
<path d="M243.806 531.242L240.26 529.991L240.699 527.741L253.638 530.262L253.198 532.512L248.63 532.182L243.161 560.164L254.871 562.025L259.008 554.985L261.679 555.926L258.105 565.831L234.077 561.149L234.508 558.945L238.337 559.224L243.806 531.242Z" fill="black"/>
<path d="M287.468 567.439C285.004 566.123 283.131 564.098 281.85 561.361C280.599 558.594 279.997 555.332 280.045 551.574C280.09 548.06 280.789 544.982 282.138 542.341C283.52 539.7 285.384 537.677 287.728 536.271C290.072 534.834 292.7 534.135 295.609 534.172C297.417 534.196 299.097 534.447 300.653 534.925L302.55 530.228L304.699 530.989L302.709 535.777C305.202 537.062 307.077 539.042 308.329 541.717C309.581 544.392 310.183 547.608 310.135 551.367C310.089 554.942 309.36 558.08 307.948 560.782C306.565 563.453 304.672 565.522 302.265 566.988C299.858 568.424 297.155 569.122 294.154 569.084C292.684 569.065 291.155 568.816 289.57 568.337L287.44 573.26L285.199 572.498L287.468 567.439ZM295.349 536.553C292.38 536.514 290.005 537.767 288.227 540.311C286.479 542.856 285.575 546.633 285.511 551.644C285.476 554.333 285.767 556.736 286.383 558.853C287.029 560.939 287.973 562.586 289.214 563.794L299.468 537.752C298.284 536.973 296.911 536.573 295.349 536.553ZM304.669 551.342C304.703 548.684 304.395 546.326 303.749 544.271C303.132 542.215 302.205 540.568 300.964 539.33L290.71 565.372C291.893 566.212 293.282 566.643 294.873 566.663C296.802 566.688 298.493 566.13 299.948 564.987C301.403 563.844 302.54 562.117 303.367 559.805C304.194 557.494 304.627 554.672 304.669 551.342Z" fill="black"/>
<path d="M343.846 564.891C343.329 564.962 342.579 564.448 341.593 563.349C340.632 562.216 339.227 560.435 337.379 558.005C337.151 557.697 336.511 556.874 335.462 555.538C334.439 554.166 333.49 553.001 332.616 552.041C331.771 551.077 331.035 550.33 330.406 549.8L326.524 555.606L327.733 564.37L331.936 564.257L332.243 566.482L319.457 568.235L319.15 566.01L322.864 565.038L318.969 536.793L315.163 536.76L314.85 534.489L327.226 532.792L327.539 535.063L323.838 536.126L326.029 552.019L337.215 534.291L333.318 534.27L333.005 532L344.244 530.459L344.557 532.73L341.128 533.755L332.815 546.092C334.003 546.854 335.306 548.017 336.727 549.581C338.177 551.14 339.957 553.163 342.061 555.651C343.868 557.778 345.177 559.295 345.981 560.203C346.813 561.076 347.432 561.531 347.838 561.568L350.046 561.774L350.352 563.999L343.846 564.891Z" fill="black"/>
<path d="M371.178 559.093C368.173 559.943 365.43 559.973 362.945 559.183C360.491 558.384 358.377 556.886 356.606 554.687C354.827 552.458 353.465 549.683 352.521 546.361C351.559 542.98 351.35 539.831 351.888 536.916C352.458 533.991 353.666 531.521 355.511 529.506C357.351 527.461 359.669 526.043 362.465 525.252C367.06 523.952 370.981 524.415 374.223 526.643C377.488 528.832 379.846 532.485 381.3 537.6C382.278 541.04 382.476 544.255 381.894 547.247C381.335 550.2 380.109 552.723 378.221 554.814C376.356 556.866 374.006 558.293 371.178 559.093ZM362.852 527.62C359.995 528.428 358.097 530.315 357.157 533.281C356.211 536.217 356.417 540.082 357.779 544.874C359.032 549.283 360.822 552.557 363.148 554.694C365.498 556.793 368.115 557.434 371 556.618C373.828 555.818 375.705 553.905 376.625 550.881C377.577 547.849 377.372 543.936 376.01 539.144C374.748 534.705 372.971 531.475 370.678 529.456C368.377 527.407 365.768 526.795 362.852 527.62Z" fill="black"/>
<path d="M385.575 521.192L382.006 522.223L381.047 520.14L388.81 516.583L412.065 530.542L416.435 533.887L406.235 511.726L402.373 512.89L401.415 510.807L411.265 506.293L412.223 508.376L409.115 510.406L422.172 538.774L418.874 540.285L395.116 526.001L389.372 521.975L400.339 545.802L404.496 544.402L405.435 546.443L395.293 551.09L394.353 549.049L397.482 547.061L385.575 521.192Z" fill="black"/>
<path d="M445.271 525.547C442.659 527.254 440.05 528.101 437.442 528.089C434.861 528.059 432.395 527.259 430.047 525.689C427.682 524.093 425.551 521.851 423.654 518.962C421.725 516.023 420.581 513.08 420.222 510.137C419.89 507.176 420.302 504.458 421.459 501.985C422.602 499.485 424.389 497.44 426.82 495.85C430.816 493.239 434.695 492.511 438.456 493.67C442.227 494.785 445.572 497.568 448.491 502.016C450.455 505.007 451.607 508.016 451.948 511.045C452.3 514.03 451.885 516.804 450.71 519.362C449.545 521.877 447.73 523.94 445.271 525.547ZM427.899 497.995C425.415 499.618 424.169 501.985 424.16 505.096C424.137 508.18 425.491 511.807 428.226 515.974C430.744 519.809 433.432 522.399 436.292 523.744C439.162 525.046 441.852 524.878 444.36 523.238C446.819 521.631 448.037 519.246 448.01 516.085C448.009 512.907 446.642 509.234 443.906 505.067C441.372 501.207 438.709 498.656 435.916 497.412C433.107 496.143 430.434 496.338 427.899 497.995Z" fill="black"/>
<path d="M449.057 484.116L445.02 487.122L443.453 485.446L452.352 477.161L471.188 487.836L476.276 491.061L473.304 485.867L463.904 466.406L472.736 458.184L474.303 459.86L470.985 463.701L493.131 482.015L496.397 479.664L497.933 481.306L488.261 490.31L486.726 488.668L489.468 485.488L473.887 471.844L467.134 466.032L470.236 472.172L481.017 494.923L478.834 496.955L458.384 485.964L450.48 481.474L455.955 488.539L468.682 504.84L472.32 502.08L473.855 503.723L465.09 511.883L463.555 510.24L466.096 507.247L449.057 484.116Z" fill="black"/>
<path d="M481.083 451.645L477.966 454.61L476.182 453.167L484.683 442.699L486.467 444.142L484.206 447.8L506.403 465.753L509.485 462.759L511.198 464.145L502.725 474.577L500.977 473.163L503.28 469.599L481.083 451.645Z" fill="black"/>
<path fill-rule="evenodd" clip-rule="evenodd" d="M32.2779 314.66L33.0659 318.828L61.5474 316.607L61.7632 312.315L64.0527 312.136L65.1074 325.569L62.818 325.75L61.9349 321.543L33.4533 323.763L33.2833 328.052L31.0854 328.224L30.0341 314.835L32.2779 314.66ZM34.6346 324.9L34.4646 329.189L29.9596 329.541L28.7165 313.708L33.2779 313.353L34.0659 317.521L60.3777 315.47L60.5935 311.177L65.1785 310.819L66.4252 326.698L61.8399 327.055L60.9568 322.848L34.6346 324.9ZM34.0257 337.341L35.254 340.834L63.2032 335.16L63.0101 331.457L65.2601 331L66.9652 339.355L48.0541 358.77L43.7966 362.254L67.7403 357.393L67.4829 353.376L69.7333 352.919L71.8959 363.517L69.646 363.976L68.3727 360.493L37.7231 366.715L36.999 363.166L56.341 343.336L61.5762 338.671L35.8323 343.897L36.253 348.256L34.0476 348.703L31.8204 337.789L34.0257 337.341ZM37.1581 344.879L37.5788 349.237L33.0917 350.148L30.3744 336.832L34.8277 335.928L36.056 339.421L61.9245 334.169L61.7313 330.466L66.2163 329.556L68.2956 339.745L48.8837 359.675L48.4023 360.069L66.449 356.405L66.1917 352.388L70.6892 351.475L73.3423 364.476L68.8569 365.387L67.5836 361.903L36.7672 368.159L35.6685 362.775L55.4938 342.449L57.3732 340.775L37.1581 344.879ZM43.1791 378.375L44.9353 381.783L71.7216 371.876L70.9927 368.332L73.146 367.536L75.238 373.166C75.5682 374.055 76.0993 375.308 76.8316 376.928C77.5641 378.547 78.0846 379.773 78.3933 380.603C80.3736 385.933 80.4935 390.386 78.753 393.963C77.0519 397.558 73.7752 400.253 68.9233 402.047C65.5355 403.3 62.2708 403.742 59.1291 403.372C56.0269 403.02 53.2963 401.912 50.9378 400.046C48.5792 398.181 46.8198 395.687 45.6592 392.564C45.4037 391.876 45.0248 390.68 44.5219 388.975C43.9979 387.214 43.5763 385.903 43.2569 385.044L41.069 379.155L43.1791 378.375ZM43.3471 389.324C42.8249 387.568 42.4128 386.29 42.1082 385.47L39.4928 378.432L43.7715 376.849L45.5277 380.257L70.3092 371.092L69.5803 367.548L73.8685 365.962L76.3867 372.739C76.702 373.588 77.2193 374.811 77.9482 376.423C78.6831 378.048 79.218 379.305 79.542 380.177C81.5872 385.681 81.7951 390.507 79.8576 394.494C77.9811 398.455 74.4042 401.327 69.3484 403.197C65.806 404.507 62.3472 404.984 58.9884 404.589C58.9875 404.589 58.9867 404.589 58.9858 404.589L59.1291 403.372L58.991 404.59C58.9901 404.59 58.9893 404.59 58.9884 404.589C55.6692 404.213 52.7219 403.02 50.1776 401.008C47.6245 398.988 45.7406 396.301 44.5105 392.99C44.2388 392.259 43.8496 391.027 43.3471 389.324ZM75.4431 390.592C77.0734 387.773 77.1538 384.386 75.6845 380.432C75.3758 379.601 74.9511 378.634 74.4103 377.53C74.1436 377.075 73.941 376.662 73.8025 376.29C73.8023 376.289 73.8026 376.29 73.8025 376.29L46.499 386.387C46.6418 387.475 47.0062 388.806 47.5917 390.382L48.0709 391.672C48.898 393.81 50.1463 395.499 51.8154 396.74C53.4951 398.009 55.5534 398.714 57.9898 398.856C60.4551 398.987 63.1949 398.495 66.2095 397.38C70.7456 395.702 73.8235 393.44 75.4431 390.592ZM58.0571 397.632C60.3129 397.752 62.8822 397.304 65.7844 396.231C70.1749 394.607 72.9554 392.487 74.3779 389.986L74.3823 389.978C75.7785 387.564 75.9183 384.579 74.5358 380.859C74.2492 380.087 73.8491 379.172 73.3295 378.109C73.2746 378.015 73.2217 377.921 73.1709 377.828L47.8867 387.18C48.0635 387.967 48.3445 388.89 48.7404 389.955L49.2138 391.23C49.2147 391.232 49.2157 391.235 49.2166 391.237C49.9691 393.179 51.0835 394.669 52.5463 395.756L52.5542 395.762C54.0103 396.862 55.8248 397.502 58.0571 397.632ZM60.1587 419.647C61.4013 416.234 64.4583 413.322 68.9994 410.821L82.8485 403.196L81.7553 400.081L85.7461 397.884L92.8581 410.744L88.8521 412.95L86.4428 409.826L72.2028 417.667C68.6362 419.63 66.668 421.545 65.9299 423.322C65.2115 425.114 65.3608 427.041 66.5624 429.213C67.7516 431.364 69.2977 432.421 71.2147 432.63L71.2273 432.631C73.2644 432.874 75.8306 432.243 78.9914 430.502L93.471 422.53L92.1294 418.871L96.1332 416.667L102.491 428.163L98.4949 430.363L96.3921 427.699L82.0613 435.589C77.7288 437.974 73.7226 438.844 70.1424 437.888C66.6119 436.945 63.8722 434.63 61.9174 431.095C59.6439 426.984 58.9425 423.132 60.1531 419.662L60.1587 419.647ZM96.7107 426.124L98.8135 428.789L100.824 427.682L95.6527 418.33L93.6421 419.437L94.9837 423.096L79.5825 431.576C76.3119 433.377 73.4783 434.134 71.082 433.848C68.7006 433.588 66.8364 432.241 65.49 429.806C64.1436 427.372 63.912 425.056 64.7955 422.859C65.6937 420.689 67.9658 418.601 71.6117 416.593L86.7717 408.246L89.181 411.37L91.1916 410.263L85.2657 399.547L83.2551 400.654L84.3483 403.769L69.5905 411.895C65.1671 414.33 62.4069 417.054 61.3101 420.066C60.2548 423.09 60.8147 426.569 62.9898 430.502C64.8097 433.793 67.2991 435.861 70.4584 436.704C73.6178 437.548 77.2882 436.818 81.4703 434.515L96.7107 426.124ZM76.8347 452.749L76.8252 452.717C76.5523 451.796 76.3286 451.279 76.1805 451.05L75.5288 450.041L84.3861 444.062L87.4817 448.22L82.7338 452.805C82.7524 453.253 82.8656 453.872 83.1267 454.69C83.4983 455.731 84.0628 456.77 84.8346 457.807C86.1265 459.542 87.3666 460.393 88.5164 460.644L88.5313 460.647C89.6958 460.916 90.8549 460.673 92.087 459.759C92.8473 459.196 93.2949 458.539 93.502 457.781L93.5092 457.754C93.7568 456.921 93.8247 455.962 93.6776 454.855L93.6757 454.841C93.5358 453.681 93.2388 452.112 92.7744 450.118L92.7719 450.107C92.3543 448.236 92.0761 446.514 91.9425 444.944L91.9414 444.931C91.8191 443.281 92.0334 441.613 92.5672 439.934L92.5769 439.903C93.2027 438.1 94.3872 436.583 96.0545 435.347C97.5898 434.209 99.2911 433.58 101.136 433.496L101.142 433.496C103.024 433.42 104.868 433.902 106.656 434.889L106.664 434.893C108.478 435.911 110.096 437.405 111.53 439.331C112.404 440.506 113.104 441.631 113.614 442.707C114.114 443.748 114.63 444.94 115.165 446.281L115.182 446.324L115.196 446.369C115.376 446.945 115.548 447.362 115.702 447.646L116.23 448.616L107.989 454.28L104.99 450.252L109.341 445.78C109.335 445.75 109.328 445.718 109.321 445.684C109.264 445.42 109.157 445.073 108.989 444.633L108.985 444.624C108.686 443.822 108.236 443.007 107.619 442.179C106.451 440.609 105.351 439.824 104.358 439.564C103.436 439.342 102.454 439.535 101.331 440.368C100.533 440.96 100.087 441.607 99.8906 442.303C99.6694 443.181 99.6056 444.113 99.7086 445.105C99.8198 446.175 100.102 447.852 100.568 450.164L100.569 450.169C100.999 452.352 101.287 454.207 101.426 455.725C101.576 457.355 101.384 458.978 100.86 460.582C100.338 462.325 99.2602 463.774 97.7027 464.929C96.206 466.038 94.4625 466.671 92.5092 466.848C90.5092 467.055 88.4672 466.624 86.4082 465.634L86.4012 465.631C84.3266 464.618 82.4702 462.962 80.8136 460.736C79.8232 459.406 79.0351 458.107 78.4637 456.84C77.9199 455.634 77.3808 454.28 76.8459 452.78L76.8347 452.749ZM92.3907 465.628C94.1428 465.471 95.6703 464.91 96.9729 463.944C98.3493 462.924 99.2551 461.682 99.6904 460.217C100.168 458.758 100.34 457.299 100.206 455.837C100.072 454.376 99.7921 452.566 99.3669 450.406C98.8996 448.088 98.6073 446.363 98.4898 445.232C98.3723 444.1 98.4445 443.019 98.7064 441.987C98.9865 440.98 99.6181 440.112 100.601 439.384C101.953 438.382 103.305 438.046 104.657 438.376C106.027 438.731 107.342 439.754 108.602 441.447C109.278 442.355 109.788 443.271 110.133 444.195C110.497 445.144 110.647 445.833 110.583 446.26L106.597 450.358L108.268 452.602L114.626 448.232C114.419 447.852 114.219 447.353 114.026 446.735C113.499 445.412 112.993 444.245 112.508 443.235C112.04 442.248 111.387 441.191 110.547 440.063C109.195 438.247 107.701 436.881 106.064 435.962C104.445 435.069 102.821 434.654 101.192 434.72C99.6051 434.792 98.136 435.329 96.7842 436.331C95.285 437.443 94.2686 438.767 93.735 440.305C93.2442 441.849 93.0537 443.36 93.1635 444.84C93.2915 446.344 93.5596 448.011 93.9679 449.84C94.4366 451.853 94.7447 453.471 94.8923 454.694C95.0582 455.941 94.9888 457.078 94.6842 458.103C94.3977 459.153 93.7753 460.033 92.8167 460.744C91.342 461.837 89.8215 462.203 88.2555 461.841C86.7076 461.503 85.2395 460.403 83.8517 458.538C83.0116 457.41 82.3829 456.258 81.9656 455.083C81.591 453.913 81.4454 452.975 81.5281 452.266L85.8551 448.088L84.1019 445.733L77.2098 450.385C77.4592 450.771 77.7227 451.432 78.0001 452.369C78.5262 453.844 79.0531 455.167 79.5807 456.336C80.1084 457.506 80.847 458.729 81.7966 460.005C83.3672 462.114 85.0814 463.623 86.939 464.53C88.8395 465.443 90.6567 465.809 92.3907 465.628ZM100.253 478.447L104.718 482.431L125.636 462.418L119.969 456.916L111.928 462.387L109.83 460.203L119.255 452.265L139.06 472.881L130.557 481.778L128.554 479.694L134.434 471.973L129.133 466.058L108.215 486.071L112.397 491.087L110.773 492.642L98.629 480.001L100.253 478.447ZM109.889 486.166L114.071 491.182L110.736 494.372L96.8946 479.964L100.225 476.778L104.689 480.763L123.87 462.411L119.833 458.492L111.762 463.983L108.04 460.109L119.344 450.589L140.757 472.879L130.559 483.55L126.944 479.786L132.845 472.036L129.065 467.818L109.889 486.166ZM122.417 499.353L125.707 501.329L141.953 480.514L139.493 477.847L142.268 474.291L147.981 478.732C148.619 479.228 149.542 479.872 150.765 480.67L150.769 480.672C152.062 481.521 153.073 482.226 153.788 482.781C157.386 485.579 159.736 488.329 160.439 491.058C161.204 493.851 160.375 496.628 158.299 499.288C156.813 501.192 154.904 502.526 152.598 503.272C150.983 503.814 149.357 503.95 147.737 503.685C147.808 504.367 147.806 505.09 147.738 505.847C147.639 507.42 147.371 509.484 146.944 512.025C146.643 513.938 146.444 515.336 146.344 516.234C146.311 516.635 146.325 516.917 146.357 517.102C146.377 517.212 146.398 517.265 146.406 517.281L146.414 517.29L148.148 519.529L145.427 523.016L139.46 518.378C138.914 517.954 138.705 517.33 138.625 516.811C138.543 516.275 138.567 515.661 138.652 515.008L138.654 514.992C138.838 513.717 139.214 511.887 139.774 509.523L139.775 509.52C140.387 506.959 140.791 504.907 140.996 503.35L141 503.319C141.21 501.995 141.159 501.144 141.004 500.639C139.524 499.487 138.4 498.606 137.642 498.002L131.532 505.831L134.837 508.982L132.019 512.593L119.611 502.947L122.417 499.353ZM129.883 505.953L137.446 496.262C137.618 496.41 137.935 496.668 138.396 497.036C139.183 497.663 140.391 498.61 142.02 499.876C142.404 500.678 142.467 501.89 142.211 503.511C141.998 505.127 141.583 507.225 140.966 509.805C140.409 512.16 140.043 513.948 139.867 515.167C139.711 516.362 139.826 517.11 140.212 517.411L145.213 521.298L146.596 519.527L145.465 518.066C145.159 517.712 145.045 517.062 145.124 516.116C145.227 515.189 145.43 513.76 145.735 511.827C146.161 509.292 146.421 507.268 146.516 505.754C146.595 504.883 146.577 504.096 146.462 503.393C146.376 502.868 146.237 502.39 146.043 501.958C146.528 502.144 147.012 502.289 147.496 502.392C149.072 502.73 150.645 502.636 152.214 502.108C154.291 501.437 155.997 500.246 157.333 498.534C159.252 496.076 159.892 493.688 159.255 491.372C158.66 489.051 156.587 486.51 153.036 483.749C152.359 483.223 151.379 482.539 150.096 481.696C148.861 480.891 147.906 480.226 147.229 479.7L142.483 476.01L141.099 477.781L143.559 480.448L126.005 502.938L122.715 500.962L121.334 502.732L131.805 510.875L133.188 509.103L129.883 505.953ZM148.717 483.761C148.196 483.434 147.863 483.214 147.718 483.101L138.97 494.31C139.313 494.616 140.053 495.21 141.188 496.093L143.254 497.698C144.8 498.901 146.415 499.343 148.099 499.025C149.784 498.708 151.406 497.549 152.968 495.548C154.341 493.788 154.926 492.094 154.723 490.464C154.563 488.829 153.372 487.148 151.149 485.42C150.376 484.819 149.565 484.266 148.717 483.761ZM140.669 494.125C141.008 494.396 141.431 494.729 141.94 495.125L144.006 496.731C145.319 497.752 146.585 498.064 147.872 497.821C149.15 497.58 150.537 496.67 152.002 494.794C153.249 493.196 153.657 491.82 153.507 490.615L153.503 490.583C153.393 489.456 152.533 488.047 150.397 486.387C149.665 485.818 148.896 485.293 148.091 484.814L148.065 484.799C148.038 484.782 148.012 484.766 147.986 484.749L140.669 494.125ZM152.061 522.787L155.892 524.624L170.968 500.409L167.63 497.692L168.842 495.745L180.31 502.858L180.312 502.859L179.101 504.805L175.181 503.022L160.106 527.237L163.468 529.915L162.304 531.784L150.873 524.694L152.061 522.787ZM161.723 526.958L165.085 529.637L162.698 533.47L149.184 525.089L151.6 521.207L155.432 523.044L169.357 500.678L166.019 497.961L168.448 494.059L182.001 502.465L179.572 506.366L175.653 504.583L161.723 526.958ZM170.845 534.314L174.48 535.55L186.855 509.855L183.699 507.731L184.693 505.665L205.765 515.776L203.261 522.457L200.901 521.325L201.631 516.742L191.483 511.568L185.873 523.217L192.846 526.41L195.077 523.259L197.352 524.351L197.354 524.352L192.781 533.848L192.778 533.853L190.501 532.761L191.633 528.93L184.779 525.489L178.85 537.799L190.723 542.987L195.424 538.835L197.509 540.751L192.846 547.362L169.87 536.338L170.845 534.314ZM190.498 541.551L195.44 537.186L199.131 540.577L193.251 548.915L168.234 536.912L170.212 532.805L173.847 534.04L185.29 510.28L182.134 508.155L184.12 504.031L207.306 515.156L203.939 524.141L199.548 522.034L200.28 517.429L192.043 513.229L187.519 522.623L192.433 524.873L194.675 521.707L198.99 523.778L193.351 535.487L189.03 533.414L190.167 529.565L185.342 527.143L180.506 537.185L190.498 541.551ZM202.357 548.844L206.12 549.603L215.083 522.534L211.723 520.846L212.443 518.67L224.96 522.8L224.24 524.976L219.749 524.074L210.787 551.143L222.169 554.463L227.162 548.001L229.693 549.271L224.896 558.646L201.653 550.977L202.357 548.844ZM221.71 553.053L226.81 546.453L231.347 548.729L225.509 560.138L200.102 551.756L201.535 547.428L205.298 548.187L213.587 523.154L210.227 521.466L211.665 517.123L226.509 522.021L225.062 526.391L220.571 525.489L212.349 550.322L221.71 553.053ZM234.507 558.945L238.337 559.224L243.805 531.242L240.259 529.991L240.699 527.741L253.637 530.262L253.198 532.512L248.629 532.182L243.161 560.164L254.871 562.025L259.007 554.986L261.678 555.926L258.105 565.831L234.076 561.149L234.507 558.945ZM254.238 560.684L258.462 553.494L263.25 555.181L258.901 567.234L232.639 562.117L233.513 557.644L237.343 557.923L242.4 532.045L238.854 530.794L239.731 526.304L255.075 529.294L254.192 533.812L249.623 533.482L244.607 559.153L254.238 560.684ZM302.708 535.777C305.202 537.062 307.076 539.042 308.328 541.717C309.58 544.392 310.182 547.609 310.135 551.367C310.089 554.942 309.36 558.08 307.947 560.782C306.565 563.453 304.672 565.522 302.264 566.988C299.857 568.424 297.155 569.123 294.153 569.084C292.683 569.065 291.154 568.816 289.569 568.337L287.439 573.26L285.198 572.498L287.468 567.439C285.004 566.123 283.13 564.098 281.849 561.361C280.598 558.595 279.997 555.332 280.045 551.574C280.09 548.06 280.788 544.982 282.138 542.341C283.52 539.7 285.383 537.677 287.727 536.271C290.072 534.834 292.699 534.135 295.609 534.172C297.416 534.196 299.096 534.447 300.652 534.925L302.549 530.228L304.699 530.989L302.708 535.777ZM299.923 533.458L301.852 528.681L306.326 530.266L304.256 535.247C306.515 536.655 308.246 538.65 309.438 541.198C310.787 544.079 311.41 547.488 311.36 551.382C311.312 555.115 310.55 558.447 309.036 561.345C307.557 564.201 305.514 566.444 302.902 568.035L302.892 568.041C300.277 569.601 297.349 570.351 294.137 570.309C292.876 570.293 291.586 570.121 290.272 569.799L288.115 574.784L283.529 573.224L285.901 567.938C283.671 566.499 281.95 564.466 280.739 561.881L280.733 561.866C279.392 558.902 278.77 555.454 278.82 551.558C278.866 547.89 279.597 544.621 281.047 541.784L281.052 541.773C282.528 538.953 284.539 536.755 287.092 535.223C289.644 533.66 292.5 532.907 295.625 532.947C297.129 532.967 298.562 533.135 299.923 533.458ZM302.579 544.638L302.574 544.623C302.244 543.522 301.825 542.571 301.324 541.759L292.231 564.852C293.008 565.226 293.888 565.425 294.889 565.438C296.551 565.46 297.965 564.985 299.19 564.023C300.412 563.064 301.438 561.558 302.213 559.393C302.981 557.245 303.402 554.567 303.443 551.326C303.476 548.769 303.179 546.546 302.579 544.638ZM290.709 565.372L300.963 539.33C301.286 539.652 301.587 540.001 301.867 540.378C302.665 541.452 303.292 542.75 303.748 544.271C304.395 546.327 304.703 548.684 304.669 551.342C304.626 554.673 304.193 557.494 303.366 559.806C302.54 562.117 301.402 563.845 299.947 564.987C298.492 566.13 296.802 566.688 294.873 566.664C293.282 566.643 291.893 566.212 290.709 565.372ZM340.658 564.142C339.675 562.983 338.254 561.18 336.403 558.747L336.393 558.734C336.178 558.443 335.552 557.638 334.498 556.294L334.48 556.271C333.473 554.922 332.55 553.789 331.709 552.867L331.694 552.849C331.307 552.408 330.949 552.019 330.62 551.683L327.801 555.9L328.796 563.116L332.999 563.002L333.624 567.53L318.41 569.616L317.787 565.1L321.501 564.128L317.899 538.009L314.093 537.976L313.468 533.442L328.272 531.412L328.898 535.948L325.196 537.01L326.784 548.526L335 535.505L332.249 535.49L331.623 530.953L345.29 529.079L345.914 533.603L341.899 534.803L334.499 545.786C335.501 546.563 336.543 547.558 337.628 548.751C339.095 550.328 340.886 552.365 342.995 554.858C344.789 556.97 346.086 558.473 346.882 559.373C347.266 559.775 347.569 560.045 347.795 560.211C347.916 560.301 347.988 560.339 348.017 560.354L351.126 560.644L351.733 565.046L344.012 566.105C343.295 566.203 342.658 565.882 342.202 565.57C341.712 565.234 341.204 564.751 340.681 564.168L340.658 564.142ZM345.98 560.203C345.176 559.295 343.868 557.778 342.061 555.651C339.956 553.163 338.177 551.14 336.727 549.581C335.473 548.202 334.312 547.134 333.24 546.378C333.097 546.277 332.955 546.182 332.815 546.092L341.128 533.755L344.556 532.73L344.243 530.459L344.239 530.46L333.004 532L333.317 534.271L337.215 534.291L326.029 552.019L323.837 536.126L327.539 535.063L327.226 532.792L314.851 534.489L315.162 536.76L318.969 536.793L322.863 565.038L319.149 566.01L319.456 568.235L332.242 566.482L331.935 564.257L327.732 564.371L326.524 555.606L330.405 549.8C330.687 550.037 330.991 550.319 331.315 550.643C331.716 551.043 332.149 551.509 332.615 552.041C333.489 553.001 334.438 554.167 335.462 555.538C336.511 556.874 337.15 557.697 337.378 558.005C339.227 560.435 340.632 562.216 341.593 563.349C342.579 564.448 343.328 564.962 343.845 564.891L350.352 563.999L350.045 561.774L347.838 561.568C347.432 561.531 346.813 561.076 345.98 560.203ZM362.573 560.351L362.565 560.348C359.864 559.469 357.557 557.822 355.651 555.456L355.648 555.452C353.748 553.072 352.321 550.143 351.341 546.696C350.338 543.167 350.104 539.825 350.683 536.693L350.685 536.681C351.294 533.558 352.594 530.878 354.603 528.683C356.606 526.458 359.127 524.923 362.131 524.073C366.991 522.698 371.304 523.154 374.909 525.628C378.486 528.028 380.973 531.972 382.478 537.265C383.499 540.856 383.72 544.266 383.097 547.475C383.097 547.477 383.097 547.479 383.096 547.481L381.893 547.247C381.335 550.2 380.108 552.723 378.22 554.814C376.355 556.866 374.006 558.293 371.178 559.093C368.173 559.943 365.429 559.973 362.944 559.183C360.49 558.384 358.376 556.886 356.605 554.687C354.826 552.459 353.464 549.683 352.52 546.361C351.559 542.98 351.349 539.832 351.888 536.916C352.458 533.991 353.665 531.521 355.51 529.506C357.35 527.461 359.668 526.043 362.465 525.252C367.06 523.952 370.98 524.415 374.222 526.643C377.487 528.832 379.845 532.485 381.299 537.6C382.277 541.04 382.475 544.256 381.893 547.247M376.625 550.882C375.704 553.905 373.827 555.818 370.999 556.618C368.114 557.434 365.497 556.793 363.148 554.694C360.822 552.557 359.032 549.284 357.778 544.874C356.416 540.082 356.211 536.217 357.156 533.281C358.097 530.315 359.995 528.428 362.851 527.62C365.768 526.795 368.376 527.407 370.677 529.456C372.97 531.476 374.748 534.705 376.009 539.144C377.372 543.936 377.577 547.849 376.625 550.882ZM363.971 553.786C361.873 551.856 360.174 548.819 358.957 544.539C357.624 539.85 357.484 536.261 358.323 533.657L358.324 533.652C359.147 531.056 360.747 529.489 363.185 528.799C365.69 528.091 367.868 528.595 369.862 530.371L369.867 530.376C371.915 532.179 373.603 535.159 374.831 539.479C376.162 544.162 376.306 547.805 375.456 550.515L375.453 550.525C374.643 553.185 373.058 554.762 370.666 555.439C368.211 556.134 366.025 555.618 363.971 553.786ZM394.353 549.049L397.481 547.061L385.574 521.193L382.005 522.223L381.047 520.14L388.81 516.583L412.065 530.542L416.435 533.887L406.234 511.726L402.373 512.89L401.418 510.816L401.414 510.807L411.264 506.294L412.223 508.376L409.114 510.406L422.171 538.774L418.874 540.285L395.116 526.001L389.371 521.975L400.338 545.802L404.495 544.402L405.435 546.443L395.292 551.09L394.353 549.049ZM400.991 544.289L405.148 542.889L407.061 547.046L394.691 552.714L392.792 548.589L395.92 546.601L384.902 522.662L381.333 523.692L379.42 519.537L388.886 515.2L412.755 529.527L413.255 529.91L405.567 513.207L401.706 514.371L399.788 510.204L411.866 504.67L413.778 508.824L410.669 510.854L423.798 539.377L418.797 541.668L394.448 527.029L392.379 525.579L400.991 544.289ZM437.436 529.314L437.427 529.314C434.587 529.281 431.892 528.397 429.365 526.708L429.361 526.705C426.836 525.001 424.597 522.632 422.63 519.635C420.615 516.566 419.391 513.447 419.005 510.286L419.003 510.274C418.649 507.111 419.087 504.166 420.346 501.471C421.591 498.75 423.537 496.532 426.149 494.825C430.376 492.062 434.628 491.211 438.81 492.497C442.941 493.721 446.494 496.742 449.515 501.343C451.566 504.467 452.799 507.658 453.165 510.908C453.54 514.099 453.097 517.099 451.822 519.874L451.821 519.877C450.554 522.613 448.58 524.848 445.941 526.573C443.168 528.385 440.328 529.328 437.436 529.314ZM451.948 511.045C451.607 508.017 450.454 505.007 448.491 502.016C445.571 497.568 442.227 494.785 438.455 493.67C434.695 492.511 430.815 493.239 426.82 495.851C424.388 497.44 422.601 499.485 421.458 501.985C420.302 504.458 419.889 507.176 420.221 510.137C420.581 513.08 421.724 516.023 423.654 518.963C425.55 521.851 427.681 524.093 430.046 525.689C432.395 527.259 434.861 528.059 437.441 528.089C440.05 528.101 442.658 527.255 445.271 525.547C447.73 523.94 449.544 521.877 450.709 519.362C451.885 516.804 452.299 514.03 451.948 511.045ZM435.916 497.412C438.709 498.656 441.372 501.207 443.906 505.068C446.641 509.234 448.009 512.907 448.009 516.085C448.037 519.246 446.818 521.631 444.359 523.238C441.851 524.878 439.162 525.046 436.291 523.744C433.432 522.399 430.743 519.809 428.226 515.974C425.49 511.807 424.137 508.18 424.16 505.097C424.169 501.986 425.415 499.618 427.898 497.995C430.434 496.338 433.106 496.144 435.916 497.412ZM436.805 522.632C434.225 521.415 431.694 519.024 429.25 515.302C426.574 511.224 425.365 507.841 425.385 505.106L425.385 505.1C425.393 502.378 426.45 500.406 428.569 499.021C430.746 497.597 432.975 497.429 435.411 498.529L435.417 498.532C437.912 499.643 440.415 501.983 442.881 505.74C445.554 509.812 446.784 513.246 446.784 516.085L446.784 516.096C446.808 518.876 445.768 520.854 443.689 522.213C441.555 523.607 439.315 523.768 436.805 522.632ZM463.554 510.24L466.095 507.248L449.056 484.116L445.02 487.122L443.453 485.446L452.352 477.161L471.188 487.836L476.276 491.062L473.303 485.867L463.904 466.406L472.736 458.184L474.302 459.86L470.985 463.701L493.13 482.015L496.397 479.664L497.932 481.306L497.927 481.311L488.266 490.306L488.261 490.31L486.725 488.668L489.467 485.489L489.467 485.487L473.887 471.845L467.134 466.032L470.236 472.172L481.016 494.923L478.834 496.956L458.384 485.965L450.48 481.474L455.955 488.539L468.681 504.84L472.319 502.08L473.855 503.723L465.09 511.883L463.554 510.24ZM468.903 503.134L472.459 500.436L475.588 503.783L465.03 513.613L461.914 510.279L464.534 507.194L448.8 485.835L444.873 488.759L441.719 485.386L452.174 475.652L471.818 486.785L472.758 487.381L472.219 486.438L462.407 466.125L472.796 456.453L475.95 459.827L472.73 463.554L493.182 480.468L496.556 478.04L499.666 481.367L488.201 492.041L485.079 488.701L487.746 485.609L473.088 472.773L473.08 472.766L471.009 470.984L471.344 471.647L482.508 495.209L479.026 498.45L457.778 487.03L455.2 485.565L456.921 487.785L468.903 503.134ZM500.976 473.163L503.28 469.599L481.083 451.645L477.965 454.61L476.181 453.167L476.186 453.161L484.677 442.705L484.682 442.699L486.466 444.142L484.206 447.8L506.402 465.753L509.484 462.759L511.197 464.145L502.73 474.571L502.725 474.578L500.976 473.163ZM506.328 464.117L509.41 461.123L512.922 463.964L502.905 476.299L499.349 473.423L501.653 469.859L481.148 453.274L478.031 456.239L474.456 453.348L484.502 440.977L488.076 443.868L485.815 447.526L506.328 464.117ZM289.233 541.01C287.686 543.266 286.798 546.757 286.735 551.66C286.702 554.249 286.983 556.525 287.557 558.5C287.904 559.621 288.337 560.579 288.844 561.387L297.932 538.307C297.165 537.971 296.304 537.791 295.333 537.778C292.792 537.745 290.791 538.783 289.233 541.01ZM299.468 537.752L289.214 563.794C288.89 563.479 288.587 563.135 288.304 562.76C287.501 561.698 286.86 560.395 286.383 558.853C285.767 556.736 285.476 554.333 285.51 551.644C285.574 546.633 286.479 542.856 288.227 540.311C290.005 537.767 292.38 536.514 295.349 536.553C296.91 536.573 298.283 536.973 299.468 537.752Z" fill="black"/>
<path d="M512.499 407.71L510.495 410.838L508.39 409.907L511.874 402.116L538.661 397.25L544.173 396.877L521.771 386.975L519.636 390.396L517.531 389.466L521.951 379.58L524.057 380.511L523.063 384.085L551.74 396.76L550.26 400.069L522.879 405.024L515.878 405.792L539.965 416.438L542.165 412.645L544.229 413.557L539.677 423.736L537.614 422.824L538.649 419.268L512.499 407.71Z" fill="black"/>
<path d="M528.472 365.672L526.604 373.339L535.445 377.461L534.626 380.375L522.942 376.32L530.676 348.816L542.72 351.591L541.938 354.372L532.252 353.252L529.838 360.816L557.844 368.595L560.051 362.449L562.226 363.053L557.484 379.917L555.309 379.313L556.479 373.451L528.472 365.672Z" fill="black"/>
<path d="M535.04 340.966L534.054 344.495L531.766 344.221L533.272 331.843L535.559 332.117L535.632 336.097L547.94 337.573L549.889 321.554L537.581 320.078L536.584 323.698L534.296 323.424L535.779 311.228L538.067 311.503L538.179 315.163L566.638 318.576L567.533 315.036L569.774 315.305L568.285 327.546L566.043 327.278L566.04 323.491L552.725 321.894L550.777 337.913L564.091 339.51L565.03 335.605L567.272 335.874L565.75 348.389L563.508 348.12L563.499 344.379L535.04 340.966Z" fill="black"/>
<path fill-rule="evenodd" clip-rule="evenodd" d="M537.614 422.824L538.649 419.268L512.499 407.71L510.495 410.838L508.39 409.907L511.874 402.116L538.661 397.25L544.173 396.877L521.771 386.976L519.636 390.397L517.531 389.466L521.951 379.58L524.057 380.511L523.063 384.085L551.74 396.76L550.26 400.069L522.879 405.024L515.878 405.792L539.965 416.438L542.165 412.645L544.229 413.557L539.677 423.736L537.614 422.824ZM539.456 414.874L541.656 411.08L545.85 412.934L540.298 425.35L536.137 423.511L537.173 419.955L512.964 409.256L510.961 412.383L506.769 410.531L511.019 401.026L538.509 396.032L539.134 395.99L522.248 388.526L520.113 391.947L515.91 390.089L521.33 377.966L525.521 379.818L524.528 383.393L553.361 396.137L551.115 401.16L523.055 406.237L520.541 406.513L539.456 414.874ZM555.309 379.314L556.479 373.451L528.472 365.672L526.603 373.339L535.445 377.461L534.626 380.375L522.942 376.321L530.676 348.817L542.72 351.591L541.938 354.372L532.252 353.252L529.838 360.816L557.844 368.595L560.051 362.449L562.226 363.053L557.483 379.918L555.309 379.314ZM557.075 367.11L559.282 360.964L563.738 362.202L558.332 381.425L553.884 380.19L555.054 374.327L529.363 367.191L528.032 372.653L536.907 376.791L535.453 381.959L521.45 377.1L529.812 347.36L544.247 350.685L542.835 355.709L533.113 354.585L531.392 359.976L557.075 367.11ZM563.508 348.12L563.499 344.379L535.04 340.966L534.054 344.495L531.766 344.221L533.272 331.843L535.559 332.117L535.632 336.097L547.94 337.573L549.889 321.554L537.581 320.078L536.583 323.699L534.296 323.424L535.779 311.228L538.067 311.503L538.179 315.164L566.638 318.577L567.532 315.036L569.774 315.305L568.285 327.547L566.043 327.278L566.04 323.491L552.725 321.895L550.777 337.913L564.091 339.51L565.03 335.605L567.272 335.874L565.75 348.389L563.508 348.12ZM563.155 338.163L564.094 334.259L568.637 334.804L566.818 349.751L562.285 349.207L562.276 345.467L535.937 342.308L534.951 345.837L530.401 345.292L532.203 330.481L536.765 331.028L536.838 335.007L546.871 336.21L548.524 322.625L538.482 321.421L537.485 325.041L532.931 324.495L534.711 309.866L539.26 310.412L539.371 314.072L565.714 317.232L566.608 313.691L571.139 314.235L569.354 328.909L564.819 328.365L564.815 324.579L553.794 323.257L552.141 336.842L563.155 338.163Z" fill="black"/>
<path fill-rule="evenodd" clip-rule="evenodd" d="M299 588.197C458.719 588.197 588.197 458.719 588.197 299C588.197 139.281 458.719 9.80328 299 9.80328C139.281 9.80328 9.80328 139.281 9.80328 299C9.80328 458.719 139.281 588.197 299 588.197ZM299 598C464.133 598 598 464.133 598 299C598 133.867 464.133 0 299 0C133.867 0 0 133.867 0 299C0 464.133 133.867 598 299 598Z" fill="black"/>
<path d="M299 507.82C414.328 507.82 507.82 414.328 507.82 299C507.82 183.672 414.328 90.1803 299 90.1803C183.672 90.1803 90.1806 183.672 90.1806 299C90.1806 414.328 183.672 507.82 299 507.82ZM514.172 299C514.172 417.836 417.837 514.172 299 514.172C180.164 514.172 83.8281 417.836 83.8281 299C83.8281 180.164 180.164 83.8279 299 83.8279C417.837 83.8279 514.172 180.164 514.172 299Z" fill="black" stroke="white"/>
<path fill-rule="evenodd" clip-rule="evenodd" d="M299 490.164C404.577 490.164 490.164 404.577 490.164 299C490.164 193.423 404.577 107.836 299 107.836C193.423 107.836 107.836 193.423 107.836 299C107.836 404.577 193.423 490.164 299 490.164ZM299 499.967C409.991 499.967 499.968 409.991 499.968 299C499.968 188.009 409.991 98.0327 299 98.0327C188.009 98.0327 98.0331 188.009 98.0331 299C98.0331 409.991 188.009 499.967 299 499.967Z" fill="black"/>
<path d="M508.94 442.734C508.449 441.979 508.165 441.026 508.086 439.874C508.007 438.722 508.251 437.65 508.819 436.657C509.182 436.021 509.619 435.534 510.13 435.193C510.641 434.853 511.295 434.516 512.093 434.181C512.711 433.929 513.201 433.695 513.561 433.48C513.922 433.264 514.21 432.968 514.426 432.591C515.096 431.419 515.109 430.083 514.465 428.582L516.381 428.135C516.897 428.984 517.2 429.974 517.29 431.106C517.361 432.227 517.118 433.274 516.561 434.247C516.209 434.862 515.783 435.33 515.284 435.651C514.784 435.971 514.157 436.284 513.402 436.591C512.764 436.831 512.259 437.07 511.887 437.305C511.495 437.529 511.18 437.849 510.942 438.266C510.283 439.418 510.258 440.774 510.868 442.335L508.94 442.734Z" fill="black"/>
<path fill-rule="evenodd" clip-rule="evenodd" d="M508.368 444.104L507.912 443.402C507.28 442.429 506.952 441.26 506.862 439.957M508.368 444.104L509.188 443.934L508.368 444.104ZM511.629 433.046C512.22 432.806 512.646 432.598 512.932 432.428C513.105 432.324 513.246 432.183 513.361 431.982C513.799 431.216 513.866 430.295 513.339 429.064L512.762 427.72L516.966 426.741L517.427 427.499C518.056 428.533 518.408 429.713 518.511 431.009L518.513 431.029C518.598 432.389 518.3 433.674 517.624 434.855C517.193 435.609 516.64 436.236 515.945 436.682C515.363 437.055 514.663 437.401 513.862 437.726L513.835 437.737C513.236 437.963 512.816 438.167 512.542 438.34L512.519 438.355L512.495 438.368C512.305 438.477 512.142 438.634 512.005 438.875C511.577 439.623 511.495 440.574 512.009 441.889L512.536 443.24L509.188 443.934M511.629 433.046L511.618 433.051L511.629 433.046ZM510.52 441.155C510.592 441.534 510.708 441.928 510.867 442.335L508.939 442.734C508.449 441.979 508.164 441.026 508.085 439.874C508.006 438.722 508.25 437.649 508.818 436.657C509.182 436.021 509.619 435.533 510.13 435.193C510.64 434.853 511.295 434.515 512.092 434.181C512.711 433.929 513.2 433.695 513.561 433.479C513.921 433.264 514.209 432.968 514.425 432.59C514.915 431.733 515.054 430.786 514.84 429.752C514.762 429.374 514.637 428.983 514.465 428.581L516.38 428.135C516.896 428.984 517.199 429.974 517.29 431.106C517.36 432.227 517.117 433.274 516.561 434.247C516.209 434.862 515.783 435.33 515.283 435.651C514.784 435.971 514.157 436.284 513.402 436.59C512.763 436.831 512.258 437.069 511.886 437.305C511.495 437.529 511.18 437.849 510.941 438.266C510.454 439.117 510.314 440.08 510.52 441.155ZM506.862 439.957C506.767 438.567 507.065 437.253 507.755 436.048C508.194 435.279 508.753 434.637 509.45 434.173C510.046 433.776 510.775 433.404 511.618 433.051" fill="black"/>
<path d="M373.75 466.881H219.348L216.897 476.685L240.18 490.164L292.873 495.066L344.34 491.39L373.75 480.361V466.881Z" fill="black"/>
<path fill-rule="evenodd" clip-rule="evenodd" d="M218.392 465.656H374.976V481.21L344.604 492.599L292.86 496.295L239.799 491.359L215.485 477.283L218.392 465.656ZM220.305 468.107L218.31 476.086L240.562 488.969L292.886 493.836L344.076 490.18L372.525 479.511V468.107H220.305Z" fill="black"/>
</svg>
