<?xml version="1.0" encoding="utf-8"?>
<!-- Generator: Adobe Illustrator 19.0.0, SVG Export Plug-In . SVG Version: 6.00 Build 0)  -->
<svg version="1.1" xmlns="http://www.w3.org/2000/svg" xmlns:xlink="http://www.w3.org/1999/xlink" x="0px" y="0px"
	 viewBox="-80.7 -82.8 513.5 133.2" style="enable-background:new -80.7 -82.8 513.5 133.2;" xml:space="preserve">
<style type="text/css">
	.st0{display:none;}
	.st1{display:inline;}
	.st2{fill:#FFFFFF;}
	.st3{fill:#F09B36;}
	.st4{fill:#D5562B;}
	.st5{fill:#B55232;}
	.st6{display:inline;fill:#FFFFFF;}
	.st7{font-family:'Raleway-BlackItalic';}
	.st8{font-size:55.1517px;}
	.st9{fill:#6A9997;}
</style>
<g id="Layer_1" class="st0">
	<g id="Layer_1_1_" class="st1">
		<title>logo-ascend-art-under_web</title>
		<g id="Text" class="st0">
			<g id="ascend" class="st1">
				<path class="st2" d="M-118,280c-3.5,5.1-9.4,8-15.6,7.7c-5.8,0.2-11.5-2.2-15.4-6.6c-7.7-9.3-7.7-22.7,0-31.9
					c4-4.4,9.8-6.8,15.8-6.6c6.1-0.3,11.9,2.7,15.2,7.8v-7.1h6.5V287h-6.5V280z M-132.8,281.7c4.3,0.2,8.4-1.6,11.2-4.9
					c5.2-6.9,5.2-16.5,0-23.4c-2.8-3.3-6.9-5.1-11.2-4.9c-4.3-0.2-8.5,1.6-11.4,4.9c-5.5,6.8-5.5,16.6,0,23.4
					C-141.3,280.1-137.1,281.9-132.8,281.7"/>
				<path class="st2" d="M-76.6,255c-0.6-4.6-4.2-6.8-11-6.8c-6.8,0-10.1,2.1-10.1,6.3c-0.1,1.6,0.7,3.1,2.1,4
					c1.7,1,3.5,1.8,5.4,2.2c2.1,0.6,4.5,1.1,7,1.6c2.4,0.5,4.8,1.1,7,2.1c2,0.8,3.9,2.1,5.4,3.7c1.5,1.8,2.3,4.1,2.1,6.5
					c0.2,3.9-1.7,7.5-4.9,9.7c-3.9,2.4-8.4,3.6-13,3.4c-5,0.2-9.9-1.3-13.9-4.4c-3.1-2.4-4.9-6.1-5.1-10.1h6.8
					c0.3,3.9,3,7.2,6.8,8.1c1.4,0.5,3,0.7,4.5,0.7c1.4,0,2.8-0.1,4.1-0.3c1.3-0.2,2.5-0.5,3.8-0.9c2.5-0.7,4.2-3,4.2-5.7
					c0.1-1.7-0.7-3.2-2.1-4.1c-1.7-1.1-3.5-1.9-5.4-2.4c-2.2-0.6-4.5-1.2-7-1.6c-2.4-0.5-4.8-1.1-7-2.1c-2-0.8-3.9-2-5.4-3.6
					c-1.5-1.7-2.3-4-2.1-6.3c-0.2-3.6,1.4-7,4.3-9.2c3.8-2.4,8.3-3.6,12.8-3.3c4.5-0.3,9,1.1,12.7,3.9c2.6,2.2,4.2,5.2,4.5,8.6
					L-76.6,255z"/>
				<path class="st2" d="M-42.2,281.7c2.7,0,5.3-0.8,7.4-2.4c2.1-1.5,3.8-3.7,4.7-6.1h7.1c-1.2,4.2-3.8,7.8-7.3,10.4
					c-3.9,2.8-8.6,4.2-13.4,4.1c-5.9,0.2-11.6-2.2-15.6-6.6c-7.8-9.2-7.8-22.7,0-31.9c4-4.4,9.7-6.8,15.6-6.6
					c4.7-0.1,9.4,1.3,13.3,4c3.5,2.6,6.1,6.2,7.3,10.4h-7c-0.9-2.5-2.6-4.6-4.7-6.1c-2.2-1.6-4.8-2.4-7.4-2.4
					c-2.4-0.1-4.9,0.4-7.1,1.3c-1.9,0.8-3.5,2.1-4.9,3.6c-5.7,6.8-5.7,16.7,0,23.4C-51.1,280.1-46.6,281.9-42.2,281.7"/>
				<path class="st2" d="M7.3,280.9c5.2-1.2,9.1-5.4,10-10.7l6.9-2.1c-0.3,4.1-1.7,8-4.1,11.3c-2.8,3.6-6.7,6.1-11.1,7.3
					c-5.7,2-12,1.4-17.3-1.6c-5.1-3-8.9-7.9-10.4-13.6c-1.9-5.6-1.6-11.7,0.9-17c5.9-10.9,19.5-15,30.4-9.2c5,3.1,8.6,8,10.1,13.7
					l0.8,2.4l-35,10.6c1.4,3.5,4.1,6.4,7.5,8.2C-0.5,281.9,3.6,282.1,7.3,280.9 M-2.8,249.3c-3.6,1-6.7,3.3-8.6,6.5
					c-1.8,3.1-2.4,6.8-1.8,10.3l28.5-8.6c-1.5-3.3-4-6-7.3-7.6C4.6,248.4,0.7,248.2-2.8,249.3"/>
				<path class="st2" d="M36,243.3v6.8c1.6-2.1,3.5-3.9,5.8-5.3c2.3-1.5,5-2.2,7.8-2.2c2.6-0.1,5.1,0.4,7.5,1.2c2.1,0.8,4,2,5.5,3.7
					c3.7,3.7,5.7,8.8,5.4,14.1V287h-6.6v-25.3c0.2-3.6-1-7.1-3.4-9.7c-2.3-2.4-5.5-3.7-8.8-3.6c-3.5-0.1-6.8,1.2-9.3,3.7
					c-2.6,2.5-4,6-3.9,9.6v25.2h-6.5v-43.7L36,243.3z"/>
				<path class="st2" d="M110.7,280c-3.5,5.1-9.4,8-15.6,7.7c-5.8,0.2-11.5-2.2-15.4-6.6c-7.7-9.3-7.7-22.7,0-31.9
					c4-4.4,9.8-6.8,15.8-6.6c6.1-0.3,11.9,2.7,15.2,7.8v-24.6h6.5V287h-6.5V280z M96,281.7c4.3,0.2,8.4-1.6,11.2-4.9
					c5.2-6.9,5.2-16.5,0-23.4c-2.8-3.3-6.9-5.1-11.2-4.9c-4.3-0.1-8.5,1.6-11.4,4.9c-5.5,6.8-5.5,16.6,0,23.4
					C87.5,280.1,91.7,281.8,96,281.7"/>
			</g>
		</g>
		<g id="Logo">
			<path class="st3" d="M-40.3-3.5l5.7-9.9c1.3-2.2,1.7-4.5,1.2-5.6l-13.3-32.5l-5.7,9.9c-1.3,2.2-1.7,4.5-1.2,5.6L-40.3-3.5z"/>
			<path class="st4" d="M-30.1-21.2L-46-58.9c-0.5-1.1-0.1-3.2,1.2-5.6l0,0l5.7-9.9l16,37.5c0.5,1.1,0.1,3.2-1.2,5.6L-30.1-21.2"/>
			<path class="st5" d="M-13.6-54.2l-18.9-44.6l-5.6,9.7c-1.3,2.2-1.7,4.3-1.2,5.4l18.9,44.7c1.1-2,3.1-5.4,5.6-9.8
				C-13.6-51-13.1-53.1-13.6-54.2"/>
		</g>
	</g>
	<g id="Layer_2">
		<text transform="matrix(1 0 0 1 -162.6551 279.7633)" class="st1" style="font-family:'Montserrat-Bold'; font-size:50.7424px;">ascend</text>
	</g>
	<text transform="matrix(1 0 0 1 -16.3782 -3.4624)" class="st6 st7 st8">ASCEND</text>
</g>
<g id="Layer_2_1_">
	<g>
		<path d="M167-49.3v1.6c-1.6,0.1-2.9,0.3-3.7,0.6c-0.9,0.4-1.4,1-1.7,2c-0.3,1-0.4,2.5-0.4,4.5V0.3c0,2,0.2,3.5,0.5,4.4
			c0.3,1,0.9,1.6,1.7,2c0.8,0.3,2.1,0.5,3.7,0.7V9c-1.6-0.1-3.6-0.2-6.1-0.2c-2.5,0-5,0-7.6,0c-3,0-5.8,0-8.4,0
			c-2.6,0-4.7,0.1-6.3,0.2V7.4c1.7-0.1,3-0.3,3.8-0.7c0.8-0.3,1.4-1,1.6-2c0.3-1,0.4-2.5,0.4-4.4v-40.9c0-2-0.1-3.5-0.4-4.5
			c-0.3-1-0.8-1.6-1.7-2c-0.9-0.4-2.1-0.6-3.7-0.6v-1.6c1.6,0.1,3.7,0.1,6.3,0.2c2.6,0.1,5.4,0.1,8.4,0.1c2.6,0,5.1,0,7.6-0.1
			C163.4-49.2,165.4-49.3,167-49.3z"/>
		<path d="M227.6-49.3v1.6c-1.6,0.3-2.9,0.9-3.7,1.7c-0.9,0.8-1.4,2.1-1.7,3.8c-0.3,1.7-0.4,4.2-0.4,7.3V9c-0.8-0.1-1.7-0.2-2.7-0.2
			c-1,0-2,0.1-3.1,0.2l-36.5-39.9v23.7c0,3.7,0.2,6.5,0.5,8.4c0.3,2,1,3.4,2.2,4.2c1.2,0.9,3.1,1.5,5.6,1.9V9
			c-1.1-0.1-2.5-0.2-4.3-0.2c-1.8,0-3.4,0-4.9,0c-1.2,0-2.4,0-3.7,0c-1.3,0-2.3,0.1-3.1,0.2V7.4c1.7-0.4,3-1,3.8-1.8
			c0.8-0.8,1.4-2.1,1.6-3.8c0.3-1.8,0.4-4.2,0.4-7.2v-35.1c0-2-0.1-3.5-0.4-4.5c-0.3-1-0.8-1.6-1.7-2c-0.9-0.4-2.1-0.6-3.7-0.6v-1.6
			c0.8,0.1,1.9,0.1,3.1,0.2c1.3,0.1,2.5,0.1,3.7,0.1c1.4,0,2.7,0,4-0.1c1.3-0.1,2.5-0.1,3.5-0.2l33.7,35.6v-19.4
			c0-3.7-0.2-6.5-0.5-8.4c-0.3-1.9-1-3.4-2.2-4.2c-1.2-0.9-3-1.5-5.7-1.8v-1.6c1.1,0.1,2.5,0.1,4.3,0.2c1.8,0.1,3.4,0.1,4.9,0.1
			c1.3,0,2.5,0,3.7-0.1C225.8-49.2,226.8-49.3,227.6-49.3z"/>
		<path d="M259.4-49.3c11.5,0,20.1,2.5,25.7,7.4c5.6,4.9,8.4,12,8.4,21.1c0,6-1.4,11.2-4.1,15.7c-2.7,4.5-6.7,8-11.9,10.4
			C272.2,7.8,265.9,9,258.6,9c-1.3,0-3.2,0-5.7-0.1c-2.5-0.1-4.7-0.1-6.6-0.1c-2.7,0-5.4,0-8,0c-2.6,0-4.7,0.1-6.3,0.2V7.4
			c1.7-0.1,3-0.3,3.8-0.7c0.8-0.3,1.4-1,1.6-2c0.3-1,0.4-2.5,0.4-4.4v-40.9c0-2-0.1-3.5-0.4-4.5c-0.3-1-0.8-1.6-1.7-2
			c-0.9-0.4-2.1-0.6-3.7-0.6v-1.6c1.6,0.1,3.7,0.1,6.3,0.2c2.6,0.1,5.2,0.1,7.9,0c2-0.1,4.3-0.1,6.9-0.2
			C255.5-49.3,257.7-49.3,259.4-49.3z M260.6-47.8c-2.5,0-4.2,0.5-4.9,1.4c-0.8,0.9-1.2,2.8-1.2,5.7V0.4c0,2.9,0.4,4.8,1.2,5.7
			c0.8,0.9,2.5,1.4,5,1.4c3.7,0,6.7-1.1,9-3.3c2.3-2.2,3.9-5.3,4.9-9.5s1.5-9.3,1.5-15.2c0-9.2-1.2-16.1-3.7-20.6
			C269.9-45.6,266-47.8,260.6-47.8z"/>
		<path d="M330.5-50.5c6.2,0,11.6,1.2,16.3,3.5c4.7,2.4,8.3,5.8,10.9,10.2c2.6,4.4,3.9,9.8,3.9,16.1c0,6.2-1.3,11.5-4,16.1
			c-2.6,4.6-6.3,8.2-11,10.8c-4.7,2.6-10.1,3.9-16.2,3.9c-6.2,0-11.6-1.2-16.3-3.5c-4.7-2.4-8.3-5.8-10.9-10.2
			c-2.6-4.4-3.9-9.8-3.9-16.1c0-6.2,1.3-11.5,4-16.1c2.7-4.6,6.3-8.2,11-10.8C319.1-49.2,324.5-50.5,330.5-50.5z M314.2,1.3l1.5,1.5
			l-9.4,13l-1.7-1.2L314.2,1.3z M343.6-43.7l1.2,1.6L317,2.8l-1.5-1.5L343.6-43.7z M330.2-49c-2.7,0-5.1,1.2-7.2,3.7
			c-2,2.5-3.6,5.9-4.7,10.2c-1.1,4.3-1.6,9.4-1.6,15.1c0,5.8,0.6,10.9,1.9,15.2c1.3,4.3,3,7.6,5.1,10c2.1,2.3,4.5,3.5,7.1,3.5
			c2.7,0,5.1-1.2,7.2-3.7c2-2.5,3.6-5.9,4.7-10.3c1.1-4.4,1.6-9.4,1.6-15c0-5.9-0.6-11-1.9-15.2c-1.3-4.3-3-7.6-5.1-9.9
			C335.2-47.8,332.8-49,330.2-49z M352.1-55.5l1.6,1.1l-8.3,12.4l-1.2-1.6L352.1-55.5z"/>
		<path d="M394.6-49.3v1.6c-1.6,0.1-2.9,0.3-3.7,0.6c-0.9,0.4-1.4,1-1.7,2c-0.3,1-0.4,2.5-0.4,4.5V0.3c0,2,0.2,3.5,0.5,4.4
			c0.3,1,0.9,1.6,1.7,2c0.8,0.3,2.1,0.5,3.7,0.7V9c-1.6-0.1-3.6-0.2-6.1-0.2c-2.5,0-5,0-7.6,0c-3,0-5.8,0-8.4,0
			c-2.6,0-4.7,0.1-6.3,0.2V7.4c1.7-0.1,3-0.3,3.8-0.7c0.8-0.3,1.4-1,1.6-2c0.3-1,0.4-2.5,0.4-4.4v-40.9c0-2-0.1-3.5-0.4-4.5
			c-0.3-1-0.8-1.6-1.7-2c-0.9-0.4-2.1-0.6-3.7-0.6v-1.6c1.6,0.1,3.7,0.1,6.3,0.2c2.6,0.1,5.4,0.1,8.4,0.1c2.6,0,5.1,0,7.6-0.1
			C391-49.2,393.1-49.3,394.6-49.3z M424.8-49.3v1.6c-1.9,0.5-3.9,1.4-6.2,2.7c-2.3,1.3-4.7,3.4-7.3,6.3l-15.2,17.2l6.7-8.7
			l19.5,32.5c0.7,1.2,1.4,2.1,2.1,2.9c0.7,0.8,1.7,1.5,2.9,2.1V9c-2.3-0.1-4.8-0.2-7.4-0.2c-2.6,0-5.1,0-7.5,0c-1.3,0-2.8,0-4.7,0
			c-1.9,0-4.2,0.1-7.1,0.2V7.4c2.6-0.1,4.1-0.4,4.5-0.9c0.4-0.5,0.2-1.4-0.6-2.8l-11.9-20.2c-0.5-1-1-1.7-1.5-2.2
			c-0.4-0.5-0.9-0.9-1.3-1.1c-0.4-0.2-0.9-0.4-1.6-0.4V-22c2.4-0.1,4.7-0.9,6.8-2.4c2.1-1.5,4.7-4,7.7-7.4l2.8-3.1
			c2.3-2.6,3.5-4.8,3.7-6.7s-0.4-3.4-1.7-4.4c-1.3-1.1-3-1.6-5.1-1.7v-1.6c2.3,0.1,4.4,0.1,6.4,0.2c1.9,0.1,4.5,0.1,7.5,0.1
			C419.8-49.1,422.6-49.2,424.8-49.3z"/>
	</g>
	<circle class="st9" cx="-14.1" cy="-16.2" r="66.6"/>
</g>
<g id="Layer_3">
</g>
</svg>
