<?xml version="1.0" encoding="utf-8"?>
<!-- Generator: Adobe Illustrator 19.0.0, SVG Export Plug-In . SVG Version: 6.00 Build 0)  -->
<svg version="1.2" baseProfile="tiny" id="Layer_1" xmlns="http://www.w3.org/2000/svg" xmlns:xlink="http://www.w3.org/1999/xlink"
	 x="0px" y="0px" viewBox="-40 354.7 513.5 133.2" xml:space="preserve">
<g>
	<path d="M207.7,388.2v1.6c-1.6,0.1-2.9,0.3-3.7,0.6c-0.9,0.4-1.4,1-1.7,2s-0.4,2.5-0.4,4.5v40.9c0,2,0.2,3.5,0.5,4.4
		c0.3,1,0.9,1.6,1.7,2c0.8,0.3,2.1,0.5,3.7,0.7v1.6c-1.6-0.1-3.6-0.2-6.1-0.2s-5,0-7.6,0c-3,0-5.8,0-8.4,0c-2.6,0-4.7,0.1-6.3,0.2
		v-1.6c1.7-0.1,3-0.3,3.8-0.7c0.8-0.3,1.4-1,1.6-2c0.3-1,0.4-2.5,0.4-4.4v-40.9c0-2-0.1-3.5-0.4-4.5c-0.3-1-0.8-1.6-1.7-2
		c-0.9-0.4-2.1-0.6-3.7-0.6v-1.6c1.6,0.1,3.7,0.1,6.3,0.2s5.4,0.1,8.4,0.1c2.6,0,5.1,0,7.6-0.1C204.1,388.3,206.1,388.2,207.7,388.2
		z"/>
	<path d="M268.3,388.2v1.6c-1.6,0.3-2.9,0.9-3.7,1.7c-0.9,0.8-1.4,2.1-1.7,3.8c-0.3,1.7-0.4,4.2-0.4,7.3v43.9
		c-0.8-0.1-1.7-0.2-2.7-0.2s-2,0.1-3.1,0.2l-36.5-39.9v23.7c0,3.7,0.2,6.5,0.5,8.4c0.3,2,1,3.4,2.2,4.2c1.2,0.9,3.1,1.5,5.6,1.9v1.7
		c-1.1-0.1-2.5-0.2-4.3-0.2s-3.4,0-4.9,0c-1.2,0-2.4,0-3.7,0s-2.3,0.1-3.1,0.2v-1.6c1.7-0.4,3-1,3.8-1.8c0.8-0.8,1.4-2.1,1.6-3.8
		c0.3-1.8,0.4-4.2,0.4-7.2V397c0-2-0.1-3.5-0.4-4.5c-0.3-1-0.8-1.6-1.7-2c-0.9-0.4-2.1-0.6-3.7-0.6v-1.6c0.8,0.1,1.9,0.1,3.1,0.2
		c1.3,0.1,2.5,0.1,3.7,0.1c1.4,0,2.7,0,4-0.1c1.3-0.1,2.5-0.1,3.5-0.2l33.7,35.6v-19.4c0-3.7-0.2-6.5-0.5-8.4
		c-0.3-1.9-1-3.4-2.2-4.2c-1.2-0.9-3-1.5-5.7-1.8v-1.6c1.1,0.1,2.5,0.1,4.3,0.2c1.8,0.1,3.4,0.1,4.9,0.1c1.3,0,2.5,0,3.7-0.1
		C266.5,388.3,267.5,388.2,268.3,388.2z"/>
	<path d="M300.1,388.2c11.5,0,20.1,2.5,25.7,7.4c5.6,4.9,8.4,12,8.4,21.1c0,6-1.4,11.2-4.1,15.7s-6.7,8-11.9,10.4
		c-5.3,2.5-11.6,3.7-18.9,3.7c-1.3,0-3.2,0-5.7-0.1s-4.7-0.1-6.6-0.1c-2.7,0-5.4,0-8,0s-4.7,0.1-6.3,0.2v-1.6c1.7-0.1,3-0.3,3.8-0.7
		c0.8-0.3,1.4-1,1.6-2c0.3-1,0.4-2.5,0.4-4.4v-40.9c0-2-0.1-3.5-0.4-4.5c-0.3-1-0.8-1.6-1.7-2c-0.9-0.4-2.1-0.6-3.7-0.6v-1.6
		c1.6,0.1,3.7,0.1,6.3,0.2c2.6,0.1,5.2,0.1,7.9,0c2-0.1,4.3-0.1,6.9-0.2C296.2,388.2,298.4,388.2,300.1,388.2z M301.3,389.7
		c-2.5,0-4.2,0.5-4.9,1.4c-0.8,0.9-1.2,2.8-1.2,5.7v41.1c0,2.9,0.4,4.8,1.2,5.7c0.8,0.9,2.5,1.4,5,1.4c3.7,0,6.7-1.1,9-3.3
		s3.9-5.3,4.9-9.5c1-4.2,1.5-9.3,1.5-15.2c0-9.2-1.2-16.1-3.7-20.6S306.7,389.7,301.3,389.7z"/>
	<path d="M371.2,387c6.2,0,11.6,1.2,16.3,3.5c4.7,2.4,8.3,5.8,10.9,10.2c2.6,4.4,3.9,9.8,3.9,16.1c0,6.2-1.3,11.5-4,16.1
		c-2.6,4.6-6.3,8.2-11,10.8s-10.1,3.9-16.2,3.9c-6.2,0-11.6-1.2-16.3-3.5c-4.7-2.4-8.3-5.8-10.9-10.2c-2.6-4.4-3.9-9.8-3.9-16.1
		c0-6.2,1.3-11.5,4-16.1c2.7-4.6,6.3-8.2,11-10.8C359.8,388.3,365.2,387,371.2,387z M354.9,438.8l1.5,1.5l-9.4,13l-1.7-1.2
		L354.9,438.8z M384.3,393.8l1.2,1.6l-27.8,44.9l-1.5-1.5L384.3,393.8z M370.9,388.5c-2.7,0-5.1,1.2-7.2,3.7
		c-2,2.5-3.6,5.9-4.7,10.2c-1.1,4.3-1.6,9.4-1.6,15.1c0,5.8,0.6,10.9,1.9,15.2c1.3,4.3,3,7.6,5.1,10c2.1,2.3,4.5,3.5,7.1,3.5
		c2.7,0,5.1-1.2,7.2-3.7c2-2.5,3.6-5.9,4.7-10.3c1.1-4.4,1.6-9.4,1.6-15c0-5.9-0.6-11-1.9-15.2c-1.3-4.3-3-7.6-5.1-9.9
		C375.9,389.7,373.5,388.5,370.9,388.5z M392.8,382l1.6,1.1l-8.3,12.4l-1.2-1.6L392.8,382z"/>
	<path d="M435.3,388.2v1.6c-1.6,0.1-2.9,0.3-3.7,0.6c-0.9,0.4-1.4,1-1.7,2c-0.3,1-0.4,2.5-0.4,4.5v40.9c0,2,0.2,3.5,0.5,4.4
		c0.3,1,0.9,1.6,1.7,2c0.8,0.3,2.1,0.5,3.7,0.7v1.6c-1.6-0.1-3.6-0.2-6.1-0.2s-5,0-7.6,0c-3,0-5.8,0-8.4,0c-2.6,0-4.7,0.1-6.3,0.2
		v-1.6c1.7-0.1,3-0.3,3.8-0.7c0.8-0.3,1.4-1,1.6-2c0.3-1,0.4-2.5,0.4-4.4v-40.9c0-2-0.1-3.5-0.4-4.5s-0.8-1.6-1.7-2
		c-0.9-0.4-2.1-0.6-3.7-0.6v-1.6c1.6,0.1,3.7,0.1,6.3,0.2s5.4,0.1,8.4,0.1c2.6,0,5.1,0,7.6-0.1C431.7,388.3,433.8,388.2,435.3,388.2
		z M465.5,388.2v1.6c-1.9,0.5-3.9,1.4-6.2,2.7c-2.3,1.3-4.7,3.4-7.3,6.3L436.8,416l6.7-8.7l19.5,32.5c0.7,1.2,1.4,2.1,2.1,2.9
		s1.7,1.5,2.9,2.1v1.7c-2.3-0.1-4.8-0.2-7.4-0.2c-2.6,0-5.1,0-7.5,0c-1.3,0-2.8,0-4.7,0c-1.9,0-4.2,0.1-7.1,0.2v-1.6
		c2.6-0.1,4.1-0.4,4.5-0.9c0.4-0.5,0.2-1.4-0.6-2.8L433.3,421c-0.5-1-1-1.7-1.5-2.2c-0.4-0.5-0.9-0.9-1.3-1.1
		c-0.4-0.2-0.9-0.4-1.6-0.4v-1.8c2.4-0.1,4.7-0.9,6.8-2.4c2.1-1.5,4.7-4,7.7-7.4l2.8-3.1c2.3-2.6,3.5-4.8,3.7-6.7s-0.4-3.4-1.7-4.4
		c-1.3-1.1-3-1.6-5.1-1.7v-1.6c2.3,0.1,4.4,0.1,6.4,0.2c1.9,0.1,4.5,0.1,7.5,0.1C460.5,388.4,463.3,388.3,465.5,388.2z"/>
</g>
<!--circle fill="#6A9997" cx="26.6" cy="421.3" r="66.6"/>
</svg>
