<?xml version="1.0" encoding="utf-8"?>
<!-- Generator: Adobe Illustrator 19.0.0, SVG Export Plug-In . SVG Version: 6.00 Build 0)  -->
<svg version="1.2" baseProfile="tiny" id="Layer_1" xmlns="http://www.w3.org/2000/svg" xmlns:xlink="http://www.w3.org/1999/xlink"
	 x="0px" y="0px" viewBox="0 0 727.2 739.1" xml:space="preserve">
<g>
	<path d="M725.2,368.5c0,12.1,0.6,24.2-0.2,36.3c-0.7,10.5-2.8,21-4.8,31.5c-2.7,14-5.2,28.2-9.3,41.9c-4,13.4-9.1,26.5-14.9,39.2
		c-7.3,16-14.8,32.1-24.1,47c-10.8,17.2-23.2,33.4-36,49.2c-8.4,10.4-18.3,19.6-28.2,28.7c-14,12.9-28.4,25.6-45,35.4
		c-14.1,8.4-27.5,18.1-42.1,25.2c-15.8,7.7-32.4,14.3-49.3,19.2c-19.7,5.7-39.9,9.7-60.2,13.2c-14.6,2.5-29.6,3.8-44.5,4
		c-14.2,0.2-28.4-1.6-42.6-2.7c-8.2-0.7-16.4-1.5-24.4-2.9c-9-1.5-17.8-3.7-26.7-5.9c-6.1-1.5-12.2-3.4-18.3-5.1
		c-12-3.5-23.9-7.6-35.2-13.1c-10.9-5.3-22.3-9.8-32.6-16.1c-14.9-9.1-29.3-19-43.3-29.3c-10.8-7.9-20.9-16.8-30.7-25.9
		c-8.1-7.6-15.4-16.1-22.9-24.4c-5-5.5-9.9-11-14.6-16.8c-3.3-4.2-6.2-8.8-9.2-13.3c-5.2-8.1-10.7-16-15.5-24.3
		c-5.8-10.2-11.4-20.4-16.1-31.1c-6.4-14.9-12.2-30.1-17.7-45.4c-7.1-19.6-11.4-40-13.7-60.6c-2-17.5-3-35.1-3.4-52.7
		c-0.2-12.8,1.2-25.6,2.2-38.3c0.6-8,1.3-16.1,2.9-24.1c2.6-13.1,5.1-26.3,9-39c5.5-17.7,12-35.1,18.6-52.4
		c2.4-6.3,6.2-12.1,9.5-18.1c4.9-9,9.3-18.4,15.1-26.9c10.5-15.4,20.8-31.1,33.2-44.9c14.4-16,30.4-30.6,46.7-44.6
		c12.6-10.8,26.3-20.6,40.5-29.3c13.5-8.3,28.2-14.8,42.6-21.5c9.5-4.5,19.4-8.4,29.2-12c10.8-4,21.9-7,33.3-9.1
		c14.4-2.6,28.6-5.7,43.1-8.1c6-1,12.2-0.2,18.2-1c5.7-0.8,11.1,0.5,16.7,0.2c5.7-0.3,11.5-0.2,17.3,0c22.9,0.5,45.3,4.7,67.6,9.7
		c20.1,4.5,39.5,10.9,58.2,19.3c12.2,5.5,24.4,11,36,17.5c11.1,6.3,21.9,13.3,32.1,21c12.3,9.3,24.1,19.5,35.8,29.6
		c20.9,18.1,38.3,39.3,53.9,62c11.5,16.8,22,34.4,29.7,53.4c5.8,14.1,12.1,28,16.9,42.4c4.2,12.8,7,26.1,9.8,39.2
		c2.2,10.6,3.9,21.4,5.2,32.1c1.6,13.9,2.6,27.8,3.9,41.8C726.6,368.4,725.9,368.5,725.2,368.5z M723.1,366.9
		c-1.1-11.9-2.1-26.8-3.9-41.5c-1.9-14.6-3.8-29.2-7.3-43.4c-6.7-27-15.7-53.4-28.8-78.1c-6.5-12.2-13.4-24.3-20.8-36.1
		c-5.6-8.9-12.1-17.4-18.7-25.7c-8.2-10.3-16.4-20.5-25.4-30.1c-7-7.5-14.9-14-22.6-20.8c-5.4-4.8-11-9.4-16.6-13.9
		C565,66.1,549.8,56.9,534.4,48c-8.1-4.7-16.7-8.5-24.9-13.2c-8-4.6-17.4-6.9-26.3-10c-8.4-3-16.8-6.1-25.4-8.4
		c-11.6-3.1-23.4-5.7-35.2-7.9c-10.1-1.9-20.4-3.6-30.7-4c-15-0.7-30.1-0.4-45.2-0.1c-9.1,0.2-18.3,0.6-27.3,2
		c-16.8,2.7-33.7,5.4-50.2,9.7c-14.7,3.9-29.1,9.4-43.2,15.1c-11.8,4.8-23.3,10.3-34.4,16.5c-23.9,13.3-46.5,28.5-66.3,47.3
		c-12.3,11.7-24.2,24-35,37c-10.4,12.5-19.8,26-28.9,39.6c-11.3,17-20.2,35.4-28.4,54.2C23.9,246.6,17.1,268,12.4,290
		c-2.7,12.8-4.4,25.7-6.1,38.7C4,347,3.4,365.4,4.1,383.9c0.7,18.7,2.2,37.3,6.2,55.6c2.7,12.2,5.1,24.6,8.4,36.6
		c2.6,9.2,6.1,18.2,9.9,27c5.7,13.4,11.6,26.8,17.9,39.9c2.1,4.3,7,7.6,8,11.9c1,4.6,3.2,8.2,5.5,11.6c6.4,9.4,13.4,18.3,20.1,27.5
		c4.8,6.6,8.9,13.9,14.4,19.9c9.8,10.4,20.2,20.3,30.7,29.9c9.9,9,20.1,17.9,30.9,25.7c10.5,7.7,21.7,14.3,33,20.8
		c10.3,5.9,20.8,11.7,31.8,15.9c16.2,6.2,32.9,11.1,49.5,16.2c8.8,2.7,17.7,5.1,26.8,6.8c9.5,1.8,19.2,2.8,28.8,4.1
		c5.3,0.7,10.7,1.9,16.1,1.9c12.9,0,25.9-0.2,38.8-1c12.2-0.7,24.5-1.6,36.6-3.7c15.9-2.7,31.8-5.9,47.3-10.3
		c14.8-4.3,29.4-9.7,43.4-16.1c15.8-7.3,31.6-15.2,46.1-24.7c15.7-10.3,30.2-22.5,44.8-34.4c19.1-15.7,35.5-34.1,50.5-53.6
		c13.6-17.7,24.8-37.1,34.8-57.2c10.2-20.7,19-42,24.6-64.4c4.7-18.6,8.4-37.6,11.1-56.6C722.1,399,722,384.3,723.1,366.9z"/>
	<path d="M302.6,597.5c-4.8,1.5-6.7,5.9-4.8,10.9c2.6,6.8,10.2,12,17.7,12c12.6,0,20.8-4.7,23.1-16.6c1.2-6.4,0.4-14.4-4.9-20.4
		c-2-2.3-3.6-5-5.4-7.5c-0.4-0.6-0.9-1.3-1.5-1.5c-6.9-2-13.8-4.9-20.8-5.6c-9.6-0.9-19,1.5-28,5.3c-5.9,2.6-12.1,4.7-18,7.3
		c-2.5,1.1-4.7,2.8-7.2,4.1c-1.5,0.8-3.2,1.2-4.4,1.6c-0.6,1.2-1,2.7-2,3.6c-3.5,3.1-7.6,5.6-10.5,9.1c-1.3,1.5-0.8,5-0.3,7.5
		c0.5,2.3,1.9,4.4,2.7,6c6.7,7.3,15.9,11.8,18.9,21.9c-3,3.7-7.1,4-14.1,1.1c-1.7-0.7-3.7-0.9-5.5-1.1
		c-18.1-6.5-32.3-20.4-52.2-25.8c2.2-1,2.9-1.3,3.9-1.8c-2.9-2.4-5.6-4.7-7.7-6.4c0.5-3.5,0.1-7.3,1.6-10c1.7-2.9,5.2-4.7,8.2-7.2
		c-7.4-1.6-14.6-3-21.7-4.7c-3-0.7-7,0.2-8.2-4.1c0-0.2-1.4,0.3-2.1,0.1c-2.2-0.6-3.5-1.2-4.4-4.2c-1.6-5.1-5.8-9.4-7.7-14.4
		c-2.4-6.5-4.3-13.4-5.2-20.3c-0.6-4.2,1-8.7,1.8-13c2.3-12.2,19.8-23.7,30-23c5,0.3,10.4-0.8,15,0.5c10,2.9,15.6,10.5,17.3,20.5
		c1.6,9.5-0.5,17.7-9.2,23.5c-2.9,2-14.2,0.2-17.2-2.6c-4-3.6-4.6-9-1.7-14.3c-5-1.1-6.3,0.7-9.1,5c-5.6,8.9-1,15.5,4.4,21.1
		c5.5,5.8,12.8,8.3,21.4,6.5c6.7-1.4,13.5-2.4,19-6.5c5.8-4.3,11.9-8.8,12.4-17.1c0-0.8-0.1-2.1,0.4-2.4c6.3-3.9,4.1-10.1,3.4-15.3
		c-0.8-5.6-3.3-10.6-8.2-14.4c-5.3-4-10.3-8.8-14.8-13.7c-5.7-6.2-12.8-9.1-20.7-9.9c-10.5-1.1-21.2-1.3-31.8-2.2
		c-6-0.5-12.3-0.5-18-2.2c-8.9-2.7-17.8-5.9-25.9-10.4c-5.1-2.8-8.9-8.1-13-12.6c-6.1-6.7-9.7-14.9-12.7-23.4
		c-4.3-12.3-4.4-24.1-0.3-36.8c5.9-18.2,19.3-26.2,36.1-30.1c6.2-1.4,13.2-1,19.4,0.5c5.2,1.3,9.9,5,14.5,8.2c2.9,2,5.6,4.7,7.6,7.7
		c3.2,4.8,6.2,10,8.4,15.3c4.4,10.7-3.7,25.9-14.9,28.7c-10.7,2.6-22.9-7.4-20.4-17c0.7-2.8,3.4-5,5.2-7.5c0.6-0.8,1.6-2.1,1.4-2.5
		c-0.4-0.8-1.7-1.6-2.6-1.7c-7.1-0.6-13.7,0.6-18.4,6.7c-2.1,2.7-4.1,5.6-6.3,8.3c-0.9,1.1-2.4,1.6-4.5,3
		c2.7-11.7,9.4-17.8,18.9-21.3c5.5-2,14-1.1,16.2,3.2c1.5,3.1,8.2,7,0.8,11.8c-1.1,0.7-1.8,4.7-4.5,5.9c4.4,9.2,14.2,10.8,20.4,2.8
		c2.2-2.8,2.8-8,2.1-11.7c-1-5.3-3.4-10.5-6-15.2c-1.7-3.1-4.4-5.9-7.3-8.3c-1.4-1.2-2.3-3.1-3.3-4.5c-1.6,1.9-12.5-0.8-16.5-4.9
		c-2.7,1.8-4.7,3.6-8.8,3.1c-4.8-0.6-9.8,2.1-13.8,5.4c-0.5,0.5-0.8,1.3-1.3,1.7c-2.4,1.8-4.9,3.5-7.3,5.2c0.1,0.6,0.3,1.1,0.4,1.7
		c-1.3-0.9-2.6-1.8-4.7-3.2c0.5,1.7,0.8,2.8,1.1,3.8c0.4,1.3,0.7,2.5,1.1,3.8c-1.3,0.1-2.6,0.2-4.3,0.3c-0.5,1.4,5.6,5.7-2.2,5.1
		c0.7,1.6,1.3,3,2,4.3c-0.2,0.3-0.5,0.7-0.7,1c-1.7-0.9-3.4-1.9-6.7-3.6c1.9,3.9,3.2,6.6,4.6,9.5c-1.5,0.8-3.1,1.6-5.4,2.7
		c1.6,2.1,3.1,3.8,4.2,5.8c0.7,1.2,1.5,3.5,1.1,3.9c-3.9,3.2-0.5,4.8,1,7.2c1.6,2.5,4,4.7,2,8.7c-1.9,3.7,1.7,4.4,3.5,4.4
		c1,2.7,1.4,5.1,2.7,6.7c3.6,4.8,7.3,9.5,11.4,13.8c6.4,6.7,15.5,7.6,23.7,9.7c10,2.5,20.7,4.4,30.9,4c11.6-0.4,22.4,2.4,33.7,4.1
		c0.5-7.9,0.8-15.8,1.5-23.6c0.3-3.3,1.6-6.6,1.7-9.9c0.1-2.8-1-5.6-1.1-8.4c-0.2-4.3,0-8.6-0.1-12.9c-0.1-8.5,2.9-16.3,5-24.4
		c1.4-5.6,3-12.7,0.8-17.3c-2.6-5.3,0.2-8.1,0.9-12c0.6-3,1.6-5.6-1.5-8.7c-2.8-2.8,0.4-5.6,3-7.5c1.2-0.9,2.4-1.9,3.6-2.8
		c-0.3-0.4-0.7-0.8-1-1.2c-1.6,1.2-3.2,2.5-4.1,3.2c-4.5-3.6-9.2-6.7-13-10.6c-4.5-4.7-10-5.7-16-6.7c-5.5-1-10.6-4.4-16-4.8
		c-8-0.5-13.4-7.6-21.5-7.2c-1.3,0.1-2.6-1.7-4-2.6c-0.8-0.6-1.7-1-2.4-1.7c-5.7-4.9-5.7-4.9-8.8,0.9c3.9,2.2,7.7,4.4,12,6.7
		c-0.3,0.7-0.7,1.5-1.1,2.4c3.2,1,6.5,1.6,9.4,3c2,0.9,4.2,2.7,5,4.6c1.3,3.6,3.2,4.1,4.9,3.3c5.6,3.8,10.2,7.8,15.4,10.3
		c6.2,3,8.9,8.7,12.7,13.6c2.5,3.2,5.4,6.2,7.6,9.6c0.8,1.2,0.3,3.4,0.4,5.2c1.4-0.1,2.5-0.1,4.8-0.3c-1.1,1.9-1.7,3-2.3,4.1
		c-0.6-0.1-1.1-0.1-1.7-0.2c1.2,1.8,2.4,3.5,3.9,5.8c-1.2,5,0.6,11.5,4.8,13.5c-4.1,0.6-3.2,3.5-3.4,5.8c-0.2,2.3,0,4.7,0,8.2
		c-0.2,0.2-1.5,1.3-2.7,2.3c0.8,1.8,1.7,3.7,2,4.3c-0.9,3.1-1.4,5.1-2.1,6.9c-1.6,3.9-1.7,8.8-6.1,11.2c-0.5,0.3-1.1,0.9-1.1,1.3
		c-0.4,6.6-4.5,9.5-10.5,9.1c-2.8-0.2-3.8,1.6-5.4,2.6c-7.5,4.9-8.4,4.8-13.1-2.7c0.9,2.4,1.9,4.8,3.1,7.8c-4.4-0.2-8.3,0-12.1-0.8
		c-6.1-1.3-12-3.3-18-4.8c-7-1.8-10.5-7.6-15.3-12.3c-7.1-6.9-5.4-15.8-7.3-23.9c-0.2-0.9,1.3-2.3,1.9-3.4c0.8,1.2,2.3,2.5,2.4,3.7
		c0.4,8.4,4.2,14.9,10,20.6c9,8.8,19.9,10.8,31.7,8.3c5.8-1.2,11.8-2.4,17.2-4.8c13.2-5.8,18.3-17.5,20-30.7
		c1.4-10.6-0.8-21.1-4.6-30.9c-2.2-5.7-6.8-10.6-11-15.2c-4.5-5-9.6-9.8-14.9-13.9c-6.5-5.1-13.6-9.4-20.5-14
		c-7.7-5.2-15.8-10-22.9-15.9c-3.8-3.2-5.9-8.5-8.1-11.9c-7.2-0.4-13.9-0.6-20.5-1.4c-1.3-0.2-3.4-2.9-3.2-4.1
		c0.4-2.2,2.1-4.2,3.7-5.9c1.3-1.4,3.2-2.1,4.1-2.6c-2.2-2.2-4.1-4-6-6c-2.3-2.5-5-4.8-6.8-7.7c-2.4-3.7-5.1-7.7-5.8-11.9
		c-0.3-1.8,3.6-5.6,6.2-6.3c4.1-1.1,8.7-0.3,13.1-0.3c0.8,0,1.7-0.1,2.5-0.1c0.9-5.3,1.1-10.8,2.8-15.8c2.3-6.7,4.9-13.6,9-19.3
		c4.6-6.5,10.6-12.3,16.8-17.3c7.2-5.8,15.7-9.1,25.4-9.7c9.8-0.6,19.3,0.2,28,4.4c10.8,5.2,18.7,13.6,23.5,24.7
		c3.5,8.1,5.7,16.7,3,25.3c-4.8,15.1-20.2,26.9-38.3,19.6c-5-2-10.4-12.5-8.9-17.1c2.9-9.4,8-12.9,16.5-11c3.3,0.7,4.7-1.4,4.1-3.6
		c-0.9-3.1-2.3-7.1-4.8-8.6c-9.4-5.8-26.1-4.1-34.1,5.9c-4.2,5.2-6.6,10.1-7.6,16.2c-1.7,10.3,1.7,19.1,7.7,27.4
		c2.9,3.9,6.9,3.5,10.8,4.1c11.7,1.5,23.5,1.6,35.1,4.5c10.9,2.7,22.1,2.5,30.5-7c9.5-10.9,16.2-23.3,15-38.2
		c-1.2-14.6-3.8-28.9-10.1-42.5c-5.3-11.3-8.8-23.6-8.6-36.4c0.2-8.8,0.4-17.7,2.2-26.3c1.1-5.6,4.2-11.3,7.9-15.8
		c4.9-6.1,10.8-11.6,16.8-16.7c9.3-7.9,20.9-10.5,32.6-11.4c7.1-0.5,14.5,0,21.5,3.5c7.1,3.5,15.1,5.8,20.2,12.2
		c9.2,11.4,16.2,23.3,14.2,39.7c-1.6,12.9-6.6,22.5-16.9,29.1c-9.8,6.2-20.9,7.3-31.8,2.5c-6.7-2.9-11.6-11.8-10.6-19.7
		c0.7-5.4,4.4-12.1,12.8-13.6c3.2-0.6,6.8,1.1,11.4,2c4.3-3.3,4.4-10-1.1-15.8c-9.1-9.6-16.5-10.6-28.5-4.4
		c-8,4.2-13.4,10.3-17.2,18.8c-4,8.8-3.7,17-1.4,25.9c3.8,14.6,14.4,22.2,27.4,27.7c10.4,4.4,21.3,5.9,31.8,2.7
		c10-3.1,20-6.3,29.5-12.1c12.3-7.5,19.7-18.2,24.6-30.4c2.2-5.5,6.4-11.9,3.9-19c-0.5-1.3,1.5-3.2,1.8-5
		c1.7-10.2-0.7-19.9-4.1-29.4c-0.2-0.7-1.9-0.9-2.9-1.4c-0.2,0.4-0.4,0.7-0.7,1.1c-0.7-1.4-1.4-2.8-2.1-4.3c0.9-0.7,1.8-1.3,2.8-2.1
		c-0.9-1.6-2.2-3.2-2.8-4.9c-3.3-9.3-10.1-15.6-17.6-21.3c-3.2-2.4-5.9-6.1-9.4-7.1c-4.8-1.5-8.7-6.8-14.4-4.8
		c-3.4,1.2-6.3,3.8-9.7,5.2c-3.1,1.3-6.5,2.3-9.8,2.6c-4.7,0.5-9.5,0.5-14.2,0.1c-5.3-0.5-11-1.6-12.9-7.4c-1-2.9,0.3-6.5,0.6-9.7
		c2.1,0.2,4.2,0.5,6.4,0.7c5.1,0.6,9.8,2.3,15.4,0.8c4.9-1.3,9.8-2.3,14-5.2c1.7-1.2,3.2-2.5,4.4-4.6c-5.6,0.7-11.3,1.6-16.9,2
		c-5.7,0.4-11.4,0.5-17.1,0.3c-1.7-0.1-4.1-1.3-4.9-2.8c-2.7-4.7-6.1-9.5-6.7-14.6c-1.1-8.3,6.2-11,13.7-13.4
		c6.3-2,12.9-3.2,19.4-3.9c3.4-0.4,7.2,0.6,10.4,1.9c1.5,0.6,2.4,3.3,3.2,5.2c0.5,1.1,0.3,2.5,0.5,4.7c-3.2,0-6.3-0.2-9.4,0
		c-2.9,0.2-5.7,0.8-8.6,1.2c0.1,0.6,0.2,1.2,0.3,1.7c2.2-0.2,4.3-0.4,6.5-0.7c8.5-1.1,16.3,0.2,22.1,7.3c3.5,4.3,2.9,9.3,2.3,14.2
		c-0.3,2.4,0.4,6.2-0.8,7.1c-5,3.4,0.4,4.3,1.1,6.3c0.2,0.6,1,1.5,1.5,1.6c10.6,0.6,15.8,9.4,23.1,15c6.8,5.2,10.6,13.1,16.4,19.3
		c1.8,1.9,1.5,5.7,2.4,8.5c0.9,2.7,2.5,5.2,2.9,8c0.4,3.4,2.7,6.9,0.6,10.5c-0.2,0.4-0.5,1.2-0.3,1.3c3.6,2.5,0.8,6.4,2,9.5
		c1,2.4,0.5,5.4,1,8c0.1,3.7-5.5,6.1-1.6,11.2c1,1.3-1.5,5.4-2.7,8.1c-0.2,0.3-2.3-0.3-3.8-0.5c0.7,1.6,1.5,3.5,2.6,5.8
		c-1.7,2.2-3.6,4.5-6.1,7.7c1.9,4.6-2.7,8.3-5.8,12.1c-4.2,5.1-9.3,9.5-14,14.2c-0.1,0.1-0.2,0.3-0.3,0.4
		c-6.2,2.5-12.3,5.1-18.5,7.3c-4.5,1.6-9.1,2.5-13.3,5c-1.8,1.1-4.8,0.6-7.2,0.5c-1.3-0.1-2.6-0.9-4.1-1.5c-0.3-1-0.7-2.5-1.1-4
		c-0.3,0-0.6,0.1-0.9,0.1c-0.2,1.8-0.5,3.6-0.6,4.9c-5.8-0.9-11.3-1.6-16.8-2.5c-1-0.2-2.1-0.8-2.9-1.5c-3.4-2.6-6.6-5.3-10-7.8
		c-4.1-3-8.7-5.4-12.5-8.7c-5.8-5.2-9.4-12-10.4-19.7c-0.9-6.4-1.2-12.9-1-19.3c0.3-13.2,13.9-28.9,26.4-33.1
		c6.1-2,11.7-0.8,17.4-0.5c2.9,0.2,5.7,2.7,8.3,4.5c6.4,4.4,8.4,10.9,8.3,18.4c0,2,0.4,3.9,0.4,5.9c0,2.4-0.5,3-7,8.8
		c-4.1-3.1-9-2.4-12.3,3.5c-2.3,4-3.9,2.4-6.9,1.9c1.7,1.5,3.4,3,5.4,4.7c-1,1-2,1.9-3.4,3.2c5.2,5.8,12.2,6.2,18.9,5.7
		c10.2-0.9,19.4-4.5,24.2-14.4c1.2-2.4,0.8-5.5,1.4-8.2c1.5-6.3-1.1-12-1.8-18c-0.6-5-6.3-6.7-5.4-11.7c0.2-1.2,0-2.6,0-3.7
		c-1.3-0.7-2.9-1.6-4.5-2.5c0.2-0.4,0.3-0.7,0.5-1.1c-0.9,0.3-1.8,0.6-3.2,1c0.3-1.5,0.6-2.4,0.6-2.4c-1.5-1.2-2.7-2.1-3.8-3
		c-3.5-0.9-10.5-6.3-11.1-9.8c-4.1-0.4-8-0.8-11.9-1.1c0.1-0.3,0.1-0.6,0.2-0.8c-1.7,0-3.5,0-5.9,0c-2,2.8-12.7,4.4-15.6,2.5
		c-3.3,1.6-5.9,2.8-9,4.2c0-0.1,0.2,0.9,0.6,2.3c-1.7-0.3-3-0.5-4.4-0.7c0.3,0.3,0.6,0.7,1,1c-2,2.1-4.1,4.2-6.1,6.3
		c-0.4-0.3-0.9-0.6-1.3-0.9c0.2,0.8,0.4,1.7,0.3,1.1c-3.2,3.9-5.8,7.1-8.7,10.6c-0.8-0.5-2.3-1.4-3.8-2.3c-0.2,0.2-0.5,0.3-0.7,0.5
		c1.1,1.7,2.2,3.4,2.7,4.2c-1.1,2.8-2.4,5-2.9,7.3c-0.8,3.9-2,7-7.3,5.9c1.7,1.5,3.3,3,5.6,5.1c-2,0.6-3.3,1-4.6,1.4
		c1.1,1,2.3,2,4,3.5c-1.7,1.2-2.8,2-3.6,2.5c0.3,1.4,0.6,2.8,1.1,4.7c-2.1-0.4-3.4-0.6-4.8-0.9c-0.3,0.3-0.5,0.6-0.8,0.8
		c2,2,4,4,6.4,6.4c-1.3,2-2.9,4.4-4.8,7.2c0.9,0.8,2.3,2.1,3.9,3.6c-2.8,3-3.7,5.8,0.2,7.1c0.7,3,2.1,5.5,1.4,7.1
		c-1.6,4,1.1,4.3,3.3,5.6c0.8,0.5,1.9,1.9,1.7,2.6c-1.2,5.2,1.7,8.9,3.9,13c0.7,1.3-0.6,3.6-0.1,5.2c0.8,3,2.2,5.9,3.5,9.3
		c0,0-0.7,0.6-0.9,0.8c1.3,2.3,2.6,4.6,3.8,6.8c-0.3,0.3-0.7,0.6-1,0.8c-0.9-0.4-1.7-0.8-2.6-1.3c0,0.4-0.2,0.9-0.1,1
		c4.1,3.9,4.2,8.1,2.2,13.2c-0.8,2.1,1.2,5.1,1.2,7.6c0.1,2.2-0.3,4.8-1.4,6.7c-3.8,6.6-7.9,13-12.1,19.3c-1.9,2.8-4.2,5.4-6.4,8.3
		c1.7,4,11.9,7.2,17.3,4.8c4.8-2.2,9.7-2.7,15-1.9c10.8,1.6,19.6,6.3,24.8,16.2c3.1,5.9,13.8,6.6,16.4,0.3c1.7-4.1,3.7-8.2,5.9-12.1
		c0.8-1.5,2.3-3,3.8-3.7c6.2-3.1,12.3-6.4,18.7-8.8c6.2-2.4,12.7-1.9,19.2-0.3c6.8,1.7,13.6,3.1,20.3,5.1
		c10.4,3.2,15.6,12.4,16.6,21.9c0.4,3.3,2.4,6.5,3.3,9.8c0.4,1.5-0.2,3.4,0.3,4.9c1.7,6.2-0.6,12.1-1.9,18c-0.4,1.9-4,3-6.2,4.5
		c-1,0.7-2.4,1-3.1,1.9c-2.7,3.2-5.3,6.6-8.1,10.1c0.5,0.4,1.7,1.3,2.8,2.2c-3,6.8-6.8,13.2-4.2,20.9c0.9,2.7,2.4,5.3,3.3,8
		c0.4,1.3,0.1,2.8,0.1,3.9c4,6.1,8,12.5,12.4,18.6c1,1.5,3.1,2.2,4.7,3.2c1.1,0.6,2.3,0.9,3.8,1.4c-0.9-4.5,3.2-8.8-0.8-14.6
		c-2.4-3.5-4.3-8.4-6.6-12.7c-0.3-0.6-0.7-1.3-0.6-1.8c2.1-5.9-2.5-10.8-2.3-16.5c0.1-4-0.8-8.1-1.4-13.7c6.3,2.2,11.2,4,15.3,5.4
		c2.1-3.4,3.6-6.6,5.8-9.3c11-13.4,25.1-23,39.9-31.4c7.1-4,16-5,24.3-6.7c9.4-1.9,18.9-3.8,28.5-4.4c6.5-0.4,13.1,1.4,19.7,2.4
		c0.5,0.1,0.8,1.1,1.1,1.7c-1,0.3-2,1.1-2.9,1c-5.2-0.5-10.4-2-15.6-1.7c-8.9,0.4-17.7,1.7-26.5,2.9c-4.7,0.6-9.3,1.7-13.8,3
		c-5.6,1.7-11.5,3-16.3,6c-9.4,5.8-18.5,12.3-27.1,19.3c-4.6,3.7-7.8,9.1-12.5,14.8c27.9-8.8,54.8-15.3,82.7-6.1
		c-7,8-13.6,15.2-19.9,22.8c-1.8,2.2-2.9,5.1-3.7,7.9c-0.3,1.2,1.1,4.2,1.6,4.2c4.3-0.1,8.6-0.5,12.9-1.3c1-0.2,1.8-2.2,2.6-3.4
		c5.7,2.5,12.8,0.8,17.5-3.4c7.9-7,16.5-13,29.3-12.8c-17.5-20-37.9-31.9-65-35c2.5-2.3,3.6-4,5-4.4c7.9-2,15.7-4.4,23.8-5.3
		c9.6-1.1,19.5-1.9,29.1-0.9c9.1,1,18,4.2,26.7,7.2c13.7,4.7,24.9,13.5,34.5,24.2c4.1,4.7,8.3,9.3,12.5,13.9
		c-0.6,0.6-1.1,1.2-1.7,1.8c-1.4-1.2-2.8-2.3-4-3.6c-13.4-14.6-26.9-29.1-46.9-34.9c-6.3-1.8-12.5-4.4-18.9-5.1
		c-8.1-0.9-16.5-0.4-24.7,0c-6.7,0.3-13.4,1.3-20,2.3c-1.2,0.2-2.3,1.5-3.4,2.3c1.2,0.9,2.4,2.4,3.6,2.5
		c10.7,0.8,19.7,5.9,28.1,11.7c7.8,5.5,14.7,12.2,21.8,18.6c1.5,1.3,2.1,3.7,3.6,6.5c-14.5,0.8-25.5,6.2-34.3,16
		c4.7,1,9.1,1.3,13.1,2.9c3.8,1.5,7.7,3.7,10.5,6.6c2.7,2.9,5,3.1,8.7,3c8.2,0,16.4,1.3,24.6,2c1.7,0.1,4.3,0.8,5-0.1
		c1-1.3,0.8-3.6,0.7-5.4c-1.1-11.7-5-22.6-10.8-32.7c-2.5-4.3-5.9-8-8.8-12.1c-0.7-1-0.9-2.5-1.3-3.8c1.5-0.1,3.1-0.8,4.4-0.3
		c20,7.8,35.9,20.9,47.9,38.4c9.9,14.5,15.4,30.7,17.4,48.2c0.4,3.9,1.6,7.7,1.8,11.6c0.1,2.5,1.9,6.3-3.2,6.7
		c-2.3-44.1-18.5-79.5-59.4-100.1c-0.5,0.3-1,0.5-1.4,0.8c2.1,3.7,4.4,7.3,6.4,11c6.1,11.6,10.6,23.6,10.9,36.9
		c0.1,5-1.6,6.3-6.3,4.6c-8.8-3.2-17.6-3.7-26.7-2.3c-2,0.3-4.1-0.6-6.3-1c0.7,1,1.5,2.6,2.7,3.7c4.3,4.2,4.6,10.2,6.8,15.2
		c0.6,1.4,1.9,3.1,3.2,3.5c14.9,3.8,23.2,14.6,29.9,28c1-1.3,2.4-2.4,2.7-3.7c3.1-11.3,6.2-22.6,9-33.9c0.9-3.5,0.6-7.2,1.3-10.8
		c0.3-1.4,1.8-2.5,2.8-3.8c1,0.9,2.5,1.6,2.9,2.7c6.4,17.4,13.6,34.6,14.1,53.5c0.2,7.8,1.5,15.8,0.2,23.3
		c-1.4,7.8-5.3,15.2-8.4,23.4c3.5,0.8,7.9,1.7,12.9,2.8c-0.8-3.9-1.5-6.7-1.9-9.5c-0.1-0.9-0.1-2.6,0.4-2.8c1.1-0.5,2.7-0.8,3.9-0.4
		c2.1,0.8,3.9,2.1,6.5,3.7c3.2-11.6,7-22.3,9.1-33.4c2-10.7,4-22,2.9-32.7c-1.6-16.7-4.1-33.7-9.2-49.7c-4.5-14.4-13.7-27-23.5-38.9
		c-6.5-7.9-14.2-14.4-21.9-20.8c-6.1-5-13.4-8.5-20.5-12c-10.7-5.4-21.4-11.3-33.5-12.6c-13.4-1.4-26.9-5.1-40.6-0.9
		c-5.4,1.7-11.3,1.4-16.7,3.1c-9.6,3.1-19.2,6.5-28.4,10.7c-7.5,3.4-14.7,7.7-21.5,12.3c-4.7,3.2-8.4,7.6-12.6,11.4
		c-0.4,0.4-1.1,0.5-2.8,1.3c1-2.6,1.2-4.5,2.3-5.6c2.8-2.9,1.9-6.1,1.6-9.4c-0.5-5.2-1.2-10.5-0.8-15.7c0.5-6.2,0.3-12.3-0.3-18.4
		c-0.1-0.8,1-1.7,1.8-2.9c-1.1,0-2,0-3.2,0c3.8-4.3,1.1-8.6,0.9-12.7c-0.1-2.4-1.5-4.2-0.5-7.2c1.5-4.5,0.8-9.8,1.1-15.7
		c-0.4,0.1,0.6-0.2,1.1-0.4c-0.6-1.7-1.3-3.2-1.4-4.8c-0.1-1.3,0.6-2.7,1.1-4.8c0,0-0.9-0.7-2-1.6c1.1-0.4,1.9-0.6,2.7-0.9
		c-0.9-1.1-1.7-2.1-2.6-3.2c1-0.3,1.7-0.5,1.9-0.6c1.5-18.4,0.2-36.4-1.4-53.6c3-3.3,6.2-6.6,9.2-10c1.8-2.1,3.1-4.7,5.1-6.6
		c3.7-3.7,5.4-3.1,9.1,0.4c4,3.8,5.9,8.9,9,12.9c3.7,4.8,2.2,8.6,1.7,13.1c-0.2,1.9,0.8,3.9-0.4,3.5c8.9-7.6,17.9-15.1,26.6-22.9
		c8.7-7.8,17.2-15.8,25.7-23.7c1.3-1.2,2.3-2.7,3.4-4.2c2.8-3.6,6-4,9.3-0.7c6.6,6.4,12.9,13.1,19.5,19.4c4.3,4.1,9.2,7.4,13.4,11.5
		c2.9,2.8,5,6.5,7.8,9.5c2,2.2,4.6,3.8,7.4,6.1c-0.1,0.1-0.6,1.2-1.3,2.5c2.7,2,5.5,4,9.5,6.9c-0.6-7.2-1.2-14-1.6-20.8
		c-0.1-0.8,0.5-1.9,1.1-2.6c5.3-5.6,10.6-11.3,16.1-16.7c0.5-0.5,2.9,0.1,3.7,0.9c3,3.3,5.6,6.9,8.6,10.2c1.8,1.9,4.1,9.8,2.9,12.3
		c-1.1,2.3,0.2,4.6,0,7.1c-0.6,5.4,1.4,10.8,0,16.6c-0.9,3.6,1,7.8,1.3,11.8c0.1,1.5-0.6,3.1-1.1,5.1c0.3,0.2,1.1,0.8,2.3,1.7
		c-1,0.9-1.9,1.7-3.1,2.6c1,1.2,2,2.5,3.3,4.1c-1,0.5-2,0.9-3.1,1.5c1.4,4.1,4,8.3,1.5,11.5c0.1,2.6,0.2,4.1,0.2,5.7
		c-0.1,2.3-0.6,4.6-0.5,6.8c0,3.7,0.4,7.3,0.1,11c0,1.7,0.1,3.5,0,5.2c-0.1,1.4-0.4,2.8,0.1,4.2c0.2,2.5,0.9,5.1,0.4,7.5
		c-0.4,2.1-0.9,3.6-0.2,6.1c1.1,4.2,0,9-0.1,13.6c0,1.8,0.2,3.7,0.4,6.4c0.2,0.1,1.5,0.5,3.6,1.2c-1.5,1.2-2.7,2.1-2.9,2.3
		c0.5,2.6,0.8,4.9,1.3,7.1c0.6,2.8-2.9,8,4,7.4c0,0.9,0,1.9,0,2.2c2.3,1.9,4.8,3.5,6.6,5.7c1.7,2,2.6,4.6,3.8,7
		c1.1,2.2,2.1,4.5,2.1,7.2c1.4,0.5,2.7,1.1,4.4,1.8c-1,0.9-1.7,1.6-2.5,2.3c1.5,1.5,3.1,3,4.6,4.6c0,0.2-0.1,0.4-0.1,0.6
		c1,1.5,2,3.1,3,4.6c2,3,4.4,5.8,6.1,8.9c1.8,3.3,4.8,7.4,4.1,10.5c-0.9,4,2.3,3.6,3.3,4.7c3.4,3.8,3.6,9.2-1.3,12.3
		c2.1-0.2,3.2-0.4,5.4-0.6c-1.5,2.1-2.5,3.5-3.7,5.2c1.3-0.1,2.5-0.2,3.7-0.2c0.4,0.5,0.9,1.1,1.3,1.6c-1.4,0.6-2.9,1.2-4.7,1.9
		c4.1,1.5,6,11.5,3.8,17.1c1,0,1.9,0,3.1,0c-4.2,4.5-3.8,8.3,1.4,11.3c-1.4,1-2.6,1.9-2.8,2c0.9,2.4,1.6,4.5,2.4,6.9
		c-2.1,2.1-4.2,4.3-2.5,8.8c1.2,3.3,0.2,7.6-0.3,11.4c-0.5,3.8-1.4,7.6-2.4,11.4c-0.3,1.3-1.7,2.3-2.2,3.6c-0.7,1.8-1.2,3.7-1.5,5.5
		c-0.5,3-0.2,6.4-5.8,5.7c1.8,1.6,2.6,2.3,3.8,3.3c-1.2,0.5-2,0.8-4.5,1.8c1.8,0.4,3,0.7,4.1,0.9c-0.3,0.4-0.5,0.8-0.8,1.2
		c-1,0.2-2.1,0.5-3.3,0.7c0.9,1.1,1.4,2.7,2.5,3.2c5,2.3,10.1,4.3,15.1,6.5c5,2.2,10,4.5,14.9,7.1c5.6,2.9,11.1,6.1,16.6,9.3
		c2.3,1.4,4.3,3.4,8,6.2c-3.7,1.5-6.1,2.5-8.5,3.3c-1.6,0.6-3.3,0.9-4.9,1.4c0.7,0.8,1.5,1.5,2.2,2.2c-0.9-0.6-1.9-1.2-3-1.9
		c-0.4,1.2-0.7,2.1-1.2,3.4c-0.9-0.8-1.7-1.5-2.7-2.4c-0.5,1.2-0.9,2.1-1.3,3.1c-1.7-0.8-3.2-1.5-5.5-2.6c0.9,1.7,1.2,2.5,2.1,4.3
		c-2.4-1.2-3.9-1.9-5.4-2.6c0.1,1.2,0.3,2.3,0.4,3.3c-1.5-0.7-2.9-1.4-5.2-2.6c0.9,2,1.5,3.3,2.1,4.7c-0.3,0.2-0.7,0.5-1,0.7
		c-1.3-1.7-2.6-3.5-3.9-5.2c-0.3,0.1-0.7,0.2-1,0.3c0.4,1.8,0.8,3.6,1.2,5.4c-0.2,0.2-0.3,0.5-0.5,0.7c-1.3-1.6-2.7-3.2-4.6-5.6
		c0.3,2.2,0.4,3.5,0.7,5.5c-2.4-0.5-4.6-0.9-6.6-1.3c-1,0.8-2.1,2.1-3.5,2.7c-2.7,1.1-6.1,1.2-8.4,2.9c-3.5,2.6-5.2,0.5-5.8-2
		c-0.8-3.4-1.1-6.3-5.3-7.2c-1-0.2-1.7-2.2-2.3-3.5c-2-4.5-4.3-2.6-6.6,0.1c-1.6-3.4-3.5-4.3-7.4-3.3c-8.1,2.1-15.8-0.7-23.5-3.7
		c-4.4-1.7-8.1-5.9-14-4.4c-2.2,0.6-5.4-2.4-8-3.9c-0.3-0.2-0.3-1.2-0.6-1.3c-2.2-0.6-4.4-1-6.7-1.5c0.2,1.8,0.6,3.7,0.6,5.5
		c0,0.7-0.7,1.5-1.1,2.1c1.3,1.2,2.7,2.4,4.1,3.7c-0.7,0.3-1.4,0.6-1,0.4c1.4,2.7,2.7,5.6,4.2,8.3c1.1,1.9,2.7,3.5,3.7,5.4
		c2.5,4.8,4.6,9.8,7.3,14.5c2,3.3,4.7,6.2,7.6,9.8c6.1-4,13-8.5,19.9-13.1c0.5,0.6,1,1.2,1.5,1.8c-8.5,8.4-16.9,16.9-25.4,25.3
		c0.5,0.3,1.1,0.6,1.6,0.9c-0.2,1-0.2,2.6-0.6,2.8c-11.3,3.8-19.7,12.3-30.1,17.5c-8,4-15.9,8.1-24,11.9c-3.7,1.8-7.6,3.2-11.6,4.5
		c-7.8,2.6-15.8,5-23.6,7.5c-4.2,1.3-8.3,2.8-12.6,3.9c-6.4,1.8-12.9,3.4-19.4,4.9c-1.3,0.3-2.8-0.4-4.2-0.3
		c-7.9,0.8-15.8,2.2-23.7,2.4c-13.8,0.4-27.6,0.4-41.3,0c-6.4-0.2-12.8-1-19.1-2.4c-9.4-2.1-18.9-4.5-28-7.5
		c-7.5-2.5-15-5.7-21.9-9.6c-6.3-3.5-11.9-9.2-14.2-15.6c-2.2-6-2.6-13.4,3.8-19.1c8.3-7.4,16.8-12.2,28.5-10.9
		c7.1,0.8,11.9,3.8,15.5,9.5c2.6,4.1,1.1,10.6-3.1,13.5c-5.2,3.6-11.4,3.2-14.3-1.3C303.4,602.8,303.3,600.2,302.6,597.5z
		 M277.8,326.7c-3.6,5.1-3.6,7.2,0.2,11.9c4.6,5.7,9.3,11.3,13.9,16.9c4.5,5.6,5.6,15.5,2.4,19.2c-5.2,6-10.4,12.1-15.2,18.4
		c-3.5,4.4-8.6,6.9-13.6,4.7c-6.6-3-13.2-6.3-19.3-10.3c-3.5-2.3-6.1-6.2-9.1-9.3c0.4-0.5,0.8-1,1.2-1.4c1.8,1.2,3.8,2.1,5.2,3.5
		c6,5.9,12.8,10.6,20.7,13.8c5.1,2,8.3,0.7,11.2-3.4c4.4-6.2,10.3-11,13.6-18.3c3.5-7.7,4-9.2-1.6-16.4c-7.1-9-13.7-18.4-20.7-27.8
		c-0.2,0.1-1.3,0.4-2.4,0.7c-0.1-0.5-0.3-0.9-0.4-1.4c1.4-0.7,2.8-1.3,4.7-2.2c-1.5-0.8-2.5-1.3-3.5-1.8c0.1-0.4,0.1-0.9,0.2-1.3
		c2.1,0.1,4.3,0.2,7.9,0.4c-0.8-2.1-1.1-4.2-2.3-5.7c-9.2-12.3-22.6-14.4-32.4-8.8c-6.7,3.8-11.8,1.1-15.8-1.5
		c-6.7-4.5-13.4-7.2-21.4-7.3c-5.7-0.1-12.1,0.8-16.9-1.4c-6.5-2.9-13.1-2.5-19.6-3.5c-11.8-1.7-23.7-2-35.2-5.3
		c-1.8-0.5-3.4-2.2-4.7-3.7c-4-4.8-8-9.6-15.8-10c2.1,1.3,3.5,2.1,5.4,3.4c-4.8,3.9-9.3,7.6-14.8,12.1c4.6,0.5,5.4,8.3,10.8,2.5
		c-2.9,1.7-0.3,7.6-6.9,6.5c-3.7-0.6-8,2.1-12,3.3c0.1,0.5,0.2,1,0.3,1.5c2.3-0.2,4.6-0.3,6.9-0.5c3.8-0.3,8.6-2.2,11.1-0.6
		c3.3,2.2,5.7,2.1,8.4,0.8c5.1-2.4,9.6-0.7,14,1.6c9.2,4.8,18.3,9.8,27.6,14.5c2.4,1.2,5.3,1.9,7.9,1.6c6.4-0.6,12.7-2.4,19.1-2.7
		c3.3-0.1,6.6,2,9.9,3.2c0.2,0.1,0.4,0.7,0.3,0.8c-1.9,3.4,0.4,2.9,2.6,3.4c2.9,0.7,5.8,1.7,8.3,3.2c6.6,4.2,13.9,3.3,21.1,3.2
		c1,0,2.6-1.4,2.9-2.5c0.3-0.8-0.6-2.5-1.5-3.2c-2.5-2-2.6-1.9,0-4c7.5,3.9,9.2,11.8,10,18.7c1.3,10.8,0.4,21.9,0.4,32.8
		c-4.8,0.8-4.7-1.7-4.6-4.1c0.3-8.3,0.2-16.6,1.2-24.8c0.5-4.8-3.3-4.5-5.5-5.8c-0.8-0.5-4.2,1.6-5.1,3.2c-3.1,5.5-5.6,11.3-8.2,17
		c-0.6,1.4-0.9,2.9-1.4,4.4c-2,6.7-5.9,13.5-5.4,19.9c0.8,8.8-0.5,16.6-3.1,24.9c-1.8,5.6-1.1,11.9-1.7,17.9
		c-0.6,5.9,3.2,11.6,0.3,17.8c-1.5,3.1-1.8,7-2.1,10.5c-0.5,4.9-0.5,9.9-0.7,14.9c-0.3,7.2,4.2,11.8,9,16.2c1.2,1.1,2.4,2.3,3.9,2.9
		c2.8,1.3,5.7,2.6,8.7,3.4c3.3,0.9,7.2,2.7,10,1.8c9.1-3.2,15.2,2.8,22.3,6c9,4,17.4,10.5,27,6.7c1.7,2,2.9,4.5,4.4,4.8
		c4,0.7,8.5-0.6,12.3,0.6c6.8,2.2,13.3,5.6,19.7,8.5c1.3-0.7,2.6-1.7,4.2-2c0.4-0.1,2.1,2.7,1.9,3c-2.1,2.3,1.3,3.1,1.2,4.2
		c-0.4,4.2,5.1,7.8,1.3,12.2c-0.3,0.3-0.5,0.8-0.5,1.2c0.5,5.6,0.8,11.1,1.6,16.7c0.7,4.5,1.3,9.2,3.1,13.3c1.7,3.8,4.4,7.9,7.8,9.9
		c4.2,2.4,8.3,4.4,11.1,8.6c3.3,5,7.3,9.5,10.9,14.3c2.4,3.3,4.6,6.8,7,10.1c4.6,6.5,2.8,13.6,1.8,20.5c-0.6,3.9,3.8,9.8,7.4,9.3
		c1.7-0.3,3.2-1.9,4.9-1.9c9.4,0,18.8,0.2,28.2,0.4c3.7,0.1,7.3,0,11,0c-0.1-1.3-0.2-2.4-0.2-2.7c1.5-1,2.6-1.5,3.4-2.3
		c2.5-2.6,8.4-2.6,11.1,0.1c0.6,0.6,1.7,0.7,2.1,0.9c-0.8-2.2-1.4-3.9-2.4-6.6c4.5,1.8,7.7,7.3,11.4,0.7c-5.5-1-10.8-1.9-16.1-2.8
		c-2.7-0.4-5.7-0.1-8.1-1.2c-10.6-5-21.1-10.3-31.5-15.7c-1.6-0.8-3.1-2.5-3.9-4.1c-3.7-8.4-7.1-17-10.8-25.4
		c-4-9.3-8-18.6-12.3-27.7c-4.5-9.5-9.5-18.7-14-28.1c-1.1-2.2-2-5-1.7-7.3c1-6.6-2.6-11.5-6.2-15.7c-4.2-4.9-9.9-8.6-14.9-13
		c-3.3-2.9-6.3-6.3-9.8-9.1c-5.1-4.1-10.6-7.6-15.6-11.6c-6.1-4.9-12.4-9.4-20.2-11.3c-1.7-0.4-3.5-0.9-4.9-1.9
		c-6.1-4.2-12.7-6.6-20.1-6c-1.3,0.1-2.6,1-3.8,1.8c-1.3,0.8-2.5,1.7-3.8,2.7c-5.6,4.1-11.9,3-18.3,2.6c-13.3-1-24.8-14.4-22.9-27.3
		c0.4-2.4-0.4-6,2.8-6.4c1.5,7.6,1.3,16,4.9,21.9c3.9,6.4,12.3,7.9,20.3,9.2c9.1,1.5,13.5-4.6,20.5-8.3c-7.6-7.7-14.5-15.2-22.1-22
		c-2.4-2.2-6.3-2.9-9.6-4c-1.4-0.5-3-0.3-4.5-0.4c0-0.5,0.1-0.9,0.1-1.4c3.9,0.2,7.7-2.4,11.6,0.7c4.6,3.5,9.5,6.7,13.9,10.4
		c2.9,2.5,5,6,7.9,8.4c3.9,3.3,8.4,6,13.1,9.3c0.2-3,0.2-5.3,0.5-7.6c0.4-2.2,1.9-4.5,1.5-6.5c-1.5-8.4-1.2-9.2,5.6-11.1
		c0.8-3.4,1.4-6.2,2.2-9.4c5.3,3.4,8.5-0.2,9.6-2.7c2.1-4.9,5.7-4.5,9.5-4.9c4.2-0.4,8.4-1.1,12.6-1.7c6.6-1,13.1-2.5,19.8-3
		c2-0.2,4.2,2,6.3,3c-0.2,0.7-0.5,1.5-0.7,2.2c-3.2,0-6.4,0-10,0c3.6,5.2,7.1,10.9,11.3,16.1c2.7,3.4,5.8,7.1,9.6,9.1
		c3.8,2.1,6,5.1,8.5,8.2c3,3.6,6,7.5,9.8,10c10.4,6.8,22,10.9,34.2,13.2c6.3,1.1,12.7,1.6,18.8,3.1c8.8,2.2,16.9,6.1,24.7,10.8
		c1.2,0.7,2.6,1.4,4.9,2.6c-1.6-3.4-2.6-5.6-4.1-8.7c2.8-0.7,5.2-1.4,7.9-2.1c-0.4-5,2.3-4.1,5.7-2.1c4,2.3,8.1,4.5,12.2,6.7
		c0.2-0.4,0.5-0.7,0.7-1.1c-4.3-3.2-8.7-6.2-12.8-9.6c-1.9-1.5-3.4-3.6-5.1-5.5c2-0.7,4-1.3,5.9-2.2c0.8-0.4,1.3-1.3,1.9-2
		c-0.9-0.3-1.7-1-2.6-1c-5.6,0-10.7,0.1-14.7,5.6c-2.9,4-9.2,4-11.6,0.9c4.6-2.5,10.5-3.3,12.6-9.2c0.2-0.6,1.7-1.1,2.6-1.1
		c3-0.1,5.9-0.1,8.9-0.1c-1.3-1.5-2.7-2.1-4.1-2.1c-7.4,0-14.6,0.5-21.7,3.2c-6,2.3-12.2,3.7-18.4-0.7c-4.1-3-8.8-5.2-13.7-8.1
		c0,1.9,0,2.7,0,3.5c-0.8-0.5-1.2-1.1-1.1-1.6c1.2-5.5-2.9-6.9-6.7-8.2c-2.9-1-6.2-0.9-9-2.2c-3.6-1.7-7.5-3.6-10-6.5
		c-4.7-5.4-8.6-11.5-12.6-17.5c-1.4-2-2-4.6-2.7-7c-1.4-5.1-1.9-10.7-4.2-15.4c-2.9-6-7.1-11.4-10.8-17c-0.3-0.4-1.1-0.4-1.6-0.6
		c-3.9-2.2-6.8,1.8-10.5,2.2c1.4,1.1,2.9,1.4,4.3,2.1c1,0.5,1.8,1.5,2.6,2.3c-1.1,0.5-2.4,1.7-3.3,1.4c-9.3-3.1-18.7-3-28.3-2.3
		c-2,0.2-4.1-0.9-6.1-1.5c0.1-0.6,0.1-1.2,0.2-1.8c7.7,0,15.5,0,22,0c-3.7-3.7-7.8-7.8-12-12c-1.3,1-3.6,2.7-6,4.5
		c-2.7-6.6,6.6-16.1,14.8-15.5c-1.8,3.7,0.1,13.1,3.2,16.7c3.1,3.7,6.7,3.2,9.7,1.7c0.4-2.4,0.8-4.3,1.1-6.2
		c1.6,0.7,3.3,1.4,4.9,2.2c3,1.4,5.9,3,9,4.3c0.6,0.3,1.8-0.5,2.5-1.1c2.1-1.5,4.1-3,6-4.8c1.2-1.1,2-2.6,2.8-3.8
		c-3,0.3-5.4,0.6-7.7,0.9c0.3-1.3,0.7-2.6,0.8-3.2c-0.7-2-1.4-3.9-2.1-5.8c1.7-0.5,3.3-1,5-1.5c0.1,0.3,0.2,0.6,0.3,1
		c1.2-1.1,2.4-2.2,3.9-3.5c0.9,2.2,1.4,4.3,2.5,5.9c0.8,1.2,2.4,1.8,3.6,2.6c0.6-1.5,2-3.1,1.7-4.5c-1.3-7.4-3.8-9.1-12.3-9.4
		c-1.1,0-3-1.6-3-2.4c0-3.3-0.8-5.7-4.6-5.3c-2.6,0.2-5.9,0.2-7.5,1.8c-2,1.9-4.1,3.2-5.7,1.6c-1.6-1.7-4.6-4.1-1.9-7.6
		c1.2-1.5,1.6-3.6,2.3-5.4c-0.5-0.4-0.9-0.8-1.4-1.2c-1.7,1.8-3.9,3.4-5,5.6c-1.3,2.6-1.5,5.6-2.2,8.5c-0.8-0.1-1.6-0.3-2.4-0.4
		c-0.1-2.5-0.3-5-0.4-7.5c-0.3,0.4-0.7,0.8-1,1.2c-2.5-0.8-5.9-0.8-7.3-2.4c-2.7-3.1-5.3-2.3-8.3-1.4c-2,0.6-4,1.8-6,1.9
		C291.3,325.3,285.1,330.4,277.8,326.7z M402.1,171.8c-4.1,7.9-13,12.3-11.9,22.3c0.9,8.6-2.9,17.9,3.3,25.8
		c-3.5,0.5-3.3,3.4-3.3,6.1c0,14.1,0,28.3,0,42.4c0,19.7,0,39.4,0.1,59.1c0,1.5,0.8,3,0.9,3.6c2.9-1.6,6.1-2.3,7.7-4.3
		c5.6-6.9,13.7-9.2,21.3-12.4c4.9-2.1,10-3.8,14.9-5.8c4.7-1.9,9.1-4.6,14-5.9c4-1,8.4-0.2,12.6-0.7c1.3-0.2,2.5-1.9,3.4-3.2
		c0.2-0.3-1.2-1.7-1.9-2.5c-2.9-3.3-7.4-4.6-10.6-7.2c-3.8-3.1-6.3-2.7-9.4,0.3c3.7,3.7,0.3,5.6-1.9,7.9c-1.5,1.6-2.9,3.3-5.1,5.9
		c-0.3,0-2-0.3-3.7-0.6c0.3,0.4,0.6,0.8,0.8,1.2c-1,0.8-2,1.9-3.1,2.3c-1,0.4-2.4,0.1-3.5-0.1c-2.6-0.5-6.2-0.2-7.6-1.8
		c-3.1-3.6-5.8-7.9-7.5-12.4c-1.9-5.1-0.3-10.7,3-14.4c2.9-3.2,7.5-6.2,12.6-3.3c10.5-12.1,20.9-24,31.4-36.1
		c-6.5-3.2-7.1-8.9-7.3-14.1c-0.8-16.1,11.9-26,26.3-27.8c11.1-1.3,19,4.4,24,12.7c5,8.3,5.7,18-0.5,26.8c-0.7,1-1.2,3.3-0.6,4
		c6.3,8.3,12.6,16.5,19.3,24.4c1.5,1.8,4.7,2.7,7.2,3c6.5,0.8,11.9,3.3,15.5,8.9c5.3,8.2,2.2,15.7-1.9,23.3
		c-1.5-0.8-2.7-1.5-3.1-1.7c-1.5,2.3-2.7,4.1-4.1,6.2c-3-2.8-5.3-6.6-7.3-0.7c-4.7-6.9-15.8-9.6-12-21.4c-6.4,4.2-12.2,7.9-18,11.7
		c0.3,0.4,1,1.3,1.8,2.4c-1.3,0.3-2.3,0.4-3.8,0.7c1.9,1.9,3.2,4.3,5.1,4.8c4.6,1.3,9.4,1.7,14.1,2.4c1.1,0.2,2.3-0.2,4.5-0.4
		c3.9,3.4,11.6,6.6,19,7.9c1.2,0.2,2.2,1.9,3.4,2.8c0.6,0.5,1.3,1,2,1.1c1.1,0.2,2.7-0.3,3.5,0.3c4.5,3.1,8.7,6.6,13.2,9.7
		c2.4,1.6,5.1,2.7,8.3,4.3c0-17.1,0.1-32.9,0-48.6c-0.2-16.6-0.7-33.2-0.9-49.9c-0.1-5.6,0.7-11.2,0.8-16.8c0.1-4.8,0-9.7,0-14.6
		c-0.1-4.8,1-10.1-0.7-14.2c-2.2-5.5-6.7-10.1-10.7-15.8c-3.4,3.6-6.4,7-9.6,10.1c-2.8,2.7-3.4,5.6-3.1,9.5
		c0.5,8.9,0.2,17.8,0.2,27.3c-1.5-0.6-2.7-0.7-3.2-1.3c-4.6-4.9-9.3-9.7-13.6-14.8c-5.9-6.9-11.2-14.2-17.3-20.8
		c-7.7-8.5-15.8-16.8-24.1-24.7c-2-1.9-4.4-6.3-8.6-2.4c-9,8.4-18.2,16.6-27,25.2c-7.5,7.3-14.5,15-21.7,22.6
		c-3.8,4-7.5,8.2-11.2,12.2c-1.2-7.1-1.5-13.7-1.1-20.2c0.3-4.8-2.2-9.4-6.3-10.5C408.6,177.4,406.9,174.1,402.1,171.8z
		 M455.1,545.6c-1.4-1-2.7-2.6-4.5-3.3c-11.4-4.8-22.9-9.2-34.1-14.3c-9.7-4.4-19.2-9.3-28.6-14.4c-8.4-4.5-16.9-9.2-24.9-14.4
		c-14.1-9.1-27.9-18.6-41.8-27.9c-4.9-3.3-10-6.3-15-9.5c-0.3,0.4-0.5,0.8-0.8,1.2c1.3,1.1,2.6,2.2,3.9,3.3
		c6,5.2,11.9,10.6,18.2,15.4c7.2,5.5,12.1,13.3,20.4,17.8c5.9,3.2,10.1,8.8,11,16.3c0.3,2.1,1.7,4.6,3.4,5.9c2.6,2,5.9,3.2,8.9,4.7
		c8.2,4,16.5,7.9,24.7,11.9c5.1,2.5,9.8,5.7,15,8c10.3,4.5,20.7,8.7,31,13c6.2,2.6,12.1,5.9,18.4,7.9c15.3,4.9,30.7,9.5,46.2,13.8
		c10.2,2.8,20.5,5,30.8,7.4c1.1,0.3,2.3,0,3.4-0.1c-0.1-1.4,0.2-2.9-0.3-4.1c-2.5-5.4-5.4-10.6-7.8-16.1
		c-5.1-11.5-10.1-23.2-15.1-34.8c-1.7,0-3.2,0-5.8,0c5-4.2,1.9-7.8,0.4-11.6c-1-2.5-1.5-5.3-2.5-8.8c7.5,2.5,13.5,4.6,19.7,6.5
		c4.6,1.4,9.2,2.7,13.9,4c6.6,1.7,13.2,3.2,19.8,5c8.4,2.3,16.9,4.5,25.2,7.2c4.9,1.6,9.9,3.6,13.8,6.7c1.8,1.4,1.4,5.8,2,9.1
		c17.5-4.1,35.1-8.3,52.8-12.5c0.1-0.7,0.1-1.4,0.2-2c-20.1-9.4-40.3-18.8-60.6-28.4c0,1.7-0.2,3.1,0,4.3c1.2,5.7-1.6,8.6-7.1,7.2
		c-17.2-4.7-34.5-9.1-51.7-13.9c-12.3-3.4-24.6-7.2-36.9-10.9c-4.7-1.4-9.4-2.7-14.5-4.2c0.1,2-0.1,3,0.2,3.9
		c4.6,12.7,9,25.4,13.9,37.9c2.5,6.2,6.1,12,8.7,18.2c1,2.3,0.7,5.1,1,7.7c-2.5,0.3-5,0.7-7.5,0.8c-1.1,0.1-2.3-0.2-3.3-0.6
		c-13.9-4.5-27.7-9.1-41.6-13.6C456.8,544.9,455.6,545.5,455.1,545.6z M526.5,602.3c-8.8,0.6-14.6-1.6-15.8-8.6
		c-2.4-0.7-4.3-1.2-6.2-1.8c-0.9-0.3-1.7-1.3-2.7-1.5c-6.4-0.9-12.9-1.7-19.4-2.5c-0.2-1.2-0.3-2.4-0.5-3.3
		c-1.2,0.6-2.3,1.1-3.4,1.6c-0.3-1.9-0.6-3.8-0.8-5.4c-0.6,0.8-1.7,2.6-2.2,2.5c-1.4-0.4-2.6-1.6-4.1-2.6c-3.9,3.5-8.3,0.8-12.7,0.1
		c-2-0.3-4.2-0.1-6.4-0.1c-3-3.3-6.7-7.3-9.4-10.4c-6.4-1.9-11.9-3.5-18.5-5.4c-1.1-1.7-3-3.5-7-3.8c-3.7-0.3-7.1-3.4-12-5.9
		c-4.5,1.3-5.5,0.8-7-4.5c-3.7-0.7-8.5,0.2-8.7-4.5c-6.9-2.1-13.2-4-19.7-5.9c-0.8,5.3,7.8,8.7,3.8,13.5c2.1,6.1,3.4,11.4,5.7,16.4
		c2.2,4.8,5.4,9.2,8.1,13.9c-0.5,0.8-1.1,1.8-1.7,2.8c1.1,0.5,2.5,0.8,2.6,1.3c0.4,1.7-0.2,4.7,0.4,4.9c4.6,1.7,3.5,6,4.7,9.2
		c1.8,4.6,4.5,8.2,10,9.7c4.1,1.1,7.7,4.1,11.6,6.1c7.4,3.8,14.8,7.8,23.7,6.5c1.1-0.1,2.2,0.3,3.4,0.5c5.6,1.3,11.2,3.1,16.9,3.7
		c4.7,0.5,9.7,0.2,14.4-0.7c4.2-0.8,7.9-3.6,12.1-4.5C500.8,620.3,512.7,611.5,526.5,602.3z M236.8,500c6.3,5.7,12.3,11.4,18.5,16.9
		c7.9,6.9,17.3,11.2,27.1,14.6c1.9,0.7,3.5,2.3,5.3,3.4c-0.2,0.5-0.5,1-0.7,1.5c-9,0-17.9,0.1-26.9,0c-10.6-0.2-18.6,5-23.6,13.4
		c-4.9,8.4-12.3,13.8-19.1,20c-4.1,3.7-8.6,7.2-13.9,11.6c2.3,0,3-0.1,3.7,0c1,0.2,2.1,0.5,3,1c0.1,0-0.3,1.1-0.4,1.8
		c-0.9-0.4-1.8-1.1-2.7-1.2c-1.3-0.1-3.1-0.3-4,0.4c-4.3,3.4-8.1,7.3-13.6,8.8c-0.8,0.2-1.4,3.3-1.1,4.9c1.1,5.9,6.5,7.7,10.7,10.5
		c8.2,5.4,16.5,10.7,24.9,15.8c2.2,1.4,4.6,2.8,7.1,3.1c1.8,0.2,4.1-1.1,5.7-2.3c0.4-0.3-0.7-3.2-1.7-4.4c-1.3-1.6-3.3-2.8-5-4.2
		c2.1-4.9-1.3-10.6-11.2-18.5c1.3-7.5,8.1-10.1,13.1-13.3c8.8-5.7,18.8-9.5,28.1-14.4c7.4-3.9,14.6-8.3,22.1-12.1
		c4.5-2.4,9.2-4.6,14.1-6.1c4.9-1.5,9.9-2,14.2-5.2c3.3-2.5,3.7-4.1,1.6-5.9c0.4-3.8,1.6-6.9,0.8-9.2c-2.8-8-10.3-10.3-17.5-12.2
		c-5.2-1.4-11-1-16-2.8c-9.2-3.2-17.8-7.9-27-11.1C247.4,502.8,243.5,497.1,236.8,500z M470.1,302.2c4.8-0.6,10-1.1,15.2-2
		c1.4-0.2,3.8-1.8,3.8-2.5c-0.4-4.6,1.4-7.6,5.1-10.3c4.1-2.9,7.5-6.8,11.5-9.8c1.8-1.4,5.3-3.2,6.5-2.4c3,2,6.6,4.6,5.4,9.4
		c-1.2,4.9,1.5,8.3,5.2,10.5c6.7,3.9,14.7-0.3,17.7-8.3c3-7.8-4.7-16.2-12.2-14.5c-5,1.1-6.8-0.9-9.1-3.6
		c-8.8-10-17.7-19.9-26.1-30.3c-2.6-3.2-6.2-7.4-1.4-12.1c0.5-0.5,0.6-2,0.1-2.7c-2-3.3-4-6.8-6.6-9.5c-1.2-1.2-4.2-1.2-6.2-1
		c-3.2,0.4-5.8,0.8-8.6,4.1c-3.6,4.4-4.7,3.5-4.2,9c0.2,2.5,0.7,5.4-0.3,7.4c-1.7,3.4-4.5,6.5-7,9.4c-8.3,9.8-16.7,19.5-25.2,29.2
		c-2.6,2.9-4.8,6.4-9.9,5.2c-1.8-0.4-4.4,0.5-5.8,1.8c-5.7,5.4-4.7,13.1,1.6,18c5,3.9,9.7,3.3,14.2,0c3.5-2.5,5.9-5.7,5.3-10.7
		c-0.9-6.5,4.2-10.1,10-7.3c2.5,1.2,5,2.4,7.1,4.1c4,3.1,8.1,6.2,11.3,10C469.2,295.5,469.2,299.1,470.1,302.2z M296,425.7
		c7.8,6.7,14.7,13.1,22.1,18.9c8.2,6.5,16.7,12.6,25.3,18.7c4.4,3.1,9.2,5.5,13.6,8.5c5.4,3.8,10.4,8.2,16,11.7
		c5.7,3.5,12.6,5.3,17.8,9.4c10.5,8.3,22.4,13.5,34.7,18.1c12.7,4.7,25.4,9.6,38.2,14c3.3,1.1,6.9,1.1,10.6,1.6c0,0.3,0.2-0.6,0-1.3
		c-3.7-9.6-7.6-19.1-11.2-28.7c-0.7-1.8-0.2-4.1-0.8-5.9c-1.1-3.4-2.5-6.7-3.9-10c-0.4-0.8-1.2-1.5-1.8-2.2
		c-0.3,0.9-0.5,1.8-0.8,2.7c-0.5,1.7-0.7,4.7-1.7,5c-2,0.6-4.4-0.1-6.6-0.7c-0.8-0.2-1.4-1.5-2.1-2.2c-0.5,0.2-1,0.5-1.5,0.7
		c1.2,3.5,2.5,7,3.5,10.6c0.4,1.5,0.6,3.7-0.2,4.8c-0.6,0.8-3,1-4.4,0.6c-5.3-1.6-10.6-3-15.6-5.4c-12.3-5.9-24.5-12-36.5-18.5
		c-11.6-6.4-22.9-13.4-34.3-20.2c-10.7-6.3-20.7-13.6-28.4-23.4c-2.9-3.7-6.4-5.4-10.3-7.2c-3.4-1.5-6.5-3.9-10-6.1
		C304.7,420.8,301,422.9,296,425.7z M166.2,268.3c2.9,1.8,5.8,4.4,9.3,5.6c7.1,2.5,14.1,0.1,18.9-4.7c3.8-3.8,5.3-9.9,7.7-15
		c0.3-0.7-0.2-1.9-0.4-2.8c-0.9-5.3-1.9-10.6-2.7-15.5c-0.1,0.1-1.2,0.7-3,1.7c-2.1-4.1-4.2-8.2-5.9-11.5c-5.6-3.5-10.7-7-12.3-12.8
		c-2.9,1-5.8,2.2-8.8,3c-0.4,0.1-1.2-1.6-1.8-2.4c-2.5,0.5-5,1.3-7.5,1.4c-4,0.1-8.2-1.4-11.9-0.4c-5.3,1.4-10.2,4.2-15.1,6.7
		c-2.3,1.2-5,2.4-6.4,4.4c-3,4.3-5.5,5.4-10.8,2.3c1.2,2.3,2.7,3.9,2.5,5c-0.6,2.4-1.9,4.8-3.4,6.8c-0.3,0.4-2.7-0.7-4.2-1.1
		c2.7,7.6,2.7,7.6-1.7,7.1c0.6,1.8,1.2,3.7,1.8,5.7c-1.7-0.5-3.4-1-6-1.7c1.5,1.9,2.8,3.1,3.6,4.5c0.8,1.5,1.7,3.3,1.5,4.9
		c-0.4,2.8-2.7,5.9-2,8.1c0.6,1.8,4.4,2.6,6.8,3.8c0.1,0.1,0.3,0.2,0.4,0.3c5.2,4,10.3,7.9,15.8,12.1c0-0.9,0-2.2-0.2-3.4
		c-0.7-4-1.7-8-2.1-12c-0.2-1.9,0.8-3.8,0.8-5.7c-0.5-14,7.9-22.6,18.2-29.5c7-4.6,15-4.6,23.4-2.8c7.7,1.6,11.7,4.1,13.5,11.6
		c0.2,0.8,0.6,1.5,1,2.1c3.6,5.2,0.5,10.7-5.7,12.8c-3.2,1.1-9.5,0.8-8.7,7.7C171.1,265.3,168.4,266.6,166.2,268.3z M442,427.8
		c14.1,0,28.1,0,42.1,0c0.2-0.4,0.3-0.8,0.5-1.2c-17-11.9-34-23.8-51.1-35.8c-0.7,8.2-3.8,9.8-10.6,5.7c-0.8-0.5-1.8-0.8-2.6-1.2
		c-7.2-3.7-14.4-7.3-21.5-11c-6.3-3.3-12.6-6.6-18.9-9.9c-0.5,0.4-0.9,0.8-1.4,1.1c5,16.8,10,33.7,15.1,50.5
		c1.9,6.3,5.4,8.2,12.4,5.5c-0.5,1.3-0.9,2.4-1.3,3.5c2.4,3.4,5.7,0.9,5.8-0.5c0.4-2.9-0.8-6.1-1.7-9.1c-1.8-5.7-4.4-11.2-4.5-17.3
		c0-1.8,0.3-3.7,0.4-5.4c6.7,0.7,10.9,6.4,17,4.5c2.8,5.7,8.5,6.3,13,7.2C437.2,419,439.4,423,442,427.8z M505.5,557.2
		c0.4-0.6,0.7-1.2,1.1-1.8c-8.6-18.2-17.3-36.4-26.4-55.4c-1.7,0.8-4.1,2.1-6.6,3.3c2.2,2.1,3.9,3.8,6.5,6.4c-2.6,0-4,0-5.4,0
		c-0.1,0.2-0.2,0.5-0.2,0.7c2.3,1.2,4.6,2.4,7.4,3.8c-1.8,1-2.7,1.6-4.2,2.4c2.2,1.4,3.9,2.5,6.1,4c-1.7,1.1-3,1.8-4.4,2.6
		c1.7,1.3,3.3,2.5,3.9,3c0,2.8,0,4.7,0,7.1c-0.4,0.2-1.5,0.9-2.4,1.5c2.2,1.6,4.4,3.1,6.5,4.5c-0.2,0.6-0.5,1.2-0.7,1.8
		c-4.7-0.9-9.4-1.7-14-2.8c-4.8-1.1-9.7-2.3-14.3-4c-6.6-2.4-13.1-5-19.4-8.1c-6.2-3-13.7-1.9-19.5-6.7c-4.6-3.7-12.8-3.3-12.8-10.7
		c-2.6-0.5-4.6-1-6.7-1.2c-5.2-0.6-8.2-1.7-11.9-4.6c-4.8-3.8-9.3-8.1-14.5-11.1c-1.7-1-2.9-3.4-3.4-3.2c-4.4,1.9-3.8-2.3-5.2-3.9
		c-0.6-0.7-1-1.5-1.7-2.5c-1.1,1.2-2,2.2-2.9,3.3c-7-4.8-14.3-8.9-20.2-14.4c-3.7-3.5-9.6-4.9-11-10.6c-1.3-5.4-6.1-7.1-10.4-8.2
		c-3.2-0.8-5.9-0.3-3.8-5.4c-2.6,1.8-3.6,3.7-6.5,0.8c-3.5-3.6-8.4-5.9-12.9-8.4c-1.2-0.7-3.2,0.1-4.9,0.1c0.1,1.4,0.2,2.7,0.2,4.1
		c1.2-0.4,2.3-0.7,3.6-1.1c0,1,0,2.1,0,2.2c2,0,3.7,0,5.5,0c0.1,0.3,0.1,0.6,0.2,0.9c-2,1.1-4.1,2.2-5.7,3.1
		c2.4,1.6,4.9,3.2,7.5,4.9c7.4,4.9,14.7,9.8,22.1,14.7c7,4.6,14.1,9.1,21,13.8c8.3,5.6,16,12.2,24.7,17.1
		c10.8,6.1,21.4,12.5,33.2,17c14.6,5.6,28.5,12.9,42.8,19.3c11,4.9,21.9,9.8,33.2,14C487.6,552.7,496.6,554.7,505.5,557.2z
		 M529.2,455.1c0,1.4,0.1,2.8,0,4.1c-0.3,3.1-4.7,5.4-7.6,4.3c-14.4-5.4-28.8-10.7-43.1-16.1c-8-3-16-6.3-24-9.3
		c-9.4-3.5-18.9-6.8-28.3-10.2c-0.5,0.4-0.9,0.7-1.4,1.1c1.3,3.4,3,6.6,3.7,10.1c1,5,4.7,5.3,7.8,4.1c7.7-2.9,15.1-1.2,22.7,0.1
		c1.5,0.3,4.2,0.2,4.4,0.9c1.3,4.4,5.1,4.9,8.3,6.6c2.2,1.1,5.2,3.7,5.2,5.6c0.1,3.2-3.6,3.1-6.2,3.1c-0.2,0-0.3,0.3-0.6,0.7
		c4.7,1.4,9.3,2.8,13.9,4.2c10.7,3.3,21.5,6.3,32,10.1c4.7,1.7,9.5,4.5,13.1,7.9c2.5,2.4,2.9,6.9,4.5,11.1
		c14.5-1.6,29.4-3.2,44.4-4.8c0.2-0.5,0.3-1,0.5-1.4C562.1,476.7,545.8,466,529.2,455.1z M459.5,434.9c0,0.5,0.1,0.9,0.1,1.4
		c2.9,1,5.8,2,8.7,3c15,5.3,29.9,10.6,44.8,16.1c2.7,1,4,0.8,4.2-2.4c0.3-5.8,1-11.5,0.9-17.3c-0.1-14.6-9.7-23.1-20.5-30.6
		c-7.2-5-15.4-5.7-23.6-4.6c-4,0.6-9.1,0.7-11.6,4.2c10.5,8.5,20.5,16.6,30.7,24.9c-3.1,2-5,4.3-7,4.4c-5.4,0.3-10.9-0.5-16.4-0.5
		C466.4,433.7,462.9,434.5,459.5,434.9z M361.6,323c-0.2-0.6-0.4-1.2-0.7-1.7c2.2-0.6,4.4-1.4,6.7-1.8c1.6-0.3,3.3,0,5,0
		c-0.1-2.2,0.5-4.8-0.4-6.5c-3.7-6.9-9.7-11.1-17.5-12.5c-3.5-0.6-7.3-0.7-10.5-2.1c-10.5-4.3-19.9-3.5-28.6,4.1
		c-0.6,0.6-2,1.1-2.6,0.8c-5-2.1-6.6,2-8.6,4.9c-1.4,2.1-0.7,4.4,0.7,6.5c0.5,0.8,0.2,2.2,0.3,3.3c1.3-0.2,2.6-0.7,3.9-0.6
		c1.6,0.1,3.3,0.6,4.9,0.9c-1.1,5.2,3.4,4.3,5.3,5.5c3-2,5.9-3.4,8-5.5c4.8-4.7,10.6,0.6,15.6-1.7c0.3-0.1,1.4,1.4,2.1,2.1
		c-0.7,0.5-1.5,1.5-2.2,1.5c-5.9,0.1-8.6,3.8-10,7.8c5,0,10.1,0.1,15.2,0c2.5,0,5.1-0.3,7.6-0.6c2.9-0.3,5.8-1,8.1,2.7
		c-2.9,0.2-4.9,0.3-6.9,0.4c3.9,1.7,7.5,2.7,8.7,7.5c0.9,3.6,2.8,7,4.6,11.3c4,0.7,6.3-2.1,7-10C378,328.6,372.8,323.4,361.6,323z
		 M471.5,367c-28.2-6.7-53.4-0.6-79.5,9.4c12.8,6.6,24.1,12.4,36.4,18.7c-0.7-4.6-1.3-8.2-1.9-11.8c0.4-0.4,0.8-0.8,1.2-1.1
		c6.9,4.8,13.9,9.6,21.1,14.6C453.5,384.6,460.1,374.7,471.5,367z M184.6,541.1c4.1,1,7.6,2.7,11.5-1c5.7-5.4,4.4-11.8,2.5-17.2
		c-2.5-7-9.8-9.9-16.6-11.1c-4.3-0.7-9.5,0.9-13.7,2.8c-5.1,2.3-10.6,4.6-12.7,11.2c-0.7,2.2-1.2,7.2-6,7c0.9,2.4-5.1,4.1-0.8,6.9
		c-2.1,3.9,0.2,6.8,2.3,9.8c0.1,0.2-0.9,1.1-1.5,1.7c0.6-0.4,1.2-0.8,1.8-1.2c0.6,1.4,2,3.3,1.6,4c-2.8,4.4,1.6,6.2,3.2,8.5
		c3.9,5.8,7.9,5.6,12,1c-0.8-2.4-1.5-4.1-1.9-5.9c-0.5-2.3-0.2-4.9-1.3-6.8c-5.3-9.5-3-19.7,6.1-25.7c4.7-3.1,13.9-0.3,14.1,4.4
		C185.3,533.3,184.8,537.2,184.6,541.1z M585.3,486.7c4.3-15.9-5.5-57.3-13.6-68.4c-1.9,8.4-3.2,16.8-5.7,24.8
		c-2.3,7.7-2.5,16.2-8.5,22.6c-2.4,2.5,0.3,4.2,2.1,5.3C568.1,476.4,576.7,481.5,585.3,486.7z M302.6,25.2c-0.3-0.5-0.5-1-0.8-1.5
		c-10.9-1.9-20.8,1.6-30.5,5.8c-5.7,2.5-6.8,8.1-3.3,13.2c2.6,3.9,10.7,6,16.6,4.7c6.6-1.5,13.3-3.3,20.1-3.8
		c6.1-0.4,10.4,6.3,7,10.5c-3.3,4.1-7.8,8.8-12.6,9.9c-9.2,2.1-19,4.8-28.4-0.4c-1.5,4.1,1.2,5.4,3.8,5.7c5.7,0.7,11.6,1.5,17.2,1
		c9.6-0.9,18.1-4.6,24.5-12.3c5.5-6.7,3.4-17-4.4-19.1c-4-1.1-8.5-1.5-12.7-1.2C293,38,287,40,280.9,40.1c-2.8,0.1-7.5-2-8.2-4.2
		c-1.2-3.7,2.3-5.2,6.2-5.6c6.5-0.7,12.9-1.8,19.3-3C299.7,27,301.1,25.9,302.6,25.2z M345.9,608.5c-1,3.7-1.2,7.7-3.1,10.5
		c-2.5,3.5-5,7.9-10.5,7.9c-0.7,0-1.7,0.7-1.9,1.3c-1.9,4.9-6.2,3.9-9.9,4.1c-2,0.2-4.1-0.3-6.1-0.2c-0.5,0-1.4,0.8-1.5,1.3
		c-0.1,0.5,0.4,1.6,0.9,1.7c3.7,1.2,7.4,2.3,11.2,3.3c2.8,0.8,5.6,1.5,8.5,2c5.7,1.1,11.5,2,17.3,2.9c0.6,0.1,1.3-0.1,1.9-0.3
		c1.5-0.5,3-1.4,4.6-1.6c1.8-0.2,3.6,0.4,4.3,0.4c-1.6-1.3-3.2-2.7-4.9-4.1c8-4.2-1.5-9.4,3.5-12.1
		C356.6,619.1,354.4,611.2,345.9,608.5z M456.7,226.7c1,3.5,1.8,6.2,2.5,9c0.9-0.1,1.7-0.1,2.6-0.2c0.5-2.7,1.7-5.6,1.3-8.2
		c-0.9-6.7,2.7-14.2,8.6-16.6c9-3.7,20.3,0.2,24.1,9.1c1.4,3.3,0.8,7.6,1,11.4c0.1,0.9-0.2,1.9-0.2,2.8c0.9-0.4,2.4-0.7,2.6-1.3
		c0.9-3.1,1.3-6.3,2.2-9.4c2-6.6-2.5-11.1-5.2-16c-2.9-5.3-9.4-4.8-13.8-7.8c-0.2-0.2-0.7-0.1-1,0c-6.5,3-15.7,1.4-18.7,10.7
		c-5.4,1.9-6,7.3-8.7,11.5c1.3,0.5,2.3,0.9,3.6,1.4c-1.2,1.1-2.1,2-3.9,3.6C455.9,226.7,457,226.7,456.7,226.7z M533.9,500.8
		c14.9,4,28.8,7.8,42.5,11.5c2.8-6.2,5.4-12.2,8.4-18.8C567.3,496,551.1,498.4,533.9,500.8z M394.5,472.5
		c11.8,9.9,42.5,23.8,48.7,23.2c-0.3-1.7-0.3-3.7-1.1-5.2c-1.7-3.3-3.3-6.8-8.3-6.1c-4.3,0.6-6.9-3.4-10.4-4.7
		c-7.6-2.8-15.5-4.7-23.3-6.7C398.3,472.3,396.4,472.6,394.5,472.5z M478.2,471c-2.2,1.9-3.9,3.3-5.5,4.6c-1.8,1.4-3.9,2.6-5.1,4.4
		c-0.5,0.7,0.6,3.8,1.5,4.1c2.6,0.9,5.4,1,8.2,1.2c10.4,0.5,19.4-2.9,28-10.4C495.3,473.5,486.1,472.2,478.2,471z M523.3,436.9
		c0.3,2.4,0.6,4.1,0.6,5.7c0.1,5.1,4.8,6.1,7.8,8.5c6.5,5.3,13.4,10,20.1,15C547.8,451.1,538.6,441.5,523.3,436.9z M299.7,593.7
		c-5,0-10.8,5.1-12.5,10.6c-0.4,1.3-1.4,2.4-2.1,3.6c-0.7,1.2-2,2.4-2.1,3.7c-0.5,5.1,4.7,7,6.7,10.7c0.7,1.4,2.1,2.6,3.5,3.3
		c2.9,1.5,5.9,2.6,9.2,4c-0.5-2.2-0.2-5.8-1.7-7c-5.4-4.1-6.8-10.2-8.1-16C291.1,601,295.6,597.2,299.7,593.7z M504.8,484.3
		c1.4,2,2.3,3.2,3.4,4.9c-3.2,0.1-5.8,0.3-8.4,0.4c0,0.4-0.1,0.8-0.1,1.2c11,3.2,21.9,6.4,32.9,9.7c-0.7-2.1-2.1-3.2-3.2-4.4
		c-0.7-0.7-1.7-2.3-1.5-2.6c2.1-2.7-0.8-4.8-1.7-4.8c-3.2-0.1-3.4-2.5-4.4-4.4c0,0-0.2,0-0.3,0.1c-0.3,1-0.6,2-0.7,2.6
		c-2.8-1.7-5.3-3.2-7.5-4.6c-1.5,1.7-2.6,3-3.7,4.2C508,485.8,506.9,485.3,504.8,484.3z M209.6,569.1c-14.5,3-28.1,4.6-41-2.7
		c-1.4,8,5.6,4.1,8.2,6.6c-1.2,0.3-2,0.5-3.1,0.8C185.1,582.5,202.3,578.7,209.6,569.1z M413.8,418.7c2.1,9.4,4,18.4,6.1,27.6
		c1.7-0.4,3.5-0.8,5.7-1.3c-1.3-3.7-2.7-6.7-3.2-9.8c-0.6-3.4-0.6-7-0.8-10.5c3.8,0,7.6,0,12,0c-0.8-0.9-1.7-2.8-3.1-3.1
		C425.3,420.4,420,419.7,413.8,418.7z M250.6,531.4c-1.1-1.4-2.7-3.7-4.7-5.6c-1.6-1.5-3.5-2.8-5.5-3.7c-2.4-1.2-2.6-0.1-2.7,2.4
		c-0.2,3.1-0.9,6,0.5,9c0.2,0.5-0.6,1.4-0.7,2.2c-0.3,1.7-0.4,3.3-0.5,4.4C241.7,537,246.4,534.1,250.6,531.4z M302.5,594.1
		c4.5,1.2,6.9,2.8,5.4,7c-0.2,0.6,1.9,2.6,3.2,3c1.4,0.4,3.2-0.1,4.5-0.8c0.4-0.2,0.2-2.3-0.2-3.4
		C313.5,594.1,309.7,592.2,302.5,594.1z M240.7,624.1c-0.3,6.6,2.1,8.1,8,6.3C246.1,628.3,243.9,626.6,240.7,624.1z"/>
	<path d="M689.4,378.6c-0.1-1.1-0.1-2.6-0.2-4.1c-0.2,0-0.4,0-0.6-0.1c-0.1,1.1,0.2,2.4-0.4,3.2c-0.7,0.9-1.9,1.8-3,2
		c-1.1,0.2-2.3-0.5-3.7-0.8c0.1-1.7,0.2-3.7,0.3-5.7c-0.4,0-0.7-0.1-1.1-0.1c-0.2,1.8-0.5,3.5-0.8,5.9c-1.1-0.8-1.8-1.2-2.5-1.7
		c-0.8-0.6-1.5-1.5-2.3-1.6c-0.6-0.1-1.8,1-1.8,1.6c0,0.9,0.5,2.2,1.2,2.7c6.9,4.7,13.8,9.3,20.7,13.9c4.6,3,9.5,5.8,13.9,9.1
		c1.9,1.5,2.8,4.2,4.8,7.4c-2.2-0.7-3.2-0.9-3.5-1c-0.6,5.7-1.1,11.3-2.1,16.8c-0.1,0.7-3.6,1.8-4,1.3c-2.9-3.2-7.4-3.5-10.5-6
		c-1.9-1.5-3.5-3.4-4.9-5.5c-3.4-0.8-8.3,1.7-10.2-4.8c-1.6,3.2-2.9,5.9-4.2,8.6c-1,2.3,3.3,5.2-1.4,7.6c-0.2,0.1,1,3.2,1.6,5
		c-1.6,1.4-3.2,2.7-4.4,3.7c-2.9-0.9-5.4-1.8-8-2.6c-2.5-0.8-5.5-7.3-4.6-10.9c3.8-15.5,5.5-31.2,6-47.1c0.1-1.8,0.9-3.7,1.4-5.5
		c2,1.3,3.4,2.8,5,3c1.6,0.2,3.5-0.8,4.9-1.2c-1.7-1.9-3.1-3.3-4.7-5c-0.3,0.3-1,0.9-2.7,2.5c-1.3-4.6-2.4-8.4-3.6-12.5
		c0,0-0.8,0.2-2.1,0.5c0.2-4.9,0.6-9.6,0.7-14.3c0.1-5.2-0.9-10.6,0.3-15.5c1.7-7,5.7-13,12.2-16.9c6.7-4,13.8-4.3,21.1-2.1
		c3.5,1,6.1,3,7.9,6.6c2.7,5.3,6,10.2,7.8,16.1c1.9,6.2,2.4,11.9,1,20.2c-0.8,4.6,0.5,9.5-0.5,14c-0.8,3.4-3.2,7-5.9,9.4
		c-3.2,2.8-6.3,6.7-11.5,5.8C692.8,380,691.3,379.3,689.4,378.6z M696.6,366.2c4.2,2.6,6.1,0,7.7-2.8c8.2-14.7,5.3-29.2-1.3-43.4
		c-1.3-2.9-4.2-6-7.1-7.1c-14.7-5.4-27.3,2.7-29.3,17.2c-0.8,5.9,0.1,12.2,0.9,18.3c2.3,17.5,11,22.6,26.2,22
		C696,370.3,698.6,370.4,696.6,366.2z M666.1,429c1-5.8,2.1-11.5,3.1-17.3c0.6-3.5,1.4-7,2-10.5c0.3-1.9,0.6-3.8,0.9-5.7
		c1.8,0.9,3.7,1.7,5.5,2.7c3.2,1.9,6.3,4.4,10.6,0.8c-0.9,1.8-2,3.6-1.8,3.7c5.8,4.6,11.7,9,18.4,13.9c0.2-2.4-0.1-4.2,0.6-5.5
		c2.1-3.9,0.3-5.9-2.8-8c-7-4.7-13.7-9.7-20.7-14.4c-4.7-3.2-9.6-6.1-15.1-9.5c-0.6,6.6-0.7,12.4-1.6,18c-1.1,6.9-0.6,13.9-2.5,20.8
		C661.8,421.3,658.4,427,666.1,429z"/>
	<path d="M668.4,228.8c-2-6.8-2.5-13-6.4-17.7c-0.4,0.2-0.8,0.3-1.3,0.5c1.1,8.3,2.1,16.7,3.1,24.6c-3.7,4-5.5,9.8-12.8,10.2
		c-7.3,0.4-14.7-3.2-16.2-7.8c-0.8,0.7-1.7,1.4-3.2,2.7c-0.2-3-0.4-5-0.5-6.4c-0.9,0.8-1.9,1.6-3,2.5c-0.1-1.3-0.2-2.6-0.3-4
		c-0.1-1.1,0-2.3-0.9-3.5c-0.7,1.1-1.3,2.3-2.8,4.8c0-4.3,0-7.2,0-10.4c-0.8,1.5-1.4,2.6-2,3.8c-0.3-0.1-0.6-0.1-0.9-0.2
		c0.2-2.2,0.3-4.4,0.4-6.4c-0.8-0.5-2.3-1-2.4-1.6c-0.5-9.5-0.9-18.9-1-28.4c0-0.7,2-1.9,3.3-2.2c1.7-0.3,3.7-0.2,5.4,0.2
		c2.9,0.7,4.1,2.4,5.1,5.8c1.6,5.2-3.8,9.4-0.4,14.6c2.8,4.2,3.7,9.7,6.5,14c2.2,3.4,5.1,7.6,11.5,4.9c-3.2-5.8-6.6-11.2-9.3-16.9
		c-1.4-3-2.2-6.5-2.3-9.8c-0.1-5.3,0-10.6,1-15.8c1.8-9.4,10.6-12.6,18-6.2c10.3,9,17.1,20.4,19.8,33.9c0.5,2.2,4,6-1.7,7.1
		c-0.1,0-0.2,0.6-0.2,0.9C677.7,230,669.9,225.6,668.4,228.8z M670.8,217.9c3-1.4,2.9-3.8,2-6.6c-3.4-10.5-8.5-19.9-17.1-27.3
		c-2.4-2.1-4.3-4.1-7.8-2.7c-3.6,1.5-5.8,4.1-5.5,7.9c0.3,4.1,1,8.2,2.4,12c2.6,6.8,6,13.4,8.9,20.1c1.4,3.4,1.9,7.3-1,9.9
		c-2.9,2.6-6.2,4.2-10.7,1.6c-9.1-5.4-11.8-14.5-14.6-23.5c-1.5-4.9-1.2-10.4-1.6-15.7c-3.4-1.1-4.6,1.1-4.5,3.8
		c0.6,15.8,6.3,29.3,18.9,39.3c7.6,6,16.2,3,17.9-6.5c0.8-4.2,0.4-9.1-0.9-13.2c-2.2-6.7-5.5-13.1-8.5-19.6c-1.6-3.4-1-6.4,2.1-7.8
		c1.6-0.7,4.7,0.1,6.2,1.3C665.8,197.7,668,208,670.8,217.9z"/>
	<path d="M316.4,727.6c-2.3-1-3.9-2.2-5.3-2c-4.5,0.4-11-3.2-12.9-7.6c-0.5-1.2-1.4-2.3-2.2-3.3c-4.2-6-8.6-11.8-12.6-17.9
		c-1.1-1.7-1.2-4.1-2-7.3c-2.3,9.8-4.2,18.2-6.2,26.8c-4.8-1.4-9.4-2.2-13.5-4.2c-1.8-0.8-3.1-3.8-3.5-6c-0.3-2.3,0.2-5.1,1.4-7.1
		c2.2-3.9,2.5-7.5,0.8-11.5c-0.3-0.7,0.2-2.1,0.8-2.7c5.6-4.8,5.7-11.6,7.1-18c0.8-3.4,3.4-4.8,6.8-3.5c1.5,0.5,3.1,1.1,4.7,1.2
		c9.7,1,14.2,8,18.5,15.5c2.8,4.7,6,9.2,9.7,14.7c0.9-7.1,1.4-13.2,2.5-19.3c0.2-1.2,2.8-3,3.9-2.8c3.4,0.7,6.8,2.1,10,3.6
		c0.9,0.4,1.6,2.2,1.7,3.3c0,0.6-1.6,1.2-2.4,1.8c1,4.6,1.1,8.9-1,13.6c-1.2,2.8,0.2,6.7,0.5,10.8c-0.1,0-1.3,0.6-1.5,0.6
		c0,4.1,0,7.8,0,11.5C321.6,722.4,320.5,726.3,316.4,727.6z M268.8,707.7c1.1-3.4,2.3-6.3,3-9.4c1.3-5.5,2.3-11,3.5-16.5
		c0.6-2.5,1.2-5.8,4.5-5.2c1.8,0.3,3.3,2.7,4.6,4.4c1.1,1.4,1.4,3.3,2.5,4.6c6.7,8.2,12.5,16.9,17.5,26.2c1.1,2.1,2.5,4.2,4.1,5.9
		c0.6,0.6,2.7,0.9,3.1,0.5c1.1-1.2,2.2-2.9,2.5-4.5c1.5-10.3,2.8-20.5,4.1-30.8c0.3-2.1,0-4.2,0-6.2c-0.6-0.1-1.2-0.2-1.8-0.3
		c-0.7,1.2-1.9,2.3-2.1,3.6c-0.9,5.9-1.4,11.9-2.1,17.8c-0.4,3.4-3,4.9-5.8,3c-1.8-1.2-3-3.2-4.3-5c-2.3-3.2-4.3-6.4-6.5-9.6
		c-0.6-0.8-1.7-1.4-1.9-2.3c-2.1-11-9.7-15.5-20.2-17.6c-4,13.1-8,26-12,38.8C264.3,706.1,266.2,706.8,268.8,707.7z"/>
	<path d="M646.3,278.1c-1.6-8.8-3-16.6-4.4-24.6c0.1-0.1,0.5-0.8,0.8-0.8c9.4,2,16.3-4.6,24.5-6.9c5.7-1.6,10.9-4.9,16.5-6.9
		c1.4-0.5,4.4,0.7,5.2,2.1c1.7,2.6,2.5,5.9,3.6,8.9c0.9,2.5-2.6,9.2-5,10.3c-1.8,0.8-3.5,2.1-5.5,3.3c3.5,2.9,7.1,6.9,11.5,9.4
		c8.6,4.8,9.3,12.6,9.9,20.6c-1.6,0.9-2.9,1.5-4,2.4c-1.7,1.4-7.6,0.5-9.3-1c-2.7-2.5-4.6-7.5-9.8-3.9c-0.7,0.5-1.4,0.9-2,1.5
		c-1.9,1.7-4.1,3.2-5.6,5.2c-1.1,1.5-1.3,3.7-2,5.5c-0.4,0.9-0.9,2.6-1.4,2.6c-4-0.1-3.7,4.1-6,5.7c-1,0.7-1.6,2-2.5,3.3
		c-1.4-0.9-2.6-1.7-3.2-2.2c-1-5.7-1.9-10.9-2.7-16.2c-0.2-1-0.2-2.7,0.4-3c5.4-3.4,6.3-9.5,9.4-14.3c1.2-1.9,3.1-3.9,0.3-5.3
		c-2-1.1-5-1.7-7.1-1.1C654,273.7,650.6,275.9,646.3,278.1z M658.6,298.5c0.6,0.6,1.2,1.3,1.9,1.9c1.3-0.9,2.8-1.7,3.7-2.9
		c4.3-6,8.1-12.5,12.7-18.3c3.3-4.2,7.3-3.5,11.5,0.5c3.2,3,6.8,5.6,10.6,8.7c-1.1-7.1-5.6-10.9-10-14.7
		c-4.9-4.2-10.3-7.9-15.5-11.7c-2.8-2-3.2-4.1-0.3-6.3c1.3-0.9,2.7-1.8,4.2-2.4c3.5-1.4,7.1-2.7,10.7-4.1c-1.2-2.2-2.1-3.9-3.1-5.9
		c-12.8,4.7-25.3,9.3-38,14c1,2.9,2,5.8,3,8.8c2.3-0.9,4.2-1.7,6.2-2.3c2-0.6,4.1-1.4,6.1-1.4c4.7,0,11.6,5.3,10.7,8.3
		c-1.6,5.1-2.6,11.6-6.3,14.5C661.7,289.2,663.8,295.6,658.6,298.5z"/>
	<path d="M702.3,450c0.4,2.2,1.2,5.6,1.9,9.1c-0.5-0.1-1-0.2-1.4-0.3c-1.4,6.9-2.8,13.8-4.3,21.3c-0.6,0.3-1.8,0.9-3.4,1.7
		c4.7,7.8-4.7,11-5.3,17.2c-4.2,1.3-7.7,0.2-10.5-4c1.9-6.7,4-13.8,6.1-20.9c-0.5-0.3-1-0.7-1.4-1c-1.6,2-3.5,3.9-4.6,6.1
		c-1.4,2.8-0.1,6.5-3,9.2c-1.6,1.5-2.5,3.9-4.3,6.8c-3.4-2.2-7-4.1-10-6.7c-0.9-0.8-0.5-3.6,0-5.2c1.5-5.1,3.4-10,5.1-15.1
		c0.2-0.6,0-1.3,0-2c-1.7,0.3-3.4,0.7-4.8,0.9c-1.5,3.1-3.5,6.4-4.8,9.9c-1.3,3.3-2,6.8-3,10.3c-0.1,0.3,0.3,0.9,0.3,0.9
		c-3,1.2-6.2,3.5-9,3.1c-3.9-0.5-6.5-1.6-3.2-7.8c4.9-9.5,6.6-20.6,9.6-31.1c1.2-4.2,2.1-8.5,3.5-12.7c1.2-3.7,3.7-1.8,6-1.1
		C674.8,442.3,687.9,445.9,702.3,450z M693.6,465.1c-3.3,9.2-6.5,18.5-9.8,27.7c0.5,0.2,1,0.4,1.5,0.7c0.5-0.4,1.3-0.7,1.4-1.2
		c2.9-7.9,5.7-15.7,8.3-23.7c0.3-0.9-1-2.2-1.6-3.4c0.3-1.2,0.6-2.3,1-4.4c0.6,1.7,0.9,2.4,1.4,3.6c1.2-3,2.6-5.5,3.1-8.1
		c0.3-1.3-0.8-3.9-1.8-4.2c-4.4-1.5-9-2.5-13.6-3.5c-4-0.9-8.1-1.2-12.1-2.2c-4.3-1.1-8.5-2.8-12.4-4.1
		c-4.2,14.9-8.3,29.3-12.4,43.7c1.7-0.3,3.3-1.2,3.7-2.5c2.7-8.2,6.5-16.3,7.1-24.7c0.5-6.5,3.9-4.7,6.4-4.3
		c9.3,1.3,10.7,4.2,7.7,12.9c-2.1,6-3.8,12.2-5.6,18.4c0.5,0.4,1,0.7,1.4,1.1c0.9-1,2.3-1.8,2.8-2.9c2.4-6.5,4.7-13.1,7-19.6
		c1.4-4,3.5-6.2,7.9-4C688,461.8,690.8,463.5,693.6,465.1z"/>
	<path d="M559.6,641.4c-0.7-3.4-0.7-6.6-4.2-8.1c-2.5-1.1-6-9-5.4-11.5c-1.2-0.2-2.4-0.5-2.7-0.5c-0.4-2.2-0.7-3.8-0.9-5.4
		c-0.1-0.6-0.2-1.3,0-1.9c0.9-2.6,9.9-7.6,12.7-7.2c8.6,1.4,17.1,2.7,26.1,4.1c-1.5-7.6-2.6-15.3-4.8-22.7c-1.4-4.6,0.2-7.8,2.6-11
		c1-1.4,2.4-2.5,3.6-3.8c2.3-2.4,4.2-2.1,6.7,0.2c6.7,6.4,13.7,12.5,20.7,18.7c3.7,3.3,7.5,6.4,11.2,9.5c-1.9,4.5-3.8,8.8-5.6,13
		c-6-1.3-14.4,2.1-14.5-8.5c-2.9-1.6-5.8-3.1-8.7-4.7c-0.3,0.4-0.7,0.7-1,1.1c2.5,2,3.2,4.4,2.9,7.5c-0.3,3.1,0.4,6.3,0.9,9.5
		c0.9,5.8-0.3,8.7-5.5,9.3c-5.2,0.5-10.8,1.4-16-1.3c-0.7-0.4-2.1,0.6-3.2,1c2.9,3.7,5.9,7.2,8.3,11c1.6,2.4,2.3,5.1-0.5,7.8
		c-3.3,3.2-6.1,6.9-9.4,10.6c-3.6-6.4-10.9-9.6-10.3-17.6C561.7,640.8,560.8,641,559.6,641.4z M562.4,618.4c3.4,0,5.6-0.3,7.7,0.1
		c6.4,1.1,12.8,2.5,19.1,3.8c3.8,0.8,6.6-1.2,6-4.1c-2-9.6-4.1-19.2-6.1-28.7c3.8-2.3,7-1.1,10.2,2.9c3.9,4.7,7.9,9.2,12.2,13.4
		c1.1,1,4.3,1.2,5.7,0.3c2.2-1.4,3-3.6,0.2-6c-9.3-8-18.4-16.3-28.6-25.3c-2,3.8-5,7.1-5.3,10.7c-0.4,4.3,1.9,8.9,2.3,13.4
		c0.5,5.1,5.3,9.7,1.7,15.5c-1.6,0-3.5,0.3-5.3,0c-6.4-1.1-12.8-2.4-19.2-3.5c-4.4-0.7-9-1.8-12,3.9c7.4,11.2,15,22.7,22.5,34
		c7.8-3.9,7.8-3.9,3.1-10.4c-1.9-2.6-3.4-5.6-5.3-8.2C568.7,626.4,565.9,622.9,562.4,618.4z"/>
	<path d="M107.9,175c0,0,0.8,0.6,1.3,1.3c3.4,4,5.6,4.1,8.5,0c4.5-6.2,9.1-12.3,13.4-18.7c2.1-3.2,4.1-3,6.2-0.5
		c1.6,1.9,2.9,4,3.9,6.2c1.5,3.2-0.3,5.8-1.9,8.5c-1.3,2.2-1.7,5-3.3,6.9c-1.4,1.8-3.7,2.8-5.8,3.4c-1.9,2.6-3.8,5.2-5.7,7.8
		c-0.1-0.1-0.2-0.2-0.3-0.3c-1.3,2.2-2.6,4.3-4,6.4c-1.5,2.2-2.8,4.7-4.7,6.5c-4.1,3.8-7.2,3.4-11.1-0.5c-0.9-0.9-2.6-1-3.4-1.9
		c-1.6-1.9-2.8-4.1-4-6c0.2-0.2-0.5,0.6-1.3,1.6c-5.1-4.8-9.8-9.3-14.6-13.8c-1.3-1.2-3.3-1.6-4.5-2.9c-3.3-3.7-2.4-7.9,0-11.6
		c4.4-6.5,9.1-12.7,13.9-19c2.8-3.7,5.7-7.4,9-10.7c3.1-3.1,6.6-0.7,9.3,1.1c0.8,0.5,0.5,4.1-0.4,5.7c-3.3,5.7-7.2,11-10.8,16.6
		c-1.1,1.7-1.7,3.6-2.6,5.3c0.4,0.4,0.8,0.8,1.2,1.2c1.4-1.4,3.2-2.6,4.3-4.3c2.6-3.9,4.6-8.2,7.3-12c1.3-1.8,4.5-4.3,5.7-3.8
		c2.6,1.1,4.6,3.9,6.7,6.1c0.7,0.8,1,2,1.6,3.1C116.8,162.4,114.5,170.3,107.9,175z M133.6,159.6c-4.7,6.6-9.2,13.2-13.9,19.7
		c-3.9,5.4-8.2,5.5-14.8,0.4c-4.3-3.4-4.2-6.3,0-11.7c3.8-4.8,7.5-9.8,11.2-14.8c-2.6-3.4-4.4-1.3-5.8,0.8
		c-3.8,5.6-7.3,11.3-11.1,16.9c-0.5,0.7-2.2,1.7-2.5,1.4c-3-2-5.9-4.3-8.8-6.6c-0.3-0.2-0.2-1.2,0.1-1.6c2-2.9,3.9-5.9,6.1-8.7
		c3-3.7,6.3-7.1,9.2-10.8c0.7-0.9,0.6-2.4,0.9-3.7c-1.2,0.5-2.7,0.7-3.5,1.6c-2.2,2.1-3.9,4.7-6.2,6.8c-7.1,6.7-12,14.8-16.2,22.8
		c11.6,8.5,22.7,16.7,33.9,24.9c0.9-1,2-2,2.9-3.2c6.6-8.8,13.2-17.7,19.8-26.5C137.2,164.2,136.8,161.8,133.6,159.6z"/>
	<path d="M523.8,640.2c0.6,0.7,1.4,1.8,2.2,2.8c-2.2,1.4-4.1,2.6-6.1,3.9c0.3,0.5,0.6,0.9,0.9,1.4c6-4.1,12-8.3,18.4-12.7
		c5.7,0.9,6.3,6.7,9.2,11.2c-6.9,5.8-17.1,9-18.3,19.8c0.4,0.5,0.8,0.9,1.2,1.4c7.9-5.7,15.9-11.4,24.4-17.5
		c2.2,2.3,4.7,5.1,8.3,8.8c-3,2-5.9,4-9.1,6.1c0,5.7-6.8,5.5-9.8,9c-3.2,3.8-6.8,7.9-13,6.1c1,0.7,2,1.4,3.5,2.4
		c-5.7,2.5-10.8,5-16.2,7c-1.4,0.5-3.8-0.1-5.1-1c-0.9-0.6-0.5-2.9-1.2-4.2c-1.7-3.6-4-7.1-5.5-10.8c-2-4.9-3.3-10.1-5.6-14.8
		c-1.6-3.4-4.1-6.4-6.6-9.2c-2.7-3-2.7-4.7,0.7-6.8c9.5-5.7,19.1-11.3,28.6-17c1.3-0.7,2.4-1.7,3.5-2.7c3.1-2.9,6.1-3.1,8.9,0.2
		c2.5,3,3.4,5.9-1,8.5c-2.8,1.7-5.2,4.3-7.9,6.2C527.1,639.6,525.5,639.7,523.8,640.2z M518.9,684.5c3.8-2.3,8.1-4.8,12.3-7.6
		c8-5.3,16-10.6,23.8-16.1c1-0.7,0.9-2.8,1.3-4.3c-1.2-0.3-2.9-1.2-3.6-0.7c-4.1,3-8.8,5.7-11.8,9.7c-3.3,4.3-7.7,5.9-12.1,7.8
		c-1.2,0.5-3.8-0.3-4.5-1.4c-2.7-4-4.9-8.4-7.1-12.4c7.7-4.9,15-9.5,22.2-14.2c2.4-1.5,4.4-3.2,1-6.1c-2.8,1.9-5.4,3.8-8.2,5.6
		c-2.7,1.8-5.4,3.7-8.3,5.2c-9.6,5-8.4,6.8-14.3-4.8c-0.1-0.2,0.1-0.5,0.1-0.6c8.4-5.7,16.7-11.3,25-16.9c0-0.4,0-0.9-0.1-1.3
		c-1.5,0-3.3-0.6-4.3,0.1c-10.7,6.5-21.3,13.3-31.3,19.6C505.5,658.5,512.1,671.3,518.9,684.5z"/>
	<path d="M421,60.1c8.6,1.7,17.8,3.3,26.7,5.4c3,0.7,7.1,1.1,6.9,5.8c0,1.3-0.7,2.5-1.9,3.5c0,1.5,0.5,3.3-0.1,4.4
		c-0.7,1.2-2.5,1.6-4.3,2.7c-1.3-1.6-2.9-3.6-4.5-5.5c-3.4,2.4-15.7-0.1-19.3-3.9c-1.4,1.1-2.7,2.2-4.5,3.5c-0.8-2.4-1.3-4-1.4-4.2
		c-4.8-0.8-8.6-1.4-12.4-2c-0.1-0.5-0.1-1.1-0.2-1.6c-0.6,1-1.1,2-1.6,2.9c-2.6,0.1-5.7-5.9-5.1-9.4c2-12.1,3.9-24.1,5.8-36.2
		c0.1-0.9,0.2-1.8,0-2.7c-0.7-3.1,0.4-4.8,3.6-4.5c6,0.5,12.1,0.9,18.1,2.1c10.2,2,20.2,4.6,29.9,6.9c0,3.9,0.2,7.1-0.1,10.3
		c-0.1,1-1.8,2.7-2.5,2.6c-3.6-0.8-7-2.1-10-3c-1.5,0-2.7,0.2-3.7,0c-2.3-0.4-4.5-3.1-6.9,0.1c-0.9-1-1.8-2-2.3-2.5
		c-2.2,1.3-4.4,2.5-7,4c8.5,1.7,16.5,3.2,25.1,4.9c-0.5,3.8-0.9,7.3-1.4,11.3c-6.6,1.9-13.2,3.3-20.3,0
		C426,54.1,420.4,52.7,421,60.1z M453,29.3c-13.9-2.8-28-5.6-42.9-8.5c-2.4,14.7-4.6,28.6-6.9,42.6c15.8,3.7,31,7.2,46.2,10.8
		c0.4-0.6,0.8-1.3,1.2-1.9c-0.9-0.9-1.7-2.4-2.8-2.7c-9.6-2.5-19.2-4.7-28.8-7.2c-5.8-1.5-7.2-4.4-5.7-10.3c1.4-5.5,3-6.3,8.7-5.1
		c6.2,1.3,12.5,2.2,18.6,3.7c2.4,0.5,4.5,1.1,4.6-1.9c0-1.1-2.5-2.8-4-3.1c-8.3-1.7-16.7-3-25.1-4.5c0-3.8,0-7.1,0-10.5
		c0-4.1,1.3-5.3,5-2.7c1.3,0.9,3,1.2,4.6,1.5c9,1.7,18.1,3.3,27.2,4.9C453,33.6,453,32.2,453,29.3z"/>
	<path d="M361.3,48.6c-4.6,3.4-7.9,6-11.6,8.7c0.2,1.4,5.2,2.8,0.2,5c1.2,1.3,2.1,2.4,4.3,4.9c-3.5,0.5-5.8,0.9-8.2,1
		c-1.5,0.1-3.2-0.7-4.7-0.5c-7.9,1.4-10.3-1.5-9.5-9.4c0.7-6.7,0.1-13.6-0.4-20.3c-0.5-6.5-1.8-13-2.1-19.5c0-1.4,3.1-4.1,4.7-4.1
		c4.5,0,9.1,0.8,13.5,2c1.3,0.4,2.6,3.1,2.7,4.8c0.1,2.7-0.8,5.3-1.3,8c0,0.3,0.5,1,0.8,1.1c1.2,0.1,2.6,0.5,3.5,0
		c2.8-1.7,5.3-3.8,7.9-5.8c2.5-2,4.9-4,7.2-6.2c6-5.5,13.5-6.2,19.6-2.3c-0.4,2.3-0.2,4.6-1.2,6.2c-0.5,0.8-3,0.4-4.9,0.6
		c-0.1-0.2,0,0.7,0.4,1c3,1.8,2.1,3.4,0.2,5.4c-1.9,1.9-4.1,3.9-5.3,6.2c-3.4,6.6-1.7,10.8,5.3,17.1c3.5,3.1,6.8,6.7,9.3,10.6
		c1.7,2.7-1.2,3.8-3.7,4.2c-2.1,0.3-4.2,0.6-6.3,1c-3.8,0.8-9.6-2.1-11.5-5.4C367.6,58.2,364.5,53.6,361.3,48.6z M377.9,16.8
		c0.7,0.6,1.3,1.1,2,1.7c-0.5-0.3-1.3-1.1-1.6-1c-10.6,7.2-21.1,14.4-31.7,21.7c-5.7-5.7-4.1-13.2-4.5-20.2
		c-8.1-2.3-8.5-1.1-7.9,5.3c0.6,6.4,1.5,12.9,1.9,19.3c0.3,5.7,0.1,11.5,0.1,17.5c2.9,0,5.2,0,8,0c0-4.4-0.1-8.6,0.1-12.7
		c0-1.2,0.4-3.1,1.1-3.5c2.8-1.5,5.9-2.8,9-3.5c1.7-0.4,4.2,0,5.3,1.2c4.6,4.8,8.9,10,13.3,15c2.7,3,5.9,4.1,10.1,3.1
		c-0.4-0.9-0.6-1.4-0.8-1.7c-5.2-6.9-10.5-13.8-15.7-20.7c-2.1-2.8-2.2-5,0.8-7.9C371.5,26.4,374.5,21.3,377.9,16.8z"/>
	<path d="M515.1,50.1c3.9,2.5,8.7,5,12.6,8.5c3.3,3.1,1.8,7.4-0.5,10.8c-2.8,4.1-2.9,7,1.9,9.5c5.2,2.7,10,5.9,16,9.3
		c2.2-3.9,4.5-7.2,6.1-10.8c2-4.5,3.3-5.2,7.2-2.2c2.6,2,5.7,3,6.5,7.6c1.2,6.5-1.8,11.1-5.1,14.7c-4.1,4.4-6.2,9.8-9.6,14.6
		c-2.9,4-5.5,8.2-8.9,13.3c-7.7,1-10.7-5.7-13.8-12.6c5.4-3.5,10.9-7.7,7.8-15.7c-3.3-0.8-6.9-1.6-10.9-2.6c-0.2-0.8-0.5-2.1-1-4.2
		c-3.4,3-8.7,0.1-10.9,5.8c-1.4,3.5-4.7,6.3-7.5,9.9c-1.1-1.7-1.8-2.9-2.5-3.9c-0.6,0.4-1.4,1.2-1.9,1.1c-4.4-1.7-7.7-4.7-9.4-9.1
		c-0.3-0.7,0.1-1.9,0.6-2.6c2.8-3.7,6.3-7,8.4-11.1C505.5,70.9,509.9,61,515.1,50.1z M561.1,81.4c-1.5-1-3.3-2.1-5.4-3.5
		c-1.9,3.3-3.6,5.9-5.1,8.6c-2.1,3.7-4.8,5.2-8.8,3c-7.8-4.3-15.6-8.7-23.3-13.2c-0.8-0.5-1.4-1.9-1.6-3c-0.4-2.4-0.6-4.8-0.7-6.1
		c2.2-2.6,4.1-4.9,6-7.2c-1.5-1.1-3.1-2.3-4.8-3.5c-7.1,12.9-13.7,24.9-20.6,37.3c2.9,1.2,5.5,2.3,7.9,3.3c2.6-5.1,5.1-9.8,7.4-14.6
		c1.2-2.4,2.5-2.7,4.7-1.4c3.6,2.1,7.3,4,10.9,6.1c3.1,1.8,6.3,3.4,9.2,5.5c3.1,2.2,5.5,5.3,3.8,9.3c-1.3,3.2-3.9,5.8-5.3,9
		c-0.5,1.1,0.8,3.2,1.7,4.5c0.2,0.3,2.7-0.1,3.2-0.8c3.1-4.3,6-8.7,8.8-13.2C553.1,95.2,556.8,88.7,561.1,81.4z"/>
	<path d="M189.7,107c-5.5-10.7-10.9-21-17-32.7c3-5,11.8-5.1,16.3-11.5c11.2,5.3,22.2,10.6,33.2,15.8c0.4-0.3,0.8-0.5,1.2-0.8
		c-0.6-1.2-1.1-2.6-1.9-3.7c-3.6-5.4-7.9-10.5-10.8-16.3c-1.1-2.2-1.7-6.9,3.1-8.5c3-1,5.8-2.6,9.1-4.2c0.8,1.6,1.7,2.9,2.2,4.5
		c4,12.2,9.1,24,16.4,34.6c2.9,4.2,0.3,9.2-4.6,10c-2.1,0.4-4,2.3-6.1,3c-8.6,2.6-16.7,2.1-24.1-3.7c-1.5-1.2-3.8-1.5-6.9-1.6
		c1.4,2.6,2.9,5.2,4.3,7.8c1.5,2.8,5,6.6,4.1,8.1c-2,3.5-5.6,6.5-9.2,8.7c-3,1.8-8.3-6.2-7.1-10.9
		C191.1,106.2,190.4,106.7,189.7,107z M188.7,79.7c1.5-0.2,2.3-0.5,2.8-0.3c8,2.9,16.3,5.2,23.9,8.9c5.7,2.8,10.8,4.4,17,2
		c6.5-2.5,5.2-3.2,3.1-7.5c-4.3-8.8-10.3-16.9-12.4-26.8c-0.4-2-1.3-3.8-2.1-5.8c-2.1,1.1-3.7,2-5.4,2.9c3.6,6.7,7.4,13.1,10.5,19.9
		c1,2.3,0.5,5.7-0.5,8.1c-0.4,0.9-4.6,1-6.4,0.1c-7.5-3.5-14.6-7.8-22.1-11.3c-2.3-1.1-5.5-2-7.7-1.2c-4,1.4-7.5,4.1-10.9,6.1
		c7.3,11.6,14.4,22.7,21.7,34.2c0.5-0.2,2.3-0.9,3.9-1.5C198.8,98.2,193.9,89.3,188.7,79.7z"/>
	<path d="M157.1,153.5c-0.7-1.2-1.2-2.2-1.7-3.2c-0.3,0.1-0.5,0.1-0.8,0.2c0,2.3,0,4.6,0,6.9c-2.9-0.3-5.8-0.6-7.8-0.8
		c-1.2-1.4-2.3-2.5-3.3-3.8c-1.8-2.3-3.5-4.6-5.3-7c-2.1-2.9-4.2-5.7-6.3-8.8c0.2-0.2-0.6,0.6-1.9,1.6c-2.4-4.5-4.7-8.8-6.9-12.9
		c0,0-0.6,0.6-1.7,1.6c-1.2-3-4-6.7-3.1-8.3c2.3-4,6-7.5,9.7-10.4c1-0.8,4.6,0.7,6.2,2.1c2.3,2.1,3.8,5,6.5,8.7
		c1.7-5,3.3-8.9,4.4-12.9c1.3-4.6,2.1-9.3,3.3-13.9c0.2-0.8,0.9-1.7,1.6-2.3c2.8-2.3,5.5-4.6,8.5-6.7c0.9-0.7,2.7-1.4,3.4-0.9
		c1.1,0.6,2.3,2.3,2.2,3.4c-0.1,2.2-1.3,4.3-1.4,6.5c-0.1,1.6,0.8,3.2,0.4,4.6c-1,3.9-2,7.8-3.2,12.8c11.1,1.5,21.8,3,32.4,4.5
		c0.1,0.6,0.2,1.2,0.3,1.8c-4.2,3.2-5.1,9.9-12.2,11.3c0,0.2-0.2,1.3-0.4,2.7c-8.8-0.7-17.4-1.4-26.1-2.1c-1.3,5.8,1.7,8.6,5.8,10.9
		c3.3,1.9,2.8,7.7,0.1,11.1C159,151.2,158.2,152.1,157.1,153.5z M123.2,117.7c9.6,10.4,18.7,20.2,27.9,30.1c2-1.7,4.2-3.6,5.9-5.1
		c-2.8-3.2-5.3-5.9-7.6-8.8c-3.7-4.6-2.8-10.1,2.8-11.7c4.5-1.2,9.5-0.4,14.3-0.2c6.5,0.3,13.3,1.9,18.9-4c-0.7-0.3-1.1-0.6-1.6-0.6
		c-9.1-1.4-18.1-2.8-27.2-4c-4.3-0.6-4.4-2.8-3.3-6.1c1.8-5.5,3.4-11,5.1-16.5c-0.6-0.2-1.2-0.5-1.9-0.7
		c-9.1,9.3-8.3,22.9-13.6,33.9c-6.6-1.2-8.6-7.4-12.8-11.8C127.8,114.1,125.3,116.1,123.2,117.7z"/>
	<path d="M441.7,664.7c2.7-1.5,4.9-2.7,7.2-3.9c2.8-1.4,7.9,0.4,8.9,3.6c4,12.9,7.9,25.8,11.4,38.8c1.4,4.9-2.3,10-7.7,11.7
		c-3.1,1-9.4-2.7-10.1-6.2c-0.6-3.1-0.7-6.3-1.1-9.9c-6.5-0.8-13.2,1.1-19.4,5.2c-3.1,2-4.4,4.4-3.3,8c0.6,2.2,1.1,4.4,1.4,6.6
		c0.1,0.7-0.3,2-0.7,2.1c-4.2,0.8-7.6,4.8-12.7,2.4c-6.8-3.2-7.3-3.5-7.2-11.7c0.1-3.7,0.2-7.4-0.2-11c-0.2-1.5-2-2.7-3.3-4.3
		c2-7.2-0.2-14.4-3.5-21.4c4.9-4.5,14.4-5,16.9-0.8c0.7,1.2,0.9,2.7,1,4.1c0.6,5.1,3.1,6.7,7.8,5.3c3.3-0.9,6.6-1.5,10-2
		c5-0.6,7.3-2.9,6.7-7.5C443.3,670.6,442.3,667.3,441.7,664.7z M424.3,716c-1.2-4.8-2.1-9.7-3.5-14.4c-1.1-3.5-0.6-5.9,3-7
		c6.9-2.1,13.9-4.3,20.9-6.2c7.1-1.9,8.2-0.8,9.7,6.5c0.7,3.3,2.4,6.6,4.3,9.4c0.8,1.2,3.5,1.1,5.3,1.6c0.2-1.6,0.9-3.4,0.5-4.9
		c-3-10.5-6.1-21-9.3-31.5c-1.9-6.3-3-6.6-8.7-2.7c1,2.7,1.9,5.5,3.1,8.2c1.5,3.3,0.4,5.7-2.8,6.6c-9.1,2.6-18.2,5-28.2,7.6
		c-1.4-5.1-2.7-10-4.1-15c-1.1,0-2.2,0.1-3.1,0c-4.3-0.6-5.4,1-4.2,5.3c1.7,6.2,2.6,12.7,4.1,19c1.5,6.3,3.2,12.5,4.8,18.6
		C419.1,716.7,421.3,716.4,424.3,716z"/>
	<path d="M39.1,328.5c-5.5-3.9-10.6-4.7-16.3-3.4c-4.2-3.9-5.1-12.9-0.8-16.5c1.3-1.1,4.5-0.3,6.7,0c5.6,0.8,11.2,2,16.8,2.7
		c6.7,0.9,13.4,1.4,21.2,2.2c0.3,5.2,0.7,10.4,1,14.8c-3.5,3.6-6.6,6.8-9.8,9.9c-3.3,3.3-6.5,6.8-10.2,9.7c-0.9,0.7-3.3-0.7-5.1-1.1
		c-0.3,0.3-0.7,0.7-1,1c1.7,0.3,3.4,0.6,5,0.9c-0.5,0.7-0.9,1.4-1.4,2.1c-1,0.4-1.9,0.8-2.9,1.2c-0.1,0.3-0.2,0.7-0.3,1
		c2.6,0.5,5.3,1.2,7.9,1.4c2.6,0.2,5.3-0.2,8,0.1c1.4,0.2,3.5,0.9,3.9,1.9c1.1,3.1,2.5,6.6,2,9.5c-0.7,3.6-3.6,4.9-8,4.2
		c-4-0.7-8.3,1.2-12.5,1.2c-8,0-16.1-0.2-24-1.2c-2.7-0.3-5.2-3.1-4.5-6.9c0.6-3.5,0.8-7.1,1.4-10.7c0.9-5.5,4.8-8.8,8.7-12.1
		C29.5,336.7,33.9,332.9,39.1,328.5z M22.5,316.4c0.9,0.4,1.4,0.8,2,0.9c6.9,0.7,13.7,1.3,20.6,2.1c1.4,0.2,3.5,1.1,3.9,2.1
		c0.5,1.2-0.1,3.5-1,4.4c-5.5,5-11.3,9.8-17.1,14.4c-7.3,5.8-13.7,12-12.1,22.9c13.4,0.7,26.8,1.3,40.1,2c1.1-7.7,1-7.8-5.2-7.9
		c-5.8,0-11.7,0.2-17.5-0.1c-1.7-0.1-3.3-1.3-4.9-2.1c0.7-1.4,1-3.2,2.1-4.3c7.5-7.3,15.2-14.4,22.5-21.8c3-3,7.5-5.6,6.2-11.4
		c-1.6-0.4-3.3-1.1-5-1.3c-7.7-1.1-15.5-2-23.2-3.1C29.7,312.8,25.3,310.4,22.5,316.4z"/>
	<path d="M36.4,412.9c-0.6-7.3-0.9-14.7-2-22c-0.9-6.1,1.7-9.1,7.5-7.5c1.2,0.3,2.8,1.6,3.2,2.8c1.3,4.4,2.3,8.9,3.2,13.4
		c0.2,1.2-0.3,2.6-0.4,3c1.5,2.7,2.7,5,4,7.2c1.1-0.3,2.2-0.6,3.9-1.1c-0.8-6.4-1.6-12.7-2.3-19c-0.2-2.1-0.2-4.3-0.2-6.5
		c0.1-5.6,5-5.1,8.2-5.6c2.8-0.4,3.2,2.3,3.2,5.1c0.1,5,1.1,10,1.5,15c0.9,10.3,1.8,20.7,2.6,30.8c-2,0.8-4,1.7-4.8,2
		c-3.8,0.6-6.3,1-8.9,1.5c-0.8,0.1-1.8,0.8-2.4,0.6c-6.3-2.5-11.9,1.5-17.9,1.6c-4,0-7.9,1.5-12.2-0.2c-4.1-1.6-4.2-4.5-4.5-7.7
		c-0.5-5.6-0.7-11.3-1-16.9c-0.5-9.1-1-18.1-1.5-27.9c3,0,5.4-0.6,7.4,0.2c1.9,0.7,4.6,2.6,4.7,4.1c0.6,6.9,0.7,13.9,0.6,20.8
		C28.5,410.1,31.9,413.4,36.4,412.9z M59.8,381.4c-0.7,0.1-1.5,0.1-2.2,0.2c-1.7,6.5-0.2,12.9,0.9,19.4c0.7,4,3.1,8.7-1.7,11.4
		c-2.9,1.7-6.7,2.2-10.1,2.6c-1,0.1-3.1-1.8-3.3-3c-0.9-7.3-1.4-14.6-2.2-21.8c-0.1-1-1.1-1.8-1.7-2.7c-0.4,0.9-1.2,1.9-1.2,2.8
		c0.2,5.7-0.2,11.5,1.2,17c1.4,5.8-0.7,8.2-5.5,9.9c-3.7,1.3-8.4,0-8.6-2.8c-0.8-8.5-1.4-17-2-25.5c-0.1-1.4-0.2-2.8-0.3-4.2
		c-0.5-0.2-1-0.3-1.5-0.5c-0.7,1.6-2.1,3.2-2,4.8c0.5,12.3,1.2,24.6,2,37c0,0.7,1.9,2,2.9,1.9c13.2-1.4,26.4-3,40.3-4.6
		C62.9,409.1,61.3,395.3,59.8,381.4z"/>
	<path d="M77.5,190.6c-0.6,2.6-1.4,4.2-1.1,5.5c0.6,3.9-1.4,6.5-3.8,9.1c-0.5,0.5-1.4,0.7-1.6,1.3c-2.4,6.6-2.4,6.6,4.3,10.4
		c7,3.9,14.1,7.8,21.9,12.1c0,7.1-3.9,14-8.3,21.2c-10.1-5.3-20.8-10.9-32.2-16.9c-3.1,6.3-6.6,13.5-10.3,20.9
		c-10.6-9.1-7.2-15.4-2.9-24.5c6.4-13.6,13.8-26.8,20.8-40.1c0.5-0.9,1.6-2.3,2.2-2.1C70.4,188.4,74.1,189.6,77.5,190.6z
		 M71.8,191.2c-7.1,0.8-8.2,6.2-10.2,9.9c-5.5,9.7-10.4,19.8-15,29.9c-1.7,3.7-4.5,7.6-1.8,13.6c2.2-5.2,3.8-9.1,5.5-13.1
		c3.4-7.9,4.6-8.5,12.7-5.1c4.9,2.1,9.5,4.8,14.2,7.3c11.2,6,11.2,6.1,15-1.9c0.1-0.2-0.1-0.6-0.1-0.9c-10.7-6-21.3-11.9-32.4-18.1
		C63.7,205.6,67.5,198.8,71.8,191.2z"/>
	<path d="M115.2,609.3c-1.3,2.5-3.1,6-5.4,10.3c-7.5-3.9-12.7-9.7-13-18.6c5.9-4,12-7.5,17.4-11.9c2.9-2.3,4.8-5.9,6.9-9.1
		c0.9-1.4-2.9-8.5-4.7-9.3c-2.1-1-7.4-8.9-7.1-10.8c0.1-0.8,0.6-1.6,1.1-2.2c3.1-3.4,11.7-2.3,14.8,1.3c7.6,8.9,15.4,17.5,23.2,26.3
		c2.3,2.6,5.9,4.9,6.8,7.9c1,3.2-0.3,7.2-1.2,10.7c-0.4,1.4-2.5,2.9-4.1,3.2c-3.5,0.6-10.4-4.2-11.7-7.6c-0.7-1.8-6.8-2.4-8.7-0.6
		c-3.7,3.4-7.2,7-10.9,10.3C118.2,609.8,116.8,609.3,115.2,609.3z M150.9,599.8c1.6-6-3.2-9.3-5.9-12.9
		c-5.8-7.5-12.3-14.4-19.1-21.1c-2.9-2.9-4.1-10.4-10.5-6.2c3.9,4.7,8.2,9.2,11.7,14.3c1.1,1.6,0.9,5.6-0.4,7
		c-5.6,6.1-11.8,11.7-17.8,17.5c-1.7,1.6-5,2.8-5.1,4.4c-0.1,1.9,2.3,4,3.7,6c0.2,0.2,0.5,0.3,1.2,0.6c4.4-4.5,8.8-9.2,13.3-13.8
		c1.2-1.4,2.9-2.6,4.6-3.8c2.1-1.5,4.1-3.4,6.4-4.4c1.8-0.8,4.8-1.3,5.9-0.4C143.1,590.9,146.9,595.4,150.9,599.8z"/>
	<path d="M180.1,655.9c1.3,6.9,2.4,12.5,3.7,18.7c-4.2-1-7.4-1.3-10.1-2.5c-1.8-0.8-3.5-2.7-4.3-4.6c-1.6-3.8-2.6-7.9-3.6-11.9
		c-1.4-5.9-12.6-10.8-16-6.5c-1.5,1.9-2,4-4.5,3c-1.8-0.7-3.1-2.6-4.7-4c-1.8-1.6-3.6-3.4-5.6-4.9c-3.6-2.8-3.5-5.1-0.2-8.3
		c8.5-8.2,16.7-16.5,25.1-24.8c0.5-0.5,1-1,1.2-1.5c2.2-6.1,2-5.6,8.3-2.9c4.6,1.9,7.4,5.2,10.5,8.6c3.6,3.9,8.2,6.9,11.7,10.9
		c4.3,5,6.8,10.9,4.5,17.7c-1.2,3.5-2.8,6.9-4.3,10.2C190.7,655.5,183.2,658,180.1,655.9z M175,666.9c0.7-0.2,1.4-0.4,2.2-0.7
		c-0.3-2.7-0.3-5.5-1-8c-0.8-2.7-2.3-5.1-4-8.5c2.9-0.4,5.3-1.4,7.5-1c8.2,1.6,15-6,12.7-14.1c-1.6-5.7-5.7-9.4-9.6-13.1
		c-3.8-3.7-8.5-6.5-12.7-9.7c-4.6-3.5-5.3-3.4-8.6,1.3c-2.1,2.9-4,5.9-6.5,8.4c-5.5,5.4-11.4,10.5-16.8,15.4
		c2.4,2.6,4.3,4.6,6.2,6.7c2-2.2,3.8-4.5,5.9-6.4c0.9-0.8,3-1.6,3.7-1.1c5.3,3.4,10.6,7.1,14.3,12.3c1.2,1.7,0.2,4.6,1.1,6.7
		C170.9,659,173.1,662.9,175,666.9z"/>
	<path d="M619.2,140.9c-1.8,3.2-3.6,7.5-6.4,11c-3,3.7-6.9,6.5-10.8,10.2c-0.5-1.9-0.8-2.9-1.2-4.3c-0.9,5.3-0.9,5.3-6.9,6.1
		c-9.2,1.3-15.8-2.8-23.1-8.8c-7-5.9-8.3-14.6-13.6-21c-2-2.4-5.4-3.7-7.9-5.8c-1.5-1.3-2.5-3.1-3.8-4.6c2-1.1,4-2.2,5.9-3.3
		c1.7-1,3.6-1.9,4.7-3.4c2-2.5,3.4-5.5,5.2-8.2c9-13.7,28.9-11.5,37.9-2c4.9,5.2,10.4,9.7,12.9,16.8c0.6,1.7,3.4,2.5,4.9,3.9
		c3.4,3.1,6.7,6.3,9.9,9.6c0.3,0.4-0.4,2.6-1,2.8C624.1,140.5,622,140.6,619.2,140.9z M550.7,124.6c1.7,1.4,2.6,2.7,3.5,2.7
		c6.1,0,6.7,5.1,9.1,8.8c2.8,4.3,6.5,7.8,9.7,11.8c7,8.7,15.9,11.2,25.3,5.5c4.8-2.9,9.6-7.4,12-12.3c2.3-4.7,4.6-6.4,9.7-6.5
		c-2-1.9-4.1-3-6.1-4.3c-1.4-0.8-3.2-1.5-4-2.8c-3.1-4.7-5.5-10-8.9-14.5c-5.5-7.4-13.7-11.5-22.5-10.4c-9.3,1.2-17.3,6-18.5,17.2
		c-0.1,1.2-2.3,2.5-3.7,3.3C555,124,553.2,124,550.7,124.6z"/>
	<path d="M351.1,674.6c8.6,0.6,17.3,0.8,25.9,1.9c5.1,0.7,9.5,3.2,12.3,8.3c3.2,5.9,6.4,11.8,5.9,18.5c-0.8,10.2-3.7,19.7-14.1,24.5
		c-0.5,0.2-1.1,0.1-1.7,0.1c-3.1,0.2-6.2,0.4-9.3,0.4c-9.1,0-18.3,0.1-27.4-0.1c-3.3-0.1-6.7-6.3-6.5-10c0.6-11.6,1-23.3,1-35
		c0-6.3,0.7-7.6,6.9-7.9c2.3-0.1,4.7,0,7,0C351.1,675.1,351.1,674.8,351.1,674.6z M341.4,720c4.7,0.4,9.7,1.3,14.8,1.2
		c5.2-0.1,10.4-1.1,15.5-1.8c1.3-0.2,2.8-0.3,3.7-1.1c5.6-4.7,11.2-8.9,12.1-17.5c1-9.8-3.5-20.1-13.5-21.7
		c-9.2-1.5-18.9-0.5-28.3-0.3c-3.4,0.1-4.3,3-4.4,5.9c-0.1,2.7,0.1,5.5,0.1,8.3C341.4,701.9,341.4,710.8,341.4,720z"/>
	<path d="M252,682.4c2.6,4.5-1,7.4-2.9,10.2c-5.4,7.7-13,11.1-22.6,9.8c-8.3-1.1-15-5.2-21.4-10.5c-10.2-8.5-14-19.1-10.7-31.8
		c2.2-8.8,13.2-21,26.3-16c6.9,2.6,14.4,4.1,21,7.3c7.6,3.7,12.1,10.2,11.7,19.3c-0.1,2.3,1.3,4.7,1.5,7.1c0.1,1.5-0.8,3-1.2,4.6
		C253.1,682.3,252.5,682.3,252,682.4z M226.9,694.4c10.3,1.6,21-9.9,22.3-18.9c0.8-5.3-5.5-8.9-2.8-14.3c-3.5-3.1-6.9-6.2-10.5-9.1
		c-1-0.8-3.3-0.1-4.2-1c-6.8-6.5-15.1-6.1-22.7-3.8c-12.3,3.8-16.5,23.3-9.4,32.4C206.3,688.2,214.8,695.2,226.9,694.4z"/>
	<path d="M39.3,501.2c-2-1.3-3.6-2.3-5.9-3.7c1.8-0.8,2.8-1.3,4.1-1.9c-3.6-2-3.6-5-4.4-8.3c-1.3-6.2-2.5-12.5-3.4-18.8
		c-1.5-10.2,3.5-18.2,12.2-24.1c5.7-3.8,17.1-1.9,23.5,2.7c7.2,5.1,9.5,12.9,12.2,20.4c1.8,5,3.1,10.2,4.7,15.3
		c2.7,8.4,0.1,11.3-8.6,12.8c-7.4,1.3-16.4,2.6-21.3,7.4c-5,4.9-8.7,1.6-12.8,2.1C36.1,505.6,37.6,503,39.3,501.2z M79.5,485.8
		c-1.8-6.7-2.8-13.6-5.6-19.7c-3.8-8.4-6.8-17.4-18.1-20.1c-9.1-2.2-20.6,5.2-21.3,12.6c-0.6,6.7-0.3,13.7,1,20.3
		c1.4,6.8,4.6,13.2,7,19.8C55.3,494.2,67.2,490.1,79.5,485.8z"/>
	<path d="M632.3,171.1c0,2,0,3.8,0,4.9c-2.4,2-4.2,3.6-6.4,5.5c-0.4-1.2-0.7-2.1-1.3-3.9c-0.2,2.2-0.4,3.7-0.6,5.7
		c-1.2-0.2-2.2-0.5-2-0.4c-7.2,2.3-7.2,12.7-15.8,12.3c-1.6-2.8-2.9-5-4.2-7.3c-1.8-3.3-3.8-6.6-5.3-10c-0.4-0.8,0.5-2.9,1.4-3.5
		c5.8-3.6,11.9-6.7,17.6-10.4c5.1-3.3,9.8-7.1,14.6-10.8c1.2-0.9,1.8-2.6,2.7-3.8c6.1,1.7,12.4,10.5,11.1,15.8
		c-0.3,1.1-1.9,1.8-2.7,2.8c-0.8,0.9-1.3,2.1-2.2,2.9c-1.4,1.2-2.9,2.4-4.5,3.2C634.5,174.3,633.2,172.4,632.3,171.1z M607.3,185.3
		c10.3-8.3,20.2-16.2,30-24c-0.1-0.2,0.4,0.5,0.8,1.2c0.5-0.3,0.9-0.6,1.4-0.8c-1.5-2.5-3-5-4.7-7.8c-11,8.5-21.4,16.5-32.1,24.7
		C604,180.4,605.7,182.9,607.3,185.3z"/>
	<path d="M482.7,649.5c0.3,1.3,0.5,2.7,1,3.9c5.2,11.4,10.4,22.9,15.6,34.3c0.4,0.9,0.7,2,1.4,2.6c2.8,2.2,2,3.6-0.2,6
		c-3.2,3.6-5.6,7.5-11.3,7.9c-2.8,0.2-4.9-0.2-5.9-2.4c-1.6-3.6-2.4-7.4-3.7-11.1c-3.4-9.5-6.7-19.1-10.6-28.5
		c-1.5-3.6-1.8-5.7,2.6-7c3.2-1,6.1-2.6,9.2-4C481.4,650.6,482.1,650.1,482.7,649.5z M474.2,658.1c1,3,2,6,3.1,8.9
		c3.3,9.1,6.5,18.2,10.2,27.2c0.5,1.2,3.9,2.6,4.6,2.1c1.9-1.4,6.4-1.9,4.7-5.5c-4.7-10.2-10.5-20-14.8-30.4
		C479.8,655.1,477.6,656.5,474.2,658.1z"/>
	<path d="M245.8,68.4c-1.9,0.7-1.3,0.6-2-2.2c-1.6-5.5-3.9-10.7-6-16c-0.2-0.6-0.4-1.2-0.5-1.8c-0.5-1.9-1-3.9-1.5-5.8
		c-0.7-0.2-1.4-0.5-2-0.7c2.1-1.2,4-3,6.2-3.6c11.3-3.3,11.1-3.2,14.2,7.4c2.4,8.2,5.2,16.4,8.1,24.5c0.6,1.7,2.5,3,3.6,4.6
		c2.1,2.9,2.5,5.9-1.2,7.7c-4.6,2.3-8.8,6-14.4,5.4c-0.7-0.1-2-1.5-1.9-1.7c2.4-4.2-1.7-7.3-1.6-11.2
		C246.9,72.8,246.2,70.7,245.8,68.4z M261.1,77.9c-4.8-13.1-9.4-25.6-14.1-38.6c-2,0.7-4.4,1.6-6.8,2.5
		c5.3,13.1,10.3,25.7,15.6,38.6C257.5,79.7,259.7,78.6,261.1,77.9z"/>
	<path d="M580.3,550.4c1.2,0.3,1.9,0.4,3.2,0.7c-0.7-1.7-1.2-3.1-1.7-4.4c6.1,2.3,6.1,2.3-3.3,15.6c-1.4-1.1-1.4-1.1,0.2-8.4
		c0.7,0.4,1.4,0.8,2.2,1.2C580.7,553.5,580.5,552.1,580.3,550.4z"/>
	<path d="M374.6,610c1.5,2.2,3.4,4.2,4.5,6.5c1.9,3.9,4,6.5,8.5,3.2c0.5-0.4,1.5-0.1,2.6-0.2c-1.1,3.8-3.7,4.1-6.7,4.2
		c-3.2,0.2-5-1.2-6.3-4c-1.3-2.9-3-5.8-4.4-8.6C373.5,610.8,374.1,610.4,374.6,610z"/>
	<path d="M257.5,414.4c3.5,3.4,6.8,6.5,10.1,9.6C263.8,426.6,258.7,422.2,257.5,414.4z"/>
	<path d="M204.6,591.8c0.3,0.9,0.9,2.5,1.4,3.9c1.6,0.7,3.3,1.4,5,2.2c0.1,0-0.3,1.6-0.5,1.6c-2,0.1-4.1,0.4-6-0.2
		c-4.4-1.4-6-9.2-2.6-12.1c1.1-0.9,2.5-1.3,3.9-1.6c0.3-0.1,1.5,1.7,1.3,2.3C206.7,589.2,205.7,590.2,204.6,591.8z"/>
	<path d="M472.3,266.3c0,2,0.2,4-0.1,6c-0.4,2.4-1.2,4.7-1.8,7c-2.6-0.8-5.4-1.1-7.7-2.4c-2.2-1.2-3.7-3.5-5.6-5.2
		c-4.7-4.4-5-6.6-0.9-11.6c3-3.7,5.9-7.4,9-11c1.1-1.2,2.9-1.8,4.4-2.6c0.9,1.6,2.5,3.2,2.6,4.8
		C472.5,256.3,472.2,261.3,472.3,266.3C472.3,266.3,472.3,266.3,472.3,266.3z M468.4,257c-9.6,12.9-9.5,14.6,0,18.1
		C468.4,269.3,468.4,263.6,468.4,257z"/>
	<path d="M481.3,256.6c0.4-2.1,0.4-3.8,1-5.2c0.8-1.8,1.8-3.8,3.3-4.9c1.9-1.4,3.7-0.1,5.1,1.7c2.8,3.9,6.2,7.5,8.5,11.6
		c1,1.8,0.8,5.2-0.3,7.1c-1.7,3.1-4.3,5.9-7.1,8.1c-1.9,1.6-4.8,2-7.2,2.9c-0.6-2.5-1.8-5.1-1.7-7.6
		C482.9,265.4,484.8,260.3,481.3,256.6z M490,272c0.3,0.3,0.7,0.6,1,0.9c1.9-3.2,5.2-6.3,5.3-9.5c0.1-3.8-4.1-5.5-7.4-6.4
		C489.3,262.2,489.6,267.1,490,272z"/>
	<path d="M705.2,342.4c0.3,8.7-7.9,17.6-15.3,17.1c-13.7-1-18.4-5-19.6-18.9c-0.7-8.5,9.8-19.5,17.9-19
		C699.8,322.4,703.9,328.1,705.2,342.4z M697.6,338.4c-1.8-0.6-3.5-1-5.1-1.6c-1.7-0.7-3.3-1.7-5-2.3c-1.6-0.6-3.4-0.9-5.2-1.4
		c0.2,1,0.4,2.5,0.7,4.3c-1.4-0.2-2.4-0.3-3.5-0.4c-0.3,1.3-0.2,3.7-0.9,4c-3.9,1.5-2.6,3.3-0.9,5.5c0.4,0.5,0.6,2,0.3,2.2
		c-3,2.1,0.3,3.9,0.9,4.3c5.2,3,10.8,3.7,16.3,1c4.3-2.2,6-7.5,4-11.7C698.5,340.8,697.9,339.3,697.6,338.4z"/>
	<path d="M181.9,633.4c-0.5,5.6-7.4,8.3-13.3,4.9c-3-1.7-5.6-4.3-8.5-6.3c-2.9-2-2.3-3.8-0.2-5.9c1.1-1,2.2-2,3.1-3.2
		c5.1-7.2,6.1-7.5,12.5-1.7C179,624.4,182.1,628.2,181.9,633.4z M177,633.6c-1.9-1.5-3.7-3.2-5.7-4.5c-0.7-0.5-2.6-0.6-3-0.1
		c-0.7,0.9-1.2,2.5-0.9,3.5C168.8,636.4,173.9,637,177,633.6z"/>
	<path d="M587.9,147.4c-9.3,0-18.3-6.7-19.6-14.2c-0.7-4.1,0.7-5.9,4.8-5.3c9.3,1.4,18.6,3,27.8,4.6c3.3,0.6,4.2,4.9,1.8,8
		C598.7,145.4,593.7,148.1,587.9,147.4z M598.1,137.7c-3.2,0.4-6.4,0.8-9.6,1.3c-0.1-1-0.3-1.9-0.2-1.6c-2.7-0.2-5.2-0.3-8.2-0.5
		c-0.5,0.6-1.5,1.9-2.6,3.2C587.3,146.7,596.2,145.7,598.1,137.7z"/>
	<path d="M568.2,121.4c1.4-7.3,5.1-11.6,11.5-12.5c2.8-0.4,6.3,0.3,8.8,1.7c5.1,2.9,10.7,5.5,13.1,11.7c1.2,2.9,0.3,4.2-2.6,4.2
		c-3.8-0.1-7.5-0.4-11.2-1C581.3,124.2,574.9,122.7,568.2,121.4z M577.3,117.4c-0.1,0.6-0.2,1.1-0.2,1.7c6.6,3.1,16.6,4.1,21,1.3
		C590.5,119.3,583.9,118.4,577.3,117.4z"/>
	<path d="M349.3,716.9c0-10.4-0.1-20,0.2-29.5c0-1.4,2.2-3.8,3.5-3.8c7.2-0.3,14.6-1.3,21.5,2.4c3.7,2,6,10.2,5.7,14.4
		c-0.6,8.2-5.7,12.7-12.2,14.8C362.2,716.9,355.8,716.4,349.3,716.9z M361.8,690.6c-2.2,5.4-5.6,2.8-7.6,2.2c0,6.6,0,13,0,19.5
		c10.1,1.5,19.7-2.6,21.9-13c-4.3-2.2-8.6-4.4-13-6.6c-0.2,0.4-0.5,0.9-0.7,1.3C362.3,693.1,362.2,692.1,361.8,690.6z"/>
	<path d="M221.1,652.4c9-0.1,20.8,10.2,21,18.4c0.1,6.6-10.2,15.9-17.9,16.2c-8.5,0.3-18.5-10-18.8-19.4
		C205,659.7,212.4,652.5,221.1,652.4z M234.8,671.2c-1.4-2.5-2.2-5.7-4.3-7.3c-5.1-3.7-10.9-3.7-14,0.1c-2.4,3-4,6.8-1.4,10.8
		c-1,0.4-2,0.8-3.2,1.4c5,6.3,11,7.5,17.8,5.1c4.9-1.7,5.9-6.5,7.4-10.8c0.1-0.2-0.3-0.4-0.5-0.8
		C235.7,670.5,234.7,671.3,234.8,671.2z"/>
	<path d="M38.3,469.9c1-5.8,4.7-11.7,9.2-13.3c7.2-2.6,13.9-1.2,17.8,4.4c2.8,4.1,4.6,8.8,7,13.1c1.9,3.5-0.7,5.2-2.9,6
		c-7.6,3-15.3,5.6-23,8c-0.9,0.3-3.3-1-3.6-2C41,480.8,39.7,475.4,38.3,469.9z M48.3,467.2c-1.2,3.1-2.8,6-3.3,9.2
		c-0.4,2.2,0.4,4.6,0.9,6.8c0.1,0.4,1.8,0.7,2.5,0.5c5.4-1.7,10.8-3.3,16.1-5.3c2.1-0.8,4.6-1.8,3.1-5.6
		c-1.9-4.9-10.2-10.5-15.4-9.4c-2.1,0.4-4.3,0.5-6.5,0.7C46.4,465,47.4,466,48.3,467.2z"/>
</g>
</svg>
