<?xml version="1.0" encoding="utf-8"?>
<!-- Generator: Adobe Illustrator 19.0.0, SVG Export Plug-In . SVG Version: 6.00 Build 0)  -->
<svg version="1.1" id="Layer_1" xmlns="http://www.w3.org/2000/svg" xmlns:xlink="http://www.w3.org/1999/xlink" x="0px" y="0px"
	 viewBox="0 0 15.32082 6.2512" xml:space="preserve">
<path id="XMLID_71_" style="fill:#FFFFFF;" d="M10.43169,1.23881c-0.27036-0.83866-1.10934-1.35648-1.99952-1.21586
	c-0.69406,0.10918-1.25778,0.62617-1.44313,1.2931c-0.18453-0.66693-0.74792-1.18393-1.44226-1.2931
	c-0.44082-0.0696-0.86497,0.02712-1.21619,0.24083C4.27604,0.29646,4.22332,0.33177,4.17251,0.3699
	C4.16009,0.37941,4.14692,0.38774,4.13475,0.39759c-0.26685,0.21129-0.4751,0.4976-0.58588,0.84122
	c-0.07231,0-0.71524,0.02899-0.71524,0.02899v0.25095c0,0.0403,0.00108,0.07823,0.00334,0.11502
	C2.83991,1.68326,2.8467,1.73044,2.85445,1.77697L2.85352,1.77721C2.854,1.78012,2.855,1.78271,2.8555,1.78562
	c0.00625,0.03596,0.01538,0.07,0.02448,0.10412c0.00484,0.01819,0.00863,0.03702,0.01427,0.0547
	c0.00966,0.0302,0.0219,0.05861,0.03386,0.08724c0.00837,0.02012,0.01592,0.04079,0.02541,0.06014
	c0.01139,0.02308,0.02493,0.04457,0.03792,0.06649c0.01352,0.02297,0.02661,0.0462,0.04184,0.06789
	C3.04468,2.24233,3.05774,2.25715,3.0701,2.27255C3.09018,2.29776,3.11044,2.3228,3.13302,2.34602
	c0.01018,0.01039,0.02154,0.01981,0.03221,0.0298c0.02746,0.02584,0.05568,0.05099,0.0864,0.07406
	C3.26023,2.4563,3.26964,2.462,3.27849,2.4682c0.03482,0.02455,0.07095,0.04786,0.10963,0.06892
	c0.00743,0.00404,0.01545,0.0075,0.02302,0.01139c0.04124,0.0213,0.08403,0.04108,0.12942,0.05846
	c0.0023,0.00088,0.00426,0.00211,0.00657,0.00298L3.54784,2.6095c0.03848,0.01449,0.07677,0.02919,0.11814,0.04079
	c0.01009,0.00283,0.12731-0.0907,0.2518-0.16408c0.12895-0.076,0.26516-0.13198,0.26516-0.13198
	C4.09059,2.2565,3.98605,2.22109,3.86181,2.19089C3.8566,2.18954,3.85183,2.18712,3.84659,2.18588
	C3.55818,2.11762,3.39717,1.96884,3.34713,1.72128C3.40139,1.727,3.45368,1.73053,3.50354,1.73179
	c0.15094,0.00419,0.27992-0.01201,0.37262-0.04954l0.08563-0.03466L3.9781,1.55787c0.0072-0.03855,0.01836-0.07515,0.02872-0.11214
	c0.00689-0.02455,0.01309-0.04939,0.0213-0.07324c0.01493-0.04337,0.03181-0.0856,0.05096-0.12643
	c0.00765-0.01641,0.01665-0.03188,0.02495-0.04788c0.0442-0.08477,0.09602-0.16424,0.15666-0.2358
	c0.00188-0.00221,0.00356-0.00459,0.00545-0.0068c0.14173-0.16494,0.3235-0.29198,0.52787-0.37011
	C4.79368,0.58513,4.79335,0.58482,4.79335,0.58482c0.2082-0.07949,0.4385-0.11136,0.67648-0.07397
	c0.55729,0.08814,0.99899,0.53909,1.07746,1.09909c0.03597,0.45315-0.26371,0.86223-0.48473,1.09099
	C5.13757,2.67816,4.74364,3.45107,4.74364,3.45107l0.06047,0.0826C4.88362,3.61727,4.9764,3.6815,5.08955,3.7131
	c0.1305-0.27119,0.37926-0.46081,0.74016-0.56479c0.15599-0.04487,0.3079-0.05609,0.45471-0.04691
	c0.0019-0.0005,0.00985-0.00773,0.01483-0.01164c0,0-0.00047,0.00153-0.00042,0.0016c0.0009-0.00128,0.00198-0.0023,0.00289-0.00354
	c0.02363-0.01922,0.07043-0.06556,0.12852-0.13067c0.06968-0.06762,0.1619-0.16975,0.29303-0.3837
	C6.96014,2.187,6.98941,1.78562,6.98941,1.78562s0.00692,0.20886,0.07695,0.44769c0.07001,0.23881,0.21483,0.35154,0.21483,0.35154
	c0.12094-0.04344,0.21914-0.06464,0.33266-0.06967c0,0-0.06729-0.14681-0.08462-0.18453
	C7.43136,2.11045,7.3967,1.86473,7.4283,1.62007c0.07544-0.56481,0.51892-1.02053,1.08067-1.10922
	c0.70754-0.11113,1.36511,0.34866,1.49561,1.04702l0.01631,0.08972l0.08565,0.03466c0.12335,0.04996,0.31094,0.0622,0.52912,0.03875
	c-0.04996,0.24773-0.21104,0.39659-0.49956,0.46489c-0.45571,0.10705-0.81865,0.54952-0.82579,0.8574L9.30725,3.16767
	l0.11826,0.03875c0.53933,0.17535,0.90124,0.67388,0.90124,1.24175c0,0.60558-0.43125,1.13166-1.04907,1.27948
	C9.17369,5.75211,8.77609,5.75211,8.51407,5.75211L5.38521,5.75313C5.28258,5.75921,4.49332,5.79249,4.03353,5.34374
	c-0.0289-0.02712-0.05219-0.05703-0.07801-0.0857c-0.04696-0.05724-0.0905-0.11897-0.12608-0.19
	C3.44611,4.30034,3.81824,3.64581,4.06699,3.3308c0.11418,0.28954,0.33644,0.70651,0.70651,0.82376
	C5.2119,4.2932,5.72675,4.14945,6.34559,3.71719l0.06932-0.04996c0.38232-0.27018,1.02258-0.72386,1.73316-0.51894
	c0.36906,0.10604,0.62088,0.30076,0.74832,0.57909c0.13253,0.28852,0.10296,0.61067,0.01528,0.80234
	C8.76182,4.85801,8.40804,5.29028,7.08982,5.28518c-0.72996-0.00511-1.34063-0.2926-1.71276-0.523
	C5.67578,4.72445,6.05911,4.61843,6.4088,4.35234l0.16311-0.12336c0.51894-0.3976,0.77686-0.59948,1.12554-0.58623
	C7.94009,3.6448,8.17865,3.7284,8.35707,3.94351c0.1774,0.2141,0.28648,0.42208,0.28648,0.42208s0.05506-0.1458,0.03773-0.3079
	C8.66393,3.8956,8.5936,3.79568,8.58136,3.77836C8.38153,3.48677,8.05225,3.31142,7.69745,3.30836
	C7.24377,3.29612,6.93283,3.53164,6.36904,3.96289l-0.1621,0.12336c-0.58215,0.44245-1.30395,0.35478-1.3111,0.35376L4.3647,4.36864
	l0.39659,0.36092c0.03975,0.03567,0.9828,0.88085,2.32649,0.89003C8.22454,5.62672,8.91984,5.31576,9.2155,4.66837
	C9.32662,4.42676,9.38982,3.99858,9.2002,3.5877C9.08295,3.33282,8.82094,2.99333,8.24084,2.82716
	C8.08384,2.78229,7.92989,2.76293,7.78105,2.76293C7.11327,2.76394,6.55254,3.16155,6.22222,3.39502l-0.0683,0.04791
	C5.62582,3.812,5.2068,3.94045,4.87444,3.83545c-0.31706-0.10093-0.523-0.66166-0.57601-0.86964
	C4.28828,2.92975,4.28269,2.89266,4.27684,2.85565C4.27251,2.82406,4.26872,2.79368,4.26604,2.76629
	C4.2633,2.73195,4.26002,2.69771,4.25968,2.66301L4.25863,2.664c-0.00301-0.06295-0.002-0.10175-0.002-0.10175
	C4.12327,2.59644,4.01745,2.6641,3.91226,2.7695c-0.08126,0.0772-1.1968,1.17475-0.52433,2.5196
	C3.8209,6.15747,4.83621,6.2512,5.25265,6.2512c0.06982,0,0.12428-0.0022,0.14788-0.00406h3.11353
	c0.41919,0,0.72748-0.00281,0.87809-0.03903c0.84117-0.20078,1.42856-0.92446,1.42856-1.75992
	c0-0.65261-0.35139-1.24804-0.90949-1.565c0.07954-0.09107,0.1972-0.18332,0.33815-0.21675
	c0.54478-0.12904,0.86236-0.49586,0.89422-1.03267c0.00226-0.03679,0.00334-0.07472,0.00334-0.11502V1.2678
	C11.14693,1.2678,10.504,1.23881,10.43169,1.23881z"/>
<circle id="XMLID_70_" style="fill:#FFFFFF;" cx="9.18625" cy="1.44398" r="0.23619"/>
<circle id="XMLID_69_" style="fill:#FFFFFF;" cx="4.72803" cy="1.44398" r="0.23619"/>
<path id="XMLID_67_" style="fill:#FFFFFF;" d="M0.60216,4.1652L0,3.40126l0.59045-0.77033l0.65471,0.00319L0.61387,3.40419
	L1.20418,4.1652H0.60216z"/>
<path id="XMLID_65_" style="fill:#FFFFFF;" d="M13.32872,2.32414h0.54737L13.09574,4.472h-0.53923L13.32872,2.32414z"/>
<path id="XMLID_63_" style="fill:#FFFFFF;" d="M14.70696,3.40419l-0.63129-0.77006l0.65471-0.00319l0.59045,0.77032L14.71867,4.1652
	h-0.60203L14.70696,3.40419z"/>
</svg>
